<?xml version="1.0" encoding="UTF-8"?>
<svg enable-background="new 0 0 416.663 353.65" viewBox="0 0 416.663 353.65" xmlns="http://www.w3.org/2000/svg">
 <path d="m196.104,349.754c-6.528,1.509-11.221.311-17.635,2.879-4.114,1.647-8.18.896-12.596.48-12.52-1.18-26.539-.24-39.829-.24-3.318,0-24.019-6.91-24.233-8.876-.702-6.452 20.125-8.77 19.674-19.431-.141-3.322-4.783-1.185-4.319-4.558 .373-2.706 4.311-4.388 6.478-5.038 7.731-2.319 16.757,4.672 24.473,5.998 6.765,1.162 13.784-.271 18.715-.96 7.265-1.014 11.711,4.869 17.274-2.879 4.067-5.664 13.697-28.094 9.118-32.145-3.94-3.486-21.633-1.411-27.593-2.399-24.17-4.008-47.602-11.377-69.82-21.59-10.766-4.948-21.157-11.226-29.511-19.91-10.644-11.064-22.704-19.091-31.911-30.705-11.17-14.09-18.93-27.234-20.634-46.059-1.914-21.133 3.142-41.67 18.714-56.613 6.407-6.148 14.304-13.042 21.954-17.632 3.699-2.219 11.894-6.448 12.356-11.395 .959-10.261-18.195-11.309-24.953-11.515-10.7-.326-21.259,1.719-32.391,3.119-16.631,2.091-7.548-9.394-.96-16.072 18.139-18.385 31.406-54.365 62.145-54.213 24.995.124 49.195,21.401 52.424,47.257 1.436,11.495-.08,22.367-3.479,33.344-1.593,5.146-3.474,10.63-5.279,15.593-2.638,7.251-9.445,15.592 1.08,15.592 26.914,0 53.064.445 81.697,2.159 28.143,1.685 55.708,13.325 81.816,22.789 7.765,2.814 16.149,9.116 25.192,9.116 12.796,0 26.669.557 39.349-1.559 7.739-1.292 22.503-2.757 29.991-.36 16.408,5.252-11.723,15.195-18.115,17.751-19.087,7.633 15.884,9.271 21.475,12.714 11.802,7.267-11.422,2.274-15.355,3.118 2.623,2.058 2.667,6.05 4.678,6.598 5.905,1.607 12.32,2.653 18.235,3.838 3.116.624 33.92,3.584 32.271,8.276-1.057,3.008-22.641,5.618-26.393,6.717-6.64,1.944-12.995,4.371-18.954,7.196-7.355,3.487-16.854,2.725-23.993,5.758-9.565,4.063-18.869,12.094-28.072,18.23-6.675,4.452-15.605,5.704-23.033,8.637-8.199,3.237-15.204,8.879-22.838,12.313-14.826,6.671-25.377,14.332-39.904,20.79-4.131,1.837-11.88,4.089-14.275,7.438-1.229,1.718-2.989,8.917-4.079,11.514-2.955,7.044-10.402,19.344-9.837,26.867 .491,6.54 12.305,18.887 2.159,22.07-3.439,1.079-4.833-2.87-7.918-.96-.964.597.485,4.763-2.159,6.478-.273.177-.884.379-1.2.48" fill-rule="evenodd"/>
 <path d="m195.144,346.876c-2.889.644-5.683-.351-8.638,0-4.312.512-8.348,3.498-12.236,4.078-2.842.424-9.068-1.793-12.716-1.679-15.032.47-34.083,3.716-47.027-2.879-4.137-2.107-9.544-4.222-2.399-6.478 4.922-1.554 10.561,2.254 16.795,2.64 11.069.685 25.009.806 35.51-1.439 7.397-1.582 12.241-5.177 2.879-6.957-7.604-1.446-15.058-.12-22.793-2.398-2.772-.816-16.353-9.856-17.275-5.998-.468,1.958 12.875,7.979 15.355,8.637 6.97,1.849 13.529,3.548 20.634,3.118v.479c-7.958,2.61-19.022,1.319-28.071,1.199-3.885-.052-8.122.991-11.757-.719-6.11-2.874-3.702-.806-1.919-6.478 1.713-5.449 4.804-7.284.959-13.434 8.899-5.113 15.07,5.028 21.834,7.916 6.049,2.582 19.669,3.886 26.632,3.358 16.261-1.23 21.715-20.973 25.433-36.702 1.627-6.882 3.441-27.9 15.836-22.31 .561.253 1.17-.221 1.68-.24-2.162,6.17 4.032,13.033.479,19.191-5.947,10.309-5.758-2.767-7.678-6.237-4.462,2.076-1.986,8.957-.479,11.994 1.157,2.332 3.073.097 3.599,3.358 .654,4.065-4.054,7.551-5.278,11.035-.864,2.457-2.685,9.907-2.64,11.274 .168,5.144 7.315,11.833 6.479,16.313-.766,4.103-4.684,3.591-7.438.479-3.182-3.596.618-14.129-2.88-12.475-8.32,3.937 3.381,16.468-2.88,21.354" fill="#ff7f00" fill-rule="evenodd"/>
 <path d="m181.71 344.96c-6.503-1.826 3.158-6.511 0 0" fill-rule="evenodd"/>
 <path d="m185.79 343.04c-1.456-0.772-2.506-1.756-2.879-3.357 5.115-3.024 7.739-0.354 2.879 3.357" fill-rule="evenodd"/>
 <path d="m177.15 346.4c-7.592-2.717 2.725-6.144 0 0" fill-rule="evenodd"/>
 <path d="m186.026,332.963c-4.814.924-2.916-3.438-.48-4.559 4.21-1.938 2.86,3.355.48,4.559" fill-rule="evenodd"/>
 <path d="m190.1 327.92c-6.241-3.812 4.917-5.879 0 0" fill-rule="evenodd"/>
 <path d="m193.22 320.97c-4.99-4.054 3.767-4.658 0 0" fill-rule="evenodd"/>
 <path d="m175.229,326.006c-5.995,1.485-17.169,1.48-21.594-1.439 4.93-.752 11.7.996 15.115.24 2.227-.493-.58-3.539 3.359-2.879 2.551.426 3.693,2.416 3.12,4.078" fill="#963" fill-rule="evenodd"/>
 <path d="m196.58 316.65c-8.348-2.58 3.437-6.522 0 0" fill-rule="evenodd"/>
 <path d="m199.223,310.893c-2.561-1.174-5.266-5.182 0-4.558-1.213-2.272.345-10.29 3.119-8.396 3.948,2.696-.307,9.089-2.399,8.636 .088.335-.251.308-.48.239 1.346,2.34.065,2.783-.24,4.079" fill-rule="evenodd"/>
 <path d="m220.097,278.508c-2.62.482-3.107-1.192-2.399-4.317 .979-4.315 2.564-1.906 4.799-4.078 .906-.881-.307-2.713.239-3.118 .462-.344 3.273-.424 3.6-.96 1.219-2 3.486-1.772.959-4.317 3.784-2.117 19.978-9.083 18.955-14.154-1.138-5.642-7.289.724-3.839-5.037 3.397-5.673 6.205-1.501 4.559-7.197-.451-1.563-3.179-.728-3.599-2.639-.068-.311 2.157-2.655 2.398-3.838 .839-4.114.376-5.854-.479-9.835-1.443-6.715-2.113-2.954 2.159-5.038 1.416-.69 3.485-.191 4.799-.479 1.7-.373-.19-2.858 3.119-3.118 4.711-.37 10.897,7.561 13.437,7.196 5.169-.742.189-6.083.239-9.355 .079-5.162 1.289-1.744 5.519.72 6.117,3.563 4.295,3.373 6.718-.24 1.019-1.519-3.208-3.408-.239-4.078 1.985-.448 2.795,2.627 4.318,3.359 6.818,3.277 2.509,2.559 5.039-2.64 1.263-2.595-2.449-3.471 1.199-3.599 1.178-.041 4.568,3.987 5.519,4.559 4.399,2.645 11.337,3.785 16.315,4.318 8.275.886 21.789-.37 28.552,3.838-5.81,4.942-13.951,11.14-22.313,16.072-10.554,6.226-22.575,8.36-34.07,13.913-23.569,11.383-40.328,22.944-65.503,34.062" fill="#ffc" fill-rule="evenodd"/>
 <path d="m404.363,195.748c-11.075,2.227-25.602-3.277-35.75.239 6.981.875 14.304,1.046 20.395,2.879v.479c-5.257,1.27-34.63,1.321-35.75-1.68-.393,1.556-2.234,2.5-5.278,2.639 .08.24 0,.32-.24.24 2.331.683 5.874,1.002 8.398,1.199-3.558,1.329-10.118,1.473-14.636,2.16 8.981,2.135 19.429.779 27.592,2.158v.48c-7.065,1.785-18.466-3.261-24.713.239 6.104,1.192 11.866,2.252 17.515,3.358-.018.01-.571.263-.24.48-9.288,2.14-21.376-.922-30.951-1.92-4.51-.47-10.337.27-14.396-.959-7.587-2.297-2.025-.576 1.68-2.639 4.165-2.318 6.714-3.529 13.676-5.518 6.01-1.716 5.037-3.775 8.638-5.998 3.118-1.925 8.247-.669 11.517-2.639 4.223-2.544 1.241-4.717 6.479-5.517 7.077-1.081 18.673,4.069 24.713,5.277 4.2.84 22.757,2.83 21.833,4.798-.021.045-.435.198-.482.245" fill="#d59758" fill-rule="evenodd"/>
 <path d="m193.704,281.387c-21.94,1.583-41.832-5.851-62.622-10.314-19.046-4.09-36.257-12.854-51.345-22.789-16.62-10.943-33.888-28.423-47.746-44.859-14.896-17.668-17.972-38.554-14.156-60.211 5.243-29.759 26.918-36.994 46.787-56.853 10.171-10.166 3.243-14.152-6.838-19.91-2.645-1.511-17.979-1.525-18.595-2.639-1.601-2.897 5.275-4.866 5.519-7.437 .428-4.524-5.876-7.007-7.438-10.915-1.839-4.603-3.821-10.606-3.359-14.993 1.386-13.154 16.562-19.794 27.832-25.428 9.734-4.866 24.797-.21 33.83,5.277 10.926,6.638 11.738,16.62 13.676,25.668 2.166,10.114 4.747,13.377 3.359,24.229-.24-.08-.32,0-.24.24-3.418-1.92-3.55,5.8-5.278,8.396-.428-.239-.435-.788-.72-.959-2.066,1.994-3.012,6.31-5.758,8.636-.309-.271-.246-1.171-.48-1.439-3.396,3.49-3.704,9.808-7.198,13.673 .347-2.272.647-5.521.24-7.676-3.346,3.495-3.943,10.707-6.238,15.592-1.813,3.861-1.475,7.14-4.079,4.078-1.727-2.031 3.391-9.819-.96-4.078-2.507,3.308-2.934,7.916-5.758,11.035-5.52,6.096-33.929,33.729-24.713,41.26 1.359,1.11 6.857.621 8.638.72-3.472,5.352 2.022,3.985 2.879,6.957 .561,1.945-3.51,2.451-.24,5.997 1.887,2.046 5.941.941 8.158,2.399 .305.2 1.757,5.016 1.919,5.278 .406.657 2.826-1.244 3.359-.24 .329.62-1.163,2.259-.72,2.879 1.266,1.769 1.867,4.333 3.359,6.237 4.034,5.15 11.057,10.964 16.795,11.994 5.009.899 7.84-1.27 12.956-1.679 3.506-.28 7.128,1.456 11.997.239 5.259-1.313 9.567-2.745 13.436-.719 1.667.873 1.501,4.061 3.359,5.277 3.343,2.188 8.87.687 12.716,1.439 8.398,1.645 16.345,2.878 25.313,2.878 5.469,0 9.435,3.22 14.036,3.599 2.413.199 5.324-2.138 7.438-2.159 .827-.009 3.894,2.096 5.519,2.159 10.37.405 24.592-3.244 33.83,4.797 4.285,3.729 7.583,16.135 6.479,19.911-.524,1.793-4.513,4.138-4.319,5.997 .257,2.468 5.549,3.532 5.519,4.559-.092,3.083-7.467,2.779-8.397,5.996-1.359,4.697 4.013,2.116 4.318,4.318-.086-.62 2.056,1.072 1.68.959-7.161,4.087-11.539,9.341-17.995,13.194 .191-.114-4.034,1.431-4.318,1.679-.732.642-1.695,4.324-1.68,4.318-4.605,1.642-10.738-.829-15.596-.24-.954.115-3.358,2.16-3.358,2.16-4.713-.165-16.651-8.622-18.475-2.64-3.621-1.977-7.515.676-11.517,0-3.82-.645-6.277-2.938-9.357-2.639 1.557-.151-2.394,3.041-4.319,3.358-6.259,1.032-12.095-5.245-17.755-6.236-7.172-1.257-4.533.296.24,3.118 5.541,3.275 12.658,4.723 18.954,5.277 6.766.596 16.856.521 21.114.479 8.371-.081 28.589-2.453 16.313,10.796" fill="#e4bc96" fill-rule="evenodd"/>
 <path d="m334.063,195.748c-13.181,3.689-22.315,4.117-29.512-5.038 7.734,3.042 3.816-2.707 1.439-6.717 9.888-5.783 14.983-8.512 26.633-7.437 7.291.673 19.84-2.21 23.273,2.398 .461.619 1.997,1.341 2.639,1.92-6.865,2.837-6.944,5.516-10.557,7.676-6.795,4.066-11.69.97-13.915,7.198" fill="#8b5c29" fill-rule="evenodd"/>
 <path d="m305.27 206.78c-4.021-2.49-9.303-4.981-14.396-9.835-3.497-3.333-5.785-7.584-9.117-11.755 9.489-1.702 22.664 11.311 31.19 16.552-2.935 1.389-4.358 3.914-7.677 5.038" fill="#d59758" fill-rule="evenodd"/>
 <path d="m285.117,202.944c-1.431-.599-26.568-18.069-27.352-13.194-.795,4.95 19.962,5.498 17.515,14.873-.239-.08-.319,0-.239.24-4.146-2.417-17.756-11.509-17.516-5.997 .012.275 7.03,9.583 8.158,11.515-4.63-.572-11.706-3.341-15.596-4.798-2.793-1.046-11.13-5.917-6.238,1.438-.24-.08-.32,0-.24.24-5.995-1.994-12.578-4.17-19.555-6.957-9.139-3.65-11.349-1.327-16.915-.959-2.565.17-4.563-.676-6.958-.959-1.243-.146-1.596-2.354-2.879-2.399-1.481-.053-2.795,1.974-4.318,1.919-8.911-.318-20.512-1.052-29.752-2.158-5.094-.61-9.047-1.217-15.355-2.16-2.588-.387-7.237-.142-9.357-1.679-1.565-1.135.157-3.895-2.159-5.517-7.145-5.003-27.638,2.784-37.189,2.639-6.136-.094-11.883-3.812-15.835-8.396-3.483-4.041-5.059-6.663-3.839-11.275 5.827-3.738 11.232.182 18.234,1.919 6.192,1.537 13.847,1.641 19.674.24 4.543-1.092 7.08-2.273 11.277-3.598 4.703-1.484 8.507-4.693 12.956-5.518 4.397-.815 11.426.234 16.556-.24 7.51-.693 16.407.865 25.433,0 8.382-.804 10.594-2.939 17.275-5.278 4.66-1.631 22.705-3.207 21.833-4.797-1.762-3.213-8.157-.934-10.557-3.838 7.101-1.016 14.988-1.967 20.874-2.639 6.475-.739 8.347-3.537 13.676-4.798 11.364-2.688 24.162,7.116 32.631,14.393 3.203,2.752 7.938,6.729 9.837,9.596 2.725,4.115.975,8.384 1.439,9.116 1.611,2.535 10.337,3.696 10.077,11.274-5.59-2.525-15.29-3.256-21.833-5.038-7.066-1.925-13.739-3.858-20.635-6.236-6.505-2.243-17.339-9.272-23.033-9.355-7.605-.111-1.879,1.899 1.92,3.598 9.831,4.398 57.393,17.536 47.985,34.783" fill="#8b5c29" fill-rule="evenodd"/>
 <path d="m349.9 172.24c-2.539 0.306-20.188 4.864-17.275-1.2 3.009-6.267 17.364-1.372 17.275 1.2" fill="#d59758" fill-rule="evenodd"/>
 <path d="m309.83 178c-1.46 0.96-3.27 1.485-5.278 1.919 0.087-6.341 12.479-12.49 15.836-17.751 5.006-7.848-0.544-7.524-4.559-13.194 5.851-1.67 20.464 3.893 19.435 8.156-1.462 6.054-20.462 18.151-25.434 20.87" fill="#8b5c29" fill-rule="evenodd"/>
 <path d="m351.34 160c-3.918-0.58 3.289-3.826 3.358-6.477 0.087-3.347-3.591-4.137-5.998-5.997 6.768-1.414 19.082-2.089 25.673 0v0.48c-6.297 4.475-15.184 7.639-23.033 11.994" fill="#5a3d1c" fill-rule="evenodd"/>
 <path d="m335.503,166.001c-2.346,1.073-4.501,1.698-6.478,2.639 .153-.249.021-.5-.24-.48 3.161-2.868 11.106-7.986 11.757-11.515 .851-4.61-3.9-4.748-7.438-7.676 6.87-2.891 11.106,1.868 16.315,4.078-2.158,4.565-10.178,11.682-13.916,12.954" fill="#e4bc96" fill-rule="evenodd"/>
 <path d="m300.474,176.316c-1.098-.887-2.063-2.674-2.64-4.078 4.322-3.231 13.535-7.118 11.996-12.474-1.03-3.586-9.741-8.085-11.517-10.795 6.72.47 20.708,2.416 20.154,9.355-.445,5.582-14.495,14.679-17.993,17.992" fill="#e4bc96" fill-rule="evenodd"/>
 <path d="m295.92 168.88c-3.938-5.637-12.841-13.1-16.556-19.431 8.42-4.695 14.323 1.611 20.634 5.997 6.165 4.285 7.192 3.822 3.359 8.636-1.713 2.153-5.082 3.922-7.437 4.798" fill="#d59758" fill-rule="evenodd"/>
 <path d="m218.657,196.707c-4.269.308-7.609-2.558-10.317-2.879-1.865-.221-9.616,4.527-3.839-.959 3.92-3.723 15.239,1.857 14.156,3.838" fill-rule="evenodd"/>
 <path d="m233.053,189.75c-3.178.589-18.521-1.559-18.715-2.158-2.464-7.647 16.15.464 20.154,1.439-.539.148-1.045.41-1.439.719" fill-rule="evenodd"/>
 <path d="m234.732,183.993c-3.603.081-14.69-1.287-14.636-4.798 .044-2.768 13.748,3.058 16.315,4.078-.705.194-1.097.434-1.679.72" fill-rule="evenodd"/>
 <path d="m240.49,175.598c-5.145-.642-17.756-.059-11.517-4.798 3.288-2.498 8.243,1.278 13.437,3.358v.48c-.654.32-1.135.526-1.92.96" fill-rule="evenodd"/>
 <path d="m287.757,145.131c-3.938-.168-8.845,1.554-11.996,1.2-4.398-.495-8.485-3.771-13.437-5.997-11.411-5.13-24.58-9.896-35.51-13.674-5.373-1.857-15.402-4.746-21.354-2.878 1.741,2.482 8.254,2.251 11.996,3.119 6.051,1.402 11.827,4.384 17.515,6.477 1.728.635 9.582,2.124 9.838,4.078 .056.426-7.504,4.789-8.638,5.038-3.456.757-6.354-.377-10.077,0-3.602.365-7.395,2.222-11.276,2.399-10.04.458-16.957-.517-6.238,6.717-8.41,4.065-18.898,7.639-29.271,8.396-6.26.457-10.451-1.023-15.356-1.439-4.791-.406-6.306,1.795-10.797,2.398-4.515.606-7.609-2.207-11.276-1.679-4.041.581-7.167,4.465-10.557,5.518-6.897,2.142-13.752,4.444-21.594,4.558-13.986.203-21.35-6.192-35.03-2.639-.465-2.977 2.429-3.88 5.039-5.038-.24.08-.32,0-.24-.24-3.58-.226-8.217,1.439-11.757,0-6.035-2.454.708-2.092.24-5.997-.403-3.367-9.246-1.82-1.439-5.757 5.625-2.837 13.748-1.238 4.319-2.159-9.066-.886-21.066.669-14.876-10.555 4.219-7.649 14.803-11.287 23.514-13.914 12.928-3.899 23.992-8.787 37.909-8.636-2.398,6.712 13.312-2.41 18.235-1.679 1.547.229 2.077,2.724 4.079,3.118 1.51.298 4.158-.663 5.998-.72 4.764-.146 9.067.612 13.676.96 14.697,1.108 30.937.459 46.067,1.679 11.208.903 19.339,3.577 29.751,6.717 11.979,3.613 22.571,7.699 33.11,11.514 4.462,1.616 21.695,6.883 19.433,9.115" fill="#5a3d1c" fill-rule="evenodd"/>
 <path d="m110.688,151.129c-.955-.452-1.536-.278-1.68-1.439 4.008-1.884 7.516-3.654 11.757-4.078-1.612,2.687-6.514,4.077-10.077,5.517" fill-rule="evenodd"/>
 <path d="m97.972,155.447c-1.288.075-1.669.202-2.879-.24 4.398-3.057 8.775-7.105 13.676-7.676-2.073,2.802-7.192,5.365-10.797,7.916" fill-rule="evenodd"/>
 <path d="m104.45,112.507c-11.824,1.144-27.213,7.902-39.109,12.234 .839-3.155 2.884-7.938 5.279-9.835 5.99-4.747 3.372,2.416 5.278,1.919 3.746-.975 3.698-8.449 5.758-10.555 2.761-2.822 4.81-.592 7.438-5.757 7.001-13.758 17.463-21.041 24.473-34.543 1.527-2.941 3.57-8.965 3.599-13.434 .035-5.457-3.502-11.328-1.68-15.353 11.582,15.221 2.014,42.22-4.318,59.012-1.878,4.981-3.37,12.525-6.718,16.312" fill="#d59758" fill-rule="evenodd"/>
 <path d="m89.094,59.492c-5.582,1.8-13.734,4.61-19.915,3.598-4.042-.662-6.387-2.077-9.597-2.878-3.14-.784-7.564-1.717-9.357-4.078-3.873-5.098 9.102,1.669 11.757,2.639 6.037,2.204 12.127,1.427 19.194,1.199-1.819-5.722 2.924-1.237 6.478-2.878-1.376-3.42 4.637-4.327 7.918-5.997 1.111,2.591-4.972,6.692-6.478,8.395" fill-rule="evenodd"/>
 <path d="m97.492,49.177c-14.871.979 10.514-6.323 0,0" fill-rule="evenodd"/>
 <path d="m98.451,44.379c-3.68-1.012-2.137-2.218.96-3.358v-.48c-.822-.606-.916-1.189-1.68-1.919 3.234-2.109 6.004-.881 2.399,1.919 1.889,2.027 1.077,3.253-1.679,3.838" fill-rule="evenodd"/>
 <path d="m99.891 35.983c-1.5-1.043-2.168-2.547-2.399-4.798 2.951-1.839 5.67 3.054 2.399 4.798" fill-rule="evenodd"/>
 <path d="m33.91,64.29c-6.381.538-12.339,1.584-18.715,1.919 .89-3.671 7.428-7.074 11.997-8.396 3.397-.983 5.528-.75 7.438-.48-.506-.071-.5,2.883 3.359,1.2-.047.235-.11.571.24.479-1.164,2.602-2.457,4.182-4.319,5.278" fill="#edb500" fill-rule="evenodd"/>
 <path d="m95.333 29.746c-1.79-3.746 3.209-2.567 0 0" fill-rule="evenodd"/>
 <path d="m38.949,53.735c-11.021-1.42-17.771,4.421-25.673,9.355-8.216,5.13-12.805,3.708-5.998-4.318 5.018-5.917 13.407-15.717 18.954-22.069 3.586-4.106 3.604-4.832 5.759-.96 2.445,4.392 3.748,11.41 5.758,15.353 .612,1.201 1.135,1.65 1.2,2.639" fill="#ffbf00" fill-rule="evenodd"/>
 <path d="m99.171 25.428c-9.379-3.443 3.536-6.513 0 0" fill-rule="evenodd"/>
 <path d="m92.693,22.55c-2.446.011-7.896-3.135-5.518-5.038 1.028-.823 5.628,3.228 7.198,4.078-.58.73-.973.559-1.68.96" fill-rule="evenodd"/>
 <path d="m21.194,50.137c-2.232-2 1.721-4.939 4.559-5.997 .215,2.626-1.973,4.352-4.559,5.997" fill-rule="evenodd"/>
 <path d="m83.096,19.671c-8.165-1.023-7.784-6.232 1.2-1.199-.348.466-.848.763-1.2,1.199" fill-rule="evenodd"/>
 <path d="m52.145,32.385c-9.917.251-11.163-9.021-3.599-12.954 1.176-.611 12.369-3.12 13.676-2.399 2.267,1.251-2.729,5.773-4.319,7.917-2.238,3.017-2.744,5.901-5.758,7.436" fill-rule="evenodd"/>
 <path d="m50.225,29.986c-5.506-.556-3.176-8.617 1.919-8.396 6.266.272 1.15,7.449-1.919,8.396" fill="#fff" fill-rule="evenodd"/>
 <path d="m73.019,17.032c-6.355,1.447-7.138-2.781-10.557-5.038 2.585-.607 6.274-.051 9.357.48-.938,1.978.46,3.028 2.64,3.838-.384.353-.896.306-1.44.72" fill-rule="evenodd"/>
 <path d="m50.225,27.827c-4.926-.595-4.843-7.626 0-7.676 5.355-.055 5.017,7.009 0,7.676" fill-rule="evenodd"/>
 <path d="m52.145 24.708c-2.999-3.414 2.736-3.91 0 0" fill="#fff" fill-rule="evenodd"/>
</svg>
