<?xml version="1.0" encoding="UTF-8"?>
<svg viewBox="0 0 308.75 272.5" xmlns="http://www.w3.org/2000/svg">
 <g transform="matrix(1.25,0,0,-1.25,0,272.5)">
  <g transform="scale(.24)">
   <path d="m199.09 3.832h786.39-786.39z" fill="#859985"/>
   <path d="m199.09 3.832h786.39v30.703h-786.39v-30.703z" fill="#859985"/>
   <path d="m199.09 34.535h786.39v30.504h-786.39v-30.504z" fill="#8ea396"/>
   <path d="m199.09 65.039h786.39v30.508h-786.39v-30.508z" fill="#97aea9"/>
   <path d="m199.09 95.547h786.39v30.703h-786.39v-30.703z" fill="#a0b9bc"/>
   <path d="m199.09 126.25h786.39v30.504h-786.39v-30.504z" fill="#a9c4d0"/>
   <path d="m199.09 156.75h786.39-786.39z" fill="#a9c4d0"/>
   <path d="m395.84 134.96c-18.824 0-40.617-6.34-56.27-6.34 0-9.309 34.278-15.449 40.618-15.449 0-9.508-15.653-12.481-21.797-15.649v-6.3398c2.972 0 9.312-9.3125 9.312-12.48h9.313v-2.9726c12.484-3.168 56.269-6.336 71.726-6.336v-12.48l6.141-6.1407h103.03c0-18.816 137.3-12.48 155.93-6.3398v3.1719c18.824 9.3086 53.101 6.1406 71.922 15.648 0 2.9688 2.972 9.3086 2.972 12.477 21.993 6.1406 34.477 2.9726 59.442 2.9726 40.617 18.82 74.89 24.961 127.99 24.961v6.336c-3.172 3.172-9.512 6.141-12.484 12.48h-43.786c0 3.168-6.144 9.309-6.144 12.481h-6.34c-15.652-34.27-121.65 9.308-143.64-3.172v-3.168c-2.973 0-6.141 3.168-6.141-2.973l-146.62 6.141c0 18.82-168.41 12.48-180.9 9.312v-2.972c-12.484-3.168-34.277-3.168-34.277-3.168" fill="#e9e9e9"/>
   <path d="m448.74 65.039h337.22c-0.199-0.793-0.199-1.3868-0.199-1.7813-18.821-9.5078-53.098-6.3398-71.922-15.648v-3.1719c-18.625-6.1406-155.93-12.477-155.93 6.3398h-103.03l-6.141 6.1407v8.1211" fill="#7c8f84"/>
   <path d="m785.96 65.039h-337.22v4.3593c-15.457 0-59.242 3.168-71.726 6.336v2.9726h-9.313c0 3.168-6.34 12.48-9.312 12.48v4.3594h536.94c-15.848-3.7656-31.105-9.3125-47.152-16.84-24.965 0-37.449 3.168-59.442-2.9726 0-2.5742-1.98-7.3281-2.773-10.695" fill="#859995"/>
   <path d="m895.33 95.547h-536.94v1.9804c6.144 3.1677 21.797 6.1407 21.797 15.649-5.747 0-34.477 5.148-39.825 13.074h402.6l14.664-0.598v0.598h74.297c26.351-4.559 53.101-7.926 67.168 0h19.219c0.992-1.586 1.585-2.773 1.585-3.766h43.786c2.972-6.339 9.312-9.308 12.484-12.48v-6.336c-31.898 0-57.063-2.18-80.84-8.1211" fill="#8ea4a7"/>
   <path d="m918.31 126.25h-19.219c3.765 1.98 6.539 4.949 8.32 8.715h6.34c0-2.18 2.777-5.746 4.559-8.715zm-86.387 0h-74.297c0.199 5.348 3.168 2.375 6.141 2.375v3.168c10.304 5.945 39.031-0.594 68.156-5.543zm-88.961 0h-402.6c-0.398 0.789-0.793 1.582-0.793 2.375 15.653 0 37.446 6.34 56.27 6.34 0 0 21.793 0 34.277 3.168v2.972c12.481 3.168 180.9 9.508 180.9-9.312l131.95-5.543" fill="#97afba"/>
   <path d="m381.38 882.34 8.719-19.41 9.113-10.301 5.746-33.875-5.746-28.125-11.887-23.574-25.164-21.789 6.141-6.141 29.324 4.359 51.516 4.555 44.183-1.586 29.719-4.555 14.465-5.746 20.605-4.554 73.903-33.872 62.015-42.589 28.137-20.602 11.688-6.141 13.472-11.687 69.149-50.313 47.355-28.128 7.527-7.133 10.305-4.356 32.293-20.801 4.559-1.585 45.765-33.872 55.873-38.429 8.92-10.102-1.59-7.328-16.05-8.719-10.3-2.968 5.75-13.274 13.27-19.41 1.59-7.332-1.59-13.27-13.27-2.972h-36.857l-7.328-10.301-19.023 7.527-14.859-13.273-26.547 16.047-53.301 54.672-14.86 14.855-89.949-1.582-24.965-4.359h-94.507l-2.973-2.774 5.941-12.082-2.968-13.074-2.973-4.555-2.777-2.972 16.05-32.489h1.586l4.16-8.714-1.187-14.856v-2.973l-17.832-10.3-29.324-7.528-13.473-5.742-2.973-28.129-2.972-2.773-2.774-22.383v-44.176l-7.527-66.555-1.191-32.289-13.672-2.7734h-5.742l1.582 47.145 10.304 122.62-1.586 10.3-1.386 1.188-4.36-2.773-10.301-2.973-22.39-14.856-4.16-5.746 4.16-14.855-2.973-17.828-11.492-14.461-10.699-3.168-11.688 1.586h-2.773l-1.586 1.582 10.301 1.387 10.304 11.886-4.558 23.571v1.191h-8.715l-22.192-14.461-10.304-10.301-5.746-19.414-1.188-11.687-4.558-8.914 4.558-16.243 6.934-4.355-11.492-4.559-9.114 1.586-8.715 11.887-8.718 5.742-4.559 11.688 2.973 10.695v20.602l16.246 21.988 17.633 13.273 17.636 8.914h7.329l7.531 2.969 19.019 17.828 29.719 7.328 23.578 13.274-7.527 16.047-23.578 39.812-22.192 7.332-14.859 16.442-7.133 14.656-11.887 13.074-11.89 14.856-23.379 10.3-13.274 1.586-14.859 4.16-13.277 3.168-7.328 5.746h-5.946l-47.156 13.27-20.605 10.301-14.86 2.972-26.351 17.829h-1.782l-1.191-7.528-1.586-1.187-45.965 44.172-52.902 54.472-7.328 16.242-1.586 1.586h-2.973l1.586 7.329-5.746 14.66-4.559 30.902 14.86 47.539 20.605 32.09 35.27 26.941 22.191 8.715 10.301 10.301 20.805 10.301 8.718 10.301-1.386 13.273-20.606 7.328-56.269-1.586-14.864-5.742-20.605-4.559-95.895-30.902-19.02-13.27-17.832-24.96v-6.141l-10.305-4.16-8.914 1.386-2.9726 13.274 9.1133 17.629 8.7187 5.746 4.3594 6.141 11.691 8.714 1.5821 4.555 19.023 10.301 38.438 20.801 37.246 10.3 29.325 8.715 28.136 7.328 41.211 7.528 8.715 7.332 9.117 11.687 21.992 13.469 25.161 17.43 25.164 7.527 32.296-7.527 29.52-14.461zm216.76-522.35l-17.633 2.969-25.164 13.473-7.531-8.914 3.172-2.973v-4.555l-1.586-1.191-8.719-1.582v-1.387l7.133-6.141 19.418-42.589 2.972 2.972 17.633 2.774 21.992 12.082 1.586 10.3-13.273 24.762" fill="#231f20"/>
   <path d="m337.19 895.62 2.973-2.972 1.188 1.386 35.664-16.242 11.89-22.184 7.133-16.246 3.168-21.984-4.555-26.742-17.636-29.32-20.801-14.856v-5.742l7.527-5.945 20.606 2.972 63.203 5.746 67.961-4.359 10.301-4.359 21.992-3.168 14.863-7.133h9.113l8.719-7.328 54.484-26.743 19.418-13.269 5.746-1.387 11.688-10.301 40.023-28.128 16.051-8.915 16.246-13.273 69.344-51.699 37.051-23.574 64.988-39.618 16.047-11.882 10.305-4.555 69.539-50.117 10.31-10.102v-2.773l1.58-1.785-13.47-10.301h-26.549l-16.051 9.113-5.941 5.746-6.145 1.387-8.715 11.687-4.558 1.582h-1.188l-1.586 1.387-2.972-4.555 7.527-10.101 24.769-14.66 1.582-1.586-19.019-5.742-34.277 13.269-8.715 11.887-4.36 2.773-1.386-1.586 2.968-8.515 11.493-10.5-17.434-4.36-11.887 5.746-16.051 7.329-6.14 10.3-2.973 2.774h-2.972v-7.129l14.859-14.66-20.606 2.972-26.746 13.27-5.746 10.105-4.558 1.582h-1.387l5.945-19.214h-26.551l-19.417 9.113-16.047 14.262-1.387-1.188 7.133-11.887 10.301-7.328-32.293-2.972-22.192 5.945-10.305 13.269v2.973l-1.386 1.188h-4.555v-5.743l8.715-13.074 16.445-7.332-17.633 4.559h-22.386l-14.465 7.328-17.832 17.234h-2.774v-5.746l10.301-8.715 2.973-2.773v-3.168h-23.578l-28.133 7.129-14.86 1.586-14.863 8.715-47.152 17.828-19.024 17.828-17.832 5.746-7.328-2.973-2.972 2.973h-6.145l-38.238 13.269-19.02 11.887-10.301 5.742-1.585 2.973-2.973 3.168-35.07 1.387-13.672 10.3-27.739 13.274-4.554-4.359-22.192 7.132-7.332 6.141-17.433 2.969-14.864 8.718-4.554 4.555-2.973-2.973-13.273 11.887h-5.746l-20.606 19.016-10.305 16.242-3.367 23.574-1.187 1.586h-2.973l-2.773-4.558 4.16-24.762 14.859-19.41 33.879-26.543 13.277-10.301h13.075l35.664-14.859 22.191-5.743h10.305l19.019-10.3 1.586-2.973 5.942-6.141 32.496-1.187 21.992-14.856 42.797-17.828 23.578-2.773 22.187-10.5 19.024-14.856 26.547-8.715 32.496-14.66 19.019-2.773 22.391-5.742 20.605-2.973h14.86l13.273-3.168h7.332l-87.179-1.387-46.957 11.688-9.114-11.688 4.559-10.3-4.559-4.559-1.386-14.855-17.633-21.989 2.972-8.914-10.503-2.969 1.386 1.582-2.969 4.559-13.277 2.969-16.047 8.719-41.41 54.472-14.465 8.914-23.578 21.789h-4.555l-1.386-1.187v-2.973l17.433-14.855v-1.586l-1.187-1.188-12.086 5.746h-2.774l-14.859 5.743-16.25 4.558-7.328 5.742-38.438 6.141-26.55 11.687-14.86 4.555-10.304 8.719-13.075 2.769-13.277 10.5-10.301 17.629-5.945-1.187 5.945-14.856-28.136 25.157-4.161 8.714-20.804 16.047-34.078 38.43-16.247 47.539 7.532 42.59 10.301 26.738 29.324 35.262 34.277 19.215 16.047 7.527 10.305 8.715 20.8 13.273 5.747 7.329-2.969 10.3 17.832 11.887h7.328l2.973 2.969-5.747 8.715-22.386 10.3-7.332 1.586h-4.559l3.172 2.973 4.359-1.586 7.329 2.973 14.863-4.36 5.742-6.14 20.805 3.367 16.05 11.488-1.386 4.559v2.969l-19.219 8.718h-14.664l-16.445-7.133-8.715-9.113-8.719 2.973-13.473-2.973h-5.746v5.945l23.578 16.438 22.192 17.633 25.16 8.715 16.051-1.586 4.554-1.188" fill="#a4835b"/>
   <path d="m230.6 584.82c1.586-11.886 15.453-26.347 15.453-35.062 6.144 0 9.312-3.168 12.484-9.309 18.625 0 137.3-34.469 143.44-49.918h9.313l18.824-15.648h27.934c0-18.82 65.582-28.129 81.039-28.129l3.168-3.172c0-2.969 3.172-6.141 6.34-9.309 22.39 0 46.957-5.941 70.336-8.121l-1.782 0.395-19.019 2.773-32.496 14.66-26.547 8.715-19.024 14.856-22.187 10.5-23.578 2.773-42.797 17.828-21.992 14.856-32.496 1.187-5.942 6.141-1.586 2.973-19.019 10.3h-10.305l-22.191 5.743-35.664 14.859h-13.075l-13.277 10.301-25.359 19.808zm405.18-157.68-19.812 4.953-14.86 1.586-14.863 8.715-47.152 17.828-19.024 17.828-17.832 5.746-7.328-2.973-2.972 2.973h-6.145l-38.238 13.269-19.02 11.887-10.301 5.742-1.585 2.973-2.973 3.168-35.07 1.387-13.672 10.3-27.739 13.274-4.554-4.359-22.192 7.132-7.332 6.141-17.433 2.969-14.864 8.718-4.554 4.555-2.973-2.973-13.273 11.887h-5.746l-20.606 19.016-0.793 1.187c29.324 1.387 85.594 4.36 85.594-25.355 15.453-6.336 43.586-12.477 56.07-24.957 46.363-43.184 266.49-62 271.24-122.62zm-420.04 172.54h-4.16l2.375 2.375 1.785-2.375" fill="#957856"/>
   <path d="m214.746,633.945c31.305-18.621 59.242-37.437 99.859-37.437v12.476c12.481,0 28.133-6.14 40.618-6.14v9.312c34.277,6.141 31.105-9.312 62.41,21.789 9.312,0 21.797-6.14 31.109-6.14 2.969,6.14 9.309,12.48 12.481,18.621 6.14,0 12.484-3.172 18.625-3.172 6.34,6.34 9.312,18.82 12.48,21.988 18.824,0 46.762-18.816 59.242,2.973l65.582-2.973c0-9.508 40.618-15.648 46.758-18.816 22.785-9.508 46.762-17.235 71.528-24.168l8.718-7.133 69.344-51.699 37.051-23.574 64.988-39.618 16.047-11.882 10.305-4.555 69.539-50.117 10.31-10.102v-2.773l1.58-1.785-13.47-10.301h-26.549l-16.051,9.113-5.941,5.746-6.145,1.387-8.715,11.687-4.558,1.582h-1.188l-1.586,1.387-2.972-4.555 7.527-10.101 24.769-14.66 1.582-1.586-19.019-5.742-34.277,13.269-8.715,11.887-4.36,2.773-1.386-1.586 2.968-8.515 11.493-10.5-17.434-4.36-11.887,5.746-16.051,7.329-6.14,10.3-2.973,2.774h-2.972v-7.129l14.859-14.66-20.606,2.972-26.746,13.27-5.746,10.105-4.558,1.582h-1.387l5.945-19.214h-26.551l-19.417,9.113-16.047,14.262-1.387-1.188 7.133-11.887 10.301-7.328-32.293-2.972-22.192,5.945-10.305,13.269v2.973l-1.386,1.188h-4.555v-5.743l8.715-13.074 16.445-7.332-17.633,4.559h-22.386l-14.465,7.328-17.832,17.234h-2.774v-5.746l10.301-8.715 2.973-2.773v-3.168h-23.578l-28.133,7.129-14.86,1.586-14.863,8.715-13.074,4.953c-2.18,1.582-4.16,2.574-5.945,2.574 0,9.308-28.133,18.621-34.278,18.621 0,3.168-6.34,9.508-9.312,9.508 0,2.969 2.972-3.168 2.972,0-2.375,0-4.953,0-7.527.199l-16.844,5.547-4.953-1.984c-1.386.398-2.968.597-4.359.992l-.988.992h-2.575c-8.918,2.375-17.832,5.148-26.75,7.922l-15.058,5.347-19.02,11.887-10.301,5.742-1.585,2.973-2.973,3.168-35.07,1.387-13.672,10.3-27.739,13.274-4.554-4.359-20.012,6.539c-.793.195-1.387.394-2.18.593l-7.332,6.141-17.433,2.969-14.864,8.718-4.554,4.555-2.973-2.973-13.273,11.887h-5.746l-20.606,19.016-10.305,16.242-2.179,15.055c.992,2.379 2.179,3.765 3.566,3.765zm478.289-219.281h-4.754l-13.273,3.168h-14.86l-5.55.793v-2.973c1.586-.593 3.172-1.187 4.957-1.582l33.086.395c.199,0 .394,0 .394.199zm-60.031,7.723-15.852,4.16-2.574.398c4.16-2.179 11.293-3.566 18.426-4.558zm-207.84,80.621-15.652,10.5-17.832.594c3.961-2.774 8.32-6.141 10.3-8.122 7.133,0 14.86-1.187 23.184-2.972zm-54.289,18.422-1.387,2.379-19.019,10.3h-9.512c4.559-4.953 18.426-9.707 29.918-12.679zm-83.809,31.496h-.593h.593zm-36.457,16.246-28.531,22.383-6.933,9.109c.793-3.367 2.773-7.922 2.773-10.297l3.168-3.172 2.973-3.168c3.171,0 15.652-9.312 18.824-12.48 1.187,0 4.359-.988 7.726-2.375zm-37.445,33.871-2.973,3.961c.594-1.781 1.582-3.168 2.973-3.961" fill="#8c94a7"/>
   <path d="m489.16 624.63c34.473 71.711 143.64 3.172 196.74 3.172l2.973-6.34v-3.168c0-2.973-6.141-9.313-6.141-12.481-53.097 0-137.3-24.961-181.09 18.817 0 3.172 0 6.14-12.481 0" fill="#8c94a7"/>
   <path d="m503.82 624.83c28.93 60.02 120.46 2.578 164.85 2.578 0.793-1.785 1.781-3.566 2.574-5.152v-2.774c0-2.574-5.152-7.726-5.152-10.3-44.578 0-115.11-20.996-151.77 15.648 0 2.578 0 5.152-10.504 0" fill="#9194aa"/>
   <path d="m518.68 625.03c23.183 48.532 96.886 2.18 132.75 2.18 0.793-1.586 1.386-2.973 2.179-4.359v-1.981c0-2.18-4.16-6.34-4.16-8.519-35.863 0-92.926-16.836-122.44 12.679 0 2.18 0 4.16-8.324 0" fill="#9694ad"/>
   <path d="m533.34 625.23c17.633 36.844 73.703 1.583 101.05 1.583l1.586-3.168v-1.586c0-1.586-3.372-4.95-3.372-6.536-27.144 0-70.335-12.679-92.921 9.707 0 1.583 0 3.168-6.34 0" fill="#9a91ae"/>
   <path d="m430.117,618.297c15.653-9.313 18.625-18.621 37.246-18.621l3.172,6.14c6.141-6.14 15.653-18.621 18.625-24.961 3.168,0 12.481,9.512 15.653,9.512h3.167c15.653-6.34 18.625-9.512 34.278-3.172 9.312-3.168 18.824-9.308 28.137-12.48 0,0 15.652,9.312 18.621,9.312l6.343-6.14c12.481,2.968 31.106,12.48 43.586,12.48 6.344-3.172 15.653-9.512 21.996-9.512 2.969,0 12.481,6.34 15.454,9.512 3.168,0 9.507-6.34 15.652-6.34 0,3.168 3.168,6.34 3.168,9.309 12.484,0 21.797-2.969 24.965,12.48 3.172,0 15.652-9.308 15.652-12.48-3.168,0-9.508-2.969-12.48-2.969 0-3.172-6.34-12.48-6.34-15.652-9.313,0-18.625,3.172-24.965,6.14 0-6.14-12.484-24.957-12.484-31.097l-6.141,3.168c-6.34-3.168-18.824-12.477-28.133-15.649-6.344,0-12.484,3.172-15.652,6.141-9.313-2.969-18.625-6.141-31.11,0l-6.339-6.141c-9.313,0-21.793,3.172-31.106,0 0,0 6.141-6.339 6.141-9.308 12.484,0 9.312-3.168 15.652,0 3.172-3.168 6.141-6.34 12.484-6.34 9.313,9.309 24.965,21.789 28.133,21.789 12.485-6.141 21.797-12.48 34.278-2.969 6.14-6.34 37.445-21.988 37.445-3.172 12.484-12.476 31.109,0 43.59-12.476 3.172,0 12.484,6.137 15.652,9.308l6.34-3.171c6.144,6.339 12.484,6.339 12.484,15.652 12.481,0 27.938-15.652 37.446-24.961h12.484c-6.34,0-18.824-6.141-24.965-6.141l-6.34,6.141c0-21.789-40.617-6.141-46.761-3.168-28.133-9.313-31.305-24.961-65.582-9.313-6.141-6.14-9.309-12.476-15.653-15.648-15.453,0-37.445,3.172-49.93,6.34 0-6.34 9.512-12.481 9.512-18.82h84.207c0-6.137 12.481-12.477 15.653-15.45 6.14,0 12.48,6.141 15.453,9.313 0-6.34 15.652-15.653 21.992-15.653l6.144,6.34c0-3.168 6.34-6.34 6.34-9.507 2.973,3.167 12.481,9.507 15.453,9.507 0-12.48 43.789-18.816 56.27-18.816 0,0 6.34,6.336 6.34,9.309 2.972,0 9.312-6.141 15.453-6.141v12.48c12.484,0 31.305-12.48 43.789-12.48l6.141,6.141c3.171,0 6.339-2.973 12.484-2.973 7.133,6.933 12.086,17.035 16.84,27.734l65.379-47.144 10.31-10.102v-2.773l1.58-1.785-13.47-10.301h-26.549l-16.051,9.113-5.941,5.746-6.145,1.387-8.715,11.687-4.558,1.582h-1.188l-1.586,1.387-2.972-4.555 7.527-10.101 24.769-14.66 1.582-1.586-19.019-5.742-34.277,13.269-8.715,11.887-4.36,2.773-1.386-1.586 2.968-8.515 11.493-10.5-17.434-4.36-11.887,5.746-16.051,7.329-6.14,10.3-2.973,2.774h-2.972v-7.129l14.859-14.66-20.606,2.972-26.746,13.27-5.746,10.105-4.558,1.582h-1.387l5.945-19.214h-26.551l-19.417,9.113-16.047,14.262-1.387-1.188 7.133-11.887 10.301-7.328-32.293-2.972-22.192,5.945-10.305,13.269v2.973l-1.386,1.188h-4.555v-5.743l8.715-13.074 16.445-7.332-17.633,4.559h-22.386l-14.465,7.328-17.832,17.234h-2.774v-5.746l10.301-8.715 2.973-2.773v-3.168h-23.578l-28.133,7.129-14.86,1.586-14.863,8.715-13.074,4.953c-2.18,1.582-4.16,2.574-5.945,2.574 0,9.308-28.133,18.621-34.278,18.621 0,3.168-6.34,9.508-9.312,9.508 0,2.969 2.972-3.168 2.972,0-2.375,0-4.953,0-7.527.199l-16.844,5.547-4.953-1.984c-1.386.398-2.968.597-4.359.992l-.988.992h-2.575c-8.918,2.375-17.832,5.148-26.75,7.922l-15.058,5.347-19.02,11.887-10.301,5.742-1.585,2.973-2.973,3.168-35.07,1.387-13.672,10.3-27.739,13.274-4.554-4.359-20.012,6.539c-.793.195-1.387.394-2.18.593l-7.332,6.141-17.433,2.969-14.864,8.718-4.554,4.555-2.973-2.973-13.273,11.887h-5.746l-18.032,16.641c39.625-1.387 73.309-40.016 104.02-9.313 21.793-9.308 18.625-12.48 43.59-12.48 6.34,6.14 31.304,18.621 31.304,31.101h12.481v3.168h6.144v6.34c3.168,0 3.168,2.973 6.34,2.973zm-203.48-35.063c4.754-2.379 13.668-9.113 16.246-11.687 1.187,0 4.359-.988 7.726-2.375l-25.359,19.808c.395-1.785.988-3.765 1.387-5.746zm466.398-168.57h-4.754l-13.273,3.168h-14.86l-5.55.793v-2.973c1.586-.593 3.172-1.187 4.957-1.582l33.086.395c.199,0 .394,0 .394.199zm-60.031,7.723-15.852,4.16-2.574.398c4.16-2.179 11.293-3.566 18.426-4.558zm-207.84,80.621-15.652,10.5-17.832.594c3.961-2.774 8.32-6.141 10.3-8.122 7.133,0 14.86-1.187 23.184-2.972zm-54.289,18.422-1.387,2.379-19.019,10.3h-9.512c4.559-4.953 18.426-9.707 29.918-12.679zm-83.809,31.496h-.593h.593" fill="#7b8394"/>
   <path d="m517.29 518.46 40.617-12.481c3.172 0 6.145 6.34 9.313 9.508 6.34 0 9.312-3.168 15.652-3.168 0 3.168 12.484 9.309 15.652 12.481 15.453-15.653 27.938-12.481 43.59-9.313 15.653-3.168 21.793 2.973 34.278 2.973v6.34c0-9.313-24.965-15.653-31.106-15.653 6.141 0 0-6.14 0-9.308-21.797 3.168-56.273 9.308-74.894 0-12.485 0-28.137 3.168-40.618 3.168-3.172 2.972-9.312 9.312-12.484 9.312l-3.168 6.141v-2.973c3.168 0 12.48-3.168 3.168 2.973" fill="#9a91ae"/>
   <path d="m426.94 580.86c18.825-15.449 34.278-18.617 62.215-18.617 0 3.168 3.168 9.309 6.34 9.309 3.168-3.168 9.313-6.141 12.48-9.309 3.172 0 6.145 6.141 9.313 6.141 6.34-2.973 18.824-9.313 28.137-9.313 3.168 0 6.14 3.172 9.312 3.172l6.34-6.34h6.141c3.172 0 12.484 9.508 15.652 9.508s9.313-6.34 15.652-6.34c6.145 6.34 9.313 6.34 15.453 3.172l-9.308-9.312h-9.313c0-3.168-3.171-9.508-6.343-12.477-6.141 0-18.621 0-18.621 9.309l-9.313-9.309c-9.512 0-15.652-3.172-24.965-6.34-9.512 3.168-28.137 15.649-34.476 15.649l-2.973-6.34c-3.168 0-6.34 3.172-9.508 6.34-18.625 0-52.902 15.648-65.383 15.648 0 2.973 0 6.141 3.168 15.449" fill="#9a91ae"/>
   <path d="m304.7 855.6h-4.558v3.168h7.332l-2.774-3.168" fill="#fff"/>
   <path d="m322.33 852.63-10.301-10.301h-11.89 10.304l6.141 7.328-1.586 4.559h5.746l1.586-1.586" fill="#fff"/>
   <path d="m289.84 851.44v-2.972l-7.531 1.187 4.558 2.973h1.586l1.387-1.188" fill="#fff"/>
   <path d="m261.7 834.8h6.145l-79.649-8.715-63.601-16.047-33.883-11.883-4.5546-4.558h8.914l16.246 6.14 75.094 20.602 6.141 2.972 75.293 4.555 16.047-1.781 5.945-2.774-14.664-10.3-14.66 2.773-17.832 4.555-50.129-1.586-13.473-4.555h-7.133l-7.328-4.16-16.445-2.969-55.875-17.633-38.438-12.082-23.578-20.601v-5.746l-11.887-13.27v-2.972l-2.9726-3.168h-5.7461v13.668l27.738 30.902 25.164 16.043 29.719 14.859 27.738 8.715 37.051 12.082 10.305 1.188 14.859 5.746 13.273 1.781 16.246 4.359 26.352 2.973 10.305-1.586 13.273-7.527" fill="#7b8394"/>
   <path d="m571.78 666.83v-7.527l-9.113-1.188h-4.559 9.114l2.972 4.356-1.781 7.133-5.746 7.527h2.969l6.144-10.301" fill="#231f20"/>
   <path d="m627.65 668.41-1.386-9.109v11.883l-6.141 5.945h3.168l4.359-8.719" fill="#231f20"/>
   <path d="m549.39 655.14-8.719-4.559-11.887 1.586-5.746 5.945-1.586 7.328 5.746-10.3 11.891-2.973 5.941 1.387 2.774 4.558-2.774 16.043 5.946-14.855-1.586-4.16" fill="#231f20"/>
   <path d="m592.39 660.88-7.332-5.742h-4.555l-1.586 1.187h3.168l5.746 1.785 2.973 5.742-2.973 10.301h2.973l1.586-13.273" fill="#231f20"/>
   <path d="m609.82 660.88-8.715-4.555h-1.585l8.914 6.141-2.774 11.687 5.746-5.746-1.586-7.527" fill="#231f20"/>
   <path d="m500.65 658.11-4.359-2.972h-7.531l-1.188 1.187-2.972-13.074v-2.969l-6.141-4.558-16.246 1.586-1.192-16.047-20.406-4.555 15.852 4.555v23.574l10.301-6.141h11.691l4.555 6.141-1.387 14.461 1.387 1.582 4.558-4.555 7.332 1.785 4.555 5.742v7.329h2.773l-1.582-13.071" fill="#231f20"/>
   <path d="m667.68 635.73-1.781-7.329-1.192 10.301-6.14 7.328h2.972l6.141-10.3" fill="#231f20"/>
   <path d="m518.48 624.24-7.531-4.554-1.187 1.582-6.141-3.168-1.391 1.586-2.773 8.714-1.582 1.586 1.582 1.582 7.133-10.3h6.144l5.746 10.3-2.972 8.719 4.554-4.558-1.582-11.489" fill="#231f20"/>
   <path d="m531.76 621.27-7.528-6.141-10.304-1.387 14.859 5.946 2.973 5.742-2.973 10.301 4.559-8.715-1.586-5.746" fill="#231f20"/>
   <path d="m645.29 615.12h-2.777l4.359 7.332-4.359 10.496 5.746-5.941-2.969-11.887" fill="#231f20"/>
   <path d="m621.71 621.27-2.777-6.141-2.969-2.969-1.586 1.582 5.746 5.946v8.714l-2.973 3.168 4.559-1.582v-8.718" fill="#231f20"/>
   <path d="m553.95 615.12-10.304-5.742h-6.141l13.473 4.355 2.972 7.528-4.558 8.718 5.945-5.746-1.387-9.113" fill="#231f20"/>
   <path d="m601.1 612.16-7.332-4.558h-8.718l13.078 3.367 2.972 4.16-2.972 9.113-7.332 5.746 10.304-7.527v-10.301" fill="#231f20"/>
   <path d="m575.94 609.38-8.718-4.555h-2.973l8.719 4.555 2.972 5.742-4.16 11.887 5.746-8.914-1.586-8.715" fill="#231f20"/>
   <path d="m433.09 618.1-2.777-10.5h-9.114l-4.554 4.558 4.554-1.191h4.559l2.773 2.773-1.586 8.719 4.559-2.773 1.586-1.586" fill="#231f20"/>
   <path d="m413.67 615.12-1.188-13.27-2.972-5.746-3.172-2.968-11.688 2.968h10.301l4.559 5.746-1.586 16.243h2.972l2.774-2.973" fill="#231f20"/>
   <path d="m469.74 594.52 4.559-7.523 7.328-1.191h4.16l2.973 2.773-1.188 13.273 4.36-1.191 1.386-10.496 13.274-10.301h3.172l4.16 4.36-1.188 4.355v1.586l-2.972 2.973 1.187 2.968 2.973-1.586 2.972-2.968v-7.328l6.141-2.973 2.774-5.746 2.972-2.969h11.887l2.973 2.969-1.582 14.66 4.554-5.941v-8.719l4.36-2.969 4.359-4.559 11.887 2.973v14.856l5.746-9.11v-5.746l-13.274-4.555-2.773-4.16-10.305 8.715-19.418-1.387-10.301 14.661-2.972-4.36v-3.168h-10.301l-10.305 11.883-2.972-5.742h-16.047l-6.145 7.328-14.66-1.586-1.586-4.355-14.66 10.296-1.191 14.86h1.191l9.113-16.242 7.133-2.973 10.5 2.973v17.824h2.774l2.972-16.442" fill="#231f20"/>
   <path d="m738.21 593.14v-4.559l-5.746-4.355h-2.973l7.531 7.328-10.304 17.828 4.16-1.785 7.332-14.457" fill="#231f20"/>
   <path d="m711.86 584.23-7.527-4.36h-2.777l7.332 7.133-11.887 16.438 1.586 1.39 14.461-14.66-1.188-5.941" fill="#231f20"/>
   <path d="m694.03 585.81-1.586-4.555-13.273-5.746 10.305 7.332-1.192 7.328-13.273 10.496 1.387 1.191 10.3-7.332 7.332-8.714" fill="#231f20"/>
   <path d="m382.76 582.84-7.328-1.586h-4.36l-1.586 1.586h9.114l8.718 11.683 1.586 4.36 1.188-1.586-7.332-14.457" fill="#231f20"/>
   <path d="m289.84 594.52 4.555-7.523-4.555 7.523" fill="#231f20"/>
   <path d="m668.87 579.87v-6.14l-7.332-5.747h-7.133l10.301 5.747-1.586 9.113-10.301 11.683 11.887-8.714 4.164-5.942" fill="#231f20"/>
   <path d="m359.18 582.84h-28.133l-20.606-1.586h-1.187l-1.785 1.586h17.832l2.972 2.969h11.887l1.188 1.191 12.089-2.773 7.329 4.355h4.16l-5.746-5.742" fill="#231f20"/>
   <path d="m602.69 573.73-1.583-8.715-8.718-2.774h-6.145l-10.301 8.715h6.141l10.305-7.527 4.16 2.972 2.973 3.168-5.747 14.661 5.747-1.387 3.168-9.113" fill="#231f20"/>
   <path d="m639.54 575.51v-2.969l-14.859-7.527-13.278 7.527v1.188l-1.586 1.781 3.172 2.773 5.942-2.773 4.359-4.555h8.719l2.972 2.774-1.187 6.14-7.531 4.36 11.691-4.36 1.586-4.359" fill="#231f20"/>
   <path d="m412.48 551.94 11.688-7.528h4.359l-14.859 1.387-10.305 19.215v5.941l6.145-10.301 2.972-8.714" fill="#231f20"/>
   <path d="m439.03 551.94 1.586-1.786 2.774 2.973-1.586 1.586 2.972-7.328 5.946-5.945 8.718 1.386 1.582 1.586 2.973-4.558v-1.582l-2.973-2.774h-13.472l-5.746 8.914h-8.715l4.16 2.973-5.746 13.269v7.328h2.973l4.554-16.042" fill="#231f20"/>
   <path d="m472.72 541.44 11.887-10.301 2.972 2.972h10.305l4.355 4.161 1.391-1.188h1.582v-2.973l-11.887-7.328h-8.718l-17.832 19.016-2.774 11.883h4.16l4.559-16.242" fill="#231f20"/>
   <path d="m797.45 537.08 20.606-12.086 10.3-1.187 5.746 5.742-4.16 10.301-1.586 1.586 5.746-4.356v-14.859l-20.605 2.773-32.293 20.801-10.305 11.883h4.161l22.39-20.598" fill="#231f20"/>
   <path d="m556.92 529.55 13.273-7.328h8.719l1.586-1.387-23.578 4.16-7.531 13.274-1.586 13.668 4.558-4.555 4.559-17.832" fill="#231f20"/>
   <path d="m730.88 517.67 11.891 1.586 5.941 5.742-1.387 10.5-13.472 14.656v1.786l8.918-7.528 29.32-28.129 10.504-2.773 8.914 8.715h-1.586v5.746h1.586v-7.133l-6.141-8.914-16.051 4.359-20.605 16.242-1.387-11.687-7.328-6.141-13.277 1.586-16.446 10.5-16.246 21.789v3.368l20.606-26.942 16.246-7.328" fill="#231f20"/>
   <path d="m521.45 526.78 13.078-5.945 13.274 1.387-5.742-2.969-21.997 4.555-10.3 26.343 5.746-7.328 5.941-16.043" fill="#231f20"/>
   <path d="m671.84 525 13.473-8.715 13.277 7.528-1.586-4.555-5.746-5.746-19.418 8.715-8.719 13.273-4.554 13.074h2.972l10.301-23.574" fill="#231f20"/>
   <path d="m596.55 529.55 19.418-10.297 8.719 1.582h-19.024l-13.273 8.715-9.114 17.832h2.969l10.305-17.832" fill="#231f20"/>
   <path d="m651.23 519.25h3.172l4.161 4.555v2.972l1.585-2.972v-4.555l-7.332-2.973-20.804 11.688-11.887 19.414 16.445-17.832 14.66-10.297" fill="#231f20"/>
   <path d="m893.15 482.41 1.786-8.914 21.793-16.246 16.445-7.328 11.691 1.586 4.555 7.328h-1.582v4.359h1.582v-11.687l-7.527-4.555-17.633 2.969-16.246 8.914-10.305-16.441-11.887-2.774-16.05 4.359-14.86 11.688-1.387 1.582-7.332-14.855-9.113-2.774-16.047 2.774-13.277 9.113-2.973-2.973-7.328-3.168-22.39 10.301v1.582l-4.161 4.559-4.558-7.332-10.301-4.555-16.047 2.773-12.086 13.274-10.305 26.738h4.559l10.301-22.184 2.973-2.972-2.973-2.774 16.246-13.269 14.859 4.16 7.332 7.527-7.332 16.442-9.113 11.488v1.582h3.172l16.246-20.598v-7.332l14.859-13.269 8.719-1.586h4.36l2.968 2.773-10.301 17.828-11.886 13.274-1.387 6.137 4.16-1.582 1.582-7.528 14.864-11.488v-6.141l21.992-17.828h9.113l5.746 3.168-1.586-4.555h-1.387l-2.773-2.773 1.187-1.586h4.559l10.301 13.074 1.586 7.528-8.914 11.886v5.942l-11.692 14.656 1.387 1.387 25.164-26.543-2.973-4.356 20.606-17.828 11.691-2.972h6.141l11.691 16.441-19.218 23.574v2.969h1.386l1.586 1.187-17.636 20.801 10.304-7.133 13.074-17.824" fill="#231f20"/>
   <path d="m582.08 504.4 2.973-13.27 17.633-11.488 20.605-3.367 8.719 1.781 2.972 2.773v-4.554l-20.605-2.774-17.832 6.141-14.465 10.297-4.555 16.046 1.387-1.585h3.168" fill="#231f20"/>
   <path d="m640.73 486.57 16.446-11.488 17.832-5.742h8.715v6.934l-11.887 22.382-1.387 1.582h2.973l13.273-20.597 8.918-14.86 7.133-4.554 16.445-2.973h5.942l1.586 1.586-4.555-4.359-14.863 1.191-14.86 7.527-5.746 6.141h-20.8l-17.637 6.934-14.461 16.437-7.531 11.688h4.16l10.304-17.829" fill="#231f20"/>
   <path d="m615.96 405.94 4.16-7.527v-10.297l-4.16-7.531-13.277-4.156-6.141-8.914-20.606 4.355-13.273 8.715-1.191 10.5 2.773 10.301-2.773 4.554 2.773 8.719 21.992-2.973 29.723-5.746" fill="#a4835b"/>
   <path d="m908.01 400 12.086 5.941 35.066-8.715 16.445 5.747 23.579-2.973 21.992-37.043-2.97-11.688h-45.769l-10.304-8.914-16.246 7.332-4.36-1.191-2.972-7.527-5.746-4.555-12.086 2.973-52.899 51.699-11.89 16.441 26.75-3.367 29.324-4.16" fill="#646875"/>
   <path d="m632.01 338 2.972-11.887-2.972-10.301-7.328-4.554-19.024-2.774-28.133-10.5h-2.972l-4.36 4.559 32.493 10.301 13.277 7.527 2.969 4.555-1.782 2.773 2.973 8.715-16.047 25.156v4.559l7.328 5.742h2.973l17.633-33.871" fill="#d4c0a6"/>
   <path d="m567.22 293.83 5.746-7.328v-14.855l-5.746-11.887-2.973-36.844-2.773-57.445-6.141-68.141h-10.305l8.918 116.87 2.973 11.489v29.714l2.773 7.528-4.359 19.015-2.973 19.016-19.019 34.269v8.715h8.719l25.16-50.117" fill="#d4c0a6"/>
   <path d="m546.62 276.2-7.527 1.192-26.352-16.047-7.531-8.715-2.973-6.141 7.532-17.828-7.532-14.461-4.355-6.14v-1.387h-2.973l4.555 5.941-4.555 32.489-4.558 2.968-29.325-13.269-1.582-4.559-13.078-7.328-5.746-10.301-3.367-13.269-2.773-4.559v-11.687l-4.164-7.328 5.746-19.411-1.582-1.191-8.719 10.301v11.488l1.187 17.828 9.114 23.574-2.969 6.141h-4.559l-7.332-13.273-2.969-37.043v-2.969l-1.585-1.586-5.747 9.113 1.586 29.317 11.688 20.601 27.738 19.41 22.391 4.559 21.992 19.016 25.16 5.746 22.192 13.269h2.972v-14.461" fill="#d4c0a6"/>
   <path d="m270.816,850.652c1.192.2 2.579.2 3.965.395l-1.187-1.387-2.778.992zm59.641-3.566c4.953-1.586 9.113-3.961 12.281-7.133h9.313l3.172-3.168 3.168-3.168v-9.312c-3.168,0-6.34-3.168-9.508-3.168 3.168,0 9.508-9.309 9.508-12.481h-12.481l6.141-3.168v-6.14c-3.168,0-9.313-6.34-15.653-6.34 0-2.973 0-6.141 3.172-6.141-6.14-3.168-15.652-3.168-21.793-3.168v-9.312c-15.656-15.649-49.929-3.168-68.754-3.168 3.172,0 6.34,6.34 9.512,6.34 0,.593-.199,1.386-.199,2.179l12.48,8.121 5.747,7.329-2.969,10.3 17.832,11.887h7.328l2.973,2.969-5.747,8.715-22.386,10.3-7.332,1.586h-4.559l3.172,2.973 4.359-1.586 7.329,2.973 14.863-4.36 5.742-6.14 20.805,3.367 12.484,8.914" fill="#8c94a7"/>
   <path d="m280.328,839.953c4.559,0 9.313-.988 14.067-1.98l2.773-3.168 5.945.992c4.758-1.192 9.711-2.18 14.664-2.18 0-2.972-6.343-9.312-6.343-12.48 6.343,0 0-3.168 9.511-3.168v-9.313l-3.168-3.168h-9.312c0-2.972 6.14-9.308 6.14-12.48-3.171,0-28.132,3.172-31.105,0v-2.973c-1.387-1.383-5.352-.394-9.906,1.387l2.969,3.766-2.969,10.3 17.832,11.887h7.328l2.973,2.969-5.747,8.715-22.386,10.3-2.18.594h8.914" fill="#7b8394"/>
   <path d="m396.43 800.54c-8.52-12.875-20.805-22.976-35.071-22.976 0-3.172-12.48-9.508-15.453-9.508v-12.481c-6.34 0-24.965-9.308-31.305-9.308 0-6.145-3.171 0-3.171-6.145-6.141 0-12.481-3.168-15.454-6.336v-6.14c-3.167 0-12.48-6.34-15.652-9.508 3.172 0-12.48-27.93-6.34-37.442 12.485 0 40.617 31.301 59.442 31.301 6.14 6.141 37.445 15.649 37.445 18.617 10.5 0 25.164 5.746 38.438 9.508l-24.965-2.375-20.606-2.972-7.527 5.945v5.742l20.801 14.856 17.636 29.32 1.782 9.902" fill="#957856"/>
   <path d="m239.316,765.672c1.387-.395 2.774-.594 3.567-.594v-6.34c6.14,0 6.14-15.648 6.14-21.789l-6.14-6.34v-6.14l-18.824-18.817h-2.973c-28.727-34.863-25.754-59.425-15.852-83.394l1.985-11.293 8.519-11.289c7.528-15.848 14.66-32.485 14.66-53.086 21.797-6.141 43.59-34.27 65.582-34.27 9.313-9.312 77.868-31.3 93.52-31.3 0-6.137 3.168,0 3.168-6.137h6.145c3.167-3.172 12.48-12.481 12.48-15.653 3.172,0 15.652-12.476 15.652-15.648 3.172,0 6.34-2.969 9.313-2.969l3.172-6.34c0-1.187 0-2.378-.2-3.765l-.199.398-23.578,21.789h-4.555l-1.386-1.187v-2.973l17.433-14.855v-1.586l-1.187-1.188-12.086,5.746h-2.774l-14.859,5.743-16.25,4.558-7.328,5.742-38.438,6.141-26.55,11.687-14.86,4.555-10.304,8.719-13.075,2.769-13.277,10.5-10.301,17.629-5.945-1.187 5.945-14.856-28.136,25.157-4.161,8.714-20.804,16.047-34.078,38.43-16.247,47.539 7.532,42.59 10.301,26.738 29.324,35.262 34.277,19.215 13.867,6.535c7.133-1.387 9.313.199 11.492.199-1.585,0-3.96,1.586-6.339,3.168l-2.973-2.375-.395-.199" fill="#a4835b"/>
   <path d="m239.316,765.672c1.387-.395 2.774-.594 3.567-.594v-3.172-3.168c6.14,0-5.153-16.636-5.153-22.777l-6.339-6.34v-3.168-2.973c-6.141-6.339-12.485-12.48-18.625-18.82h-3.172c-28.727-35.058-23.574-55.265-13.668-79.234-.399-3.762-.793-7.528-1.192-11.289 3.172-4.16 6.34-8.321 9.512-12.282-5.746-13.667 19.613-38.23 23.973-59.425 21.996-6.141 44.777-36.45 66.574-36.45 9.508-9.308 70.734-26.941 86.387-26.941 0-6.336 9.308-.988 9.308-7.328v.992c2.778.793 5.551,1.387 8.325,2.18 3.167-3.172 12.48-12.481 12.48-15.653 3.172,0 15.652-12.476 15.652-15.648 3.172,0 6.34-2.969 9.313-2.969 1.187-2.179 2.18-4.16 3.172-6.34 0-1.187 0-2.378-.2-3.765 0,.199-.199.199-.199.398-7.926,7.328-15.851,14.66-23.578,21.789h-4.555c-.398-.394-.992-.793-1.386-1.187v-2.973c5.941-4.953 11.687-9.902 17.433-14.855v-1.586c-.394-.395-.793-.793-1.187-1.188-3.965,1.782-7.926,3.762-12.086,5.746h-2.774c-4.953,1.981-9.906,3.961-14.859,5.743-5.351,1.585-10.699,3.171-16.25,4.558-2.375,1.977-4.953,3.961-7.328,5.742-12.879,2.18-25.559,4.16-38.438,6.141-8.918,3.961-17.632,7.727-26.55,11.687-4.953,1.586-9.907,2.973-14.86,4.555-3.367,2.973-6.738,5.746-10.304,8.719-4.356.988-8.715,1.98-13.075,2.769-4.558,3.567-8.918,6.934-13.277,10.5-3.566,5.942-6.934,11.688-10.301,17.629-1.98-.394-3.965-.793-5.945-1.187 1.98-4.953 3.965-9.903 5.945-14.856-9.511,8.321-18.824,16.836-28.136,25.157-1.387,2.972-2.774,5.742-4.161,8.714l-20.804,16.047c-11.293,12.875-22.785,25.75-34.078,38.43-5.348,15.844-10.895,31.691-16.247,47.539 2.579,14.066 4.954,28.328 7.532,42.59 3.367,8.914 6.734,17.828 10.301,26.738 9.707,11.688 19.613,23.375 29.324,35.262 11.492,6.34 22.785,12.875 34.277,19.215 4.555,2.179 9.313,4.355 13.867,6.535 7.133-1.387 9.313.199 11.492.199-1.585,0-3.96,1.586-6.339,3.168l-2.973-2.375c-.199-.199-.395-.199-.395-.199" fill="#ad8b64"/>
   <path d="m239.316,765.672c1.387-.395 2.774-.594 3.567-.594v-3.172-3.168c6.14,0-16.645-17.629-16.645-23.968-2.179-1.981-4.16-4.161-6.34-6.141v-3.168-3.168l-18.625-18.621h-3.171c-28.727-35.063-21.395-51.305-11.688-75.074-1.387-3.766-2.773-7.528-4.16-11.489 3.566-4.359 7.133-8.914 10.699-13.273-19.219-11.293 24.371-43.578 33.285-65.566 21.797-6.141 45.77-38.43 67.563-38.43 9.312-9.309 63.402-22.977 79.054-22.977 0-6.14 15.653-1.98 15.653-8.32-.988.793-2.18,1.387-3.168,2.18 4.555,1.386 9.113,2.773 13.473,4.16 3.167-3.172 12.48-12.481 12.48-15.653 3.172,0 15.652-12.476 15.652-15.648 3.172,0 6.34-2.969 9.313-2.969 1.187-2.179 2.18-4.16 3.172-6.34 0-1.187 0-2.378-.2-3.765 0,.199-.199.199-.199.398-7.926,7.328-15.851,14.66-23.578,21.789h-4.555c-.398-.394-.992-.793-1.386-1.187v-2.973c5.941-4.953 11.687-9.902 17.433-14.855v-1.586c-.394-.395-.793-.793-1.187-1.188-3.965,1.782-7.926,3.762-12.086,5.746h-2.774c-4.953,1.981-9.906,3.961-14.859,5.743-5.351,1.585-10.699,3.171-16.25,4.558-2.375,1.977-4.953,3.961-7.328,5.742-12.879,2.18-25.559,4.16-38.438,6.141-8.918,3.961-17.632,7.727-26.55,11.687-4.953,1.586-9.907,2.973-14.86,4.555-3.367,2.973-6.738,5.746-10.304,8.719-4.356.988-8.715,1.98-13.075,2.769-4.558,3.567-8.918,6.934-13.277,10.5-3.566,5.942-6.934,11.688-10.301,17.629-1.98-.394-3.965-.793-5.945-1.187 1.98-4.953 3.965-9.903 5.945-14.856-9.511,8.321-18.824,16.836-28.136,25.157-1.387,2.972-2.774,5.742-4.161,8.714l-20.804,16.047c-11.293,12.875-22.785,25.75-34.078,38.43-5.348,15.844-10.895,31.691-16.247,47.539 2.579,14.066 4.954,28.328 7.532,42.59 3.367,8.914 6.734,17.828 10.301,26.738 9.707,11.688 19.613,23.375 29.324,35.262 11.492,6.34 22.785,12.875 34.277,19.215 4.555,2.179 9.313,4.355 13.867,6.535 7.133-1.387 9.313.199 11.492.199-1.585,0-3.96,1.586-6.339,3.168l-2.973-2.375c-.199-.199-.395-.199-.395-.199" fill="#b3936c"/>
   <path d="m239.316,765.672c1.387-.395 2.774-.594 3.567-.594v-6.34c6.14,0-28.137-18.621-28.137-24.957l-6.141-6.14v-6.34l-18.824-18.621h-3.168c-28.531-35.059-19.418-47.145-9.511-70.914l-7.332-11.489 11.691-14.261c-32.492-9.114 29.324-49.125 42.598-71.907 21.992-6.14 46.957-40.609 68.754-40.609 9.308-9.309 56.07-18.617 71.722-18.617 0-6.34 21.793-3.172 21.793-9.313l-6.14,2.973 18.625,6.34c3.167-3.172 12.48-12.481 12.48-15.653 3.172,0 15.652-12.476 15.652-15.648 3.172,0 6.34-2.969 9.313-2.969l3.172-6.34c0-1.187 0-2.378-.2-3.765l-.199.398-23.578,21.789h-4.555l-1.386-1.187v-2.973l17.433-14.855v-1.586l-1.187-1.188-12.086,5.746h-2.774l-14.859,5.743-16.25,4.558-7.328,5.742-38.438,6.141-26.55,11.687-14.86,4.555-10.304,8.719-13.075,2.769-13.277,10.5-10.301,17.629-5.945-1.187 5.945-14.856-28.136,25.157-4.161,8.714-20.804,16.047-34.078,38.43-16.247,47.539 7.532,42.59 10.301,26.738 29.324,35.262 34.277,19.215 13.867,6.535c7.133-1.387 9.313.199 11.492.199-1.585,0-3.96,1.586-6.339,3.168l-2.973-2.375-.395-.199" fill="#bc9c73"/>
   <path d="m414.46 740.52v-0.399c-3.172 0-24.965-6.336-28.137-6.336 0-3.172-9.312-6.14-9.312-9.312-9.313 0-21.793-9.309-31.106-9.309 0-3.168-9.512-9.508-9.512-9.508l-2.968-2.972c0-3.168-3.172-6.336-6.344-9.508v-15.449l6.344-6.34c18.621 0 40.418 3.168 59.238 6.34 98.672 25.949 180.1 4.355 269.46-3.766l-1.981 1.785-5.746 1.387-19.418 13.269-54.484 26.743-8.719 7.328h-9.113l-14.863 7.133-21.992 3.168-10.301 4.359-67.961 4.359-33.086-2.972" fill="#a4835b"/>
   <path d="m414.465,740.516v-.399c-3.172,0-24.965-6.336-28.137-6.336 0-3.172-9.312-6.14-9.312-9.312-9.313,0-7.328-3.168-16.641-3.168 0-3.168-9.312-9.309-9.312-9.309l-3.172-3.172c0-3.168-3.168-6.14-6.141-9.308 1.387-3.766 2.773-7.727 4.16-11.489 3.367-1.785 6.934-3.367 10.305-5.152 18.82,0 33.285.992 52.105,4.16 98.473,26.942 164.45-3.168 253.809-13.074-.594.594-1.387,1.191-1.981,1.785-4.757,1.781-9.312,3.762-14.07,5.543-3.762,2.973-7.328,5.945-11.094,9.113-18.23,8.915-36.257,17.829-54.484,26.743-2.973,2.379-5.945,4.953-8.719,7.328h-9.113l-14.863,7.133c-7.328,1.187-14.66,2.179-21.992,3.168-3.368,1.386-6.735,2.773-10.301,4.359-22.59,1.387-45.371,2.973-67.961,4.359-10.895-.992-21.992-1.98-33.086-2.972" fill="#ad8b64"/>
   <path d="m414.465,740.516v-.399c-3.172,0-24.965-6.336-28.137-6.336 0-3.172-9.312-6.14-9.312-9.312-9.313,0 7.332,3.172-1.981,3.172 0-3.172-9.508-9.508-9.508-9.508l-2.972-2.973c0-3.168-3.172-6.34-6.34-9.508l8.32-7.132c4.953-1.387 9.707-2.774 14.66-4.161 18.625,0 25.957-1.187 44.582,1.985 98.668,27.73 148.993-10.5 238.352-22.387-.594.594-1.387,1.191-1.981,1.785-7.531,3.168-14.859,6.535-22.39,9.707-.988,1.582-1.781,3.168-2.774,4.949-18.23,8.915-36.257,17.829-54.484,26.743-2.973,2.379-5.945,4.953-8.719,7.328h-9.113l-14.863,7.133c-7.328,1.187-14.66,2.179-21.992,3.168-3.368,1.386-6.735,2.773-10.301,4.359-22.59,1.387-45.371,2.973-67.961,4.359-10.895-.992-21.992-1.98-33.086-2.972" fill="#b3936c"/>
   <path d="m414.46 740.52v-0.399c-3.172 0-24.965-6.336-28.137-6.336 0-3.172-9.312-6.14-9.312-9.312-9.313 0 21.797 9.312 12.484 9.312 0-3.172-9.312-9.312-9.312-9.312l-3.172-3.168c0-3.168-3.168-6.141-6.141-9.309l12.484-3.172 18.621-3.168c18.825 0 18.825-2.972 37.45 0 98.668 28.723 133.34-17.828 222.7-31.695l-1.981 1.785-30.71 13.863 5.546 0.793-54.484 26.743-8.719 7.328h-9.113l-14.863 7.133-21.992 3.168-10.301 4.359-67.961 4.359-33.086-2.972" fill="#bc9c73"/>
   <path d="m514.12 94.356c24.965-12.48 78.063-18.621 99.855 3.1718 0-6.3398-2.968 0-2.968-6.3398h-6.34v-2.9727c-31.109-18.816-59.242-6.3398-90.547-6.3398l-2.973 3.1719c0 3.1679-3.172 6.1406-3.172 9.3086h6.145" fill="#a9c4d0"/>
   <path d="m520.46 69.398c34.277-15.648 78.062-9.3125 115.51-9.3125 0 3.1719 6.14 12.48 12.48 12.48l2.973 3.168v6.1406l3.168 3.1719 3.172-6.3399v-2.9726c0-3.168-3.172-9.5078-3.172-12.477-3.168 0-9.309-9.5078-12.481-12.48-37.445 0-81.035 12.48-112.34 12.48h24.965c-18.625 0-28.137 0-34.277 6.1406" fill="#a9c2a9"/>
   <path d="m489.16 63.258c3.168 0 15.653-6.3398 15.653-9.5078h18.82v-2.9727c9.312-3.1679 43.59-3.1679 56.074-3.1679v-9.3125c-9.312-6.336-40.617-9.5078-49.93-3.168v3.168h-12.484c-3.168 2.9726-12.48 6.1406-15.652 9.3125v3.1679l-6.141 2.9727c0 3.168 0 6.3359-3.172 6.3359l-3.168 3.1719" fill="#a9c2a9"/>
   <path d="m86.754 804.3c-1.9805-4.36-2.9726-9.113-2.9726-14.266 4.9531 0 11.492 2.379 18.032 6.145l9.507 3.562 73.508 20.207c1.387-0.992 2.578-1.98 3.965-2.574l-9.711-3.172h-7.133l-7.328-4.16-16.445-2.969-55.875-17.633-38.438-12.082-23.578-20.601v-5.746l-11.887-13.27v-2.972l-2.9726-3.168h-5.7461v13.668l27.738 30.902 25.164 16.043 24.172 12.086zm33.285 4.16 4.559 1.582 34.672 8.715c-11.493-1.781-22.786-3.762-31.899-3.762-1.98-1.98-4.359-4.16-7.332-6.535" fill="#646875"/>
  </g>
 </g>
</svg>
