<?xml version="1.0" encoding="UTF-8"?>
<svg width="318.51" height="219.22" enable-background="new 0 0 318.508 219.225" viewBox="0 0 318.508 219.225" xmlns="http://www.w3.org/2000/svg">
 <g fill-rule="evenodd">
  <path d="m280.54,143c1.167,6.152 3.925,13.152 5.196,17.288 2.229,4.138 3.183,5.623 5.092,9.971 1.167,4.878 6.471,10.501 8.698,13.788 .424,1.804 0,3.289-.531,4.562-.636.849-1.378,3.711-1.803,5.621-.53,8.487-.53,9.334-.53,16.123-1.167,3.5-2.863,3.606-4.772,4.031l.105-3.819c0,.849-.212,2.229-.212,3.819-2.547.848-4.985.743-7.531.212 0-.849-.106-1.698-.106-2.545v2.545c-1.484.531-3.818.531-5.409.213-4.454-9.547 7.106-13.472 8.698-11.563l.53-1.909v-8.91c0-6.258-.213-8.909-1.486-11.985-1.166-2.653-2.545-5.198-4.771-7.32-5.516-4.985-23.973-17.925-29.063-27.471 9.546-25.986 25.773-53.247 21.638-73.929 7.84,12.536 7.09,49.449 6.25,71.299z" fill="#e5b853" stroke="#000" stroke-linecap="round" stroke-linejoin="round" stroke-miterlimit="2.4142" stroke-width="2.016"/>
  <path d="m274.17,112.56c1.378,35.851 1.167,40.305 19.198,72.551 3.712,3.5-2.546,24.713-.106,28.956 3.076-.954 3.395-3.605 3.395-7.212s-.318-8.167.53-12.94c.106-4.031 3.394-7.107 2.334-10.818l-13.79-32.564-2.758-63.746-8.8,25.766m-.63-44.338-22.593,75.52 7.105,9.228c4.138-19.092 24.821-37.229 23.441-65.444-3.62-7.425-4.36-11.986-7.96-19.304m-133.97,64.808c3.925,3.713-3.606,21.957-.849,36.064 .636,4.878-7.318,7.743-9.44,8.909-4.561-11.561-7.637-26.199-8.061-37.335l18.35-7.63" fill="#d8ae4e"/>
  <path d="m145.83,135.36c-1.591,18.032 0,39.351-.849,57.914-.317,6.894-.213,7.318-.53,10.5-1.909,4.454-1.379,3.394-3.288,7.636-1.272,4.456-.637,3.289-3.182,5.834-7.743-.105-21.426,2.546-21.957-.211-.636-5.305 2.864-5.41 3.818-6.471 4.031-2.333 8.167-.423 10.289-4.454 2.44-2.864 1.909-7.849 1.696-11.88 .213-3.711-.212-5.196-.742-8.272-3.076-13.154-9.121-28.108-9.439-39.989-3.19,3.5 11.98-21 24.18-10.61z" fill="#e5b853" stroke="#000" stroke-linecap="round" stroke-linejoin="round" stroke-miterlimit="2.4142" stroke-width="2.016"/>
  <path d="m136.28,44.887c1.803-2.227-60.246-17.288-39.139,89.521 0,3.182-.636,5.196-2.651,7.636-4.454,6.364-11.243,15.063-18.986,23.759-3.925,4.349-5.728,9.334-10.076,13.472-3.713,4.243-2.229,8.061-12.41,11.455-6.682,3.076-17.714,4.985-9.865,15.38 6.788,1.378 9.97-2.016 16.441-4.456 5.834-4.029 11.455.424 12.092-7.318 2.227-5.091 13.364-10.712 18.35-14.214 9.863-7.212 20.259-13.576 31.395-24.395 7.214-4.456 9.865-10.607 9.652-15.274 30.866-18.032 52.187,16.229 80.718-20.577 1.062-1.378 2.44-2.439 2.44.956-4.243,18.243 16.758,43.063 14.85,61.73 0,1.485-.425,2.44-1.167,4.138-5.622,8.061-6.258,9.758-14.001,15.485-3.713.954-6.789-.636-12.517-.636-4.03-.106-7.106,9.228-4.455,10.394 3.289,1.485 1.273-4.031 4.986-8.698-.742-1.378-2.758,7.318-2.864,7.849 .317,3.607 4.88,4.349 7.425,2.651-1.273-1.803-1.591-2.969-1.697-4.773 .424-1.803 1.697-3.076 3.5-3.287-1.696-.424-3.5,1.909-3.394,3.287-.106,2.758 1.166,4.138 1.697,4.986 2.016.743 9.016,1.696 12.196-.637 9.017-7 18.67-14.001 26.73-22.486 4.242-1.803 5.516-5.94 3.818-9.97 0-5.623-2.758-12.198-.742-18.669 4.03-27.153 23.546-52.397 26.304-75.731 .212-7.849.106-14.85-2.545-21.744-8.592-12.939-14.002-14.637-24.926-18.35-37.549-6.894-55.368,5.835-85.81,4.349-16.34-.745-16.98-5.837-25.36-5.837z" fill="#fecc5c" stroke="#000" stroke-linecap="round" stroke-linejoin="round" stroke-miterlimit="2.4142" stroke-width="2.016"/>
  <path d="m291.04 160.18c5.409 5.621 7.318 11.243 8.909 12.621s2.228 5.623 1.591 7.107c-7.32-3.71-9.12-11.56-10.5-19.73z" fill="#fecc5c" stroke="#000" stroke-linecap="round" stroke-linejoin="round" stroke-miterlimit="2.4142" stroke-width="2.016"/>
  <path d="m50.792,36.933c.955-.742-9.44.636-12.092-13.047-5.303,0-22.168,12.41-23.335,17.29-.742,4.985-1.803,5.833-4.667,10.5-4.453,4.454-10.075,10.394-9.545,11.349-.849,3.712 1.167,6.15 3.076,7.212 1.061,4.454 2.016,6.151 4.667,9.334 5.196,4.241 13.364,5.514 20.789-2.969 .955-2.017 3.289,1.801 3.289,4.241 13.258-11.348 17.607-42.319 17.818-43.91z" fill="#fecc5c" stroke="#000" stroke-linecap="round" stroke-linejoin="round" stroke-miterlimit="2.4142" stroke-width="2.016"/>
  <path d="m4.229,70.237c1.061,4.454 2.016,6.151 4.667,9.334 5.196,4.241 13.364,5.514 20.789-2.969 .955-2.017 3.289,1.801 3.289,4.241-2.016-17.075-20.048,8.698-28.745-10.606z" fill="#f1c257"/>
  <path d="m136.28,44.887c1.803-2.227-60.352-17.288-39.139,89.521 8.698,10.288 5.729-35.427 27.684-53.141 18.35-17.075 40.837-13.364 36.699-30.547-16.33-.743-16.86-5.835-25.24-5.835m138.95,41.472c.317-7.956-.425-14.743-3.076-21.637-8.485-12.939-13.895-14.53-24.819-18.35-14.426-1.06-23.653-2.545-17.288,16.759 11.667,31.078 33.305,17.183 10.181,101.19 .744-8.274 7.002-2.864 12.092-18.881 2.97-5.939 8.274-19.622 9.652-22.697 3.09-5.3 10.2-22.06 13.27-36.381m-144.25,54.091c30.972-18.137 52.186,16.229 80.718-20.577 1.061-1.378 2.438-2.439 2.438.956-.317-1.38.743-11.774 2.122-14.32 5.834-32.349-44.018,38.504-82.521,2.546-4.35,3.18 2.33,21-2.76,31.39m-87.931,65.55c6.789,1.485 9.971-2.016 16.547-4.349 5.728-4.029 11.455.318 12.092-7.318 2.227-5.198 13.259-10.712 18.244-14.319 9.97-7.107 20.366-13.576 31.501-24.29 7.214-4.561 9.759-10.607 9.547-15.274-5.939,5.622-9.971,11.031-19.729,16.865-7.954,6.045-8.485,12.623-21.001,17.29-9.016,4.878-15.91,13.895-23.653,19.304-9.546.85-11.773,7.74-23.547,12.09m163.35,7.75c-4.561-6.363-3.712-4.667.106.106 2.016.849 9.016,1.803 12.198-.636 9.121-7 18.668-13.896 26.729-22.381 4.242-1.803 5.516-5.94 3.713-9.97-21.86,31.07-46.68,21.1-42.75,32.88m-155.61-176.82c.849-.742-9.44.636-12.092-13.047-.636,1.591-.743,3.289-.743,4.88 0,1.696-10.183,1.591-12.94,10.183 4.243,3.076 13.79-3.819 13.578-2.44-.32,1.273-1.38,3.5-2.547,4.349-11.243,4.667-2.969,29.167-3.076,39.985 13.153-11.348 17.502-42.319 17.82-43.91" fill="#f1c257"/>
  <path d="m30.004,76.282c-3.5,4.244-9.547,9.334-19.199,4.667-.637.743-.424,1.909-.424,3.5 0,.849.211,2.121.211,2.969l1.38,2.758 .742-.742c.636,0 1.167,2.333 1.803,2.333l1.167.424 1.804-.318c.529,0 .742.211 1.378.211l1.698-.742 .529-1.591 .425-.529 1.167-.213c0-1.485.637-.849 1.273-.849 0,0-.212-.849.742-1.378s.955-.742 1.484-1.38c.425-.636.107-.636.531-.954 .424-.213 1.167-.424 2.44-.424l1.378-2.651 .531-1.061 1.378-1.591c0-.849-.742-1.591-.742-1.591l-1.696-.848z" fill="#fff" stroke="#000" stroke-linecap="round" stroke-linejoin="round" stroke-miterlimit="2.4142" stroke-width="2.016"/>
  <path d="m240.02,162.83c0,11.455 2.546,9.97 2.546,16.441 .529,3.711-.424,6.47-3.395,8.803-4.243,4.242-5.092,5.091-5.94,6.469" fill="none" stroke="#000" stroke-linecap="round" stroke-linejoin="round" stroke-miterlimit="2.4142" stroke-width="2.016"/>
  <path d="m261.97,52.312c24.184,14.743 28.851,39.563 25.457,71.7 0,13.047 2.122,34.897 6.682,45.716 2.863,6.046 7.425,10.289 11.774,15.38 0,1.591.529,4.349 0,5.939-2.334-1.167-3.925-4.243-4.563-4.243-4.349-3.818-17.076-22.486-19.41-38.078-2.651-11.136.956-11.136-1.484-45.291-.53-13.046-1.484-23.335-5.728-31.394-.32-2.551-2.54-10.612-12.73-19.734z" fill="#feb342" stroke="#000" stroke-linecap="round" stroke-linejoin="round" stroke-miterlimit="2.4142" stroke-width="2.016"/>
  <path d="m131.62,78.509c4.243,17.926-4.878,50.807-.424,61.626" fill="none" stroke="#000" stroke-linecap="round" stroke-linejoin="round" stroke-miterlimit="2.4142" stroke-width="2.016"/>
  <path d="m149.12,134.62c21.85.213 41.26,13.896 64.595-16.652-32.14,24.82-42.22,13.89-64.6,16.65z" fill="#d8ae4e"/>
  <path d="m41.141,202.5c.106-3.925 2.546-5.198 5.198-6.683" fill="none" stroke="#000" stroke-miterlimit="2.4142" stroke-width="2.016"/>
  <path d="m42.625,205.05c-.636-2.971 2.229-6.047 4.667-7.638" fill="none" stroke="#000" stroke-miterlimit="2.4142" stroke-width="2.016"/>
  <path d="m131.62,78.829c3.607,19.622-4.667,52.184-.211,61.306 8.485-5.198 18.35-5.727 26.517-5.198-35.86.64-20.9-47.627-26.31-56.111z" fill="#d8ae4e"/>
  <path d="m212.76,117.54c4.561-14.744 5.94-36.169 4.031-43.911l1.803,2.543c.53,17.714 0,23.866-3.606,38.185-.52,1.48-1.27,2.44-2.22,3.18z" fill="#d8ae4e"/>
  <path d="m32.231,10.945c0-.849-.531-3.394-.213-6.788 3.819,3.605 7.425,4.985 12.623,5.938-3.076.213-6.576-4.772-5.622-8.167 1.167,1.911 8.804,7.956 14.956,7.531 8.91-1.803 7.956-7.531 7.743-9.016 3.076,4.456 4.88,10.183 4.456,13.79 3.394-1.167 8.273-4.985 14.001.954 7.956.744 8.485,2.653 11.879,4.031 2.758-.211 15.592,6.151 21.32,8.38 .106.636-1.273.636-3.182.954 9.122,6.894 20.152,1.697 28.001,18.774-4.773-6.894-13.683-1.698-18.137-2.758 .212,2.97-.425,13.152-1.273,17.29-.742-2.439-2.122-7.425-3.606-9.44 1.804,2.969 2.758,23.547 7.214,27.576-3.076-1.801-4.563-2.333-7.956-5.196-.106,6.576-2.334,10.605-3.818,13.895-.424-1.167-1.38-4.031-2.122-6.047-.742.319-1.271,1.591-1.909,1.804-.211,1.485-.211,3.287-.211,3.818 1.909,6.152.211,17.184-7.319,26.411 .105-1.802 1.272-6.576 0-7.636-3.924,14.743-2.015,31.396-15.805,46.563 1.06-3.076 2.969-11.985 2.227-12.834-.424.319-2.758,7.849-4.561,9.44-.955-3.287-4.136-27.259-5.409-32.88-1.591,2.863.318,23.546 3.606,28.32-3.924-2.971-14.956-18.032-15.592-25.139-2.653,2.44-3.5,4.349-7.744,8.167 .319-3.818 2.122-22.804 1.379-24.606 .849-4.986-2.333,12.41-8.909,14.425 .636-3.82 3.818-26.624 2.545-31.397-.425,1.803-4.136,9.547-4.243,16.334-3.182-3.076-3.712-14.107-2.863-19.199-2.335,4.986-6.365,11.138-10.82,15.063 4.667-12.305-5.516-50.275 8.38-60.351-.531-1.911-1.273-4.456-1.804-7.531-10.819,7.531-11.985,3.5-12.834,7 0-3.5 1.591-4.561 4.455-6.683-.742-.211-1.591-.211-4.88.211-1.167-.742 4.244-6.363 10.29-9.439-4.985-.424-13.79,12.41-22.274,9.228 6.151-4.349 16.865-14.637 20.896-14.532-4.138-.954-9.335-5.091-15.063-3.925-.197-1.594 8.075-4.139 12.213-2.337z" stroke="#000" stroke-linejoin="round" stroke-miterlimit="2.4142" stroke-width="2.016"/>
  <path d="m39.867,28.341c.106-4.562 3.925-6.365 4.031-9.016 .742-4.349 4.985-2.122 5.833,0 2.333,2.969.742,3.394 2.864,5.833 1.591,4.878-.742,7.636-1.909,11.243-2.863,3.501-9.439,4.032-10.819-8.06z" fill="#fecc5c" stroke="#000" stroke-linecap="round" stroke-linejoin="round" stroke-miterlimit="2.4142" stroke-width="2.016"/>
  <path d="m18.336,50.721c-.744.213-8.062,6.576-8.273,8.592 0,.213-.106.106.318.106 .318-1.909 5.516-6.258 8.273-8.592-.213,0 0,.107-.318-.106m1.379-5.621c-2.122.529-1.273,4.349-.211,4.56 .954-.636 3.181-2.651 4.454-3.394-1.167-.317-2.652-.637-4.243-1.166m23.547-16.547c.105-.954-1.167-2.016-1.91-2.863 .531,0 3.606,2.863 3.501,2.652 0-.318-.424-.956-.424-1.167-.849-1.273-.849-3.076-.849-4.986 .318,1.062.211,3.82 1.06,4.562 .636-.637.849-4.349.849-5.304 .636-.211-.106,2.653.425,3.606 0-1.591.636-4.349 1.802-5.516-.106,1.485-1.484,3.076-.424,4.138 .424-.424.956-1.486 1.273-1.909 .742,1.06-1.061,2.121-.743,3.181 1.378,0 1.167-1.06 2.121-1.06 0,.955-3.076,1.909-2.227,2.651 .318.637 2.865-1.591 3.713-.424-2.971.424-4.349,1.591-3.182,1.486h1.484c1.273.105 1.061,1.167 2.227,1.591-2.016.318-2.863-1.273-3.394-.955-.106.531.636,1.909 1.378,2.545-1.484-.211-2.333-2.863-3.076-2.014 1.38,1.909.531,3.181 2.44,4.136 .213,0 1.38,1.273 1.38,1.485-1.591-1.167-3.183-2.016-3.82-1.909 0,1.061 2.333,1.591 2.122,2.758-.213-.212-.531-.425-.742-.636 0,.424.211.954.211,1.378-2.545-3.5-3.818-1.591-3.394-4.349v-.85c-.318,0-2.44,1.591-.211-.53-.955-.531-1.591.954-2.546.318 .425-.531.956-1.167.956-2.015m-36.595,35.851c-2.545,1.273-3.287,1.273-5.727-.743-.531,2.016 1.167,5.728 3.182,6.576 .001-1.061.85-4.029 2.545-5.833m19.412,5.62c.212,0 .425.213.425.426s-.213.423-.425.423c-.319,0-.424-.213-.424-.423s.105-.426.424-.426m-3.5,1.592c.318,0 .424.213.424.426 0,.316-.106.423-.424.423-.213,0-.319-.106-.319-.423 0-.213.106-.426.319-.426m-3.925,1.378c.318,0 .424.106.424.426 0,.213-.106.317-.424.317-.213,0-.318-.104-.318-.317 0-.32.105-.426.318-.426m-4.455,1.275c.318,0 .531.106.531.423 0,.213-.213.426-.531.426-.212,0-.318-.213-.318-.426 0-.317.106-.423.318-.423m9.44,2.439c.318,0 .531.104.531.423 0,.213-.213.319-.531.319-.213,0-.318-.106-.318-.319 0-.319.105-.423.318-.423m-3.713,1.059c.319,0 .424.213.424.426s-.105.423-.424.423c-.211,0-.423-.213-.423-.423s.212-.426.423-.426m4.667-4.454c.319,0 .531.106.531.423 0,.213-.211.319-.531.319-.211,0-.318-.106-.318-.319 0-.317.107-.423.318-.423m-3.712,1.378c.318,0 .424.106.424.426 0,.21-.106.316-.424.316-.211,0-.424-.106-.424-.316 0-.319.213-.426.424-.426m-3.393.849c.211,0 .424.106.424.426 0,.21-.213.423-.424.423-.318,0-.424-.213-.424-.423-.001-.32.106-.426.424-.426m3.182-37.229c-.424.849-2.122,2.546-1.062,5.94-1.378-1.273 0-5.727 1.062-5.94m3.5,19.835c3.711,3.289 7.105,6.789 4.985,13.79 .424,0 .318,0 .636-.213 2.333-8.167-3.287-12.939-5.409-13.682 .318,0-.636.105-.212.105m2.121,24.288c1.484-1.167 1.379-2.969 3.924-6.045-.211,0-.318.106-.531.106-4.772,5.939-9.863,6.575-13.259,6.363-2.014-.106-4.242-1.167-5.727-1.803 2.97,3.288 12.199,4.348 15.593,1.379m279.7,107.03-1.484-.213c-.529-.106-1.909-1.06-2.439-1.909-.53,0-.425-1.06-1.061-1.06 0,2.438 1.38,4.454 1.909,7l1.804,1.696c.529,2.44 2.758,4.88 2.758,7.425l1.167,1.697c0,1.591.636,2.44.636,4.031l1.697,2.438c0,2.546 1.696,5.091 2.863,6.683h3.5l1.167-1.591v-8.379l-.636-.742v-3.289c-1.061-1.696-4.561-8.274-4.561-10.819l-7.638-7.636 .31,4.67"/>
  <path d="m252.32,145.65c-5.727,15.699-10.925,10.925-11.985,17.712-1.272,8.38 4.138,13.047 1.698,21.214 3.182,1.061.636,7.743 3.712,6.258 4.666-2.333 5.091-7.531 3.5-9.865 0-6.363-1.909-9.863-1.485-15.379 .64-6.56 2.55-12.4 4.56-19.93z" fill="#d8ae4e" stroke="#000" stroke-miterlimit="2.4142" stroke-width="2.016"/>
  <path d="m18.441,50.403c1.591-.954 4.243-3.5 5.516-4.031l-5.728-1.696" fill="none" stroke="#000" stroke-linecap="round" stroke-linejoin="round" stroke-miterlimit="2.4142" stroke-width="2.016"/>
 </g>
</svg>
