<?xml version="1.0" encoding="UTF-8"?>
<svg width="238.55" height="247.55" enable-background="new 0 0 238.548 247.552" viewBox="0 0 238.548 247.552" xmlns="http://www.w3.org/2000/svg">
 <g fill-rule="evenodd">
  <path d="m12.863,123.9c1.521,2.367 4.308,4.055 6.251,4.985 2.871,1.351 6.926,5.574 17.653,5.912-.761,3.888.169,7.35-.337,10.221-.593,2.874 0,5.407-2.112,10.39-2.111,4.985-5.998,17.822-5.238,25.931 1.015,9.968-3.209,13.008-3.968,15.71-.593,1.858-3.633,6.59-4.31,13.261-.422,5.407-2.112,9.799 1.943,13.432 4.055,3.715 4.224,3.715 8.7,1.181 .762,2.112 2.027,3.633 8.616-1.943 4.645-3.802 5.576-22.636 7.265-25.338 1.772-2.703 5.574-6.504 6.335-14.191 .253-1.943 4.73-13.683 7.01-17.147 4.982-7.688 4.477-18.582 5.829-20.862 3.462-.255 8.699-.424 10.641-2.958 3.295-.168 7.856-1.35 10.221.169 2.28,1.605 10.896,6.928 10.896,11.149 0,2.196.931,3.886.931,3.886s-1.521,6.335-3.211,9.375c-1.774,3.126-3.293,12.755-2.871,16.894 .337,4.308 1.521,8.615-.593,13.514-2.872,6.675-2.449,13.938-4.391,16.894-2.704,4.055-2.282,13.432-2.873,18.077s1.858,10.388 3.211,10.559 2.364-1.521 2.364-1.521-1.437,2.871 1.098,4.224c2.533,1.352 6.928,4.055 10.982-2.281s3.8-17.147 7.517-22.891c4.561-1.774 8.868-2.281 11.824-3.631 2.449-1.184 7.519-1.437 10.728-2.536 2.873-.928 9.039-1.435 10.559-.759 3.717,1.521 12.501-1.184 18.668,1.352 3.209,1.35 9.037,2.871 13.599,3.04 4.646.253 17.315,3.886 25.172,2.871 7.938-.928 28.296-6.926 31.505-18.752 3.295-11.993 6.926-17.735 4.984-39.445-1.689-19.259-8.362-32.773-12.417-38.771h-212.18z" fill="#f0bc9c"/>
  <path d="m225.04,123.9c-.506-.844-1.015-1.35-1.352-1.856-3.716-4.647-18.16-28.298-30.915-38.433-16.556-13.092-36.152-20.527-43.837-26.691-7.688-6.167-19.259-8.7-23.061-8.7-3.886,0-8.025-4.223-12.08-5.745 1.774-9.63.087-20.864 5.238-24.75 3.971-3.125-.759-5.998-4.224-3.715-3.464,2.365-12.501,9.881-14.444,13.261-1.942,3.462-10.559,3.462-12.501,5.829-4.562-1.184-11.487-1.184-16.47.928s-5.576,1.35-7.688.591c-1.013-.169-2.702.339-1.182-4.055s3.717-10.557-.338-20.524c-2.535-5.998-.424-13.683-7.35-7.94-5.744,4.814-9.206,10.643-10.727,15.796-1.605,5.236-3.293,6.165-3.464,14.021s-.59,11.742-3.124,17.316c-2.449,5.576-5.489,8.278-9.207,14.951-6.926,12.586-3.379,14.021-7.263,19.259-1.774,2.28-2.536,6.335-2.367,6.926-2.278.76-4.392,3.97-4.561,5.491s-3.63,2.956-4.223,4.814c-3.631,1.352-7.095,2.871-8.276,4.645-1.183,1.69-2.449,3.886-.761,8.023 1.689,4.226 4.985,6.59 10.896,7.012 0,1.268.424,2.534 1.099,3.546h212.17z" fill="#f0bc9c"/>
  <path d="m63.711,34.622c-1.013-.169-2.702.339-1.182-4.055s3.717-10.557-.338-20.524c-2.535-5.998-.424-13.683-7.35-7.94-5.744,4.814-9.206,10.643-10.727,15.796-1.605,5.236-3.293,6.165-3.464,14.021s-.59,11.742-3.124,17.316c-2.449,5.576-5.489,8.278-9.207,14.951-6.926,12.586-3.379,14.021-7.263,19.259-1.774,2.28-2.536,6.335-2.367,6.926-2.278.76-4.392,3.97-4.561,5.491s-3.63,2.956-4.223,4.814c-3.631,1.352-7.095,2.871-8.276,4.645-1.183,1.69-2.449,3.886-.761,8.023 1.689,4.226 4.985,6.59 10.896,7.012-.169,4.139 4.477,7.179 7.35,8.531s6.926,5.574 17.653,5.912c-.761,3.888.169,7.35-.337,10.221-.593,2.874 0,5.407-2.112,10.39-2.111,4.985-5.998,17.822-5.238,25.931 1.015,9.968-3.209,13.008-3.968,15.71-.593,1.858-3.633,6.59-4.31,13.261-.422,5.407-2.112,9.799 1.943,13.432 4.055,3.715 4.224,3.715 8.7,1.181 .762,2.112 2.027,3.633 8.616-1.943 4.645-3.802 5.576-22.636 7.265-25.338 1.772-2.703 5.574-6.504 6.335-14.191 .253-1.943 4.73-13.683 7.01-17.147 4.982-7.688 4.477-18.582 5.829-20.862 3.462-.255 8.699-.424 10.641-2.958 3.295-.168 7.856-1.35 10.221.169 2.28,1.605 10.896,6.928 10.896,11.149 0,2.196.931,3.886.931,3.886s-1.521,6.335-3.211,9.375c-1.774,3.126-3.293,12.755-2.871,16.894 .337,4.308 1.521,8.615-.593,13.514-2.872,6.675-2.449,13.938-4.391,16.894-2.704,4.055-2.282,13.432-2.873,18.077s1.858,10.388 3.211,10.559 2.364-1.521 2.364-1.521-1.437,2.871 1.098,4.224c2.533,1.352 6.928,4.055 10.982-2.281s3.8-17.147 7.517-22.891c4.561-1.774 8.868-2.281 11.824-3.631 2.449-1.184 7.519-1.437 10.728-2.536 2.873-.928 9.039-1.435 10.559-.759 3.717,1.521 12.501-1.184 18.668,1.352 3.209,1.35 9.037,2.871 13.599,3.04 4.646.253 17.315,3.886 25.172,2.871 7.938-.928 28.296-6.926 31.505-18.752 3.295-11.993 6.926-17.735 4.984-39.445-1.858-21.708-10.137-36.15-13.769-40.627-3.716-4.647-18.16-28.298-30.915-38.433-16.556-13.092-36.152-20.527-43.837-26.691-7.688-6.167-19.259-8.7-23.061-8.7-3.886,0-8.025-4.223-12.08-5.745 1.774-9.63.087-20.864 5.238-24.75 3.971-3.125-.759-5.998-4.224-3.715-3.464,2.365-12.501,9.881-14.444,13.261-1.942,3.462-10.559,3.462-12.501,5.829-4.562-1.184-11.487-1.184-16.47.928-4.994,2.129-5.587,1.367-7.698.608z" fill="none" stroke="#000" stroke-miterlimit="2.4142" stroke-width=".216"/>
  <path d="m94.456,73.055s-1.771,3.04-3.124,3.97c-1.353,1.013-.844,5.998-2.112,8.278-2.111,3.884 1.605,1.774 0,6.926-1.097,3.802-.59,8.447-2.449,10.98-1.942,2.534-2.957,4.561-3.717,7.686-.76,3.042-5.32,7.266-8.024,9.63-2.703,2.281-6.334,5.489-6.334,5.489s2.534.93 7.095-3.377c4.646-4.477 3.887.846 8.616-5.998 4.813-6.926 8.868-15.373 9.797-13.852 1.353-3.379 1.943-8.193 1.605-11.318-.422-3.042 2.111-5.745 1.099-9.799-.93-4.055 2.871-11.909 4.814-13.43-3.631,2.7-5.321,4.98-7.264,4.812z" fill="#cca084"/>
  <path d="m16.24,126.78c1.605,1.012 4.139,2.196 5.745,3.293 1.605,1.184 5.32,3.548 12.586,4.31 2.871.253 3.124.673 3.377,1.097 .169.506 14.698,9.207 19.512,9.207 4.816,0 8.531,1.184 8.615.761 .085-.339.34-.339.593-.339s7.349-.084 9.376-1.943c1.858-1.688 3.208-2.278 5.997-2.112 14.782.506 19.428-7.348 23.227-8.7 1.015-.422 1.521-1.435-.759-.675s-4.393,2.28-5.745,3.125-2.702-.338-.844-1.604c1.774-1.268 5.576-2.958 6.335-3.126 .76-.253 1.521-2.534-.253-2.027-1.858.593-4.055.846-5.913,1.69-1.858.846-2.871,2.196-2.111.93 .759-1.184 5.069-3.211 7.519-3.886 2.364-.677 1.688-1.521.169-1.521-.931,0-2.452-.929-4.309.168-1.942,1.015-2.788,1.521-3.295,2.027-.506.422.169-.928 1.1-2.196 .844-1.182-2.534-1.772-5.407.759-2.871,2.451-11.318,4.816-11.571,3.211-.169-1.521-1.353-3.633-5.744-.93s-10.98,2.111-14.951,3.801c-4.055,1.774-8.278,0-2.533-1.69 5.744-1.772 12.079-3.884 14.444-6.333 2.28-2.449 9.375-7.771-1.943-2.027-11.318,5.658-28.465,3.377-32.267,4.139-3.891.76-16.137,1.52-20.954.6z" fill="#e8b496" stroke="#edb99a" stroke-linecap="round" stroke-linejoin="round" stroke-miterlimit="2.4142" stroke-width=".36"/>
  <path d="m75.282,143.41s1.605-1.181-1.266-1.858c-2.956-.673-6.673-2.109-6.842-3.377-.253-1.268 4.308,2.196 9.966,1.69 5.66-.422 10.896-2.196 15.459-10.812 3.715-6.841 5.405-4.983 4.055-3.548-1.353,1.437-2.62,4.139-1.268,3.042 1.35-1.015 5.067-3.464 7.179-3.548 2.196-.084 2.871.591.253,1.35-2.702.762-7.685,3.295-8.277,5.66-.591,2.449 1.099-.844 3.886-1.943 2.786-1.013 6.588-2.196 7.01-1.435 .509.844-4.477,1.943-6.502,3.04-2.027,1.015-4.479,2.449-3.126,4.477s3.38-.506 5.575-2.281c2.112-1.774 4.814-2.787 5.658-2.449 .762.422-1.266,1.435-3.209,2.281-1.858.759-4.645,3.464-4.223,5.829s0,5.152 5.151,5.913c4.982.591 9.037-.424 6.251.929-2.618,1.352-5.405.59-7.011.084-1.521-.506-2.789-.846-2.533.338 .253,1.266-.846,8.109-1.943,10.221-1.268-1.774 0-4.223-2.364-6.841-2.196-2.28-8.869-8.447-12.164-8.531-3.209-.086-7.941.253-8.363.759-.339.52-1.354,1.02-1.354,1.02z" fill="#cca084"/>
  <path d="m93.612,184.72s1.1,4.985 3.211,5.745c4.055,1.437 4.39,5.151 8.191,5.491 2.62.169 2.62-1.184 4.729-.34 2.027.931 1.269,1.099.087,2.705-1.268,1.604-5.322,3.293-8.025,2.787-2.617-.506-5.069-2.111-5.575-1.774-.422.424-.591,1.099-2.027,1.268-1.435.253-3.04,3.042-3.04,3.042s.675-3.973 2.027-6.506c1.356-2.45 1.442-7.27.427-12.42z" fill="#cca084"/>
  <path d="m130.44,168.16c.422-2.871 1.605-7.095 2.449-7.77 1.184-1.015 1.521-6.757 2.787-8.533 1.184-1.859.678-.844 2.282-5.321 1.688-4.477 5.405-5.32 5.912-8.194 .424-2.871.93-4.477.253-5.491-.676-.928.677-5.573.171-6.841s-1.859-4.053-1.437-.169c.422,4.055-3.549,8.787-6.251,11.742-2.703,3.04-1.605,5.827-2.703,7.856-1.015,2.196-5.237,8.194-7.434,8.867-2.196.677-2.027,10.896-5.152,12.754-.337.253-.59.593-.846,1.099h9.97z" fill="#cca084"/>
  <path d="m188.22,168.16c1.437-1.099 2.618-1.605 3.04-2.365 .93-1.774 2.533-3.126 3.211-3.042 .675.086 1.435,0 2.28-1.519s2.702-1.943 3.886-2.196c1.097-.253 2.278-2.536 1.097-1.943-1.097.591-4.139.337-6.335,1.097s-1.097,2.451-2.618,2.618c-1.437.255-2.027,2.029-3.886,3.717-1.013.846-2.786,2.027-4.646,3.633h3.98z" fill="#cca084"/>
  <path d="m120.47,168.16c-1.097,2.196-1.35,6.926-4.308,9.377-2.365,1.941-.082,2.956 0,6.417 .171,12.754-3.209,15.12-4.393,18.33-1.266,3.125.34,7.856.34,8.109-.171-1.858 1.182-6.59 1.351-7.856 .169-1.184 1.521-1.353 2.28-1.943 .846-.506 1.858-.677 3.717-.338 1.858.253 8.7-1.437 9.884-2.196 1.351-.931 3.884-.508 6.08,1.437 1.942,1.603 1.858,2.871 3.211,4.053 1.013.846 2.533,2.958 2.618,1.943 .253-3.04-2.703-2.281-.844-5.829 1.012-1.941-.762-2.702-2.112-2.956-1.437-.337 1.604-.759 3.209-1.772 1.689-.93 6.166-.762 8.362-.593 2.196.253 7.179,2.787 8.869,3.97 1.605,1.184 2.449.76 1.437-.337-1.1-1.184-1.184-2.787-2.956-3.126-1.858-.253-6.419-1.266-6.166-1.772 .422-1.353 8.276-2.452 9.375-.593 .929,1.015 3.378,1.015 4.729,2.28 1.353,1.268 2.618,1.015 1.943.506-.675-.591-1.097-3.208-3.209-4.475s-4.392-.93-3.295-1.692c1.182-.759 4.982-3.293 10.137-5.911 5.151-2.536 6.335.506 7.264-1.099 1.012-1.689 5.153-.928 4.477-1.943-1.605-2.196-5.914,1.015-4.309-2.28 1.521-3.293 4.814-1.859 5.407-3.462 1.182-3.377 3.04-5.154 4.646-6.251h-3.971c-1.437,1.268-2.955,2.956-4.055,5.067-2.533,4.73-3.633,1.943-4.729,4.563-1.184,2.534-8.024,3.377-12.164,6.165-3.124,2.282-6.251.846-9.291,2.449 0,0-5.32-1.604-7.01-1.604-1.774,0 .591-1.774-3.633-2.365-4.224-.508-3.124-3.802-8.7-4.392-2.449-.253-1.182-4.139-4.055-7.181-.337-.337-.337-1.353-.169-2.703h-9.96z" fill="#cca084"/>
  <path d="m141.25,205.5c.253-3.04-2.703-2.281-.844-5.829 1.012-1.941-.762-2.702-2.112-2.956-1.437-.337 1.604-.759 3.209-1.772 1.689-.93 6.166-.762 8.362-.593 2.196.253 7.179,2.787 8.869,3.97 1.605,1.184 2.449.76 1.437-.337-1.1-1.184-1.184-2.787-2.956-3.126-1.858-.253-6.419-1.266-6.166-1.772 .422-1.353 8.276-2.452 9.375-.593 .929,1.015 3.378,1.015 4.729,2.28 1.353,1.268 2.618,1.015 1.943.506-.675-.591-1.097-3.208-3.209-4.475s-4.392-.93-3.295-1.692c1.182-.759 4.982-3.293 10.137-5.911 5.151-2.536 6.335.506 7.264-1.099 1.012-1.689 5.153-.928 4.477-1.943-1.605-2.196-5.914,1.015-4.309-2.28 1.521-3.293 4.814-1.859 5.407-3.462 2.365-6.504 6.842-6.926 7.686-8.616 .93-1.774 2.533-3.126 3.211-3.042 .675.086 1.435,0 2.28-1.519s2.702-1.943 3.886-2.196c1.097-.253 2.278-2.536 1.097-1.943-1.097.591-4.139.337-6.335,1.097s-1.097,2.451-2.618,2.618c-1.437.255-2.027,2.029-3.886,3.717-1.858,1.605-6.251,4.055-8.7,8.7-2.533,4.73-3.633,1.943-4.729,4.563-1.184,2.534-8.024,3.377-12.164,6.165-3.124,2.282-6.251.846-9.291,2.449 0,0-5.32-1.604-7.01-1.604-1.774,0 .591-1.774-3.633-2.365-4.224-.508-3.124-3.802-8.7-4.392-2.449-.253-1.182-4.139-4.055-7.181-.928-1.013 1.015-9.544 2.28-10.472 1.184-1.015 1.521-6.757 2.787-8.533 1.184-1.859.678-.844 2.282-5.321 1.688-4.477 5.405-5.32 5.912-8.194 .424-2.871.93-4.477.253-5.491-.676-.928.677-5.573.171-6.841s-1.859-4.053-1.437-.169c.422,4.055-3.549,8.787-6.251,11.742-2.703,3.04-1.605,5.827-2.703,7.856-1.015,2.196-5.237,8.194-7.434,8.867-2.196.677-2.027,10.896-5.152,12.754-1.858,1.268-1.689,7.519-5.153,10.477-2.365,1.941-.082,2.956 0,6.417 .171,12.754-3.209,15.12-4.393,18.33-1.266,3.125.34,7.856.34,8.109-.171-1.858 1.182-6.59 1.351-7.856 .169-1.184 1.521-1.353 2.28-1.943 .846-.506 1.858-.677 3.717-.338 1.858.253 8.7-1.437 9.884-2.196 1.351-.931 3.884-.508 6.08,1.437 1.942,1.603 1.858,2.871 3.211,4.053 1,.83 2.52,2.94 2.6,1.93z" fill="none" stroke="#deafa4" stroke-linecap="round" stroke-linejoin="round" stroke-miterlimit="2.4142" stroke-width=".36"/>
  <path d="m36.936,134.88s-.253.76-.337,2.281c-.084,1.097.084,2.534.084,4.308 .168,3.715-.338,2.534-.591,7.264 0,.928-.255,2.449-.593,3.462-.844,3.211-2.027,4.9-3.293,9.546-1.268,4.561.084.846.928-.759 .844-1.69 3.97-5.745 6.082-6.335 2.112-.677 2.027.76 3.717.844 1.772.084 2.112,1.943 1.772,4.224-.422,2.281.846,6.504.593,8.7-.168,2.196 1.943-.76 2.956-3.886 .931-3.208 1.268-5.995 4.308-7.01 2.958-1.097 4.985-2.618 5.575-.928 .507,1.772 1.098,10.135-.255,14.358 2.282-5.321 3.549-5.911 5.069-10.728 1.774-5.827 2.196-13.514 3.124-14.951-5.573.508-6.926-2.194-8.528-1.859-1.69.424-6.251-1.013-8.618-3.04-2.449-2.027-8.953-3.801-8.869-4.561s-.169-.675 1.689-.762c1.943-.167 11.318-2.449 13.346-3.462 2.027-1.097-2.365.506-5.152,1.013s-5.152.762-7.771,1.521c-2.618.78-5.236.78-5.236.78z" fill="#cca084"/>
  <path d="m22.069,215.13c-.506,5.829 1.015,7.095 2.702,10.303-.759-.928-2.618-2.112-3.546-3.799-1.268-2.281-.846-5.998-.593-8.109 .255-2.112.424-4.901 1.605-9.038 .422-1.605 1.268-3.211 2.449-5.829 .338-.675.591-1.605 1.099-2.787 .338-.761.928-1.605 1.435-2.534 2.705-4.985 2.196-9.291 1.943-12.839-.337-3.548 1.099-11.149 1.099-11.149 1.097-2.029.169,1.69.084,5.236-.084,3.548 3.97,6.588 4.224,8.363 .337,1.858-.253,1.943 4.561,5.658 4.729,3.802 8.025.424 8.447,2.198 .337,1.856-1.184,3.546-2.449,3.799-1.268.169-2.62,1.013-3.38,2.534-.675,1.605-2.534-1.858-3.548-3.208-.928-1.353-6.25-2.365-9.881.084-3.633,2.365-3.126,7.601-4.139,10.39-.675,1.772 1.437,4.221 5.321,5.152 3.801,1.013 6.672,1.352 2.873,1.437-6.25.169-9.038-3.886-9.461-2.703-.338,1.36-.592,3.47-.845,6.85z" fill="#cca084"/>
  <path d="m38.794,219.18c-1.774,3.973-4.983,5.829-5.576,5.66-.506-.168 1.943-5.573 2.703-7.771s1.268-5.405-.76-4.222c-2.027,1.097-3.21,6.926-4.223,9.882s-4.055,3.801-4.055,3.801c1.015.337 3.633-1.099 4.732-1.858 .759,4.308 5.32.93 8.613-2.112 1.015-.844 1.943-2.534 2.62-4.983 1.604-5.491 2.534-12.164 2.534-12.164s-.761,1.268-1.183,2.112c-.929,1.605-2.703,2.787-4.308,3.04-1.69.171-2.956.93-1.181,1.015s3.377.337 2.027,3.126c-1.352,2.61-1.437,3.37-1.943,4.47z" fill="#cca084"/>
  <path d="m52.73,36.058s1.183-2.112 2.618-2.873c1.437-.76.762-4.561 1.521-5.658 .76-1.183-.253-1.943.846-3.208 1.182-1.184 1.52-4.479 1.688-7.519 0-1.521 1.015-5.576.084-9.63-.844-3.631-.506-6.926 0-6.417 .846,1.013 1.099,3.968 1.437,5.742 .338,2.027 1.689,5.236 2.027,6.251 .76,2.365 1.689,6.672 1.353,9.968-.424,3.208-1.268,5.151-1.858,7.179-.509,1.943-1.1,3.633-.509,4.393 .762.844 1.689,0 2.789,1.097 .844.762 2.787,1.099 4.561,1.353 1.69.253 1.52.591-.084.591-1.689,0-2.956-.422-5.322-1.435-2.365-1.099-3.209-.169-5.067-.675s-3.549.084-4.646.675-2.45,1.179-1.438.166z" fill="#cca084"/>
  <path d="m10.583,100.42s1.435-.677 1.943.253c.59,1.013 1.181,1.352 1.181,1.352s-1.943-2.283 2.534-3.379c2.449-.509 5.323-.422 3.886-.846-2.027-.506-3.715,0-5.151.591-1.521.593.084-1.519 2.027-2.787 2.534-1.519 5.827-2.112 8.109-2.196 .928,0-.931-.591-2.536-.422-1.605.253-3.886.677-4.899,1.352-1.097.76.506-1.69 2.449-3.464 1.859-1.69 5.152-3.293 6.42-3.633 1.183-.253 2.956-.844 1.352-1.181-1.521-.253-4.646.508-5.913,1.774-.422.506-1.353,0-.422-1.013 .759-.93-.084-1.521 1.266-2.451 2.283-1.437 1.521-3.546 2.705-4.308 2.787-1.858-.677-6.335.591-10.221-1.184,2.367-2.365,6.588-2.618,8.871-.593,5.067-4.646,5.914-4.392,11.909-1.774.76-3.802,2.705-4.395,4.983-.592,2.288-4.053,3.64-4.137,4.821z" fill="#cca084"/>
  <path d="m113.8,201.7s1.774-6.504 3.211-8.362c1.435-1.774 1.182-3.548 1.353-5.998 .169-2.365 1.097-7.01 3.124-9.797 2.196-2.789 2.956-6.928 3.886-10.477 .929-3.462 2.112-5.996 3.378-7.348s2.365-3.97 2.365-3.97-.844,3.464-2.534,5.998c-1.771,2.449.509,11.656-3.546,17.653-3.38,4.985-.424,6.588 1.013,6.843 1.437.167.675,1.435 1.774,3.293 1.015,1.774 2.955,2.027 4.392,1.268 1.437-.677 2.449,1.519 2.112,2.534-.507,1.35 2.871.591 4.813-.171s6.504-1.266 7.604-.591c.928-1.352 5.235-2.787 7.432-2.533 2.281.337 3.971-.253 5.407-1.605s8.022-4.814 9.882-5.067c-3.887,2.027-9.038,4.898-9.798,5.998-.761,1.181-2.111,1.604-3.464,1.604s-5.404.424-6.419,1.943c-2.871.424-6.082.506-8.278,1.689-2.196,1.099-4.308,1.943-6.42,1.943s-3.462.422-5.236,1.183c-1.858.844-7.263,3.209-12.923,2.45-1.93.7-2.69,1.04-3.11,1.55z" fill="#836755"/>
  <path d="m108.23,28.624c1.519-2.449 3.546-7.01 4.814-8.107 1.268-1.184 3.124-3.042 2.702-1.774-.338,1.268-3.971,4.814-3.802,8.362 .171,5.32-1.94,8.616-2.109,11.993-.253,3.464-.34,11.487-4.9,17.318-2.787,3.546-4.73,3.208-3.125,1.013 1.69-2.112 1.774-4.985 2.618-6.757 .844-1.858.844-1.943-.253-.677-1.184,1.268-2.958,4.477-4.646,5.576-1.689,1.013-.591-.084.085-1.689 .675-1.519-.085-1.437-1.015,0-1.013,1.437-.676-.422-.507-1.182 .169-.846-.169.083-1.266.591-1.015.422-1.689,2.618-3.717,4.73s-3.718,3.801-2.618.675c1.097-3.04 1.858-6.167 2.025-8.362s3.464-7.77 5.406-9.12c1.269-.846 4.985-7.94 7.264-9.04 2.28-1.014 2.62-2.788 3.05-3.55z" fill="#cca084"/>
  <path d="m90.825,59.203s1.688-4.055 1.859-7.097 3.293-8.869 4.813-10.05c2.365-1.689 5.998-8.615 8.531-9.883 2.618-1.266 2.956-4.308 4.224-6.419 1.353-2.112 2.533-4.055 2.533-4.055s-4.223,8.109-4.392,11.067c-.253,2.956-1.689,5.996-3.633,8.782-1.856,2.789-1.689,9.038-3.971,11.234 .593-2.278 1.015-4.306.762-4.812-.34-.508-.762,2.787-1.858,3.884-1.013,1.181.253-1.35-.169-4.477-.084-1.097-.93,1.183-1.689,3.126-.844,1.858-2.956,1.688-3.886,4.561s-3.798,5.998-3.123,4.139z" fill="#836755"/>
  <path d="m30.938,225.18s1.013-1.943 1.437-3.884 2.112-7.181 2.787-7.095c.675,0-.084,3.884-.928,5.067-.846,1.097-2.196,4.983-2.196,5.658s.591,1.605.591,1.605-.591-.169-1.099-1.605c-.086-.18-.592.24-.592.24z" fill="#3a3529"/>
  <path d="m92.6,238.27c.76-1.689.675-5.827 1.097-7.179 .423-1.268.338-3.04-1.097-2.027-1.605,1.099-2.958,7.771-2.789,9.459 .254,2.283-.928,4.141-.928,4.141 .422.167 1.521-.846 2.196-1.945 0,.677-.929,2.704 0,3.888 .928,1.097 1.181,1.013 1.181,1.013s-1.519-1.521-.675-3.126c.846-1.6.253-2.36 1.015-4.22z" fill="#cca084"/>
  <path d="m52.562,39.436c-4.308,1.184-11.571,8.025-13.092,11.911-1.521,3.801-9.207,14.189-9.207,16.472 0,2.365 0,11.74-1.943,14.021-1.943,2.365 4.983-2.618 7.348-1.858 2.281.759 9.63-2.534 10.728-9.038 1.184-6.504 7.266-3.464 11.911-9.628 4.646-6.167 14.951-12.67 17.316-17.315 2.28-4.563-.423-5.323-4.985-3.802-4.647,1.519-8.447-3.466-18.076-.763z" fill="#f5caa9" stroke="#f3c4a3" stroke-linecap="round" stroke-linejoin="round" stroke-miterlimit="2.4142" stroke-width=".36"/>
  <path d="m58.053,89.611c1.097,1.519 3.884,5.151 6.42,5.32 4.223.253 4.477-2.112 5.742-2.281 1.268-.253 1.942-3.801 1.353-3.464-.591.253-1.943,2.365-2.618,2.196-.678-.167-1.858,1.352-4.224.677-2.28-.677-2.449-2.281-3.717-2.874s-2.365-2.616-1.267-2.109 4.562,3.63 6.333,3.124c1.859-.422 2.196.844 4.647-1.099 2.365-1.941.929-4.561 2.703-5.067 1.689-.591 3.124-.506 3.884-.169 .762.422-1.013-1.437-2.11-1.268 1.267-.338 2.196-.76 2.534-1.097-1.353.168-2.451,0-3.127.253-.59.253 1.1-1.181 1.269-2.449s-1.437,1.688-3.042,2.365-.76-1.437-4.053-1.521-4.224-1.35-7.182.084c-2.449,1.184-1.689,1.774-2.702,1.605s-2.112.169-2.112,1.097c0,.846-1.352-.42-1.943.761s-1.437,5.323.253,4.646c1.774-.675.424-1.519 1.352-2.365 1.013-.76 1.435,1.437 1.182,2.196-.168.848.425,1.439.425,1.439z" fill="#cca084"/>
  <path d="m12.27,120.36c.846,0 3.211,2.618 6.167,3.38 2.958.928 5.069.759 6.335.167 7.688-.253 15.712-1.266 21.286-4.055 5.576-2.787 6.588-4.812 8.447-5.067 1.774-.337.759-1.437 3.886-1.097 3.208.253 4.139,1.352 5.235,1.097 1.015-.337 1.184,1.69-2.111,2.618-3.378,1.015-10.05,2.367-13.852,4.732-3.886,2.365-12.417,5.911-19.343,5.405s-8.616,2.196-12.754-1.266c-4.14-3.38-3.296-5.91-3.296-5.91z" fill="#cca084"/>
  <path d="m76.381,142.66s.253-.591-.337-1.099c-.762-.506.59-.083 2.027-.335 1.437-.171 8.024-.337 9.628-1.858 1.689-1.521 5.491-3.97 4.055-1.69-1.435,2.365 2.111,2.449 2.873,2.196 .76-.338 1.266,1.097 2.956,2.449 1.773,1.352 1.268,2.702 2.533,2.787 1.268.084 1.353,1.099 1.353,2.196 0,1.183-.509,6.25-1.943,9.714-1.268-1.774-.169-4.561-2.28-6.759s-8.784-8.445-11.995-8.614c-3.295-.18-8.278.25-8.871,1.01z" fill="#836755"/>
  <path d="m12.356,120.36s-.593,1.268.337,2.196c.844.759 6.335,3.546 10.135,2.871 3.886-.675 8.869-.168 15.12-1.688 6.251-1.353 13.177-5.829 15.12-5.829 1.858,0 4.392-1.352 3.801-2.534-.591-1.099-2.534-.424-3.293.338s-4.9,3.884-10.643,5.827c-5.745,1.858-14.107,2.705-16.725,2.451-2.618-.339-1.858,1.35-8.109-.761-3.971-1.19-3.124-2.46-5.743-2.88z" fill="#836755"/>
  <path d="m84.068,39.436s2.112-4.983 6.926-6.333 8.025-1.774 11.318-6.166 9.799-10.39 11.149-10.981c-2.534,1.943-5.742,6.333-6.926,8.447s-3.04,6.165-8.109,8.276c-4.983,2.112-6.673,2.282-7.264,5.238-.591,2.787-3.464,1.519-4.224,4.392s-.93,7.856-2.28,5.913-2.359-5.322-.585-8.786z" fill="#f5caa9" stroke="#f3c4a3" stroke-linecap="round" stroke-linejoin="round" stroke-miterlimit="2.4142" stroke-width=".36"/>
  <path d="m22.829,90.623c3.886-2.449 7.688-1.943 10.306-.084 2.787,1.858 1.183,4.139-1.69,1.605-2.281-1.943-5.998-1.943-9.122-.338-1.944.844-.844-.337.506-1.183z" fill="#f5caa9" stroke="#f3c4a3" stroke-linecap="round" stroke-linejoin="round" stroke-miterlimit="2.4142" stroke-width=".36"/>
  <path d="m17.93,96.03c2.449-1.353 7.688-2.027 11.233,1.181 2.452,2.281-.084,3.126-2.111,1.182-3.293-3.293-7.686-1.688-8.954-1.688-1.265,0-1.181-.168-.168-.675z" fill="#f5caa9" stroke="#f3c4a3" stroke-linecap="round" stroke-linejoin="round" stroke-miterlimit="2.4142" stroke-width=".36"/>
  <path d="m10.16,100.84c.929-.422 1.857-1.437 3.293.844s3.633,4.9 6.082,5.829c2.365,1.015 7.348,8.531 7.179,12.839s-3.63,4.139-5.913,3.717-6.249-2.283-7.686-3.464c-1.352-1.182-2.956-.253-6.335-1.605-4.139-1.69-6.504-5.742-6.504-9.459 0-1.943 1.266-4.055 2.956-5.32 .762-.762 1.605-1.184 2.451-1.521 1.098-.51 3.8-1.52 4.477-1.86z" fill="#fdcdaa"/>
  <path d="m58.644,84.204c-.762.424-1.015,2.112-.422,1.605s1.856-.168 1.266.084c-.591.337.591.506 1.184.759 .506.338 2.787,2.787 5.32,2.705 2.449-.084 4.985.083 5.491-3.379s-.846-4.814-3.717-4.985c-2.365-.167-4.729.255-6.504,1.183-3.38,1.859-4.14,0-3.886,1.013 .084.593 1.268,1.015 1.268,1.015z" fill="#836755"/>
  <path d="m8.133,110.3c1.097-.337.844-2.534-.593-1.943-1.35.677-4.392,1.437-4.477,2.196-.084.846.593,3.042 1.69,3.97 1.013,1.015 2.956.508 2.618-.675-.253-1.11.085-3.38.762-3.56z" fill="#fdc39e"/>
  <path d="m6.359,109.38c-1.437.506-3.295,1.519-2.62,2.196 .677.675 1.268,2.871 1.945,2.871s1.097-3.462 1.772-4.223c.677-.77 1.352-1.87-1.097-.85z" fill="#836755"/>
  <path d="m14.719,113.6c-.335-.422-.422-1.858.846-1.352s4.898,2.702 5.829,5.744c.591,1.943-1.437.591-2.789.675-1.266.084-2.956.422-2.956-1.688 0-2.19-.674-3.03-.93-3.37z" fill="#fdc39e"/>
  <path d="m15.396,113.68c.759,1.266.759,4.477 2.449,4.477 1.774,0 3.379.506 2.534-1.099-.844-1.688-2.196-2.871-3.886-3.884-1.603-.93-1.603-.26-1.097.5z" fill="#836755"/>
  <path d="m60.84,84.035s-.169,2.28 2.28,3.548c2.365,1.181 3.633.253 4.982.422s3.127-.844 2.958-3.126c-.084-2.363-1.437-2.956-2.027-3.125-1.099-.253-5.153-.168-6.928.506-1.434.592-1.265,1.269-1.265,1.775z" fill="#f1e2d9"/>
  <path d="m62.276,84.542c.169,1.352 1.771,2.62 3.884,2.111 1.858-.422 2.535-1.605 2.111-3.377-.337-1.437-1.35-1.521-1.35-1.521s-3.042,0-4.224.506c-.421.761-.506,1.521-.421,2.281z" fill="#482e28"/>
  <path d="m81.195,43.999c-.507,1.519-1.435,3.124-1.013,4.223-1.521,1.943-1.521,4.812.844,6.757-.506,1.097-.76,2.449.169,2.871-.929,2.196-1.351,2.956 1.858,4.729 1.015.593 1.858.169 2.787.506 .762.253-1.266-.422-1.52-1.772-.168-1.352-1.858-3.717-1.689-6.082 .169-2.28-3.209-1.943-1.605-6.757 1.69-4.813.593-5.912.169-4.475z" fill="#cca084"/>
  <path d="m86.181,238.19s-.085-5.321.422-8.7c.59-3.464.253-7.179 1.605-6.333 1.35.759 4.982,2.787 8.446,2.534 3.462-.171 5.32,1.266 6.08.759 .762-.424 2.449-2.956 2.28-3.97-.253-1.099-.591-.169-1.856.844-1.184.931-4.731.253-5.829-.59s-2.027.93-3.886-.591c-1.774-1.521-4.477-5.407-3.886-7.772 .593-2.28.169-3.968.169-3.968s-.253,2.956-1.519,4.73-1.859,5.742-1.943,7.095c-.582,8.7-1.428,13.26-.075,15.97z" fill="#cca084"/>
  <path d="m90.572,241.48s.844-.591 1.266-3.548c.509-3.04.254-5.067.847-6.504 .59-1.352.084-1.69-.338-.759-.509,1.013-1.689,4.729-1.689,7.179-.001,2.53.083,3.12-.086,3.63z" fill="#3a3529"/>
  <path d="m24.94,72.801s-.084,2.871.171,3.377c.335.593 1.772.762.928,1.437-.506.422-1.521.169-.928.422 .506.253.675,1.352.167,1.183-.422-.253-1.941.338-1.941.338 .337-2.111.76-4.898 1.603-6.757z" fill="#836755"/>
  <path d="m61.599,163.94s2.196-3.462 3.296-11.742c.506-3.546.759-5.996 1.266-6.926-5.742.424-6.082-2.027-8.7-1.859-1.858.171-5.32-.759-7.348-2.025-2.027-1.353-2.449-2.027-6.673-3.886 1.435,1.859 7.01,5.911 7.348,8.785 .422,2.871 1.015,2.871 2.449,3.208 1.436.43 11.151-.92 8.362,14.45z" fill="#836755"/>
  <path d="m101.21,160.22c-.928,2.196-3.546,5.745-4.645,10.896-1.182,5.238-1.941,10.98-.169,12.839 1.689,2.027 4.561,2.789 4.392,1.437-.168-1.437.931-2.365 2.705-5.238 1.688-2.871 4.982-5.405 3.04-9.544-1.943-4.308-1.774-11.824.759-13.854 2.536-2.11 5.069-4.561 2.874-3.884-3.971,1.352-7.097-1.184-6.929,1.181 .26,2.27-1.52,4.55-2.03,6.15z" fill="#f5caa9" stroke="#f3c4a3" stroke-linecap="round" stroke-linejoin="round" stroke-miterlimit="2.4142" stroke-width=".36"/>
  <path d="m93.274,204.15c-1.015,1.181-2.28,4.814-2.111,8.109s1.943,5.405 3.293,5.574-.253-3.886 1.521-4.983c1.689-1.184 1.352-5.154 1.352-7.35 0-2.11-1.351-4.14-4.055-1.35z" fill="#f5caa9" stroke="#f3c4a3" stroke-linecap="round" stroke-linejoin="round" stroke-miterlimit="2.4142" stroke-width=".36"/>
  <path d="m90.488,225.94c-1.69-.761-2.112-3.21-2.62.928-.422,4.139-1.013,11.065-.338,12.08 .678,1.097 1.353,2.112 1.268-.677-.168-2.787.422-7.348 1.353-8.784 .843-1.44 2.196-2.79.337-3.55z" fill="#f5caa9" stroke="#f3c4a3" stroke-linecap="round" stroke-linejoin="round" stroke-miterlimit="2.4142" stroke-width=".36"/>
  <path d="m95.809,229.32s-.085,6.673-1.013,8.7c-2.282,4.985-2.111,5.745-.762,6.504s4.055-2.449 4.647-8.023c.507-5.576 1.519-7.519 0-7.519s-3.294-.93-2.872.34z" fill="#f5caa9" stroke="#f3c4a3" stroke-linecap="round" stroke-linejoin="round" stroke-miterlimit="2.4142" stroke-width=".36"/>
  <path d="m24.097,212.51c-.338,2.705-.844,7.519.253,8.955 1.015,1.435.591,2.871 1.268,3.209 .675.253 1.519-3.548 1.012-6.335s.506-4.646.931-5.405c.506-.761-1.437-.675-2.027-1.184-.594-.43-1.184-.6-1.437.75z" fill="#f5caa9" stroke="#f3c4a3" stroke-linecap="round" stroke-linejoin="round" stroke-miterlimit="2.4142" stroke-width=".36"/>
  <path d="m37.188,159.04c-1.943,1.519-4.477,8.616-4.477,14.021s4.983,9.038 5.576,7.856c.591-1.099-1.099-5.913 0-6.504 1.182-.591 4.055-6.926 2.196-10.39-1.942-3.47-1.351-6.51-3.295-4.99z" fill="#f5caa9" stroke="#f3c4a3" stroke-linecap="round" stroke-linejoin="round" stroke-miterlimit="2.4142" stroke-width=".36"/>
  <path d="m30.432,194.26c-1.521.677-4.308,3.464-3.886,6.841 .337,3.38-.844,3.464.759,5.067 1.521,1.69 3.633-.253 2.874-1.603s3.377-1.521 3.462-5.576c.084-4.05-1.098-5.57-3.209-4.73z" fill="#f5caa9" stroke="#f3c4a3" stroke-linecap="round" stroke-linejoin="round" stroke-miterlimit="2.4142" stroke-width=".36"/>
  <path d="m57.882,77.193c-.253.844-.422,1.859-1.181,2.112-.844.169.253,1.097 1.521-.084 1.266-1.268 2.449-4.477 4.898-4.731 2.365-.253 3.295.593 3.633.17 1.182-1.183 1.266,1.097 2.28.422 .844-.506.929,1.012 1.689.759 .76-.337 1.52.337 2.11,1.184 .593.928 3.548.59 3.548.59-.675-1.012-1.435-1.521-2.364-1.437-.76.086-1.267-.928-2.787-2.363-1.605-1.437-2.62-1.437-2.958-.761-.253.675-1.35-1.015-2.871-.591-1.521.337-2.787.928-3.377.591-.508-.421-3.379,1.606-4.141,4.139z" fill="#f5caa0"/>
  <path d="m32.965,103.97c-3.04,2.28-6.588,3.801-8.447,3.042-1.943-.762-2.956-.337-.76,1.35 2.112,1.774 3.802,4.983 4.139,6.928 .422,1.943.844,5.067 1.604,2.871 .761-2.112 0-5.745 1.689-5.154 1.774.593 9.459-.591 10.981-2.703s4.985-3.801 7.097-3.63 5.995.337 2.702-1.353c-3.295-1.774-5.576-4.223-5.152-6.757 .338-2.449-1.521-3.802-1.945-1.184-.422,2.789-3.884,5.067-4.983,3.126-1.181-1.943-3.293-.169-3.717,1.688-.337,1.93-1.687.58-3.208,1.76z" fill="#e8b496"/>
  <path d="m66.668,83.189c-.677-.253-1.858.171-.93.34 .762.253 1.184.337 1.521.675 .591.59.76-.591-.591-1.015z" fill="#e5e1d7"/>
  <path d="m60.84,83.189s-.591.171-.422,1.015c.253.844-.34.591-.509.762s.593.083 1.184,1.097 2.196,2.534 4.729,2.449 5.407.084 5.238-3.464c-.255,1.858-1.015,3.042-3.042,2.958-2.111,0-2.618.506-4.477-.337s-2.87-2.366-2.701-4.48z" fill="#65584c"/>
  <path d="m1.798,114.7s1.688,1.774 2.787,1.858c1.182,0 2.365,1.097 3.462.169 1.184-.929 3.126,0 2.958-1.774-.084-1.858.506-4.055.759-3.04s-.253,3.38.762,4.308c1.013.928 0,2.365 1.858,2.534 1.772.084 2.11,2.111 4.477,2.873 2.281.759 7.095,1.688 7.854-1.521 .169,2.618-1.35,4.73-5.489,3.97-5.744-.93-7.94-3.97-9.546-4.055s-7.348-.42-9.882-5.32z" fill="#fdc39e"/>
  <path d="m114.06,42.478s-.424,4.646-2.283,9.797c-1.94,5.154-7.77,14.191-12.583,17.908-4.732,3.633-6.675.169-7.856.338-1.1.168.76,1.772.76,1.772" fill="none" stroke="#000" stroke-miterlimit="2.4142" stroke-width=".216"/>
  <path d="m87.868 33.103s-2.618 1.688-3.884 3.631-2.112 3.97-2.62 3.633" fill="none" stroke="#000" stroke-miterlimit="2.4142" stroke-width=".216"/>
  <path d="m123.18,191.9c-.509-2.027-1.521-5.405-1.69-3.295 0,2.112 1.521,5.66.169,7.181-1.353,1.605-.591,3.209-2.111,4.477 2.533,0 5.997-.759 9.546-2.196 3.546-1.521 4.053-1.521 5.826-1.521-1.435-.844-4.898-.76-6.841-.169-1.96.6-4.24-1.77-4.91-4.47z" fill="#3a3934"/>
  <path d="m136.44 149.84s-2.365 12.246 1.689 16.132c4.055 3.801 11.909 9.206 16.724 11.318s10.812 2.871 21.37-4.224c10.559-7.094 11.317-8.615 13.432-8.615" fill="none" stroke="#e8b496" stroke-linecap="round" stroke-linejoin="round" stroke-miterlimit="2.4142" stroke-width="3.816"/>
  <g fill="none">
   <path d="m137.28,148.74c0,.168-2.28,11.742 1.689,15.963 2.703,2.618 7.011,5.998 11.149,8.616 1.858,1.184 3.633,2.196 5.154,2.873 5.151,2.365 11.317,2.872 21.283-3.717 3.549-2.281 5.998-4.055 7.688-5.236 3.38-2.536 4.477-3.211 5.66-3.211" stroke="#e8b496"/>
   <path d="m138.13,147.55c-.084.424-2.196,11.236 1.772,15.881 2.449,2.702 6.59,6.08 10.728,8.784 1.774,1.182 3.548,2.196 5.153,2.956 5.405,2.534 11.656,2.787 21.117-3.208 3.462-2.196 5.911-3.886 7.517-5.154 3.464-2.534 4.729-3.209 5.829-3.209" stroke="#ebb698"/>
   <path d="m139.06,146.46c-.169.591-2.196,10.728 1.605,15.71 2.364,2.787 6.335,6.167 10.39,8.953 1.856,1.268 3.546,2.281 5.151,2.958 5.66,2.703 12.164,2.787 20.948-2.704 3.462-2.025 5.911-3.715 7.433-4.898 3.464-2.618 4.982-3.293 5.913-3.293" stroke="#ebb698"/>
   <path d="m139.9,145.27c-.253.846-2.196,10.305 1.689,15.628 2.196,2.871 5.913,6.249 9.968,9.206 1.774,1.184 3.464,2.196 5.067,2.956 5.998,2.874 12.671,2.703 20.949-2.196 3.377-1.943 5.744-3.631 7.263-4.814 3.464-2.618 5.154-3.208 5.913-3.208" stroke="#ebb898"/>
   <path d="m140.83,144.18c-.338,1.013-2.196,9.797 1.604,15.457 2.027,2.958 5.489,6.335 9.629,9.375 1.689,1.184 3.464,2.196 4.982,2.958 6.336,3.124 13.179,2.702 20.864-1.69 3.295-1.774 5.66-3.464 7.095-4.561 3.464-2.705 5.407-3.377 5.998-3.377" stroke="#edb99a"/>
   <path d="m141.67,142.99c-.338,1.268-2.112,9.293 1.521,15.373 2.027,2.958 5.236,6.421 9.375,9.461 1.69,1.268 3.38,2.28 4.901,3.04 6.672,3.293 13.683,2.62 20.692-1.182 3.296-1.605 5.745-3.295 7.095-4.308 3.38-2.787 5.576-3.379 6.082-3.379" stroke="#edb99a"/>
   <path d="m142.52,141.9c-.338,1.437-2.111,8.784 1.604,15.204 1.858,3.04 4.816,6.504 8.953,9.713 1.689,1.268 3.295,2.283 4.816,3.042 6.926,3.462 14.188,2.534 20.608-.759 3.295-1.521 5.66-3.126 6.928-4.142 3.462-2.787 5.827-3.377 6.164-3.377" stroke="#edb99a"/>
   <path d="m143.45,140.8c-.506,1.605-2.111,8.193 1.521,15.035 1.689,3.126 4.477,6.506 8.615,9.883 1.605,1.268 3.209,2.28 4.73,3.04 7.263,3.717 14.697,2.536 20.61-.169 3.125-1.437 5.489-3.04 6.673-3.97 3.462-2.871 6.164-3.462 6.251-3.462" stroke="#f0bc9c"/>
  </g>
  <path d="m144.29,139.62c-.762,2.703-3.633,13.852 9.797,25.001 13.514,11.149 28.296,2.449 31.676-.422 3.546-2.871 6.419-3.379 6.419-3.379" fill="none" stroke="#f0bc9c" stroke-linecap="round" stroke-linejoin="round" stroke-miterlimit="2.4142" stroke-width="3.816"/>
  <g fill="none">
   <path d="m136.18,150.26s-2.618,12.164.928,16.219c.253.253.507.59.76.844 3.886,3.801 10.559,8.786 15.628,10.896 .76.339 1.521.593 2.365.846 4.898,1.35 10.643.844 19.174-4.73 2.28-1.437 4.139-2.703 5.658-3.801 5.491-3.717 6.251-4.899 7.771-4.899" stroke="#e3b093"/>
   <path d="m136.02,150.76s-3.042,11.993.084,16.219c.169.335.422.59.676.928 3.464,3.97 9.714,9.038 15.288,11.233 .76.338 1.521.591 2.365.76 5.491,1.521 11.233.93 19.427-4.222 2.196-1.437 4.055-2.62 5.576-3.717 5.657-3.802 6.504-5.069 7.854-5.154" stroke="#e1af92"/>
   <path d="m135.76,151.27s-3.38,11.826-.678,16.303c.169.253.338.591.591.929 3.127,4.055 8.786,9.206 14.951,11.571 .846.255 1.605.591 2.449.762 5.913,1.605 11.826.844 19.598-3.886 2.112-1.266 3.884-2.449 5.489-3.462 5.914-3.886 6.673-5.323 7.941-5.492" stroke="#ddab8f"/>
   <path d="m135.59,151.69s-3.716,11.658-1.604,16.387c.169.338.338.675.591,1.015 2.702,4.137 7.94,9.375 14.697,11.824 .76.337 1.521.591 2.449.844 6.335,1.69 12.333.762 19.681-3.548 2.027-1.181 3.886-2.278 5.407-3.293 6.248-3.802 7.01-5.489 8.107-5.745" stroke="#daab8d"/>
   <path d="m135.34,152.2s-4.053,11.489-2.365,16.387c.169.338.253.762.422,1.099 2.451,4.224 7.097,9.544 14.444,12.247 .76.255 1.605.508 2.449.761 6.928,1.772 13.008.76 19.936-3.126 1.941-1.097 3.716-2.111 5.321-3.124 6.419-3.97 7.179-5.829 8.193-5.998" stroke="#d8a98c"/>
   <path d="m135.08,152.71s-4.392,11.318-3.124,16.388c.084.419.169.759.338,1.181 2.027,4.308 6.25,9.797 14.19,12.501 .76.338 1.52.591 2.45.76 7.348,1.943 13.598.761 20.102-2.703 1.859-1.015 3.633-1.943 5.236-2.958 6.673-3.968 7.435-5.996 8.278-6.249" stroke="#d3a589"/>
   <path d="m134.92,153.21s-4.813,11.065-3.97,16.387c0,.506.169.844.253,1.266 1.689,4.392 5.407,9.968 13.854,12.839 .76.253 1.605.506 2.449.76 7.941,1.943 14.191.677 20.356-2.279 1.773-.93 3.464-1.858 5.153-2.789 6.926-3.97 7.601-6.251 8.447-6.588" stroke="#cea185"/>
  </g>
  <path d="m171.66 180.83c-7.179 4.055-14.613 7.179-25.509 4.561-10.98-2.703-14.611-9.038-16.048-14.022-1.437-4.814 4.561-17.736 4.561-17.736" fill="none" stroke="#cca084" stroke-linecap="round" stroke-linejoin="round" stroke-miterlimit="2.4142" stroke-width="3.816"/>
  <g fill="none">
   <path d="m171.58,181c-2.28,1.266-5.067,2.702-7.517,3.632-1.605.675-3.295,1.266-5.238,1.605-2.196.335-4.561.506-7.095.506-1.858-.171-3.97-.339-6.082-.761-.675-.169-1.268-.253-1.942-.506-1.182-.253-2.196-.591-3.04-1.097-.931-.508-1.858-.93-2.789-1.437-2.449-1.184-3.8-2.956-5.151-4.477-1.774-2.027-2.703-4.31-3.04-6.42 0-.253-.085-.422-.085-.677-.253-3.546 1.772-10.304 3.293-14.105 .847-1.858 1.521-3.295 1.521-3.295" stroke="#c79c81" stroke-width="3.672"/>
   <path d="m171.41,181.17c-2.027,1.184-5.32,2.787-7.603,3.717-1.604.675-3.294,1.352-5.236,1.605-2.28.337-4.814.675-7.264.759-1.858-.253-4.055-.339-6.166-.677-.676-.082-1.353-.253-1.943-.335-1.268-.255-2.28-.508-3.124-1.183-.846-.593-1.774-1.013-2.705-1.353-2.702-1.097-3.799-3.125-5.235-4.561-1.774-1.943-2.703-4.223-2.787-6.504 0-.253-.084-.422-.084-.675 .084-3.633 1.688-10.728 3.293-14.36 .844-1.774 1.521-3.377 1.521-3.377" stroke="#c0967c" stroke-width="3.6"/>
   <path d="m171.24,181.34c-1.858,1.015-5.491,2.871-7.771,3.801-1.519.76-3.209,1.519-5.236,1.69-2.364.253-4.898.675-7.348.928-1.774-.253-4.055-.337-6.335-.591-.677-.084-1.353-.168-1.858-.255-1.437-.167-2.365-.42-3.127-1.182-.844-.675-1.771-1.015-2.702-1.435-2.956-.846-3.802-3.126-5.236-4.563-2.027-1.774-2.873-4.053-2.704-6.588v-.59c.34-3.802 1.689-11.149 3.295-14.529 .844-1.774 1.521-3.546 1.521-3.546" stroke="#bb9279" stroke-width="3.528"/>
   <path d="m171.07,181.51c-1.689.93-5.659,2.873-7.855,3.886-1.52.759-3.209,1.605-5.32,1.774-2.365.253-4.985.591-7.435,1.097-1.772-.337-4.139-.337-6.418-.506-.677,0-1.352-.084-1.944-.168-1.52-.084-2.449-.338-3.125-1.097-.675-.846-1.689-1.184-2.702-1.521-3.126-.675-3.717-3.295-5.238-4.563-2.111-1.688-2.955-3.968-2.449-6.671v-.593c.591-3.886 1.69-11.571 3.295-14.864 .76-1.605 1.605-3.548 1.605-3.548" stroke="#b68f76" stroke-width="3.456"/>
   <path d="m170.9,181.68c-1.437.846-5.829,2.958-7.94,3.97-1.52.846-3.209,1.774-5.405,1.859-2.451.168-5.153.675-7.519,1.183-1.689-.339-4.224-.255-6.504-.339-.675,0-1.351-.084-1.943-.084-1.689,0-2.533-.253-3.124-1.097-.675-.928-1.605-1.268-2.789-1.437-3.377-.591-3.631-3.464-5.236-4.645-2.111-1.605-2.955-3.886-2.28-6.757 0-.171 0-.422.085-.591 .928-3.97 1.604-11.911 3.295-15.037 .76-1.604 1.604-3.715 1.604-3.715" stroke="#b28b73" stroke-width="3.312"/>
   <path d="m170.73,181.85c-1.268.761-6.082,3.042-8.109,4.055-1.437.846-3.124,1.858-5.405,1.943-2.451.084-5.238.675-7.603,1.352-1.69-.424-4.224-.253-6.589-.253h-2.027c-1.689.084-2.533-.171-3.126-1.099-.507-1.013-1.519-1.268-2.702-1.437-3.631-.422-3.631-3.546-5.321-4.73-2.28-1.521-3.039-3.717-2.111-6.757 .085-.169.085-.422.169-.591 1.184-4.139 1.605-12.333 3.209-15.289 .846-1.521 1.773-3.801 1.773-3.801" stroke="#aa856e" stroke-width="3.24"/>
   <path d="m170.65,182.02c-1.183.677-6.335,3.126-8.277,4.139-1.437.846-3.211,2.027-5.491,2.027-2.534.084-5.405.591-7.686,1.521-1.605-.422-4.308-.253-6.673-.168-.762,0-1.437.084-2.027.084-1.858.168-2.62,0-3.127-1.099s-1.519-1.351-2.786-1.519c-3.802-.253-3.549-3.633-5.32-4.646-2.283-1.437-3.042-3.717-1.943-6.844 .084-.167.169-.422.253-.59 1.521-4.224 1.604-12.755 3.209-15.542 .846-1.437 1.774-3.802 1.774-3.802" stroke="#a5826b" stroke-width="3.168"/>
   <path d="m170.48,182.19c-.931.506-6.589,3.209-8.363,4.222-1.437.846-3.21,2.112-5.575,2.112-2.534,0-5.489.59-7.77,1.605-1.605-.422-4.395-.168-6.844,0-.76.084-1.435.169-2.027.169-1.856.253-2.618.084-3.04-1.097-.506-1.183-1.521-1.437-2.787-1.437-4.139-.168-3.548-3.801-5.406-4.814-2.365-1.268-3.125-3.548-1.69-6.842 .087-.168.087-.422.256-.677 1.858-4.224 1.605-13.09 3.208-15.71 .847-1.352 1.774-3.886 1.774-3.886" stroke="#a17e68" stroke-width="3.096"/>
   <path d="m170.31,182.36c-.76.422-6.758,3.293-8.445,4.306-1.437.931-3.211,2.283-5.66,2.196-2.618-.084-5.575.677-7.855,1.774-1.52-.506-4.477-.168-6.927.084-.759.086-1.435.253-2.027.253-2.027.339-2.786.17-3.124-1.097s-1.437-1.437-2.702-1.437c-4.395,0-3.549-3.884-5.491-4.814-2.449-1.181-3.125-3.464-1.521-6.926 .085-.253.256-.422.256-.677 2.193-4.39 1.603-13.514 3.293-15.963 .844-1.266 1.773-3.968 1.773-3.968" stroke="#997863" stroke-width="3.024"/>
   <path d="m170.14,182.52c-.509.337-6.928,3.377-8.533,4.39-1.435.93-3.209,2.367-5.742,2.282-2.618-.168-5.66.591-7.941,1.943-1.521-.593-4.477-.17-7.01.169-.76.169-1.521.253-2.027.338-2.196.422-2.871.337-3.124-1.1-.34-1.266-1.437-1.519-2.789-1.437-4.562.171-3.462-4.052-5.489-4.812-2.534-1.099-3.211-3.379-1.268-7.012 .084-.253.168-.422.337-.675 2.365-4.477 1.521-13.938 3.127-16.216 .928-1.184 1.942-3.97 1.942-3.97" stroke="#947460" stroke-width="2.88"/>
   <path d="m169.97,182.69c-.34.253-7.181,3.462-8.702,4.477-1.35,1.013-3.124,2.534-5.742,2.365-2.704-.253-5.829.59-8.025,2.027-1.521-.593-4.561-.084-7.094.337-.762.169-1.521.337-2.112.422-2.196.506-2.873.424-3.126-1.013-.169-1.521-1.351-1.605-2.703-1.521-4.898.337-3.464-4.139-5.575-4.814-2.618-1.015-3.293-3.38-1.097-7.097 .084-.253.253-.422.337-.675 2.787-4.561 1.605-14.273 3.211-16.47 .844-1.099 1.943-4.055 1.943-4.055" stroke="#90715d" stroke-width="2.808"/>
   <path d="m169.8,182.86c-.169.084-7.348,3.462-8.784,4.561-1.351,1.013-3.124,2.618-5.827,2.365-2.704-.168-5.913.759-8.024,2.281-1.521-.675-4.73-.084-7.266.506-.844.171-1.519.338-2.196.509-2.28.506-2.871.422-3.04-1.099s-1.268-1.69-2.787-1.521c-5.066.506-3.379-4.222-5.575-4.898-2.702-.846-3.293-3.209-.929-7.095 .169-.255.338-.508.423-.675 3.042-4.647 1.604-14.698 3.208-16.725 .846-1.015 1.943-4.139 1.943-4.139" stroke="#886b58" stroke-width="2.736"/>
  </g>
  <path d="m169.63,183.03s-7.601,3.546-8.868,4.645c-1.351,1.097-3.125,2.787-5.913,2.449-2.787-.253-5.996.677-8.107,2.449-1.943-1.012-7.097.509-9.546,1.184-2.365.591-2.956.506-3.125-1.099 0-1.603-1.184-1.689-2.704-1.519-5.32.675-3.378-4.392-5.573-4.898-3.04-.761-3.465-3.379-.338-7.856 3.38-4.816 1.605-15.12 3.209-16.978 .846-.928 2.027-4.224 2.027-4.224" fill="none" stroke="#836755" stroke-linecap="round" stroke-linejoin="round" stroke-miterlimit="2.4142" stroke-width="2.664"/>
  <path d="m235.6,155.49s.338,4.139-.762,11.403c-1.181,7.263-5.997,10.052-11.908,20.018-6.167,10.221-21.539,13.601-23.819,14.444-2.365.759-6.082,3.295-11.405,1.858-6.673-1.689-12.077,2.703-16.892.424-3.379-1.605-10.643-.255-14.022-1.184s-6.842,3.377-10.05,3.548c-2.62.167-4.14,3.125-6.167,3.125s-4.308-2.449-5.997-.422c-1.605,2.027-12.755,1.012-13.515.675-.677-.337-.506-.253-2.873,1.182-2.449,1.352-4.224-.253-5.151-.253" fill="none" stroke="#f0bc9c" stroke-linecap="round" stroke-linejoin="round" stroke-miterlimit="2.4142" stroke-width="3.024"/>
  <path d="m113.8,201.61c1.015-.76 2.958-1.519 3.718-1.435 .762,0 3.295.253 5.406-.255 2.112-.591 5.067-1.182 6.926-2.194 2.027-1.099 4.478-1.268 5.998-1.352 1.519,0 2.871-.506 4.308-1.099 1.351-.675 2.365-1.688 9.713-2.365 .591-1.182 4.139-1.943 6.42-1.943 2.28-.083 2.871-.844 3.548-1.688 .675-.93 5.742-4.139 9.629-5.913 3.97-1.858 7.35-5.491 9.799-7.179 2.533-1.605 5.236-5.238 7.938-7.265 2.62-2.027 4.055-4.983 6.844-6.926s3.04-2.027 1.94-1.69" fill="none" stroke="#000" stroke-miterlimit="2.4142" stroke-width=".216"/>
  <path d="m142.18,120.36c-.846-.59-7.603-3.801-7.097-1.858 .507,1.858 1.184,11.149-1.689,15.71-2.956,4.646-2.534,12.501-8.869,16.978-6.248,4.392-2.871,13.261-5.236,14.951-2.195,1.69-3.295,7.856-6.25,10.559-2.871,2.703 1.942,7.856.422,14.274-1.521,6.337-3.884,13.179-3.04,17.063 .76,3.886.76,8.362.169,10.305" fill="none" stroke="#f0bc9c" stroke-linecap="round" stroke-linejoin="round" stroke-miterlimit="2.4142" stroke-width="3.816"/>
  <path d="m142.52,120.86c-.338-.168-2.027-1.268-3.38-1.521-1.689-.506-3.377-.844-3.209.253 .169,1.268.423,4.9-.168,8.7-.509,2.536-1.1,4.816-2.196,6.59-.424.76-.762,1.604-1.1,2.45-1.605,4.561-2.618,10.725-7.685,14.105-5.914,4.054-2.789,13.008-5.238,14.782-2.112,1.69-3.209,7.688-5.998,10.474-.506.422-.76.928-.928,1.437-.847,2.787 2.364,6.842 1.181,12.5-1.181,5.323-2.871,10.474-3.293,14.191-.084,1.013-.084,1.859 0,2.618 .253,1.858.422,3.717.507,5.407 .084,1.943 0,3.884-.254,4.814" fill="none" stroke="#ebb89a" stroke-linecap="round" stroke-linejoin="round" stroke-miterlimit="2.4142" stroke-width="3.6"/>
  <path d="m142.77,121.45c-.253-.169-1.942-1.519-3.126-1.435-1.435-.253-3.04-.424-2.871.675 .084,1.437.084,4.898-.676,8.447-.591,2.449-1.268,4.646-2.28,6.419-.424.759-.762,1.605-1.099,2.449-1.435,4.308-2.872,10.728-7.602,13.77-5.66,3.631-2.789,12.668-5.322,14.527-2.111,1.605-2.956,7.603-5.829,10.39-.422.422-.675.846-.928,1.353-1.013,2.702 2.196,6.25 1.015,12.331-1.1,5.491-2.789,10.305-3.296,13.938-.168.928-.168,1.856-.084,2.618 .169,1.774.338,3.717.422,5.236 .169,1.943 0,3.97-.169,4.816" fill="none" stroke="#e8b69b" stroke-linecap="round" stroke-linejoin="round" stroke-miterlimit="2.4142" stroke-width="3.456"/>
  <path d="m143.11,122.05c-.253-.169-2.027-1.69-2.956-1.352-1.268-.084-2.535,0-2.535,1.097 .084,1.437-.169,4.816-1.098,8.196-.846,2.449-1.521,4.475-2.449,6.249-.422.675-.759,1.521-1.015,2.451-1.35,4.137-3.209,10.641-7.686,13.428-5.237,3.211-2.704,12.333-5.322,14.276-2.027,1.605-2.871,7.434-5.658,10.305-.337.422-.677.846-.846,1.353-1.266,2.533 1.858,5.658.762,12.077-1.015,5.66-2.62,10.221-3.295,13.683-.169.93-.254,1.774-.254,2.62 .085,1.774.254,3.631.423,5.152 .168,1.858.084,3.97-.169,4.645" fill="none" stroke="#e3b299" stroke-linecap="round" stroke-linejoin="round" stroke-miterlimit="2.4142" stroke-width="3.312"/>
  <path d="m143.36,122.64c-.169-.084-2.027-2.027-2.787-1.268-.93.169-2.111.422-2.027,1.521-.084,1.605-.506,4.73-1.605,7.941-1.097,2.534-1.858,4.308-2.702,6.08-.338.677-.675,1.437-.928,2.367-1.184,4.055-3.465,10.725-7.604,13.092-4.982,2.871-2.702,12.078-5.322,14.105-2.025,1.521-2.787,7.265-5.489,10.221-.422.338-.76.846-1.013,1.266-1.353,2.449 1.772,5.069.675,11.826-.93,5.913-2.533,10.221-3.295,13.514-.253.931-.338,1.774-.338,2.534 0,1.858.085,3.717.338,5.154 .253,1.688.084,3.97 0,4.561" fill="none" stroke="#dfae9a" stroke-linecap="round" stroke-linejoin="round" stroke-miterlimit="2.4142" stroke-width="3.096"/>
  <path d="m143.7,123.14c-.169-.084-2.112-2.112-2.618-1.013-.76.337-1.69.759-1.69,1.772-.168,1.858-.844,4.816-2.027,7.772-1.266,2.449-2.026,4.139-2.871,5.829-.337.76-.675,1.521-.928,2.449-1.015,3.886-3.718,10.643-7.604,12.755-4.561,2.534-2.533,11.74-5.32,13.852-2.027,1.521-2.62,7.095-5.322,10.137-.422.338-.675.76-1.013,1.182-1.521,2.367 1.604,4.479.591,11.658-.844,6.166-2.449,10.134-3.38,13.345-.253.762-.422,1.605-.506,2.365-.085,1.859.084,3.717.253,5.067 .34,1.69.253,4.141.084,4.561" fill="none" stroke="#ddad9b" stroke-linecap="round" stroke-linejoin="round" stroke-miterlimit="2.4142" stroke-width="2.952"/>
  <path d="m143.95,123.74c-.084-.086-2.111-2.367-2.365-.93-.591.506-1.266,1.097-1.35,2.196-.254,2.027-1.1,4.73-2.536,7.601-1.35,2.367-2.194,3.886-3.04,5.576-.253.675-.506,1.437-.76,2.449-.93,3.717-4.055,10.559-7.687,12.333-4.224,2.196-2.449,11.487-5.321,13.599-1.942,1.521-2.451,7.01-5.153,10.052-.338.422-.675.844-.929,1.266-1.773,2.196 1.269,3.801.338,11.404-.76,6.333-2.365,10.05-3.38,13.092-.337.759-.506,1.604-.59,2.365-.169,1.859-.085,3.717.168,4.983 .338,1.605.256,4.139.169,4.479" fill="none" stroke="#d8a999" stroke-linecap="round" stroke-linejoin="round" stroke-miterlimit="2.4142" stroke-width="2.736"/>
  <path d="m144.29,124.33c-.085-.084-2.198-2.62-2.281-.93-.255.846-.761,1.605-.93,2.703-.338,2.112-1.437,4.647-2.956,7.266-1.605,2.449-2.535,3.801-3.211,5.489-.253.677-.506,1.437-.675,2.367-.846,3.631-4.393,10.641-7.688,12.078-3.886,1.774-2.449,11.149-5.404,13.345-1.859,1.521-2.281,6.844-4.898,9.968-.425.422-.678.844-1.015,1.184-1.943,2.11 1.099,3.293.253,11.234-.76,6.504-2.28,9.966-3.462,12.837-.34.762-.593,1.521-.678,2.283-.337,1.858-.253,3.715.085,4.983 .337,1.521.253,4.223.171,4.392" fill="none" stroke="#d2a598" stroke-linecap="round" stroke-linejoin="round" stroke-miterlimit="2.4142" stroke-width="2.592"/>
  <path d="m144.63,124.92c-.084,0-2.282-2.871-2.111-.844-.085,1.013-.338,2.025-.593,3.125-.422,2.28-1.688,4.561-3.378,7.095-1.858,2.365-2.702,3.548-3.379,5.238-.254.591-.507,1.353-.676,2.365-.675,3.462-4.646,10.559-7.685,11.742-3.465,1.35-2.367,10.81-5.407,13.09-1.943,1.437-2.112,6.673-4.729,9.883-.338.338-.678.76-1.015,1.097-2.112,2.027.93,2.703.084,10.982-.675,6.842-2.196,9.966-3.462,12.668-.422.759-.675,1.521-.846,2.283-.422,1.856-.253,3.715.084,4.814 .422,1.519.253,4.308.253,4.392" fill="none" stroke="#d0a398" stroke-linecap="round" stroke-linejoin="round" stroke-miterlimit="2.4142" stroke-width="2.448"/>
  <path d="m144.8,125.42s-2.196-3.04-1.858-.675c.591,4.055-1.268,7.01-4.055,10.39-2.787,3.293-3.548,3.968-4.055,7.348-.591,3.38-4.983,10.559-7.77,11.487-3.042,1.015-2.28,10.475-5.407,12.839-2.111,1.605-2.111,7.856-5.573,10.896-2.283,1.858.759,2.112 0,10.728-.678,7.012-2.114,9.883-3.549,12.417-1.521,2.449-1.521,5.576-1.015,7.01 .509,1.437.34,4.308.34,4.308" fill="none" stroke="#cca096" stroke-linecap="round" stroke-linejoin="round" stroke-miterlimit="2.4142" stroke-width="2.232"/>
  <path d="m60.249,165.8s1.604-11.065-2.789-12.839c-4.392-1.689-8.023.084-8.362-2.449-.422-2.618-2.703-7.265-4.983-9.375-2.365-2.112-5.152-4.055-5.489-5.66 0,0 2.28,1.097 3.717,2.112" fill="none" stroke="#cca084" stroke-linecap="round" stroke-linejoin="round" stroke-miterlimit="2.4142" stroke-width="2.232"/>
  <path d="m60.586,165.29s1.605-10.559-2.533-12.67c-4.392-2.196-8.025,0-8.531-2.958-.337-2.449-2.28-6.333-4.477-8.362-1.943-1.856-6.419-5.911-5.069-5.152 .762.506 2.62,1.69 2.789,1.69" fill="none" stroke="#bb9279" stroke-linecap="round" stroke-linejoin="round" stroke-miterlimit="2.4142" stroke-width="2.232"/>
  <path d="m60.84,164.62s1.773-9.797-2.196-12.331c-4.392-2.789-8.025-.086-8.616-3.38-.422-2.449-2.027-5.491-3.97-7.432-1.69-1.605-6.251-5.322-4.646-4.563 .253.086 1.69.931 1.774.931" fill="none" stroke="#a8846d" stroke-linecap="round" stroke-linejoin="round" stroke-miterlimit="2.4142" stroke-width="2.232"/>
  <path d="m61.177,164.11s1.774-9.291-2.027-12.162c-4.223-3.295-7.94-.255-8.615-3.802-.422-2.365-1.69-4.732-3.546-6.504-1.268-1.352-5.829-4.985-4.223-4.055 .168.084.928.591 1.181.675" fill="none" stroke="#947460" stroke-linecap="round" stroke-linejoin="round" stroke-miterlimit="2.4142" stroke-width="2.232"/>
  <path d="m61.515,163.44s1.858-8.531-1.772-11.827c-4.223-3.801-7.94-.337-8.7-4.308-.762-3.631-2.873-5.405-6.928-8.954 0,0 .422.253.846.422" fill="none" stroke="#836755" stroke-linecap="round" stroke-linejoin="round" stroke-miterlimit="2.4142" stroke-width="2.232"/>
  <path d="m32.712,162.67c.338-1.858 3.462-6.926 5.998-7.938 2.956-1.184 2.365.759 4.223.759 3.293,0 1.435,5.321 2.112,7.772 .675,2.365 0,5.658.506,5.829 .844.337 2.702-3.295 3.464-7.181s2.956-4.308 5.489-5.321c2.45-.93 3.377-1.605 3.801.591 1.437,8.194-.424,12.923-.424,12.923" fill="none" stroke="#cca084" stroke-linecap="round" stroke-linejoin="round" stroke-miterlimit="2.4142" stroke-width="2.232"/>
  <path d="m32.628,163.1c.337-2.027 3.377-6.843 5.829-7.94 1.858-.759 2.365-.337 3.04.084 .253.253.591.506 1.181.506 2.958.253 1.521,5.407 2.114,7.856 .675,2.281 0,5.405.422,5.829s1.097-.424 1.943-1.859c.675-1.183 1.266-2.787 1.688-4.477 .762-3.042 2.365-4.139 4.308-4.9 .339-.169.677-.337 1.099-.422 2.365-.928 3.377-1.435 3.717.844 0,.171 0,.34.084.424 1.097,7.264-.762,12.331-.762,12.331" fill="none" stroke="#d1a387" stroke-linecap="round" stroke-linejoin="round" stroke-miterlimit="2.4142" stroke-width="2.448"/>
  <path d="m32.459,163.6c.506-2.196 3.377-6.757 5.829-8.025 1.688-.759 2.281-.422 2.956,0 .338.169.675.422 1.182.508 2.62.42 1.521,5.405 2.112,7.854 .593,2.111 0,5.154.337,5.744s1.015.169 1.858-1.183c.762-1.013 1.437-2.618 1.943-4.224 .846-2.871 2.449-4.224 4.223-4.983 .424-.169.762-.253 1.099-.422 2.196-.846 3.209-1.184 3.631,1.181v.424c1.015,6.67-1.097,12.162-1.097,12.162" fill="none" stroke="#d5a78a" stroke-linecap="round" stroke-linejoin="round" stroke-miterlimit="2.4142" stroke-width="2.664"/>
  <path d="m32.29,164.02c.675-2.28 3.377-6.672 5.827-7.938 1.521-.846 2.198-.593 2.873-.255 .337.168.675.337 1.097.508 2.449.675 1.689,5.489 2.196,7.938 .508,2.027 0,4.898.253,5.744 .337.76.846.591 1.774-.508 .846-.928 1.605-2.449 2.281-4.055 .93-2.702 2.451-4.221 4.139-4.98 .337-.171.675-.34 1.099-.508 1.943-.675 3.04-.929 3.378,1.437 0,.168.084.253.084.422 .846,6.082-1.266,12.164-1.266,12.164" fill="none" stroke="#daab8d" stroke-linecap="round" stroke-linejoin="round" stroke-miterlimit="2.4142" stroke-width="2.88"/>
  <path d="m32.206,164.53c.759-2.449 3.293-6.588 5.658-8.025 1.437-.759 2.112-.759 2.874-.42 .337.083.675.338 1.097.591 2.112.844 1.69,5.405 2.196,7.938 .506,1.943 0,4.646.253,5.66 .169,1.015.677,1.181 1.69.253 .846-.844 1.69-2.281 2.365-3.886 1.099-2.534 2.618-4.306 4.139-5.067 .337-.168.759-.337 1.099-.506 1.772-.59 2.956-.675 3.293,1.774v.422c.678,5.489-1.437,11.993-1.437,11.993" fill="none" stroke="#e2b192" stroke-linecap="round" stroke-linejoin="round" stroke-miterlimit="2.4142" stroke-width="3.168"/>
  <path d="m32.122,164.95c.928-2.616 3.293-6.417 5.573-7.938 1.268-.846 2.027-.928 2.789-.675 .422.084.759.337 1.097.591 1.774,1.097 1.689,5.489 2.196,7.938 .422,1.858 0,4.479.169,5.744 .084,1.184.506,1.605 1.605.844 .928-.59 1.858-2.025 2.702-3.63 1.099-2.367 2.534-4.308 4.055-5.069 .338-.167.675-.42 1.015-.506 1.603-.591 2.871-.506 3.208,1.943v.422c.506,4.898-1.69,11.995-1.69,11.995" fill="none" stroke="#e6b495" stroke-linecap="round" stroke-linejoin="round" stroke-miterlimit="2.4142" stroke-width="3.384"/>
  <path d="m32.206,165.29c1.012-2.789 3.04-6.251 5.236-7.856 1.184-.759 2.027-1.097 2.873-.844 .335.084.675.338 1.013.675 1.521,1.268 1.774,5.405 2.196,7.938 .422,1.776.084,4.141.084,5.66 .084,1.437.422,2.196 1.521,1.605 1.013-.506 2.027-1.859 2.956-3.464 1.268-2.196 2.618-4.308 3.97-5.151l1.013-.506c1.521-.506 2.789-.253 3.042,2.196 0,.169.084.338.084.506 .337,4.308-1.859,11.909-1.859,11.909" fill="none" stroke="#ebb898" stroke-linecap="round" stroke-linejoin="round" stroke-miterlimit="2.4142" stroke-width="3.6"/>
  <path d="m32.122,165.72c1.603-4.224 5.32-9.375 7.938-8.869 1.943.337 2.705,5.574 3.21,8.7 .591,3.209-1.015,8.785 1.521,7.854 2.45-.844 4.899-7.01 7.095-8.447 1.519-.928 3.715-1.35 3.97,2.452 .169,3.715-2.027,11.824-2.027,11.824" fill="none" stroke="#f0bc9c" stroke-linecap="round" stroke-linejoin="round" stroke-miterlimit="2.4142" stroke-width="3.816"/>
  <path d="m100.88,69.506c-1.943,1.943-2.958,5.745-3.633,8.025-.677,2.28.928,5.998-1.184,11.149-1.013,2.536 1.1,6.926-1.858,13.938-1.856-.93-6.42,10.134-11.318,16.048-2.618,3.124-3.548.253-7.432,4.308-2.958,2.871-6.167,3.04-6.167,3.04" fill="none" stroke="#cca084" stroke-linecap="round" stroke-linejoin="round" stroke-miterlimit="2.4142" stroke-width="2.232"/>
  <g fill="none">
   <path d="m101.38,69.084c-1.605,1.605-2.957,5.745-3.464,8.278-.084.422-.084.844-.084,1.268 .084,2.363.422,5.827-1.1,10.135-.253.846-.253,1.858-.168,3.042 .168,2.956.424,6.842-1.435,11.234-.254-.084-.593.084-.931.337-1.856,1.353-5.236,8.278-8.615,12.924-.76,1.097-1.604,2.027-2.365,2.873-2.534,2.616-3.8.673-6.926,3.462-.253.169-.507.422-.844.675-2.958,2.787-6.42,2.787-6.42,2.787" stroke="#d1a387" stroke-width="2.52"/>
   <path d="m101.89,68.662c-1.268,1.268-2.871,5.745-3.209,8.616-.086.337-.086.76-.086,1.266 .339,2.367.168,5.998-1.182,10.305-.253.93-.253,1.943-.085,3.126 .338,3.377.422,7.517-1.352,11.487-.254,0-.591.253-.929.422-1.858,1.352-5.575,8.7-8.953,13.094-.846,1.097-1.774,1.941-2.618,2.703-2.704,2.365-4.141.675-7.097,3.293-.337.169-.591.422-.928.762-2.958,2.616-6.589,2.534-6.589,2.534" stroke="#d8a98c" stroke-width="2.736"/>
   <path d="m102.4,68.156c-1.013,1.013-2.871,5.827-3.04,8.954-.084.422 0,.844.085,1.268 .506,2.534-.253,6.165-1.269,10.557-.253.93-.253,2.027-.084,3.211 .507,3.717.422,8.278-1.266,11.74-.255.169-.593.34-.931.593-1.858,1.266-5.828,9.122-9.29,13.175-.929,1.015-1.859,1.943-2.789,2.536-2.787,2.112-4.562.591-7.433,3.04-.253.337-.591.593-.928.846-3.042,2.534-6.844,2.365-6.844,2.365" stroke="#ddad8f" stroke-width="3.024"/>
   <path d="m102.82,67.732c-.591.677-2.702,5.913-2.786,9.208 0,.422 0,.928.168,1.35 .678,2.536-.506,6.337-1.35,10.812-.169.93-.169,2.027 0,3.21 .675,4.139.422,8.953-1.184,11.993-.253.255-.506.424-.844.677-1.943,1.182-6.251,9.628-9.715,13.261-1.013,1.097-2.027,1.858-3.04,2.449-2.958,1.858-4.9.59-7.603,2.956-.338.339-.676.593-.929.846-3.126,2.365-7.097,2.027-7.097,2.027" stroke="#e3b294" stroke-width="3.312"/>
   <path d="m103.33,67.312c-.34.335-2.704,5.911-2.62,9.459 0,.506.084,1.013.253,1.353 .846,2.702-.844,6.586-1.435,10.979-.084,1.099-.084,2.196.085,3.379 .844,4.561.422,9.628-1.1,12.249-.253.337-.506.506-.844.759-1.943,1.184-6.588,10.052-9.968,13.43-1.182,1.099-2.28,1.774-3.293,2.281-3.127,1.605-5.407.506-7.856,2.873-.338.253-.675.591-1.013.844-3.126,2.196-7.35,1.774-7.35,1.774" stroke="#e8b697" stroke-width="3.528"/>
  </g>
  <path d="m103.83,66.888s-3.464,7.688-2.111,11.149-2.533,8.786-1.353,14.613c1.184,5.743.254,12.164-1.773,13.346s-7.011,10.559-10.388,13.514c-5.154,4.392-8.447,1.943-11.658,4.985-3.124,3.04-8.531,2.365-8.531,2.365" fill="none" stroke="#f0bc9c" stroke-linecap="round" stroke-linejoin="round" stroke-miterlimit="2.4142" stroke-width="3.816"/>
  <path d="m94.203,73.477c-.929,3.126-3.971,3.295-3.8,6.757 .254,5.323-2.789,5.913-1.268,8.278 1.521,2.28-.844,5.407-1.013,11.149-.169,3.801-4.055,6.166-4.646,10.136-.593,4.055-7.012,9.544-7.012,9.544" fill="none" stroke="#cca084" stroke-linecap="round" stroke-linejoin="round" stroke-miterlimit="2.4142" stroke-width="3.024"/>
  <g fill="none">
   <path d="m94.119,73.477c-.76,2.536-3.631,3.042-4.055,5.66-.085.168-.085.506-.085.759 .171,4.898-2.618,5.998-1.35,8.278 .084.169.084.253.168.422 .591,1.943-.337,4.308-.93,8.278-.169.846-.254,1.69-.338,2.534-.253,3.886-3.8,6.251-4.477,9.968v.253c-.591,3.886-6.251,9.206-6.673,9.712" stroke="#d1a387" stroke-width="3.096"/>
   <path d="m94.119,73.477c-.76,2.196-3.969,2.789-4.478,5.322v.76c0,4.645-2.533,5.998-1.519,8.362 0,.169 0,.253.085.422 .422,1.943-.171,4.139-.847,8.278-.169.844-.253,1.689-.337,2.534-.507,4.054-3.887,6.419-4.477,10.052v.253c-.507,3.802-5.492,8.785-6.251,9.881" stroke="#d3a589" stroke-width="3.168"/>
   <path d="m93.95,73.392c-.591,1.858-4.055,2.702-4.646,5.152 0,.17-.085.424-.085.761-.084,4.224-2.364,5.998-1.689,8.363 .084.084.084.253.084.337 .169,2.112 0,4.139-.759,8.362-.169.844-.253,1.69-.422,2.534-.593,4.308-3.802,6.588-4.308,10.05-.085.086-.085.171-.085.255-.422,3.717-4.646,8.531-5.913,10.134" stroke="#d8a98c" stroke-width="3.312"/>
   <path d="m93.865,73.392c-.506,1.605-4.224,2.534-4.898,4.814-.084.255-.084.508-.169.762-.253,3.801-2.195,6.08-1.773,8.362v.422c-.085,2.112.084,3.971-.676,8.363-.168.844-.339,1.688-.422,2.534-.846,4.477-3.886,6.841-4.308,10.137v.253c-.34,3.546-3.886,8.107-5.575,10.303" stroke="#ddad8f" stroke-width="3.384"/>
   <path d="m93.781,73.392c-.338,1.184-4.393,2.28-5.151,4.477-.085.255-.169.508-.254.761-.339,3.546-2.027,6.165-1.858,8.447 0,.084 0,.253-.084.337-.253,2.196.253,3.968-.593,8.447-.167.844-.338,1.772-.507,2.532-.928,4.732-3.801,7.012-4.224,10.223v.253c-.253,3.378-3.039,7.686-5.151,10.472" stroke="#dfae90" stroke-width="3.456"/>
   <path d="m93.696,73.308c-.253.928-4.561,2.196-5.488,4.308-.085.169-.171.422-.171.675-.507,3.211-1.941,6.167-2.11,8.533 0,.083 0,.253-.086.338-.507,2.196.424,3.884-.507,8.445-.169.93-.337,1.774-.506,2.533-1.182,4.901-3.886,7.266-4.14,10.221v.337c-.253,3.295-2.28,7.35-4.898,10.643" stroke="#e3b294" stroke-width="3.528"/>
   <path d="m93.612,73.308c-.169.591-4.729,1.943-5.744,3.97l-.254.76c-.675,2.789-1.773,6.166-2.195,8.447-.085.086-.085.253-.085.339-.759,2.279.507,3.799-.506,8.529-.169.93-.338,1.774-.507,2.534-1.352,5.069-3.886,7.434-4.139,10.306v.339c-.169,3.125-1.521,7.01-4.477,10.81" stroke="#e8b697" stroke-width="3.6"/>
   <path d="m93.528,73.223c-.085.337-4.983,1.859-5.998,3.802-.169.168-.253.422-.338.675-.759,2.449-1.604,6.251-2.364,8.531 0,.084 0,.253-.085.34-1.013,2.363.676,3.715-.422,8.529-.168.93-.337,1.774-.591,2.534-1.437,5.322-3.886,7.603-3.97,10.39v.253c-.169,3.042-.762,6.673-4.139,11.065" stroke="#ebb898" stroke-width="3.672"/>
  </g>
  <path d="m93.443,73.223s-5.151,1.605-6.335,3.464c-1.099,1.857-1.689,7.179-2.955,9.628-1.269,2.365.844,3.548-.34,8.531-1.604,7.348-4.477,9.968-4.562,12.923-.084,3.04.171,6.504-3.715,11.571" fill="none" stroke="#f0bc9c" stroke-linecap="round" stroke-linejoin="round" stroke-miterlimit="2.4142" stroke-width="3.816"/>
  <path d="m110.34,220.53s1.351-2.787 1.943-6.588c.338-2.196-.169-2.449-.084-4.983 .084-1.605 1.013-5.829 2.364-9.375 1.098-3.042 1.69-5.998 2.787-6.842 1.184-.846.844-3.717 1.097-5.998 .34-2.196.846-6.084 3.296-9.461 3.126-4.224 3.801-14.105 6.588-17.063 1.605-1.688 2.449-3.717 2.449-3.717" fill="none" stroke="#000" stroke-miterlimit="2.4142" stroke-width=".216"/>
  <path d="m1.542,106.76c1.184-2.112 2.62-3.462 5.407-4.221 2.956-.76 4.392-2.196 4.983-1.943 .593.337 2.111,2.618 3.379,3.97 1.182,1.35.169.759-1.268-.677-1.519-1.437-2.027-3.377-3.124-2.28-1.015,1.015-3.97,1.774-5.067,1.943-1.099.25-3.379,1.77-4.31,3.21z" fill="#fdd9b8"/>
  <path d="m46.988,119.93s4.055-2.027 6.588-4.223c2.618-2.196 4.729.168 2.025.168-.844,0-1.772.422-3.293,1.435-1.689,1.26-5.32,2.61-5.32,2.61z" fill="#3a3529"/>
  <path d="m40.65,122.22s-2.618,1.605-11.487,2.111c-1.519.169-5.067.169-6.419.507-1.35.422-5.911-.591-8.531-2.281-2.618-1.858-2.112-1.69-1.943-2.365 .762.084 1.69.759 2.789,1.689 .253.169 4.223,2.279 7.263,2.365 1.268.084 2.28-.086 2.534-.253 .255-.086 1.268,0 2.958,0 2.28.06 10.303-.95 12.836-1.79z" fill="#3a3529"/>
  <path d="m115.15,43.828s5.491,4.985 12.417,5.407c5.067.253 16.641,3.97 21.371,8.447 5.911,5.576 22.72,11.487 35.896,21.117 3.464,2.534 7.688,5.743 10.559,9.122 5.238,6.167 7.011,11.995-1.097,6.082-12.755-9.208-44.6-25.003-52.285-20.78-10.727,5.914-17.146,1.353-19.258-1.183-7.604-9.207-3.718-12.247-10.222-18.75 1.52-3.125 2.61-9.462 2.61-9.462z" fill="#f5caa9" stroke="#f3c4a3" stroke-linecap="round" stroke-linejoin="round" stroke-miterlimit="2.4142" stroke-width=".36"/>
  <path d="m189.14,82.176c7.772,5.407 10.137,10.728 10.728,12.755 .847,2.789-1.858,1.943-5.32-.506-17.737-12.501-35.053-19.09-43.924-21.37-8.784-2.365-10.135,2.449-17.991,2.871-5.826.253-11.74-3.633-14.191-11.318s-3.884-9.038-5.573-10.812" fill="none" stroke="#f5caa9" stroke-linecap="round" stroke-linejoin="round" stroke-miterlimit="2.4142" stroke-width="2.232"/>
  <path d="m198.69,90.708c.506.675 2.364,3.211 2.28,5.407 0,1.519-1.521,1.943-7.095-1.774-8.871-5.998-17.993-10.812-25.425-14.191-7.772-3.63-13.431-4.898-18.5-5.998-2.28-.591-4.223-.675-5.911-.591-3.801.422-6.506,3.211-11.995,3.38h-1.184c-5.32-.422-10.643-4.647-12.67-11.742-2.28-7.517-4.137-9.122-5.658-10.641" fill="none" stroke="#f5c7a8" stroke-linecap="round" stroke-linejoin="round" stroke-miterlimit="2.4142" stroke-width="2.448"/>
  <path d="m201.14,93.328c.59.844.675,1.519.759,2.11 .507,3.97-2.786,2.702-8.615-.928-8.869-5.745-18.16-10.474-25.425-13.936-8.023-3.886-12.838-4.308-18.497-5.323-2.281-.506-4.14-.675-5.914-.675-3.462.337-6.672,3.293-12.079,3.377-.338,0-.675,0-1.013-.084-5.32-.506-10.559-4.983-12.417-11.993-2.027-7.35-4.393-9.293-5.658-10.559" fill="none" stroke="#f3c6a5" stroke-linecap="round" stroke-linejoin="round" stroke-miterlimit="2.4142" stroke-width="2.664"/>
  <path d="m202.91,95.438c.256.93 0,1.774-.253,2.283-.76,1.603-3.04,1.097-9.966-3.042-8.869-5.491-18.415-10.221-25.51-13.685-8.109-4.137-12.248-3.715-18.497-4.646-2.113-.422-3.97-.591-5.913-.76-3.042.169-6.757,3.464-11.911,3.38-.422,0-.759,0-1.097-.084-5.238-.677-10.39-5.491-12.079-12.417-1.859-7.181-4.73-9.377-5.658-10.39" fill="none" stroke="#f3c4a3" stroke-linecap="round" stroke-linejoin="round" stroke-miterlimit="2.4142" stroke-width="2.88"/>
  <path d="m203.93,96.874c.253,1.437-.084,3.211-4.139,1.858-1.353-.422-5.998-2.956-7.686-3.97-8.871-5.151-18.668-9.883-25.51-13.345-8.362-4.392-11.657-3.126-18.583-3.97-1.943-.337-3.886-.591-5.827-.76-2.704,0-6.843,3.462-11.91,3.293-.423,0-.76,0-1.1-.084-5.067-.844-10.135-5.998-11.74-12.755-1.605-7.01-4.982-9.544-5.744-10.219" fill="none" stroke="#f3c2a2" stroke-linecap="round" stroke-linejoin="round" stroke-miterlimit="2.4142" stroke-width="3.168"/>
  <path d="m205.11,98.14c.169,1.268-1.268,3.042-4.816,1.268-1.097-.506-5.235-2.534-8.784-4.477-8.784-4.898-18.919-9.628-25.592-13.177-8.531-4.477-11.066-2.365-18.499-3.21-1.943-.253-3.802-.506-5.913-.844-2.28-.084-6.926,3.548-11.909,3.293-.337,0-.677-.083-1.015-.167-4.982-1.015-9.966-6.337-11.317-13.094-1.438-6.841-5.405-9.628-5.914-10.05" fill="none" stroke="#f3c29f" stroke-linecap="round" stroke-linejoin="round" stroke-miterlimit="2.4142" stroke-width="3.384"/>
  <path d="m206.04,99.323c-.085.338-1.013,3.211-5.32.846-.847-.508-3.718-1.943-9.715-5.069-8.869-4.646-19.259-9.375-25.679-12.839-8.7-4.814-10.559-1.858-18.581-2.618-1.774-.168-3.633-.506-5.829-.928-1.943-.253-7.095,3.631-11.824,3.293-.424,0-.762-.084-1.1-.169-4.898-1.182-9.881-6.841-10.98-13.43-1.184-6.757-5.744-9.715-5.913-9.968" fill="none" stroke="#f0bf9e" stroke-linecap="round" stroke-linejoin="round" stroke-miterlimit="2.4142" stroke-width="3.6"/>
  <path d="m206.88,100.34s-1.604,3.209-5.574.76c-6.672-4.224-26.1-12.501-36.658-18.499-10.559-5.912-9.968.59-24.41-2.787-1.605-.422-8.025,4.392-12.84,3.04s-9.714-7.348-10.643-13.852c-1.015-6.504-5.998-9.797-5.998-9.797" fill="none" stroke="#f0bc9c" stroke-linecap="round" stroke-linejoin="round" stroke-miterlimit="2.4142" stroke-width="3.816"/>
  <path d="m110.59,220.2s3.04-1.097 9.122-2.703c3.548-.762 1.773-1.099 5.828-1.774 4.055-.759 6.251-1.099 7.94-1.774 1.604-.591 8.785-1.268 10.473-.422 1.605.844 6.504.168 8.531.084 2.111-.084 6.166-.422 10.475,1.352 4.392,1.772 9.714,2.703 12.248,2.787 3.631.169 17.568,3.378 22.974,3.04 2.027-.168 10.137-.506 20.779-5.913s12.839-10.472 13.768-14.105c.846-3.717 4.393-13.176 4.479-18.752-2.282,6.335-3.126,18.246-10.728,24.666s-22.216,12.077-32.604,11.318-24.75-1.69-27.199-3.464c-2.365-1.688-11.656-2.279-16.388-1.772-4.729.422-8.276-1.859-15.71-.087-7.348,1.69-13.093,2.789-15.035,3.464-6.082,2.111-5.236-1.268-7.18-1.605-.42,2.09-.92,4.03-1.77,5.64z" fill="#836755"/>
  <path d="m236.02,157.02c0,.084-.084,4.308-1.268,11.487-.76,4.308-2.702,7.094-5.405,10.559-1.858,2.533-4.139,5.322-6.588,9.206-3.549,5.576-9.799,9.04-15.035,11.149-4.139,1.689-7.771,2.536-8.869,2.873-2.449.76-6.082,3.125-11.32,1.772-1.434-.338-2.786-.42-4.137-.42-4.9.253-9.039,2.449-12.755.675-.593-.339-1.268-.508-2.111-.675-3.548-.509-8.953.167-11.826-.593-1.435-.422-2.871.084-4.308.846-1.943,1.013-3.885,2.449-5.829,2.534-1.52,0-2.702,1.097-3.884,1.941-.676.508-1.437,1.015-2.28,1.015-1.943,0-4.224-2.365-5.914-.422-1.858,1.943-12.67,1.097-13.514.844-.253-.168-.422-.168-.593-.168-.422.168-.929.508-2.278,1.268-1.437.844-2.62.506-3.464.169-.591-.255-1.269-.508-1.605-.508" fill="none" stroke="#e8b697" stroke-linecap="round" stroke-linejoin="round" stroke-miterlimit="2.4142" stroke-width="3.024"/>
  <path d="m236.28,158.7c-.085.171-.423,4.394-1.605,11.404-.76,4.308-2.703,7.179-5.321,10.557-1.942,2.536-4.308,5.238-6.757,9.04-3.633,5.405-9.884,8.785-15.035,10.896-4.139,1.605-7.688,2.365-8.953,2.702-2.533.675-6.166,2.871-11.32,1.605-1.435-.337-2.786-.506-4.055-.422-4.898.169-9.037,2.196-12.752.506-.593-.337-1.353-.506-2.112-.675-3.379-.593-8.784.084-11.742-.675-1.435-.34-2.871.082-4.308.844-1.942.928-3.886,2.196-5.827,2.28-1.521.084-2.704,1.013-3.886,1.774-.677.506-1.437.928-2.28,1.013-1.942,0-4.224-2.112-5.997-.338-1.943,1.943-12.502,1.184-13.431.931-.253-.086-.424-.171-.593-.086-.422.086-1.013.506-2.28,1.268-1.435.76-2.618.422-3.462.084-.593-.337-1.268-.593-1.521-.593" fill="none" stroke="#e3b294" stroke-linecap="round" stroke-linejoin="round" stroke-miterlimit="2.4142" stroke-width="3.024"/>
  <path d="m236.36,160.4c0,.167-.507,4.475-1.774,11.316-.76,4.308-2.702,7.266-5.236,10.559-2.027,2.449-4.392,5.238-6.926,8.871-3.801,5.236-10.052,8.529-15.119,10.473-3.971,1.605-7.519,2.365-8.953,2.62-2.536.675-6.335,2.702-11.32,1.435-1.351-.253-2.702-.338-4.055-.338-4.898.084-9.037,1.943-12.584.338-.677-.253-1.437-.507-2.113-.675-3.293-.591-8.698-.084-11.74-.759-1.52-.338-2.956.168-4.308.759-2.027.928-3.971,2.112-5.829,2.196-1.519,0-2.702.929-3.884,1.605-.762.506-1.437.844-2.28.928-1.943,0-4.224-2.027-5.998-.253-2.196,1.858-12.501,1.268-13.43,1.097-.253-.084-.424-.167-.593-.084-.506.171-.929.508-2.28,1.183-1.435.76-2.618.422-3.378,0-.593-.253-1.268-.59-1.521-.59" fill="none" stroke="#ddad8f" stroke-linecap="round" stroke-linejoin="round" stroke-miterlimit="2.4142" stroke-width="3.024"/>
  <path d="m236.53,162.08c-.085.255-.76,4.561-1.943,11.234-.844,4.308-2.787,7.348-5.32,10.559-1.943,2.449-4.393,5.154-7.01,8.7-3.971,5.07-10.222,8.278-15.204,10.221-3.886,1.521-7.435,2.196-8.956,2.449-2.617.591-6.335,2.449-11.233,1.268-1.435-.253-2.786-.34-4.055-.34-4.982,0-9.122,1.69-12.668.171-.593-.253-1.353-.508-2.027-.677-3.126-.675-8.531-.169-11.657-.844-1.521-.337-2.956.084-4.309.76-2.027.846-3.97,1.943-5.828,1.943-1.52.084-2.703.844-3.885,1.521-.761.422-1.521.759-2.364.844-1.943,0-4.14-1.774-5.913-.169-2.449,1.774-12.417,1.353-13.43,1.184-.256,0-.425-.086-.593,0-.507.169-1.013.506-2.281,1.097-1.519.675-2.533.422-3.377,0-.591-.338-1.015-.591-1.353-.675" fill="none" stroke="#d8a98c" stroke-linecap="round" stroke-linejoin="round" stroke-miterlimit="2.4142" stroke-width="3.024"/>
  <path d="m236.7,163.69c-.085.253-.929,4.646-2.196,11.234-.929,4.223-2.787,7.348-5.236,10.474-2.027,2.534-4.477,5.151-7.181,8.616-4.053,4.983-10.388,8.025-15.289,9.883-3.799,1.435-7.263,2.112-8.953,2.365-2.702.506-6.419,2.196-11.233,1.097-1.353-.253-2.702-.422-4.055-.422-4.898.084-9.122,1.605-12.502.084-.675-.337-1.435-.506-2.109-.675-2.957-.677-8.362-.337-11.657-.93-1.521-.253-2.956.084-4.224.677-2.027.844-3.971,1.772-5.829,1.772-1.519.086-2.787.759-3.968,1.352-.678.422-1.437.76-2.281.844-1.858.086-4.139-1.604-5.913-.084-2.704,1.689-12.332,1.437-13.43,1.352-.255-.084-.424-.084-.593,0-.591.169-1.013.422-2.28,1.097-1.519.593-2.533.253-3.293-.167-.678-.339-1.1-.593-1.353-.677" fill="none" stroke="#d1a387" stroke-linecap="round" stroke-linejoin="round" stroke-miterlimit="2.4142" stroke-width="3.024"/>
  <path d="m236.87,165.38c-.168.422-1.181,4.729-2.449,11.149-.928,4.223-2.786,7.432-5.235,10.474-2.027,2.534-4.562,5.151-7.182,8.36-4.221,4.9-10.559,7.856-15.457,9.63-3.715,1.437-7.179,2.027-8.869,2.196-2.871.506-6.588,2.027-11.233,1.015-1.437-.34-2.787-.424-4.055-.424-4.982,0-9.206,1.353-12.501-.084-.76-.253-1.435-.506-2.027-.675-2.787-.675-8.276-.422-11.656-1.013-1.521-.253-2.955.084-4.224.675-2.027.759-3.97,1.605-5.828,1.605-1.52,0-2.703.675-3.969,1.182-.677.337-1.437.677-2.282.759-1.941.084-4.137-1.435-5.996,0-2.873,1.69-12.163,1.521-13.345,1.521-.256-.084-.424-.084-.593-.084-.591.253-1.098.507-2.28,1.1-1.521.59-2.534.168-3.294-.169-.593-.424-1.015-.677-1.268-.677" fill="none" stroke="#c99d82" stroke-linecap="round" stroke-linejoin="round" stroke-miterlimit="2.4142" stroke-width="3.024"/>
  <path d="m236.87,167.06c-.084.424-1.181,4.816-2.533,11.067-.929,4.224-2.787,7.517-5.151,10.472-2.112,2.452-4.646,5.07-7.351,8.194-4.392,4.73-10.727,7.603-15.541,9.375-3.633,1.268-7.011,1.859-8.869,2.03-2.871.419-6.673,1.772-11.233.844-1.437-.337-2.702-.424-3.971-.424-5.067,0-9.29,1.099-12.501-.253-.76-.253-1.437-.506-2.112-.675-2.533-.759-8.022-.506-11.486-1.097-1.521-.253-3.042.084-4.224.59-2.111.675-3.971,1.521-5.913,1.521-1.435-.087-2.702.506-3.969,1.012-.593.338-1.352.591-2.282.677-1.858.083-4.055-1.268-5.911.083-3.126,1.605-12.079,1.605-13.348,1.69-.253-.084-.422-.084-.591,0-.591.168-1.097.424-2.28.93-1.519.59-2.533.168-3.209-.253-.593-.424-1.015-.677-1.183-.677" fill="none" stroke="#c3987e" stroke-linecap="round" stroke-linejoin="round" stroke-miterlimit="2.4142" stroke-width="3.024"/>
  <path d="m236.95,168.76c-.169.506-1.351,4.898-2.702,10.98-.929,4.224-2.787,7.519-5.152,10.39-2.111,2.534-4.646,5.152-7.434,8.109-4.562,4.561-10.813,7.348-15.626,8.953-3.462,1.268-6.842,1.859-8.869,2.027-2.958.338-6.757,1.521-11.233.675-1.353-.253-2.705-.422-3.971-.422-5.067-.084-9.291.93-12.417-.422-.76-.253-1.435-.506-2.027-.76-2.449-.677-7.938-.593-11.487-1.099-1.521-.253-3.04.084-4.308.506-2.027.675-3.886,1.437-5.828,1.353-1.436,0-2.703.506-3.971.844-.591.337-1.351.591-2.28.675-1.856.086-4.055-1.097-5.911.171-3.296,1.603-11.995,1.688-13.348,1.772h-.675c-.507.255-1.098.508-2.196.93-1.521.506-2.534.169-3.209-.253-.593-.509-.931-.762-1.099-.762" fill="none" stroke="#bd947b" stroke-linecap="round" stroke-linejoin="round" stroke-miterlimit="2.4142" stroke-width="3.024"/>
  <path d="m236.87,170.36c-.168.591-1.266,5.067-2.617,10.98-1.098,4.139-2.872,7.603-5.152,10.39-2.196,2.534-4.813,5.067-7.603,7.856-4.646,4.475-10.98,7.179-15.711,8.782-3.379,1.184-6.672,1.69-8.868,1.776-3.04.335-6.842,1.35-11.149.506-1.437-.253-2.789-.34-4.055-.34-4.985-.167-9.209.677-12.333-.591-.76-.253-1.435-.506-2.027-.759-2.28-.759-7.77-.675-11.402-1.184-1.605-.168-3.042.084-4.308.508-2.027.591-3.971,1.266-5.829,1.182-1.437-.084-2.702.337-3.97.677-.676.253-1.435.506-2.365.591-1.774.082-3.969-.931-5.911.253-3.464,1.519-11.826,1.774-13.264,1.943h-.59c-.591.253-1.269.506-2.281.928-1.521.422-2.449,0-3.124-.422-.677-.506-1.015-.762-1.184-.762" fill="none" stroke="#b68f76" stroke-linecap="round" stroke-linejoin="round" stroke-miterlimit="2.4142" stroke-width="3.024"/>
  <path d="m237.04,172.05c-.169.675-1.519,5.152-2.871,10.896-1.099,4.139-2.871,7.685-5.151,10.39-2.196,2.534-4.816,4.983-7.688,7.686-4.814,4.308-11.149,6.928-15.795,8.447-3.295,1.097-6.588,1.605-8.784,1.69-3.211.253-7.013,1.099-11.233.337-1.353-.253-2.705-.337-3.971-.337-5.069-.253-9.293.422-12.333-.76-.759-.253-1.437-.508-2.027-.761-2.111-.76-7.601-.844-11.317-1.268-1.605-.167-3.125.086-4.309.424-2.027.591-3.97,1.097-5.828,1.013-1.435,0-2.703.34-4.055.593-.591.167-1.351.42-2.281.506-1.773.084-3.97-.759-5.911.337-3.717,1.435-11.741,1.859-13.263,2.112-.253-.084-.506,0-.591,0-.591.253-1.266.506-2.28.846-1.521.42-2.449,0-3.124-.509-.593-.506-.847-.759-1.015-.759" fill="none" stroke="#b28b73" stroke-linecap="round" stroke-linejoin="round" stroke-miterlimit="2.4142" stroke-width="3.024"/>
  <path d="m237.04,173.74c-.253.675-1.519,5.152-2.955,10.812-1.098,4.139-2.871,7.77-5.067,10.303-2.196,2.618-4.985,4.985-7.772,7.603-4.982,4.224-11.317,6.673-15.963,8.107-3.211,1.099-6.42,1.521-8.784,1.605-3.296.253-7.097.846-11.236.168-1.35-.253-2.702-.337-3.884-.422-5.153-.169-9.377.253-12.333-.844-.761-.255-1.437-.508-1.942-.762-2.027-.759-7.517-.928-11.318-1.35-1.605-.169-3.126.084-4.308.422-2.027.506-3.971.928-5.829.844-1.435-.082-2.702.171-4.055.424-.591.167-1.35.337-2.28.422-1.774.084-3.97-.508-5.913.422-3.969,1.437-11.655,1.943-13.261,2.196-.254,0-.422,0-.676.084-.591.253-1.268.424-2.195.844-1.521.339-2.45-.167-3.04-.591-.678-.591-.847-.76-1.015-.76" fill="none" stroke="#aa856e" stroke-linecap="round" stroke-linejoin="round" stroke-miterlimit="2.4142" stroke-width="3.024"/>
  <path d="m236.95,175.43c-.253.761-1.52,5.236-2.956,10.727-1.099,4.139-2.871,7.856-5.067,10.306-2.195,2.618-4.984,4.985-7.855,7.434-5.152,3.968-11.487,6.417-16.048,7.77-3.127,1.013-6.335,1.437-8.787,1.521-3.293.168-7.179.59-11.149,0-1.35-.253-2.702-.338-3.968-.422-5.069-.255-9.377.084-12.248-1.015-.76-.253-1.437-.506-1.943-.759-1.858-.844-7.348-1.099-11.318-1.352-1.605-.253-3.126,0-4.223.253-2.112.508-3.971.846-5.914.675-1.352-.084-2.617.086-4.055.253-.506.171-1.266.34-2.28.424-1.689.169-3.801-.337-5.913.506-4.137,1.353-11.571,2.027-13.261,2.365-.253,0-.422,0-.507.086-.675.253-1.35.506-2.28.759-1.605.337-2.449-.168-3.04-.677-.593-.591-.846-.759-.93-.759" fill="none" stroke="#a37f69" stroke-linecap="round" stroke-linejoin="round" stroke-miterlimit="2.4142" stroke-width="3.024"/>
  <path d="m237.04,177.03c-.253.844-1.604,5.407-3.124,10.727-1.1,4.055-2.871,7.854-4.983,10.306-2.28,2.534-5.069,4.898-8.024,7.263-5.238,3.802-11.655,6.167-16.048,7.435-3.042.928-6.251,1.266-8.871,1.35-3.377.168-7.179.506-11.149-.169-1.35-.169-2.702-.253-3.886-.337-5.151-.338-9.375-.169-12.246-1.184-.76-.253-1.437-.506-1.943-.76-1.689-.846-7.179-1.183-11.233-1.519-1.605-.086-3.126,0-4.224.335-2.111.424-3.97.677-5.913.508-1.351-.084-2.702,0-4.055.084-.506.084-1.351.253-2.28.337-1.69.169-3.802-.169-5.913.675-4.306,1.183-11.487,2.027-13.177,2.367-.253.083-.507.083-.676.167-.675.253-1.352.424-2.195.677-1.605.338-2.449-.168-2.956-.677-.677-.675-.93-.844-1.099-.844" fill="none" stroke="#9e7c66" stroke-linecap="round" stroke-linejoin="round" stroke-miterlimit="2.4142" stroke-width="3.024"/>
  <path d="m236.95,178.72c-.253.928-1.604,5.489-3.125,10.643-1.183,4.053-2.871,7.94-4.984,10.221-2.278,2.618-5.067,4.983-8.107,7.095-5.407,3.799-11.826,5.995-16.132,7.263-2.958.762-6.082,1.099-8.787,1.184-3.546.084-7.348.253-11.233-.337-1.353-.171-2.618-.255-3.886-.338-5.067-.339-9.375-.339-12.162-1.352-.762-.253-1.437-.506-1.943-.844-1.521-.761-7.01-1.183-11.148-1.521-1.69-.084-3.127,0-4.224.253-2.112.422-3.971.506-5.913.337-1.353-.084-2.618-.084-4.055,0-.591,0-1.353.169-2.365.253-1.605.168-3.802,0-5.829.759-4.561,1.184-11.402,2.114-13.261,2.534-.253.086-.422.086-.507.086-.759.337-1.437.506-2.28.759-1.605.253-2.449-.337-2.955-.846-.593-.673-.931-.844-.931-.844" fill="none" stroke="#977662" stroke-linecap="round" stroke-linejoin="round" stroke-miterlimit="2.4142" stroke-width="3.024"/>
  <path d="m236.87,180.41c-.337.93-1.519,5.491-3.04,10.559-1.268,4.055-2.957,8.025-4.984,10.221-2.363,2.618-5.236,4.901-8.276,6.926-5.575,3.632-11.911,5.744-16.219,6.928-2.871.759-5.995,1.013-8.784,1.097-3.633,0-7.432,0-11.149-.506-1.353-.169-2.702-.253-3.886-.422-5.151-.34-9.46-.506-12.162-1.437-.762-.253-1.437-.506-1.942-.844-1.353-.846-6.842-1.352-11.065-1.521-1.689-.169-3.126-.084-4.224.169-2.111.337-3.97.337-5.913.168-1.352-.168-2.702-.168-4.055-.253-.591.084-1.35.168-2.364.253-1.605.169-3.718.169-5.914.846-4.729,1.097-11.233,2.196-13.176,2.702-.254,0-.423.084-.423.169-.928.253-1.604.422-2.364.591-1.605.168-2.365-.338-2.871-.844-.678-.76-1.015-.931-1.015-.931" fill="none" stroke="#90715d" stroke-linecap="round" stroke-linejoin="round" stroke-miterlimit="2.4142" stroke-width="3.024"/>
  <path d="m236.7,181.93c-.254,1.015-1.351,5.744-2.956,10.643-1.268,4.055-2.955,8.025-4.9,10.221-2.449,2.618-5.32,4.814-8.36,6.757-5.745,3.464-12.164,5.491-16.388,6.588-2.787.675-5.829.928-8.784.928-3.718,0-7.517-.167-11.149-.591-1.353-.169-2.618-.253-3.886-.422-5.152-.422-9.46-.76-12.078-1.604-.846-.253-1.437-.508-1.858-.846-1.268-.844-6.757-1.437-11.064-1.69-1.69,0-3.211,0-4.224.169-2.111.337-4.055.253-5.913.084-1.353-.253-2.703-.338-4.14-.422-.506,0-1.352.084-2.28.169-1.605.169-3.717.339-5.913.93-4.982,1.097-11.149,2.365-13.177,2.871-.253,0-.338.084-.506.084-.844.338-1.605.506-2.281.591-1.604.169-2.364-.422-2.873-.928-.591-.759-1.013-.93-1.013-.93" fill="none" stroke="#8b6d5a" stroke-linecap="round" stroke-linejoin="round" stroke-miterlimit="2.4142" stroke-width="3.024"/>
  <path d="m236.44,183.71c-.591,2.027-3.548,16.134-7.685,20.695-7.013,7.601-18.5,11.318-24.919,12.839-7.179,1.772-16.81.253-23.735-.338s-12.333-1.352-13.937-2.62c-1.521-1.181-11.657-2.111-15.203-1.605-3.633.424-6.505-.337-10.053-.759-3.295-.253-20.019,3.717-21.792,4.308-3.38,1.097-4.562.338-5.154-.506-.675-.759-1.013-.928-1.013-.928" fill="none" stroke="#836755" stroke-linecap="round" stroke-linejoin="round" stroke-miterlimit="2.4142" stroke-width="3.024"/>
 </g>
</svg>
