<?xml version="1.0" encoding="UTF-8"?>
<svg viewBox="0 0 925 688" xmlns="http://www.w3.org/2000/svg">
 <path d="m466 372h1l1 1h1q0 1 1 1h1q1 0 2 1l1 1h1v1h1v2h-2l-3-1h-3q-4 0-24-6l-21-6v-2q0-1 15 2 16 2 21 4t7 2z" fill="#b3b0b5" fill-rule="evenodd" stroke="#b3b0b5"/>
 <path d="m599 480h-4l-4-2q-4-2-5-5 0-3 2-3t7 1q5 2 7 5 1 4-3 4z" fill="#3b3430" fill-rule="evenodd" stroke="#3b3430"/>
 <path d="m590 663q0-1-2-1h-2v-2l-7-1q-7-1-7 0t1 1 1 1v1h-8v-5h1v-1h3v-1l1-1 20-3q20-3 27-3 8 0 7 2-1 3-1 4-1 0-8 2-7 0-8 2 0 1-8 3-9 1-10 2z" fill="#615148" fill-rule="evenodd" stroke="#615148"/>
 <path d="m696 640h2l-1 1-1 1h-1l1 1 1 1h3l5 1h5v1h-2v1h-1v1h1v1l2 1 2 2h1v1h1v2h-1v1h-2q-2 0-7-1h-4q0-1 1-1t2-2-7-3l-7-1h-1v1h-1v1h-1v-2h1v-1h1v-1l1-2q0-2 3-3 2-1 4-1z" fill="#a0928a" fill-rule="evenodd" stroke="#a0928a"/>
 <path d="m620 344v-3h3l15 1h22q2 1 2 2-1 0-1 1h-1v1h-6l-1 1q-1 1-15 1t-16-1-2-3z" fill="#b8b7c1" fill-rule="evenodd" stroke="#b8b7c1"/>
 <path d="m611 402h5v1h1l3 3q4 2 4 4v2q0 1-2 1-3-1-7-3t-7-5q-2-4 3-3z" fill="#6d6a78" fill-rule="evenodd" stroke="#6d6a78"/>
 <path d="m613 466h7q0 1 1 4 0 4-3 4t-7-2q-3-2-4-4 0-2 6-2z" fill="#3e3936" fill-rule="evenodd" stroke="#3e3936"/>
 <path d="m420 372-1-1h1l1 1h2l1 1 2 1h2v4h-4l-4-1-4-1h-2q-1 0-1-1h5l4-1h-1l-1-2z" fill="#746f70" fill-rule="evenodd" stroke="#746f70"/>
 <path d="m534 416h-5l-1-1-6-3q-5-2-12-4-8-2-12-4l-4-2-1-1-1-1-2-1q-2-2-1-4 0-3 9-1 8 2 14 7 5 5 14 10l10 5h-2z" fill="#807c7f" fill-rule="evenodd" stroke="#807c7f"/>
 <path d="m690 114q2 0 2 2t-1 2q-1 1-2-1t1-3z" fill="#686779" fill-rule="evenodd" stroke="#686779"/>
 <path d="m617 478h9l-1 3-1 3q-1 0-2 1l-1 1h-3q-4 0-6-2-2 0-3-4-1-3 8-2z" fill="#2f251e" fill-rule="evenodd" stroke="#2f251e"/>
 <path d="m716 176 2-1 1 1q1 1 1 4 0 4-1 4h-1v1q-1-1-2-1l-1-4q-1-3 1-4z" fill="#676882" fill-rule="evenodd" stroke="#676882"/>
 <path d="m596 244h11l3 1h3v3h-9q-10 0-12-1h-2l-1-2q-1-2 2-2 4 1 5 1z" fill="#bcbbcb" fill-rule="evenodd" stroke="#bcbbcb"/>
 <path d="m449 596 1-1 3 4q3 4 7 10 4 5 11 7 7 0 10 1h4l1 1h2v2h2v1q0 1-1 1v2l-1 2v1l-4-1q-5 0-5 4-1 3 0 4l1 1v1q0 1 1 2v1h-3q-2 1-3 2l-1 1q0-1-1-2 0-1-2-1-2 1-5-1-2-2-4-2h-3 1l1 2q2 1 2 2-1 1-1 2v1h-2l-1 1h-6v-1q0-1-3-1l-3 1h-1l-1-1q1 0 0-1v-1h1v-1l1-1v-2q0-1-3-1h-2v-10l6-1q6-1 6-2t1-1v-1h6l-5-1-4-1h1v-1h1v-1h2q2 0-2-6l-4-7v-1q0-1-2-3l-1-2h1q0-1 1-1z" fill="#897058" fill-rule="evenodd" stroke="#897058"/>
 <path d="m746 173v-1l6 4q7 4 13 6t12 6 7 5l1 1h4v1h1v1h1v4h-6l-1-1-10-5q-7-5-7-4t-2 1q-2-1-3-2v-3q0-1-2-1-2 1-8 0-5 0-4 3v3h-2l-1-1h-2v-2q1-1 1-4v-2h-1l-1-1h-1q0-1-1-1h-2v1l-1-3-1-2v-1h-1v-1h2l1 1 1 1h2l1 1q2 1 4 1h1l2 1 2 1h2v-2h-2v-1h-1v-1h-1v-1h-1v-1h-1q-1 0-1-1z" fill="#505061" fill-rule="evenodd" stroke="#505061"/>
 <path d="m742 664h3l1 1h2v2h-1v1h-1v2h-1l-1 1q-2 1-6 4-5 3-6 5l-2 2q-1 0-2 1h-2q-2 0-2-1v-1q0-1 2-3 2-4 2-5 1-1-1-1h-2l-1 1-1 1h-1q-1 0-2 1l-1 1h-1v2h-13v-1h-1v-1l1-1 1-1v-1h1v-1h2l1-1q2 0 2-1-1-2 0-2 2-1 3-3 1-3 13-2 11 1 14 1z" fill="#ad987e" fill-rule="evenodd" stroke="#ad987e"/>
 <path d="m791 35h1v1l-5 1q-5 1-17 7-11 6-14 8t-10 3-14 3q-8 2-13 4t-9 4q-5 1-4 3 0 2-1 2-1 1-5 3-3 4-10 4-8 2-8 9v7h-1q-1 0-1 4v5h1v1h1v1h-1v1h-2v-1h-1v-2l-1-2q-1-2-2-3-1 0-3 2l-2 2h-2v-1l-1-1-1-1 2-3q0-2 1-3v-1h-6v1h-1q0 1-2 2l-3 1v1h-1v1h-1v1h-1v2h-1l-1-1v-1h1v-1h1v-1h1v-1h1v-1h1v-1h1l10-10q10-10 22-18l28-14q16-6 41-12 25-4 28-4t4-1z" fill="#544a4a" fill-rule="evenodd" stroke="#544a4a"/>
 <path d="m384 430v2h-1v1q-1 0-5 1h-14q-1 0-2-1 0-1-2-1h-1v-1h-1v-4h1l1-1h1l3-1q2-1 10 1t9 2q1 1 1 2z" fill="#8a858b" fill-rule="evenodd" stroke="#8a858b"/>
 <path d="m489 487h4l2 1h5v1l1 1v1h-1l-1 1h-4l-1 1-2 1h-13l-1-1v-1h-1l-1-2q0-3 2-4h6q3 0 5 1z" fill="#372e2a" fill-rule="evenodd" stroke="#372e2a"/>
 <path d="m299 435 1-1h10q2 0 5 4t6 5 7 1h4v3l-6 1q-6 0-6 3 1 3 5 5t5 2h2l7 2q7 2 19 2 13 0 15-2 2 0 2-1l2-1q2 0 2-1l1 3q0 2 3 2t3 1h-2l-1 1h-1v1l-1 1q-1 2 2 4 2 2-2 5-3 2-4 3t-1 4v3h1v1h1l1 1 1 1h7v1h-9l1 3 2 4v1h-3q-2-1-6-1h-6v1h-1v1h-1v1l-1 1-1 1v1h-1l1 1 1 1h10q10 2 15 4l5 2h1v4l-1 2-1 1v2h1v1h1l1 1 1 1h-5l-3-1q-2-1-4-1t-14-5q-13-5-22-9-10-4-23-12t-15-10q-3-2-6-3-4-1-17 3-13 2-25 1l-11-1-1-1h-2v-1h13l1-1h2v-2h-1q0-1-1-2v-2l2 1q1 2 7 0t13-6q6-4 6-5l1-1 1-1v-2l1-1 1-2v-2h-7q-2 0-11 4t-31 4h-29q-7 2-18 2h-12v-2h2l1-1 1-1h2l6-2q7-2 7-3l11 1q10 0 25-4t15-2q1 2 4 2t13-4 13-5 4 0q0 1 5 2h5v-2l-1-1-1-1v-1l-1-2-1-2q1 0 1-1v-1q1 0 2-1z" fill="#362f2a" fill-rule="evenodd" stroke="#362f2a"/>
 <path d="m590 628h6q3 1 4 2 0 2 6 2 6 2 11 2h5l2 1h3v3h-1q-1 0-4 1h-3q-1-1-2-1t-1 2q-1 1-4 1h-4v-1h-4q-3 0-8-3l-4-3h-2l-1-1q-1-1-2-1-1-1 0-2 1 0 1-1t2-1z" fill="#685546" fill-rule="evenodd" stroke="#685546"/>
 <path d="m316 410h5q1 0 1 3 1 2-7 5-8 2-7-1v-3h1l3-2q2-2 4-2z" fill="#6e696b" fill-rule="evenodd" stroke="#6e696b"/>
 <path d="m344 592h4v1l1 1 1 1v1l10 15q10 15 10 16v1h1l3 1h2v1h-3v2l1 1v1l1 1 1 1v2l1 1v1h-3v-1l-1-1-1-1v-1h-1v-1h-1v-1q0-1-5-6l-5-5v-1l-1-1v-1h-2v5l-1 2v-4q0-4-1-5 0-2-2-3t-3-3q-2-3-4-8l-2-5v-7z" fill="#ad967b" fill-rule="evenodd" stroke="#ad967b"/>
 <path d="m538 408h-3l-4-3q-5-2-5-5-1-3 5-2 7 2 8 4 1 1 2 4 0 2-3 2z" fill="#8a8584" fill-rule="evenodd" stroke="#8a8584"/>
 <path d="m249 317h1l-2 2q-1 1-1 2h-1v2l1 3 1 2v2h1v1h1v1l2-1q1 0 1 1l1 1v-1h4l-6 4q-6 4-8 6t-3 6q-1 3-2 4l-1 2v9h1l1 3q0 4-3 8t-4 8q-1 3-1 6 0 4-1 4t0 3 8 6 8 3v1h1v1h1l-2 3-2 3h-1v3h3v1h-2l-5 1q-5 1-5 4-1 3-2 5-1 1-1 2t-5 2-9 4q-4 4-7 5t-4 2l-1 1h-2l-1 1-1 1h-1l-1 1h-2v-1h1v-1h1v-1h3v-1h1v-1h1q1 0 3-2h1l1-1 1-1h1v-1h1v-1h1v-3 1h-3l-1 1-1 1-54 24q-54 26-57 27-4 1-6 2h-2q-2 0-2-1t-13 5q-13 5-14 6l-1 1h-3v1h-1v1h-4v-2h1v-1h1v-1h2v-1l3-1 2-2h1v-1h1v-1h1v-1h1v-1h-7l-2 2h-8v-1h1v-1h1l-2-1h-3v-1h1l1-1 1-1h1l1-1q1-1 18-11 17-12 24-16l21-12q14-8 23-17t16-13 28-26q20-20 41-43l21-23 3-2q3-2 4-3z" fill="#54566d" fill-rule="evenodd" stroke="#54566d"/>
 <path d="m262 406h5l-5 2-5 2v1q-1 0-3 1l-2 1v-1q0-1 2-3 3-3 8-3z" fill="#68646e" fill-rule="evenodd" stroke="#68646e"/>
 <path d="m505 338 13 2h4v1h1v1h1-9q-9 0-21-1-11-1-12-3 0-1 5-1 5-1 18 1z" fill="#c7c1c6" fill-rule="evenodd" stroke="#c7c1c6"/>
 <path d="m676 654h3q1 1 0 4-1 4 0 5t3 0q2 0 2-1v-3l3 1q2 2 4 1t3-1h1l1-1 1-1h1v-3h1v3l-1 2v1h-1v1h-1v2h-1v1q-1 0-4 3-3 2-10 3l-6 1v1h-2q-2-1-2-2-1-1-1-2-2-1-2-5t-1-4q-1-1-1-2v-1l1-1q1 0 0-1 0-1 4-1h5z" fill="#9d8974" fill-rule="evenodd" stroke="#9d8974"/>
 <path d="m448 340 15 1q15 1 17 2 3 1 4 1h1l1 2q1 3-2 3l-2 1q-1 0-14-4l-13-2-2-1q-2-1-3-1-2 0-2-2z" fill="#c0bcc1" fill-rule="evenodd" stroke="#c0bcc1"/>
 <path d="m551 337v-1l2-1h9q8 1 12 1h5v1h1v1h2v2h-22q-1 0-5-1-4 0-4-2z" fill="#c3c0c6" fill-rule="evenodd" stroke="#c3c0c6"/>
 <path d="m570 654h1v1q0 1-2 1h-2v1h-1v5h8v-1q0-1-1-1t-1-1 7 0l7 1v2h2q2 0 2 1l-2 1q-1 2-13 4l-12 2v-1h-1v-11h-1v-1h1v-2h4q3-1 4-1z" fill="#765e47" fill-rule="evenodd" stroke="#765e47"/>
 <path d="m389 597-1-3 4 2q5 2 17 8 12 8 13 8v1h1q0 1 1 1h2v2h-1v1h-1v1l-1 1v1h6v1h-1v1h-5v1h-1v1h-1v-2q0-1-1-1h-1v-2h1v-2h-1v-1h-1v-1h-1v-1h-2v-1h-1v-1h-1q-1 0-12-6t-12-9z" fill="#9a856d" fill-rule="evenodd" stroke="#9a856d"/>
 <path d="m792 678h9l7 4q8 4 8 5v1h-20v-1h-1v-1h-1v-1q-1-1-2-4l-1-3h1z" fill="#6a5344" fill-rule="evenodd" stroke="#6a5344"/>
 <path d="m715 392h-2l-4-2q-3-2-5-6t3-3 8 3q3 3 2 6 0 2-2 2z" fill="#77747c" fill-rule="evenodd" stroke="#77747c"/>
 <path d="m487 439 9 4q9 3 9 6l-1 2q0 1-4 1h-3l-1-1q-1-1-2-1-2 0-6-4l-4-4v-1q0-1 2-1 1 0 1-1z" fill="#605e62" fill-rule="evenodd" stroke="#605e62"/>
 <path d="m288 677v-1h16q17 0 24 1h8v1h-3l1 1 2 1h6l2 1 2 1h-7v1h1v2h-1v1h-1v2h-2v-1h-1v-1h-3l-3-1q-3-1-5-1-3 0-18-2l-16-2-1-1-1-1v-1z" fill="#a99074" fill-rule="evenodd" stroke="#a99074"/>
 <path d="m497 494h7q7 0 10 3 2 3 4 3 3 1 2 3 0 3-4 3h-3l-1-1q-2-1-8-2l-6-1v-1l-1-3q-1-3 0-4z" fill="#312a24" fill-rule="evenodd" stroke="#312a24"/>
 <path d="m675 673h3l2 1h2l3 3 5 5q2 0 3 1l1 1 1 1v1h-19q-18 0-22-1h-4v-7h1l1-1 1-1h1v1h1v1l5-2q4 0 10-2 5 0 5-1z" fill="#665243" fill-rule="evenodd" stroke="#665243"/>
 <path d="m597 356-1-2 10 1q10 1 12 2 2 2-9 2-11-1-12-3z" fill="#c1c0cb" fill-rule="evenodd" stroke="#c1c0cb"/>
 <path d="m447 596v1l1 2q2 2 2 3v1l4 7q4 6 2 6h-9v-1h-1v-2q1-2-2-1h-2q0-1-1-1v-1h-1q0-1-1-1v-1l-1-1v-3q0-3 1-5l1-2v-1l3-4 3-3h1q1 0 2 3 1 2 0 2l-2 2z" fill="#342923" fill-rule="evenodd" stroke="#342923"/>
 <path d="m761 640h7q2 0 2 1v3h-1l-1 1-1 1h-11v-1l-1-1v-2h1l1-1h3l1-1z" fill="#675446" fill-rule="evenodd" stroke="#675446"/>
 <path d="m645 365h7v3h-1l-7 1q-6 0-6-2t7-2z" fill="#868595" fill-rule="evenodd" stroke="#868595"/>
 <path d="m549 469h-3l-3-1h-2l-1-1-1-1h-1l-2-1q-1-1-4-3l-4-2-2-5q-1-5 4-4t10 5q4 3 4 4t3 4q3 2 3 3t-1 2z" fill="#514d52" fill-rule="evenodd" stroke="#514d52"/>
 <path d="m357 622v-2h2v1l1 1v1l5 5q5 5 5 6v1h1v1h1v1l1 1 1 1v1h-5l-1 1h-2v2h-2v-3q0-3-4-10l-3-7v-1z" fill="#7f674f" fill-rule="evenodd" stroke="#7f674f"/>
 <path d="m648 392h-2l-4-2q-4-3-5-4-1-2 6-2 7 1 7 4 0 4-2 4z" fill="#747282" fill-rule="evenodd" stroke="#747282"/>
 <path d="m750 105h1v1q-1 1-2 3-2 3-3 5-1 3-2 3-1 1-6 5l-5 4 5-8q6-8 8-10 3-2 4-3z" fill="#797680" fill-rule="evenodd" stroke="#797680"/>
 <path d="m710 646v-1l6 1q6 0 10 3 3 2 3 1v-1l1 1q0 1 1 2v1q-1 1-1 2t-3 1-7-4l-4-4h-1l-1-1-2-1h-2z" fill="#a4958a" fill-rule="evenodd" stroke="#a4958a"/>
 <path d="m582 380v2h-4q-4 0-5-1t-2-3q0-2 2-2t5 1 3 2q1 0 1 1z" fill="#6e6a72" fill-rule="evenodd" stroke="#6e6a72"/>
 <path d="m673 435v3q-1 1-4 2-4 0-8-2-3-3-5-6l-2-4 1-1q1-1 3-1 3 0 8 3 6 3 6 4t1 2z" fill="#5f5959" fill-rule="evenodd" stroke="#5f5959"/>
 <path d="m804 54h11-6q-6 0-10 2-4 0-5 2-1 0-6 2l-5 1v-1h2v-1h1v-1l4-2q4-2 14-2z" fill="#514e54" fill-rule="evenodd" stroke="#514e54"/>
 <path d="m547 659v-1h3v13h-1q0 1-3 1-3 2-4 3-2 1-7 2-6 1-15 2t-12 2l-3 1v1h-1v1h-1v1h-1v1h-2l-1 1-1 1h-27l5-1q4 0 4-1t2-3 1-3-1-2v-1h1q1 1 7 1h5v-1h1v-1q0-1-2-4l-2-3h1l1-1h8q8-2 10-2 2-2 11-2 9-2 11-2 2-2 5-2h3v1l1 1q0 2-2 2-1 1-2 1v1h-1v1h1v1h5v-1l1-1q1-1 1-4v-3h1z" fill="#7f664e" fill-rule="evenodd" stroke="#7f664e"/>
 <path d="m630 234h4l1 1 1 1h2l1 1h1v2h-4q-5 1-6 1h-16 8v-2l-1-1-2-1h3q4 0 4-1t4-1z" fill="#9696aa" fill-rule="evenodd" stroke="#9696aa"/>
 <path d="m519 394-1 2h-4q-4 0-5-2 0-2 5-2t5 2z" fill="#6e6b6f" fill-rule="evenodd" stroke="#6e6b6f"/>
 <path d="m634 421v-1l5 1q5 1 8 2 3 2 3 3v1h1v2l-1 2v1h-1q-1 0-6-1l-5-2q0-1-1-1h-1q0-1-1-1v-1h-1q0-1-1-2h-1v-1l1-1 1-1z" fill="#5e5b64" fill-rule="evenodd" stroke="#5e5b64"/>
 <path d="m475 473 1 1 1 1 1 1h2v-6l3 3q3 3 5 8 1 5 2 5t1 1h-2q-2-1-7-1-6 0-6 2t1 4l2 2h-1q-1 0-1-1-1 0-3-1h-2l-1 2q-1 1-2 6-1 6-6 6h-5v1h-1v1h-1v1l-1 1v1h1l1-1h2l1-1 1-1h10q11 0 11-3t1-4l1-1h5v1h1v1h1v1h1v7h-1v1h-1v1h-1q-1 0-19 5l-18 5h-2l-1 1-1 1h-1l-1 1h-1v2h1l1 1h10q6-2 9-2 4 0 6 2 3 2 6 3l2 1h-1q-1 0-2 1t-9 1-16-1l-9-1v1h-1v7l2 6q4 6 4 7 2 1 2 2v1h1v2l-1 1v-1h-1v1h-1v6l-1-1q-1-2-1-3t-1-1l-1-1h-1v-1h-3l-1 4q-1 2-3 2-1 0-1 1l-1 1v-1h-1v-1h-1v-1h-1v-1q-1 0-10-14-9-13-11-18-2-4-8-6l-6-2-1-1-1-1h-1v-1h-1v-2l1-1 1-2v-4h-1l-5-2q-5-2-15-4h-10l-1-1-1-1h1v-1l1-1 1-1v-1h1v-1h1v-1h6q4 0 6 1h3v-1l-2-4-1-3h9l5 2q6 1 18 1h14q3 0 5 2 2 4 3 4h14l1-1 1-1v-2l-1-1-1-1h-1q-1 0-4-2-3-1-3-2v-1h-1v-1h-1v-3h-1v-1h1v-2h2l2-1 1-1h1l8 2q9 2 14 2h7l-1-1-1-1h-2l-1-1-1-1h-2q-2 0-6-2h-4l-1-1-1-1h-1v-2l-1-2v-1h5l5 1q5 0 5-2 1-2 4-1 2 1 4 3l3 3z" fill="#2c2520" fill-rule="evenodd" stroke="#2c2520"/>
 <path d="m605 457q1-1 3 1 3 0 3 2t-3 3q-4 0-4-3 0-2 1-3z" fill="#403a38" fill-rule="evenodd" stroke="#403a38"/>
 <path d="m846 653v-1l2 1q2 1 12 1h10v1h1v1h1v2h-1l-3 1q-3 1-7 3l-4 3v-1q1-1 1-2 0-2-4-3l-3-1h-1q-1 0-2-2 0-2-1-2t-1-1z" fill="#ae957e" fill-rule="evenodd" stroke="#ae957e"/>
 <path d="m479 306 2-1h1l10 1q11 2 14 2h3q-1 1-8 2h-8v1h-1q0-1-6-1h-6l-2-1q-1 0-1-1 0-2 2-2z" fill="#ccc7cb" fill-rule="evenodd" stroke="#ccc7cb"/>
 <path d="m692 402h-1l-3-1q-3-1-4-1h-2l-4-3q-4-3-3-5t7-2q5 0 9 4 3 4 4 6 0 1-1 1-1 1-2 1z" fill="#78767b" fill-rule="evenodd" stroke="#78767b"/>
 <path d="m754 98v-1h1v1l-2 4-1 3h-2l1-3q1-2 2-3h1v-1z" fill="#73717d" fill-rule="evenodd" stroke="#73717d"/>
 <path d="m733 139v-12l1 10q0 10 2 11t0 6q0 4 2 6t2 3v1q-1 0-3-2l-3-6q0-5-1-17z" fill="#84818d" fill-rule="evenodd" stroke="#84818d"/>
 <path d="m484 626 4 1 3 5q3 4 4 8v3h-5l-4 1h-3v-1q-1 0-1-2l-1-2v-1q-1-1-1-2v-1l-1-1q-1-1 0-4 0-4 5-4z" fill="#544740" fill-rule="evenodd" stroke="#544740"/>
 <path d="m667 416q-1-4 3-3t10 4 6 7-6 3-9-4-4-7z" fill="#6a6569" fill-rule="evenodd" stroke="#6a6569"/>
 <path d="m660 388q2 0 2 2t-2 2q-3 1-3-2 0-2 3-2z" fill="#605e6e" fill-rule="evenodd" stroke="#605e6e"/>
 <path d="m586 404h2l2 1 2 1h3l1 1h1q0 1 1 1l1 2q1 1-3 1l-12-4-10-3-3-3q-3-3 2-3t9 3q3 3 4 3z" fill="#838085" fill-rule="evenodd" stroke="#838085"/>
 <path d="m576 229-1-1h30l2 1q2 1 3 1h1l-17 1-16 1-1-1q-1-1-1-2z" fill="#c6c3cd" fill-rule="evenodd" stroke="#c6c3cd"/>
 <path d="m261 362q-1-2 16-2t16 1q0 1-15 1h-17z" fill="#625d5e" fill-rule="evenodd" stroke="#625d5e"/>
 <path d="m703 400v-1l3 1 5 5q3 3 3 6v3q-1 0-4 1l-2 1q0-1-1-1h-1l-2-2q-2-1-3-5-1-5 0-6l1-2h1z" fill="#767173" fill-rule="evenodd" stroke="#767173"/>
 <path d="m470 672v1h1v1h3v1h-4q-3 1-4 1-2 0-2 2 0 1-1 1t-1 1v2h-2v-3h-1v-1h-7q-1 0-3 2-2 0-6 1-4 0-4-2t-6-2q-6 1-15-4l-9-5h-2l-2-1-2-1h-1v-2h1l3-1h2v1l8-1q8-1 10-3t3-1q1 0 2 1 0 2 7 1t8-1q2 0 4 3 1 3 4 3h9q7 0 7 2v4zm-9 4q1-1 1 0 1 0 0 1-1 0-1-1z" fill="#755e4b" fill-rule="evenodd" stroke="#755e4b"/>
 <path d="m708 348q1 0 8 2t7 4q-1 1-3 1-2 1-7-2-5-2-5-3-1-2 0-2z" fill="#696b81" fill-rule="evenodd" stroke="#696b81"/>
 <path d="m331 642v-1l7 1q7 2 10 3 2 1 4 3 1 2 2 2h6l2 1 1 1h1v1l1 1v1h-13q-13-1-16-1h-2v-1l-1-1-1-2v-2q0-1-1-2v-4z" fill="#7d664f" fill-rule="evenodd" stroke="#7d664f"/>
 <path d="m632 413q-1-3 2-1 4 0 4 2 0 1-3 1-3 1-3-2z" fill="#636067" fill-rule="evenodd" stroke="#636067"/>
 <path d="m662 421-1 1h-3l-4-3q-4-2-5-4 0-3 7-2 6 1 7 3 1 3 0 4 0 1-1 1z" fill="#6c6a70" fill-rule="evenodd" stroke="#6c6a70"/>
 <path d="m659 158h1l-1 2q-1 2 1 1t4 0l2 1v2l-2 4v8h-1q-1 0-2 1l-1 1h-5q-1 0-1-1-1-2-4-1l-3 2h-2v1h-1v1h-2v1-3h1v-1h1v-1h1l1-1h1v-1q1-1 1-2v-2h1q1 1 3-2l2-4v-1l2-2q2-3 3-3z" fill="#57586e" fill-rule="evenodd" stroke="#57586e"/>
 <path d="m528 352h15l1 2q0 2-4 2h-9l-1-1q-2-1-3-1t-1-1 2-1z" fill="#c3bec6" fill-rule="evenodd" stroke="#c3bec6"/>
 <path d="m672 340-2 1q-2 1-4 0-2 0-2 2l-1 2h-1q0 1-1 1h-1v-2l1-1v-1h-3l2-1q2 0 2-1 0-2 5-2t5 1v1z" fill="#69697e" fill-rule="evenodd" stroke="#69697e"/>
 <path d="m410 392v1h1q0 1 1 1l1 1q1 1 1 2v1h-6v-1h-1v-1h-1l-1-1h-1q0-1-1-1h-2q-1 0-7-3l-5-3-2-2q-2 0-21-3l-19-2v-5h4l1 1h1l11 1q12 1 11-1 0-3 17 6t18 9z" fill="#6a6567" fill-rule="evenodd" stroke="#6a6567"/>
 <path d="m578 480v2h-11l-3-2q-4-2-3-5 0-3 5-1 6 0 9 2t3 4z" fill="#3d352f" fill-rule="evenodd" stroke="#3d352f"/>
 <path d="m768 324v4l1 1v1h7v2l1-1 1-1v-2q0-1 1-4l1-2v-1h1v1h1v6l-10 24q-10 23-11 24l-1 2q-1 0-1 1h-1q-1-1-2-1-2-1-2 4 0 4-3 5-4 1-6 2l-3 2 1 2q0 3 1 3t1 1h1v6h-1l-1-1h-2v-2l-1-2-1-1v-1q0-1-2-6-2-4-6-6t-4-4-5-2l-4-1v-1h2v-3l3 1q4 0 4 1h1v-1h2v-1h1v-2h-1v-1h-1v-1h-1v-1h-1v-1h-1v-1h-2v-1h-1v-1h-9v2l1 2v1l1 1v1h-1l-1-1h-1v-1l-1-1q-1-1-2-4t-8-4q-7-2-14-2l-7-2h-1v-1h1q2 1 4 1h1v-2l-1-2v-1h-1v-1h-2l-1-1-1-1h-8l1 2q0 2 1 2h1v1l1 1h-2l-1-1-1-1h-1l-1-1q-1-1-5-3l-3-3h-1v-2q0-1-2-1h-22l-15-1v-2q1-1-1-2l-1-1-1-1v-1h-2l-6-1q-6-1-9-1-3-2-8-2l-5-2h-1l1-1 1-1q-1 0 1-1 1-1-1-1-1-1-1-2v-2h3v-1l-1-1v-1h-1v-1h-1q-2 0-9-1l-7-1-11-2-11-1h-2q-2-1-22-2l-19-1h-3q-3 0-14-2l-10-1q0-1-5-1l-5-2h2q2 0 2-1t-2-1q-1 0 0-4 0-4-1-4l-1-1h-1v-1h-1v-1h1v-1h3v-1h1v-1l4 1q4 1 5 2 0 1 1 2 1 0 1-1t6-1h24q19 1 30 1h11l1-1h1v-1l-1-1v-1h-3l-15-1q-15-1-22-1h-7l6-1q5-1 5-3-1-2 1-2t5-1q4-1 4-2t1-1h7q7 0 8-1v-1h1l15 2q15 2 27 3 13 0 13-1t-1-1q0-1 1-1h1l3 1q4 1 14 1h9v-1h1v-2h-1v-1h-3q-4 0-6-1h-2v-1h-1v-1h-1v-2h1v-1h2l1-1 1-1h1v-1h1v-1h3q3 0 3-2t5-2q4 0 4 2 1 1 6 2h10q6-1 8 1 1 1 9 3t13 2q6 0 10 1 4 2 4 7l3 6q2 2 5 2 2 0 5-2t10-4 11-2 5 3q1 2 3 4 1 3 2 4 2 1 4 1 3 0 11 7 7 6 9 8 1 3 3 2 2 0-1 8-2 8-2 11zm-148-56v-1 1zm-4 38v2h-12q-13 0-16-1-4-1 0-2t16-1q12 1 12 2zm3 12h-10q-4 0-4-1l-1-1 5-1q5-1 16-1t10 1q0 1-5 3h-11zm53 21v1l-2 1q-3 1-6 0-2-1-2-2t5-1 5 1zm36 9q1 0 8 2t7 4q-1 1-3 1-2 1-7-2-5-2-5-3-1-2 0-2zm29 17q4-1 5 1t-4 2q-6 0-6-2 0-1 5-1zm-2 11q0-2 3-1 2 1 3 2 0 1 4 1 4 1 4 4-1 2-1 3-1 1-6 0-4-1-5-2t-2-3q-1-3 0-4z" fill="#515167" fill-rule="evenodd" stroke="#515167"/>
 <path d="m616 306v2h-12q-13 0-16-1-4-1 0-2t16-1q12 1 12 2z" fill="#cccbd2" fill-rule="evenodd" stroke="#cccbd2"/>
 <path d="m717 149v2q-1 2-2 2-2 0-2-4-1-4 1-5 2 0 2 2 0 3 1 3z" fill="#606071" fill-rule="evenodd" stroke="#606071"/>
 <path d="m602 151h3v1h-1v1h1v1h6-1l4 2q5 2 9 2h4l-1 1-1 1h-1q-2 0-4 2h-1v1h-1v1q0 1 2 2 2 0 2 2v3l-1 3v2h4v-1h1l3-3q4-2 5-3 2 0 2 2 0 3 4 0t6-2q2 0 2 1v2q0 1-1 2v1h-1l-1 1h-1v1h-1v1h-1v3-1h2v-1h1v-1h2l3-2q3-1 3 0t1 1q1 1 4 1h2q0 1-1 1 0 1-7 3l-8 2-1 1-1 1h-1q-1 0-1 1v1h1l1-1q1-1 2-1h2v1h1v1h1v1l-2 5q-2 6 0 6 3 0 3 1-1 1-1 3v2h1v1h1v1h3l7-4q8-4 8-5t-5 0-3-3 6-4h4q2-2 4-2h4q1 0 1 1 1 0-3 5l-4 5-1 3v4h4l1-1 1-1h-2l1-4 2-3v-1h1l1-1 1-1h1v-1h1v1h1v1h1v1h1l-1 4q0 3 2 4 1 0 1 2v1h2l2 1h-1l1 1h1l1-3q0-4 2-4 1-1 2-4 1-2 2-3 2-1 2-3 0-1 2 0 2 0 1 2-1 3-2 5t0 5q1 2 3 2 1-1 4-9 3-7 6-8 2-1 2 0l-1 3q-1 2-2 6t-1 6v2l-1 1-1 1v3l-1 1v2h2v-1 3q1 3 1 4v2h1v1h1v1h3q3 0 4 1v1l3-1q4-1 5-5 1-3 4-4 3 0 3-2 0-1 1-5v-4l1-1 1-1 1-1v-1h1v-1h3q2 1 3 2l1 1v1h1l1 1h1v-1l-1-2v-2h-1v-1h-1v-1h-1l-3-1q-3-1-4-3l-2-2v-1q0-1-1-3l-1-1v-4l1-1 1-2v-1h2l1 1h1v2q0 3-1 4v2h2l1 1h2v-3q-1-3 4-3 6 1 8 0 2 0 2 1v3q1 1 3 2 2 0 2-1t7 4l10 5 1 1h6l2 12q3 11 2 34t-4 42-5 26q-2 6-3 8l-1 3v-3h-1v-1h-1v1l-1 2q-1 3-1 4v2l-1 1-1 1v-2h-7v-1l-1-1v-4q0-3 2-11 3-8 1-8-2 1-3-2-2-2-9-8-8-7-11-7-2 0-4-1-1-1-2-4-2-2-3-4-1-3-5-3t-11 2-10 4-5 2q-3 0-5-2l-3-6q0-5-4-7-4-1-10-1-5 0-13-2t-9-3q-2-2-8-1h-10q-5-1-6-2 0-2-4-2-5 0-5 2t-3 2h-3v1h-1v1h-1l-1 1-1 1q0 2-1 2t-1 1l1 1v1h-2q-2-1-9-1h-7l1 2 2 2q-1 0-1 1v1h-2v-1q0-1-14-2l-15-1v-1h3l2-1h2l1-1q1 0 1-1t1-1q1-1 2-1h1l2-1 2-1 1-1 1-1v-2h-1v-1h-1v-1h-1l-9-1-10-1h14l4-1h4v-2h-1l-1-1h-29v-2h5l4-2q5 0 3-1t4-1q6-2 7-1 1 0 1 1 0 2 2 2t3-1h2q2 1 12 1h9v-3h-3l-3-1h-9l1-1 1-1h1l1-1 1-1h2v-1h-1v-2h1l1 1h1l3 1q2 1 3 1h17q1 0 6-1h4v-2h-1l-1-1h-2l-1-1-1-1h-4q-4 0-4 1t-4 1h-6q-2 0-4-1h-2v-2q1-1 1-2v-1h-1q-1 0-3-1l-2-1h-6 8q8 0 9 1 2 0 1-3-1-2 2-3 2-1 2-2h6l6-1h4v-1h1v-2h-1v-1h-21v2l1 1h-1q-1-1-2-1t-4-1q-4-1-6-3l-1-2q1-1-3-2-3-1-3-2-1-1 0-3t0-2q-1-1-2-4-1-4-4-8t-7-7l-4-2-2-1-1-1h-1 8v-3h-1v-1h-1v-4q0-4-3-7t-5-4l-3-1h-1v-1h1v-1h2l-3-1h-2v-1l16-2q16-2 18-3zm35 38v-1h1q0 1-1 1zm97 32v-1 1z" fill="#61627d" fill-rule="evenodd" stroke="#61627d"/>
 <path d="m550 270v-1l9 1q9 0 11 1h3v1l15 1q14 1 14 2h1q0 1 1 1 0 1-13 1-12-1-27-3l-15-2v-1l1-1z" fill="#c2c1cb" fill-rule="evenodd" stroke="#c2c1cb"/>
 <path d="m315 361 1-1 8 1q7 1 22 1h14l2-1h5l3 1h-6v3l1 1h-25q-10 0-15-1l-5-1h-4q-4 0-4-1v-1h2l1-1z" fill="#6f6970" fill-rule="evenodd" stroke="#6f6970"/>
 <path d="m700 419h3l1 1q2 2 1 5l-1 3q0 1-1 1h-1l-1 1h-3q-2 0-4-2l-2-1v-1l-1-1-1-1 1-2q0-2 3-2t6-1z" fill="#605c5a" fill-rule="evenodd" stroke="#605c5a"/>
 <path d="m614 370-1-3 5 1q6 2 6 4 1 1 5 1l4 1h-3q-4 0-4 1l1 1 1 1h-3q-3-1-5-1l-2-2h-1q-1 0-1-1-1-1-2-3z" fill="#6e6e7e" fill-rule="evenodd" stroke="#6e6e7e"/>
 <path d="m530 384v-2l10 2q9 1 9 2l1 1v3q0 1-4 0h-4l-2-1q-2-1-3-1h-1l-2-1q-1-1-2-1l-2-1v-1z" fill="#ada8aa" fill-rule="evenodd" stroke="#ada8aa"/>
 <path d="m812 572h9v1h1v1l-1 1v1h-2v1h-1v1h-1l-1 1-1 1h-1q-2 0-12 1h-14q-4 0-4-2v-4l10-1q9-2 18-2z" fill="#988768" fill-rule="evenodd" stroke="#988768"/>
 <path d="m555 434h-1l-2-5q-1-4 6-2l8 4q2 2 2 5 0 4-3 4t-7-3l-3-3z" fill="#68666f" fill-rule="evenodd" stroke="#68666f"/>
 <path d="m401 337 2-1h1q1 0 2 1l1 1h1v6h-4l-1-1-1-1h-2v-3q0-1 1-2z" fill="#767178" fill-rule="evenodd" stroke="#767178"/>
 <path d="m204 454h1v1h-1v1h-1l1 1h1q0 1-7 3l-6 2h-2l-1 1-1 1h-2v2h12q11 0 18-2h29q22 0 31-4t11-4h7v2l-1 2-1 1v2l-1 1-1 1q0 1-2 2t-9 5q-6 4-11 5h-5v-1l-1-1v-1l-1-2-1-1v-1h-2l-1 1-1 1-2 1q0 1-7 3t-35 4l-27 2v-2l1-2 1-1q1-1 3-1l2-1v-2h-1l-1-1h-4l-5-1h-5v-1h2l1-1 1-1 1-1 1-1v-1q0-1 2-3l1-2h1q1 0 1-1l8-2q8-3 9-3z" fill="#433e3a" fill-rule="evenodd" stroke="#433e3a"/>
 <path d="m691 440h1v1q-1 1 2 3 4 1 4 2 2 1 2 3t3 2h3v1q0 1-4 6-4 4-14 10l-9 6-1 1-1 1h-1l-1 1h-1v-3q0-2-1-4t1-2q1-1 1-2t-3-2q-2 0-4-2l-2-2v-2h1v-1h1v-1h1q1 0 1-1l-1-1 5-1 4-1h1v-1h1v-2q0-2-2-3h-1v-1h-1v-2h1l1 1h5q1 0 1-1v-1l3-1q3-1 4-1z" fill="#3c3530" fill-rule="evenodd" stroke="#3c3530"/>
 <path d="m364 364v-2h8q3 0 4 1h4l2 1 12 2q12 2 17 3t7 2h1l1 1 1 2h1l-4 1h-7q-2-1-24-5l-22-4-1-1v-1z" fill="#b6b1b7" fill-rule="evenodd" stroke="#b6b1b7"/>
 <path d="m831 594h4v1h1v4l-1 1-1 1v1h-1v1q-1 0-11 11l-10 11v5l4 2q5 2 5 3h-2q-2 1-6 1t-6-2l-2-2h-1l-1 1-1 1h-1v1h-1v3l2 1 1 1h-6q-2 0-3 1-2 1-1 5l1 3h-1v-1q-1-2-2-2-2 0-7 3l-4 4h-1v1h-2l-1 1-1 1h-1l-1 1h-1v-2h1l1-1h1v-1h1v-1h1v-1h1l2-3 3-3 1-1v-2l1-2v-2h-14l2-1 2-1h3l1-1 1-1 8-1q9-1 12-5 2-4 6-5 4-2 4-3 0-2-2-2-1 0-1-1l3-1q4-1 10-9l7-9h1v-1h1v-1h1v-2h1z" fill="#ab927c" fill-rule="evenodd" stroke="#ab927c"/>
 <path d="m722 600h2v1l1 1q1 2 0 2t-1 1v1h1l-1 1-1 1h-1l-1 1-1 1h-1q-1 0-8 4l-56 32-50 28h-1l-1 1-1 1h-1v1h-1v2h1v1h10l11 2h16q5 0 8 2l4 2v1l1 1h-153l1-1 1-1h2v-1h1v-1h1v-1h1v-1l3-1q3-1 12-2t15-2q5-1 7-2 1-1 4-3 3 0 3-1h1v-13h-3v1h-1v3q0 3-1 4l-1 1v1h-5v-1h-1v-1h1v-1q1 0 2-1 2 0 2-2l-1-1v-1h-3q-3 0-5 2-2 0-11 2-9 0-11 2-2 0-10 2h-8l-1 1h-1l2 3q2 3 2 4v1h-1v1h-12l-1-1h-2l-1-1h-3l-1-1h-1v-1h-1l-1-1v-2h1v-1l5-1q4-1 6-4 3-3 10-6 8-3 8-4t1-1h1l3-1h4l1 1-2 1-2 2v1h2l6-2q6-2 9-1t5 0l3-1h2v-1h1v-1h1v-1h1v-5l-1-1-1-1-5-5-5-5h-1l-1-1-1-1h-1v-1h-1v-1h-1v-2h2v1l1 1v1h1l1 1h1v1h1v1l3 1q4 2 4 1v-2h2v1l4 6q2 6 5 8 3 1 5 1 3 0 4-3 2-3 4-3t3 3 19 0q17-3 19-3h2l1-1h1v-2h9q3 0 4-1 0-2 1-2t2 1h1v1h3l1 1 1 1 2 1q2 1 9 1 8 0 18-7l11-7h2l1-1 1-1h3v-1h1v-1h-2l-1-1-2-1 6-1q6-1 24-11 19-10 21-11t3-1zm-132 63-2 1q-1 2-13 4l-12 2v-1h-1v-11h-1v-1h1v-2h8v-1h1l20-3q20-3 27-3 8 0 7 2-1 3-1 4-1 0-8 2-7 0-8 2 0 1-8 3-9 1-10 2z" fill="#ad926e" fill-rule="evenodd" stroke="#ad926e"/>
 <path d="m304 425h3l1 1q0 2 1 2t1 2-1 3v1h-9l-1 1q-1 1-2 1v1q-1 0-1 1h-1l-10 2h-11v-7h1v-1l7-1q7-1 13-3l9-3z" fill="#645e5e" fill-rule="evenodd" stroke="#645e5e"/>
 <path d="m742 634-2-3 4 3q3 4 4 4l8 1q8 0 7 1h-3q-1 0-2 1h-1l-1 1h-2q-2 0-3 1l-3 3q-2 2-4 2-3 0-6-1t-5 2l-2 3q-1-1-1-2l-1-1v-2q1-2 1-3h1l1-1q2-1 8-1h7v-1h1v-1h-1v-1h-1v-1h-1l-3-4z" fill="#a38d7a" fill-rule="evenodd" stroke="#a38d7a"/>
 <path d="m680 175 4 1q3 0 4 5 0 5 1 5v2h-1v2l-1 1q-1 1-4-1l-3-2v-1h-1v-1q-1 0-4-1t-3 0-1 1h-1l4-5 6-6z" fill="#525266" fill-rule="evenodd" stroke="#525266"/>
 <path d="m439 610-2-3h1l1 1 2 2q2 2 4 1 2 0 1 2v2h1v1h7v1h-1v1h-1l4 1 5 1h-6v1q-1 0-1 1t-6 2l-6 1v10h2q3 0 3 1v2h-1v1l-1 1q-1 0-6 3l-6 3h-2l-1 1h-2v-2l1-1v-1h-1l-1-1h-1v-4q0-2 1-4 1-1 1-6v-7h1v-1h1q1 0 2-5l2-5 2 2q2 2 3 2v1h1v1h2v-2q0-1-3-4z" fill="#6c5949" fill-rule="evenodd" stroke="#6c5949"/>
 <path d="m718 618 3-3v2h1l1 1h2l1 1 1 1h-2v1h-1q-1-1-2-1h-2v2q0 2 1 3l1 1h-7v-2q1-3 3-6z" fill="#8c827d" fill-rule="evenodd" stroke="#8c827d"/>
 <path d="m647 407h-1v-5q0-4 4-4 3 0 2 3t-2 5q-2 2-3 1z" fill="#767482" fill-rule="evenodd" stroke="#767482"/>
 <path d="m265 415h1v1h1v1h-1v2h1v1h1l2 1h2q0 1-4 1-5 0-12 4l-7 2-1 1-2 1h-1v1h-1v4h3l3-1h10q10-2 12-2h3v1h-1v7h11q10-1 10-2t1-1h1v3l1 2v1l1 1 1 1v2h-5q-5-1-5-2-1-1-4 0t-13 5-13 4-4-2q0-2-15 2t-25 4l-11-1h-1l-1-1h1v-1h1v-1h1l1-1 1-1h1v-1q1 0 2-3t15-9q14-5 15-8t4-5l3-3h1l1-1 6-3q6-3 7-3h2v-1z" fill="#524d4e" fill-rule="evenodd" stroke="#524d4e"/>
 <path d="m451 558v-1l19 25 20 26v1l1 1 1 1v1h6v4h-14v1h-3q-3-1-10-1-7-2-11-7-4-6-7-10l-3-4-1 1q-1 0-1 1h-1v-1l2-2q1 0 0-2-1-3-2-3h-1v-1q0-1-3-4l-3-4q0-1-1-1v-1h-1q0-1-3-6l-2-4v-1h-1v-2l-1-1v-1h1v1h1v1h1v1l1-2q0-2 1-2t1 2q1 1 2-2l1-4h3v1h1l1 1q1 0 1 1t1 3l1 1v-6h1v-1h1v1l1-1z" fill="#4d474b" fill-rule="evenodd" stroke="#4d474b"/>
 <path d="m726 190h4v1l-1 1-1 1v1h-1l1 1 1 1h-1l-1 1q-1 0-1 1t-4 4q-4 4-5 7l-1 3h-1v1h-1v1h-1v2h-2v-2l1-1v-3l1-1 1-1v-2q0-2 1-6t2-6l1-3h3q2-1 3-1h2z" fill="#5c5e76" fill-rule="evenodd" stroke="#5c5e76"/>
 <path d="m434 445v-2h4l3 1 8 4q8 4 13 7 6 3 11 8l5 5v1q1 1 2 1v1h1v1h1v1l-1 1-1 1v1h-2l-1-1-1-1-1-1-3-3q-2-2-4-3-3-1-4 1 0 2-5 2l-5-1v-1h-5l-1-1q-1-1-3-1l-2-2h-1v-2l-1-2v-1h3l4-1h-1v-1h-1v-1h-1l-1-1q-1-1-4-3l-3-2v-1h-1v-1h-1v-1h-1v-2z" fill="#625e64" fill-rule="evenodd" stroke="#625e64"/>
 <path d="m759 378h1v1q0 1-7 12l-6 11h-1v-5h-1q0-1-1-1t-1-3l-1-2 3-2q2-1 6-2 3-1 3-5 0-5 2-4h3z" fill="#7a7479" fill-rule="evenodd" stroke="#7a7479"/>
 <path d="m700 368q2-1 8 1 5 3 6 5 2 3-5 2-7-2-9-4t-2-3 2-1z" fill="#787685" fill-rule="evenodd" stroke="#787685"/>
 <path d="m712 82v7q2 1-1 1l-2 1v1l1 2v2h1v1h1v1h4l2-2 3-3h1v1q0 1-4 3l-4 4q0 2-4 3-3 0-3-2v-1h-5l-1-1h-1v-1h1v-1h1l1-3q1-3 2-3v-1q1 0 1-1l2-4q3-4 4-4z" fill="#83808e" fill-rule="evenodd" stroke="#83808e"/>
 <path d="m801 640h2l3 1q4 1 5 3 1 0 7 2 7 2 9 3l3 2v1h2l1 1 1 1 1 1 1 1v2l-1 1v1h-5l-2-1q-2-1-7-1t-5 1q-1 2-6 2-4-1-10-5l-6-5v-2l-1-3q-1-4 1-5 1-1 3-1h4z" fill="#b6a090" fill-rule="evenodd" stroke="#b6a090"/>
 <path d="m432 394v1h1q0 1 1 1l1 2q1 1 0 2-1 2-7 2t-8-1l-3-1v-1q-1 0-1-1-1-2 0-2l2-1 2-2q2-1 6-1t4 1q1 1 2 1z" fill="#666266" fill-rule="evenodd" stroke="#666266"/>
 <path d="m713 633h3l3 1h2l3 4q2 4 3 4t1 3v4h1v1q0 1-3-1-4-3-10-3l-6-1h-5l-5-1h-3l-1-1-1-1h1l1-1 1-1h1l1-1 2-1 5-2q5-2 6-3z" fill="#d1c9c7" fill-rule="evenodd" stroke="#d1c9c7"/>
 <path d="m679 408v1h-3l-8-2q-3-1-6-4-2-3-2-4t6-1 9 4q3 5 4 6z" fill="#7c7a80" fill-rule="evenodd" stroke="#7c7a80"/>
 <path d="m486 424-1-4h6l1 1 2 1 4 3q4 3 4 4h1q0 1 1 1l4 3q4 3 8 5t5 2h1l1 1 1 1h2l1 1 1 1 1 1v1h-5l-1-1h-1v-1h-8q-5 0-14-5l-9-6v-1h-1q0-1-1-1v-1h-1v-1q0-1-1-1l-1-4z" fill="#6f6d78" fill-rule="evenodd" stroke="#6f6d78"/>
 <path d="m429 602 2-5 1 2q0 1 2 1 2-1 2 3v4h1v1h1v1h1q0 1 1 1v1h1q0 1 1 1v4h-2v-1h-1v-1q-1 0-3-2l-2-2-2 5q-1 5-2 5h-7v-1l1-1v-1h1v-1h1v-2h-2q-2 0-2-1v-1h2q1 0 2-3 0-3 3-7z" fill="#a4917f" fill-rule="evenodd" stroke="#a4917f"/>
 <path d="m803 633 1-1h1l2 2q2 2 6 2t6-1h2l5 3q6 4 12 9 7 5 8 5v1h1l1 2q1 3 2 3h1l3 1q4 1 4 3 0 1-1 2v1l-3 8q-3 9-4 9 0 1-1 1v1h-1v1h-1v1h-1v2h-30v-1q0-1-8-5l-7-4h-10l1 3q1 3 2 4v1h1v1h1v1h-13l-5-1-4-1v-2h11l1-1h1v-1h1v-2q0-1-2-2h-2l1-2q1-1 3-8 0-7-2-8-2 0-2-1v-1h1l1-1 1-1h2l1-1 1-1h1v-1l1-2v-2h1v2l6 5q6 4 10 5 5 0 6-2 0-1 5-1t7 1l2 1h5v-1l1-1v-2l-1-1-1-1-1-1-1-1h-2v-1l-3-2q-2-1-9-3-6-2-7-2-1-2-5-3l-3-1-1-1-2-1v-3h1v-1h1l1-1z" fill="#977960" fill-rule="evenodd" stroke="#977960"/>
 <path d="m322 431 2-1 12 1q12 1 13 1h1l-1 3q-1 3-1 6v3h2l1 1 1 1h4l6 2q6 2 11 4 5 3 6 4v1q0 1-2 1l-2 1h-8q-8-1-21-1h-16q-1 0-5-2t-5-5q0-3 6-3l6-1h2v-3h1v-1h1v-4h-2q-2-1-7-2l-5-1-1-1-1-1h-1v-1h1v-1h1l1-1z" fill="#797576" fill-rule="evenodd" stroke="#797576"/>
 <path d="m822 49h1v5q1 6 1 7v1h-3q-2 2-11 2-9 2-12 4l-4 2h-3l-1 1-1 1h-1v1h-1l-1 1h-5l4-2 4-4 1-1v-4h-2l-3 1h-11v-1h4l3-1h1v-1h1l5-1q5-2 6-2 1-2 5-2 4-2 10-2h6l3-2q2-1 3-2 1 0 1-1z" fill="#8a868e" fill-rule="evenodd" stroke="#8a868e"/>
 <path d="m490 621v-1h6v8h-3l-1-2-2-1v-2h-1v-1q1 0 1-1z" fill="#665447" fill-rule="evenodd" stroke="#665447"/>
 <path d="m576 424q2 0 7 3t6 5q1 3-2 3-3 1-8-2t-5-6 2-3z" fill="#68646e" fill-rule="evenodd" stroke="#68646e"/>
 <path d="m533 366 5 2q6 1 5 2 0 2-7 2h-7v-1l4-1q3 0 3-2 0-1-2-1l-1-1z" fill="#676367" fill-rule="evenodd" stroke="#676367"/>
 <path d="m341 274h7v3h-1v1h-1q-1 0-2 2h-1v1h-1v1h-2v1q-1 1-4 2l-4 1h-2q-1 0-4 1l-2 1v-2l1-1 1-1v-2l4-2q4-1 6-2l2-2h1v-1h1v-1h1z" fill="#7c7b89" fill-rule="evenodd" stroke="#7c7b89"/>
 <path d="m562 408h-5q-4-2-6-5-1-3-1-4 1-1 5 0 5 1 6 2t1 4v3z" fill="#707079" fill-rule="evenodd" stroke="#707079"/>
 <path d="m336 412 6-4v1q0 1-1 1t-2 1l-1 1v4h8l-4 3q-5 3-8 3h-4l-1-1q-1 0 0-3 1-2 7-6z" fill="#5d5859" fill-rule="evenodd" stroke="#5d5859"/>
 <path d="m617 434 1-2h5l2 1 2 1h2l2 1q2 1 3 1v1h1v2l-1 2v1h-5q-4 0-7-1-4-2-5-4t0-3z" fill="#535058" fill-rule="evenodd" stroke="#535058"/>
 <path d="m478 305h3l-2 1q-2 0-2 2 0 1 1 1l2 1h-2q-3 0-6-2-2-2 0-3 3-1 6 0z" fill="#938c90" fill-rule="evenodd" stroke="#938c90"/>
 <path d="m509 308 19 1q20 1 22 2h2l2 1q1 0 1 1v1h-23q-3 0-21-2l-18-1v-1h8q7-1 8-2z" fill="#c5c0c5" fill-rule="evenodd" stroke="#c5c0c5"/>
 <path d="m768 677 3-3 2 1 2 2q1 1 3 2h1l1 1-2 1q-1 1 4 1 4 0 4 1l-1 1h-11v1h-3q-3-1-5-3t2-5z" fill="#bda897" fill-rule="evenodd" stroke="#bda897"/>
 <path d="m728 90h2q0 1-2 4-2 2-6 10l-2 9h-1v1h-1q-1 0-2-3 0-2-4 0l-4 2v1h-1v1h-1v1h-1v1h-1v2l-1 1v1h2l2 1h1v1l-1 1h1v7h-1v1h1v1h1v-1h2v1h1v1h-1v1h-1v1h-1v1q-1 0-1 1l-2 1v1h1l5 1q5 1 6 5 0 4 6 8 6 3 6 4v2h-1v1q-1 0-1 3t-3 3h-3v3h3l3 2q3 0 3 1h-2q-2 0-2 1t-5 0l-4-1h-1q-1-1-3-1t-3 1q-1 2-3 2-2 1-3 2t-6 3q-6 2-7 3v2h-1v1h-1v1h-1v1l-1 1v-4q0-1-1-5 0-4-3-4l-4-1v-2q0-2-3-2-3-1-7 2l-3 3h-3v-8l2-4v-2l-2-1q-2-1-4 0l-2 1v-2h1v-1q1 0 1-1v-4h-5l-1 1-1 1h-1v1h-1v1h-1l1 2q0 2 1 3h2v1l-2 4q-2 3-3 2h-1q0-1-2-1-2-1-6 2t-4 0q0-2-2-2-1 1-5 3l-3 3h-1v1h-4v-2l1-3v-3q0-2-2-2-2-1-2-2v-1h1v-1h1q2-2 4-2h1l1-1 1-1h-4q-4 0-9-2l-4-2h1-6v-1h-1v-1h1v-1h1v-1l5-2q5-2 7-6 2-3 4-7t16-20q13-16 14-16h3v-1h1v-1h1v-1l3-1q2-1 2-2h1v-1h6v1q-1 1-1 3l-2 3 1 1 1 1v1h2l2-2q2-2 3-2 1 1 2 3l1 2v2h1v1h2v-1h1v-1h-1v-1h2l2-1h1v1h1v1h1v2l-1 1q-1 1-1 2l-1 1h-1v4h2v-4h1l2-1h2v4h1l1-1h1v-3l-1-3v-3h1v-1h10v-1h3v1q0 2 3 2 4-1 4-3l2-2 2-1v-1l1-1h1v-1l1-1h1v-1l2-1q2-2 4-2zm-38 24q2 0 2 2t-1 2q-1 1-2-1t1-3zm24 30q2 0 2 4 0 5-1 5-2 0-2-4-1-4 1-5zm-33 12-3-1v-3q-1-2 3-2 3-1 3 3-1 4-3 3zm9 22-1-1v-2q0-1 2-3t4-1q1 0 1 3t-2 4h-4z" fill="#484858" fill-rule="evenodd" stroke="#484858"/>
 <path d="m627 216h10v1h1v2h-1v1h-4l-6 1h-7q0-1-2-1l-1-1-1-1v-2h11z" fill="#9d9cad" fill-rule="evenodd" stroke="#9d9cad"/>
 <path d="m483 426h1v1h1v1h1v1h1q0 1 1 1v1h1q0 1 1 1v1h1l9 6q9 5 14 5h8v1h-2l-2 1v6q0 6 1 8t3 4q2 1 3 8 2 6-1 8-2 1-3 2-1 2-2 2-1 1-2 1v1h-2l-3 1h-3v-1l-1-1v-2h1v1h3q3 0 4-1h1v-2l-1-2v-1h-1v-1h-1v-1h-1l-1-1q-1-1-10-5l-8-6h-2l-2-1h-2v-1h2v-1l-1-1v-1h1l1 1h3l4 1h4v-2h-1l-1-1h-2l-1-1-1-1h-1q-1 0-7-3l-6-2q0-1-2-1l-2-1v-3q0-2 2-5t3-3 0-6l-1-5q0-1 1-1zm3 13h1l9 4q9 3 9 6l-1 2q0 1-4 1h-3l-1-1q-1-1-2-1-2 0-6-4l-4-4v-1q0-1 2-2z" fill="#2d2929" fill-rule="evenodd" stroke="#2d2929"/>
 <path d="m478 402h1l9 5 8 5h1l1 1q0 1 1 1h1v2q1 1-1 1h-3q0-1-8-5l-8-4h-2v-1h-1q0-1-2-2l-2-2v-1q0-2 1-1 2 1 4 1z" fill="#9b9698" fill-rule="evenodd" stroke="#9b9698"/>
 <path d="m663 347v-2l3 3q4 2 5 3l1 1h1l1 1 1 1h3q2 0 2 1h1v1h2l13 2q14 3 16 6 1 4 2 4v1h1q0 1 1 1v1h1l1 1q2 0 2 1h1q0 1 1 1 0 1-2 2h-1v4q-1 3 0 4l1 2 1 3q2 3 5 3t4 6q2 6 4 7t3 1q1 1 0 2-1 0-1 3v3l1 1 1 1v4h-1v1h-1v2h-1v1h-1v1l-1 1h-1v1h-2v-3q0-2-1-4-1-1-6-2-5 0-7-2l-2-2v-3q0-3-4-7-3-4-6-4h-2v-4h2l2 1h1v-1l-2-4q-1-1-3-4-2-4-4-5t-2-4-1-5l-1-2q0-1-1-1v-1h-1q0-1-2-4t-14-10-13-9zm37 21q2-1 8 1 5 3 6 5 2 3-5 2-7-2-9-4t-2-3 2-1zm15 24h-2l-4-2q-3-2-5-6t3-3 8 3q3 3 2 6 0 2-2 2zm11 12v4h-4q-5 0-7-3-3-3-3-6t6-2 7 3q1 1 1 4z" fill="#444147" fill-rule="evenodd" stroke="#444147"/>
 <path d="m716 122h2v4h-1v1h1v1l1 2v3h-1l-1 1h-2v-1q-1-1-3-2l-2-1v-1h-1v1h-1v-6h-1l1-1 2 1q2 2 3 0t3-2z" fill="#43424b" fill-rule="evenodd" stroke="#43424b"/>
 <path d="m681 156-3-1v-3q-1-2 3-2 3-1 3 3-1 4-3 3z" fill="#646477" fill-rule="evenodd" stroke="#646477"/>
 <path d="m735 376q0-2 3-1 2 1 3 2 0 1 4 1 4 1 4 4-1 2-1 3-1 1-6 0-4-1-5-2t-2-3q-1-3 0-4z" fill="#797786" fill-rule="evenodd" stroke="#797786"/>
 <path d="m716 364h8v1h1v1h2v1h1v1h1v1h1v1h1v1h1v2h-1v1h-2v1h-1q0-1-3-1h-3q0-1-1-1h-1q0-1-2-1l-1-1v-1h-1q0-1-1-1v-1h-1v-2q0-1 1-1v-1h1z" fill="#7f7e8e" fill-rule="evenodd" stroke="#7f7e8e"/>
 <path d="m389 612v-1h1l2 1h2v1h1v1h2q2 1 1-1 0-1 3-1 3 1 6 3 2 3 3 3h1l1 1 1 1h3q2 0 2-1t1-1h1v1q0 1-1 1v1q-1 0-1 1-1 2-14 5t-20 3h-8v-1h2l2-1h2v-5h-1q0-1-2-3l-3-2v-1h-1v-1h-1v-2h-1v-1h1v-1h2l1 1 1 1h2v1h1v1l4 3q3 3 4 3l1 1 2 1h5v-1h1v-3h-2v-1l-2-2-2-1v-1h-1v-1h-1v-1l-1-1z" fill="#937c63" fill-rule="evenodd" stroke="#937c63"/>
 <path d="m499 414-2-2 7 4q8 4 7 5l-1 1h-2q-1 0-3-1h-2v-1h-1q-1 0-3-2l-2-1h2q2 0 2-1t-2-2z" fill="#5d5857" fill-rule="evenodd" stroke="#5d5857"/>
 <path d="m594 392v-1h2l1 1h3q2 0 4 1l1 1h3v1h1q1 0 1 1v1h-9l-4-1h-1v-1h-1v-1h-1v-2z" fill="#807d83" fill-rule="evenodd" stroke="#807d83"/>
 <path d="m727 197 1-1h3v1h1v3h-1q-1 0-3 1-1 0-1 1 0 2-1 2l-2 1v2l-1 1v2h2l5 1q5 0 6-2l2-2h1v4q-1 4-1 5 0 2-2 3t-3 1q-1 1-2 3-1 3-5 4l-3 1v-1q-1-1-4-1h-3v-1h-1v-1h-1v-2q0-1-1-4v-4h1v-1h1v-1h1l1-3q1-3 5-7 4-3 4-4t1-1z" fill="#6c6d8b" fill-rule="evenodd" stroke="#6c6d8b"/>
 <path d="m692 440h-1v1h-1q-2 1-4 1h-4q-2 0-3-1l-1-1-1-1q-1-1-1-3l-1-1 1-2q1-3 8-1 8 0 9 1t0 4l-1 3z" fill="#5a5653" fill-rule="evenodd" stroke="#5a5653"/>
 <path d="m546 492h-6l-3-2q-3-2-4-6 0-4 5-3t11 4q5 4 4 6-2 1-7 1z" fill="#3e3837" fill-rule="evenodd" stroke="#3e3837"/>
 <path d="m519 318-3-2 10 2q11 2 12 4t-8 2h-10l-2-1-3-1h-1v-1h4q4 0 4-1t-3-2z" fill="#656066" fill-rule="evenodd" stroke="#656066"/>
 <path d="m564 157h6l3 1h-2v1h-1v1h1l3 1q2 1 5 4t3 7v4h1v1h1v3h-8 1l1 1 2 1 4 2q4 3 7 7t4 8q1 3 2 4 1 0 0 2t0 3q0 1 3 2 4 1 3 2l1 2q2 2 6 3 3 1 4 1t2 1h1l1 1q2 0 2 1h1q0 1-2 2-3 1-2 3 1 3-1 3-1-1-9-1h-32l1 1q0 1 1 2l1 1 16-1 17-1v1q0 1-1 2v2h-1q-1-1-2 0-1 0-1 1l1 2h-1v1l-1 1h-2l-1 1-1 1h-1l-1 1-1 1h-2q-1 0-5-1-3 0-2 2l1 2q-1 1-3 1t-2-2q0-1-1-1-1-1-7 1-6 0-4 1t-3 1l-4 2h-5v2h-9v1h-1v1h1v1h1v1h17l10 1 9 1h1v1h1v1h1v2l-1 1-1 1-2 1-2 1h-1q-1 0-2 1-1 0-1 1t-1 1l-1 1h-2l-2 1h-6q-2-1-11-1l-9-1h-1q-1 1-7 1-7 2-8 3l-1 1q-1 0-1 1t-4 2q-3 1-5 1t-1 2q0 2-5 3l-6 1h-23v1h-1v1h-1v1h1v1h11v1h-6q-6 0-6 1t-1 1q-1-1-1-2-1-1-5-2l-4-1v1h-5l-4 1-1 1v1l2 2q3 2 3 4v3h-1l-1 1-9 3q-8 3-15 3-6 1-6 2 0 2-4 1-3-1-10-3-6-3-6-7-1-4-4-5l-2-1v-1h-5q-4 0-9 2t-4 4q0 2-1 3-2 1-3 4 0 3-2 3-1 1-1 2t1 1 0 2q0 2 1 2t1 1q-1 0-2 2l-2 2-1 1h-1v3h-2v-3q0-1-1-5t-18-4h-22v-6h3l1-1 1-1 4 1q4 1 11 1 6 0 10-1h4v-7q-1-6-2-13t-2-7-1-2q0-3-9-3t-9 3-2 4h-1v1h-1v1h-2l-3 1h-3v-1h2v-1h1v-1h1q1-2 2-2h1v-1h1v-3h-8v1h-1v1h-1l-2 2q-2 1-6 2l-4 2v2l-1 1-1 1v2l2-1q3-1 4-1h2l-1 1-1 1h-1v1h-1v1h-1q-1 0-5 3l-10 6q-4 3-10 7-6 2-12 2-7 0-8 1 0 1-2 1-2-1-3-2l-1-1v-2h-1v1h-1v1l-1 1v2h-2v1l1 1v1l-1 1v1h2q2 0 3 1h1v-1h1v3l-1 2-1 1v1l-1 2v1h-3v-1l1-1q1-1-1-2-1-1-8 3-8 4-8 6l-1 2h-5v-1h-1v-1h-1v-2l-1-2-1-3v-2h1q0-1 1-1v-1l1-1h1v-1l4-5q3-4 15-14 11-9 25-20 13-10 20-15t18-13q12-10 36-22 24-14 52-24 27-12 49-18 22-8 39-14 16-6 34-10 19-4 22-5zm-188 95q3 0 3 2 1 3-3 5-3 3-7 3-4 2-4 0t5-6q4-4 6-4zm-57 38q3 1-1 2-4 2-4 0 1-2 2-2h3zm-46 27h1v1h-1v-1z" fill="#5e5d6e" fill-rule="evenodd" stroke="#5e5d6e"/>
 <path d="m598 434q-1-3 3-2 5 1 5 2 2 2 1 3 0 1-5 1-4-1-4-4z" fill="#545055" fill-rule="evenodd" stroke="#545055"/>
 <path d="m0 262v-262h883l-4 1q-4 1-13 4-8 3-22 13-13 10-19 16t-9 6h-3q-1-1-11-3l-10-2h-1q-1 1-4 1t-28 4q-25 6-41 12l-28 14q-12 8-22 18l-10 10h-1v1h-1v1h-1v1h-1v1h-1v1h-1v1q-1 0-14 16-14 15-16 19t-4 7q-2 4-7 6l-5 2v1h-4q-2 1-18 3l-16 2v1h-4q-3 1-22 5-18 4-34 10-17 6-39 14-22 6-49 18-28 10-52 24-24 12-36 22-11 8-18 13t-20 15q-14 11-25 20-12 10-15 14l-4 5-1 1h-1v1h-1q-1 1-3 2l-2 1-21 23q-21 23-41 43-21 22-28 26t-16 13-23 17l-21 12q-7 4-24 16-17 10-18 11l-1 1h-1l-1 1-1 1h-1v1l-18 11q-19 12-19 13t-2 3q-2 1-3 3l-1 2v4l-1 1-1 1v-263z" fill="#fefefe" fill-rule="evenodd" stroke="#fefefe"/>
 <path d="m592 371 10 1 3 1q3 1 4 2v1h-9q-10 0-12-1l-4-2q-1-2 8-2z" fill="#afaaaf" fill-rule="evenodd" stroke="#afaaaf"/>
 <path d="m665 382v1h-3q-3-1-7-3t-5-5q-2-2 2-2 3-1 5 1t5 4q2 3 3 4z" fill="#716f7d" fill-rule="evenodd" stroke="#716f7d"/>
 <path d="m214 431v3h-1v1h-1v1h-1l-1 1-1 1h-1q-2 2-3 2h-1v1h-1v1h-1q-1 0-1 1-1 0-1 1h-1q-1 0-1 1l-5 2-5 2h-1l-1 1-3 2-3 1v1l-11 5q-11 5-18 9t-19 10q-13 6-14 7l-1 1h-1l-1 1-1 1h-1v1h-1v3h5l3-1q2-1 13-3t15-4q4-3 16-8l12-5h5l5 1h4l1 1h1v2l-2 1q-2 0-3 1l-1 1-1 2v2l27-2q28-2 35-4t7-3l2-1 1-1 1-1h2v1l1 1 1 2v3h1v1l1 1v2h-2l-1 1h-13v1h-3q-3 1-25 5-21 6-52 6-32 2-44 4-13 2-44 9-30 7-49 15l-19 10h-1l-1 1-2 1h-3v-1l1-1v-1h1v-1h2v-1h1v-1h2v-1l8-4 8-5h2l1-1 1-1h1v-1h2q1-1 29-14l27-14h1q2-1 6-2 3-1 57-27l54-24 1-1 1-1h3v-1z" fill="#2c2621" fill-rule="evenodd" stroke="#2c2621"/>
 <path d="m486 464h1l1-1h2l2 1h2l8 6q9 4 10 5l1 1h1v1h1v1h1v1l1 2v2h-1q-1 1-4 1h-3v-1h-1q-1-1-10-5l-8-5h-1v-1h-2v-1q-1 0-1-3v-4z" fill="#545154" fill-rule="evenodd" stroke="#545154"/>
 <path d="m656 365q0-2 4-2 3 0 3 2t-4 2-3-2z" fill="#767583" fill-rule="evenodd" stroke="#767583"/>
 <path d="m724 681h-2q-1-1-2-1-2 0-2-1v-3h1l1-1q1-1 2-1h1l1-1 1-1h2q2 0 1 1 0 1-2 5-2 2-2 3z" fill="#84705b" fill-rule="evenodd" stroke="#84705b"/>
 <path d="m420 646v3h1v1q1 0 3-6l2-5v3h1l1 1h1v1l-1 1v2h2l1-1h2l5-3q6-2 6-3 1-2 2-2h1l-1 2q0 2-1 2l1 1h1q0 1-1 1 0 1-4 2l-4 2h-1v1h-1v3h-1v1h1v1h3l7-1q8-1 10-2t4-1 0 2 1 2 7-3 5-6l1-3 1-1q1-1 3-2h3l1 2q0 2 1 2v1h3l4-1h6q1 1 2 1v1h1v1h1l1 2q1 3 2 3v1h7v1h-3l-3 1h-1q-1 0-1 1t-8 4q-7 3-10 6-2 3-6 4l-5 1v1h-1v2l1 1h-2v-1h-1v-5q0-2-7-2h-9q-3 0-4-3-2-3-4-3-1 0-8 1t-7-1q-1-1-2-1-1-1-3 1t-10 3l-8 1v-1h3l3-1h1v-1h-1v-1h-5l-5-1q-4-1-7-1h-3l-1-1-1-1h-1v-1h-1v-1l-1-2v-2h1v1h1v1h1v1h1v1h3q3 0 6-2 2-2 2 0 1 2 2 2h2v-1l1-1q1-1 5-10l4-8v1q1 1 3-2 1-3 1 3-2 6-2 10z" fill="#8f755b" fill-rule="evenodd" stroke="#8f755b"/>
 <path d="m674 350-1-2h8l1 1 1 1h2v1h1v1l1 2v2h-4l-1-1h-2q0-1-2-1h-1l-1-1v-1h-1q-1 0-1-2z" fill="#6b6a7e" fill-rule="evenodd" stroke="#6b6a7e"/>
 <path d="m619 318h-10q-4 0-4-1l-1-1 5-1q5-1 16-1t10 1q0 1-5 3h-11z" fill="#bbbcc7" fill-rule="evenodd" stroke="#bbbcc7"/>
 <path d="m362 403h2l11 1q11 0 13 1l1 1h-13q-4 0-3 2l1 2h-4q-3 0-14 3l-10 3h-8v-5h1v-1h2v-1h1v-1l9-2q9-2 11-3z" fill="#867e7c" fill-rule="evenodd" stroke="#867e7c"/>
 <path d="m662 446v-3h14v1h1l1 1v1h1q1 1 1 3v2h-1v1h-1l-4 1-5 1h-1q-1 0-3-1l-1-1-1-1q-1-1-1-5z" fill="#4c4644" fill-rule="evenodd" stroke="#4c4644"/>
 <path d="m554 312-2-1 11 1 11 2h-9v2q0 2 1 2t1 1h-3q-2-1-4-1-1-2-14-2l-12-2h21v-1q0-1-1-1z" fill="#848087" fill-rule="evenodd" stroke="#848087"/>
 <path d="m390 424-5-4 9 2q9 2 10 3h2v1h3l5 4q4 3 10 10 4 7 5 7v1h1v1h1v1h1v1h1v1h1v2h-5l-1-1-1-1h-1q-1 0-6-2-4-2-12-3-9-1-10 0l-1 1h-12l-1-1-1-1h-1v-3h2q1-1 2-1 2-1 1-4l-1-4h-1l-1-1h-1v-1h1v-2h1l1 1 1 1h1l4 2h15-1v-1h-1v-1h-2v-1h-1v-1h-2l-1-1q-1-1-2-1t-7-4z" fill="#767376" fill-rule="evenodd" stroke="#767376"/>
 <path d="m772 94q-1-4 2-3t10 1q8-2 9 0 1 1 2 6 0 5-5 6-6 0-12-3t-6-7z" fill="#19181c" fill-rule="evenodd" stroke="#19181c"/>
 <path d="m655 454h-4l-2-1q-2-1-3-1-2-2-3-4l-1-3v-1h-1v-1h-1v-1l-1-2q-1-2 0-3 0-1 3-1 4 0 5 2 1 1 2 3 0 3 4 3 3 1 5 4t1 4q0 2-4 2z" fill="#504b4d" fill-rule="evenodd" stroke="#504b4d"/>
 <path d="m780 74h7q1 1 1 2v2l1 1 1 1v2l5 3q5 3 13 6t10 7q4 5 4 8 0 2-2 2-3 0-3 1h-2q-2-1-7-1t-5 1q-1 1 4 2l5 1 1 1q1 1 2 1h1v1h1l11 3q11 2 18 3l8 1 1 4q0 3-3 3h-4q-2-1-7-1t-7 2q-2 0-11 10-9 9-19 17-9 9-12 14l-4 6-1 3v3h-1l-1-1h-1q-1 0-10-6-8-5-13-11l-5-6v-3q0-3-1-15v-12l3-11q4-12 4-16v-4h-1l-3-1h-4v2h-1q-1 1-2 3l-1 3q-1 1-4 3-2 2-8 10l-5 8v13q1 12 1 17l3 6q2 2 3 2l2 4q3 4 4 4v1h1v1h1v1h1v1h1v1h1v1h2v2h-2l-2-1-2-1h-1q-2 0-4-1l-1-1h-2l-1-1-1-1h-3q0-1-1-1h-2q0-1-3-1l-3-2h-3v-3h3q3 0 3-3t1-3v-1h1v-2q0-1-6-5l-7-4v-3q0-4-5-5l-5-1h-1v-1l2-1q0-1 1-1v-1h1v-1h1v-1h1v-1h-1v-1h-2v1h-1v-1h-1v-1h1v-1h1v-1h1v1l2 1q2 1 3 2v1h2l1-1h1v-3l-1-2v-1h-1v-1h1v-4h-2q-2 0-3 2t-3 0l-2-1v-1h-1l-2-1h-2v-1l1-1v-2h1v-1h1v-1h1v-1h1v-1l4-2q4-2 4 0 1 3 2 3h1v-1h1l2-9q4-8 6-10 2-3 2-4l14-5q13-5 24-7l12-4zm-8 20q-1-4 2-3t10 1q8-2 9 0 1 1 2 6 0 5-5 6-6 0-12-3t-6-7z" fill="#272528" fill-rule="evenodd" stroke="#272528"/>
 <path d="m718 174v-1l4 1q5 1 5 0t2-1h4q0 1 1 1 0 1-1 2l-2 4-1 2 2 6q2 6 3 6h2q1 0 1 3-1 3 0 3t1-3l1-3 2 2q1 2 4 3l3 1h1v1h1v1h1v2l1 2v1h-1l-1-1h-1v-1l-1-1q-1-1-3-2h-3v1h-1v1l-1 1-1 1-1 1h-1l-2 2q-1 2-6 2l-5-1h-2v-2l1-1v-2l2-1q1 0 1-2 0-1 1-1 2-1 3-1h1v-3h-1v-1h-2l-1-1-1-1h1v-1l1-1 1-1v-1h-4q-2 0-4 2l-1 2h-2v-4q-1-2-1-4v-1l1-1q1 0 1-4 0-3-1-4l-1-1v-1z" fill="#4f5064" fill-rule="evenodd" stroke="#4f5064"/>
 <path d="m690 178-1-1v-2q0-1 2-3t4-1q1 0 1 3t-2 4h-4z" fill="#595a6d" fill-rule="evenodd" stroke="#595a6d"/>
 <path d="m594 416q3 0 6 1 4 1 8 8 4 6 2 6-2-1-9-5-7-6-8-8t1-2z" fill="#5f5c64" fill-rule="evenodd" stroke="#5f5c64"/>
 <path d="m720 622v-2h2q1 0 2 1h2v1h2v1h1v1h2l4 4q4 2 5 3v1h1l1 1 2 2 1 3h1v1h1v1h1v1h-1v1h-7q-6 0-8 1l-1 1h-1q0 1-1 3v2h-1v-4q0-3-1-3t-3-4l-3-4h-2l-3-1h-2v-1h12l2 1 2 1h1v-1h1v-1h-1v-1h-1v-1h-1v-1h-1v-1h-2q-1 0-2-1l-2-1-1-1q-1-1-1-3z" fill="#b9aca4" fill-rule="evenodd" stroke="#b9aca4"/>
 <path d="m770 638h15v2l-1 2v2l-1 1-3 3-2 3h-1v1h-1v1h-1v1h-1v2h1l1-1 1-1h2v-1h1l4-4q5-3 7-3 1 0 2 2v3l-1 2v1h-1l-1 1-1 1h-2l-1 1-1 1h-1v1q0 1 2 1 2 1 2 8-2 7-3 8l-1 2h-2q-1 0-2 1h-2q-2-1-3-2l-2-2-2-1-3 3q-4 3-2 5t5 3h3v1l4 1 5 1h-47v-1q0-1-3-3l-3-2 2-2q1-2 6-5 4-3 6-4l1-1h1v-2h1v-1h1v-2h-2l-1-1h-3q-3 0-14-1-12-1-13 2-1 2-3 3-1 0 0 2 0 1-2 1l-1 1h-2v1h-1v1l-1 1-1 1v-2q0-1-4 0-4 0-3 1t-1 2-1 1h1v2h-1v1h-1v1h1q1 0 1 2v1l1 1v1h-1l-1-1v-1l-1-1-1-1q-1-1-3-1l-5-5-3-3h-2l-2-1h-3v-1l6-1q7-1 10-3 3-3 4-3v-1h1v-2h1v-1h1v-1l1-2v-3h5q5 1 7 1h2v-1h1v-2h-1v-1h-1l-2-2-2-1v-1h-1v-1h1v-1h4l2 1 1 1h1l4 4q4 4 7 4t3-1 1-2v-1l2-3q2-3 5-2t6 1q2 0 4-2l3-3q1-1 3-1h1v2l1 1v1h11l1-1 1-1h1v-3q0-1-2-1h-3l3-1 2-1zm-78 37v-1h2q1 0 1 1t-2 1h-2v-1h1z" fill="#816c5b" fill-rule="evenodd" stroke="#816c5b"/>
 <path d="m782 678h4q2 1 2 2v2h-1v1h-1q0-1-4-1-5 0-4-1l2-1-1-1h1q1-1 2-1z" fill="#cebeb1" fill-rule="evenodd" stroke="#cebeb1"/>
 <path d="m486 346-1-2 4 1q4 1 4 2t1 1 1 1h1v1q0 1-6 1l-7-1h-1l2-1q3 0 2-3z" fill="#706b6e" fill-rule="evenodd" stroke="#706b6e"/>
 <path d="m422 366h1l21 6q20 6 24 6h3l3 1h2v-2h-1v-1h-1l-1-1q-1-1-2-1h-1q0-1-1-1v-1q-1 0-1-2v-1 1h2v-1h1v1h1q2 2 4 2h2l10 3q11 3 12 4h2v1h1l11 3 12 3h4v1h1v1h6q1 0 3 1l2 1h4q4 1 4 0v-2h1v-1h1v-1h2q1 0 2 1l1 1 7 1q7 1 8 2h2l8 2q7 1 8 6t0 5h-4q-1 0-4-3-4-3-9-3t-2 3l3 3 10 3 12 4q4 0 3-1l-1-2q0-1-1-1v-4q0-5 4-5h4v-1h5v-1q0-1-1-1v-1h7v2l-1 2q0 3 1 3t1 1v1l-5-1q-6-1-4 3 3 3 7 5t7 3q2 0 2-1v-1 2q0 2 1 3h-4q-4 0-5 1-2 1-2 5l-1 3 1 1q2 0 3 1h1v1h1v1h1v2h-1l-1 1-1 2q-1 1 0 3t5 4q3 1 7 1h5v-1l1-2v-3h-1v-2l-1-1q-1-1-1-4l-1-3h3v1h1q0 1 1 1l1 1h1l5 2q5 1 6 1h1v-1l1-2v-3q-1-2 0-3l1-1 1-1h1v7l2 4q2 3 5 6 4 2 8 2 3-1 4-2v-2h1v-1h1l1 1q0 2 1 3l1 1 1 1q1 1 3 1h2v1q0 1-3 2l-2 1-1-1v-1h-1l-1-1h-14v3q0 4 1 5l1 1 1 1q2 1 3 1h1l1 1q0 1-1 1h-1v1h-1v1h-1v2l2 2q2 2 4 2 3 1 3 2t-1 2q-2 0-1 2t1 4v3q-1 1-16 6-14 6-26 11-12 6-24 11l-11 6h-1v1h-2q-2 0-10 1-7 0-8 3v2l-1 1q-1 1-4 2-3 0-5 5-2 4-2 8 0 3 3 6 3 4 3 6 0 1 1 4v2l1 8q0 8 2 11 1 3 4 7 2 2 2 3h1v1h1l-1 1-1 1h-2l-1 1h-1v2h-1l-1-1-1 1v1h-1q-1 0-2-1v-1h-3v-1h-1v-1h-2q-1 0-8-5-6-5-14-11-7-6-11-14-5-8-5-18l-2-9v-1h-2q-2 0-6 2-5 2-6 0 0-1-4 1-5 3-16 3h-10l-2-1q-3-1-6-3-2-2-6-2-3 0-9 2h-10l-1-1h-1v-2h1l1-1h1l1-1 1-1h2l18-5q18-5 19-5h1v-1h1v-1h1v-7h-1v-1h-1v-1h-1v-1h-5l-1 1q-1 1-1 4t-11 3h-10l-1 1-1 1h-2l-1 1h-1v-1l1-1v-1h1v-1h1v-1h5q5 0 6-6 1-5 2-6l1-2h5l1 1v1h14l2-1 1-1h4l1-1h1v-1l-1-1v-1h-5l-2-1h-2q0-1-1-1t-2-5q-2-5-4-7l-2-2q0-1-1-1v-1h-1q-1 0-2-1v-6h1v-1h1v-1h1v-1h1l2-1h5v1h1v2h-2v1l-1 1h-1v4q0 3 1 3v1h2v1h1l8 5q9 4 10 5v2l1 1v1h3l3-1h2v-1q1 0 2-1 1 0 2-2 1-1 3-2 3-2 1-8-1-7-3-8-2-2-3-4t-1-8v-6l2-1h3l1 1h5v-1l-1-1-1-1-1-1h-2l-1-1-1-1h-1q-1 0-5-2t-8-5l-4-3q0-1-1-1h-1q0-1-4-4l-4-3-2-1-1-1h-6l1 4 1 4h1v1h1v1h1v1l1 1v1h-1l-1-1h-1v-1l-1-1-1-1v-1h-1v-1h-1v-1h-1q-1 0-1 1-1-1-4-6l-2-6-1-1-1-1v-6h4v1h2l8 4q8 4 8 5h1l2 1q2 2 3 2v1h1l1 4q2 3 3 4l1 1 2 1 1 1h2l1 1 2 1h1v-1h1v-7h-1l-1-1-1-1h-3q-2 0-2-1v-1l1-1q1-1-5-4l-6-3q0-1-2-2h-2l-8-5-9-5q-1-1-1-2v-4q0-3-8-3-9 1-14-1l-4-2-1-1-1-1h-2l-2-1h-1v1l1 1v1h1v1h1v1h1v1h1v1l5 2q5 2 7 2h2l2 1h2v1h1v1h1v2h-6q-5-1-10-1t-12-3l-8-3q0-1-1-1v-1h-1q-1 0-2-1 0-1-4-1t-6 1l-2 2h-2q-2-1-3-1h-1q0-1-1-1v-1h-1q-1 0-18-9t-17-6q1 2-11 1l-11-1v-1h-1v-1h-1v-1h-1v-2l-1-2-1-1v-2h1v-1h16l22 4q22 4 24 5h2q0 1 1 1h2l4 1 4 1h4v-4h-2l-2-1-1-1h-2l-1-1h-2q-2-1-7-2t-17-3l-12-2-2-1h-3v-1h-1v-4h-1l1-1 1-1h6q6-2 14-1t14 3q7 3 8 5 2 3 3 3zm97 28-1 2h-4q-4 0-5-2 0-2 5-2t5 2zm15 22h-5l-1-1-6-3q-5-2-12-4-8-2-12-4l-4-2-1-1-1-1-2-1q-2-2-1-4 0-3 9-1 8 2 14 7 5 5 14 10l10 5h-2zm4-8h-3l-4-3q-5-2-5-5-1-3 5-2 7 2 8 4 1 1 2 4 0 2-3 2zm24 0h-5q-4-2-6-5-1-3-1-4 1-1 5 0 5 1 6 2t1 4v3zm-23 6q0-1 8 2 9 2 10 3t-7 1q-7-2-9-3-1-1-2-3zm55 2q3 0 6 1 4 1 8 8 4 6 2 6-2-1-9-5-7-6-8-8t1-2zm-49 20v3l-5-1q-4-2-10-8l-7-6q0-2 6 0 6 0 11 5 4 5 5 7zm31-12q2 0 7 3t6 5q1 3-2 3-3 1-8-2t-5-6 2-3zm-21 10h-1l-2-5q-1-4 6-2l8 4q2 2 2 5 0 4-3 4t-7-3l-3-3zm43 0q-1-3 3-2 5 1 5 2 2 2 1 3 0 1-5 1-4-1-4-4zm57 20h-4l-2-1q-2-1-3-1-2-2-3-4l-1-3v-1h-1v-1h-1v-1l-1-2q-1-2 0-3 0-1 3-1 4 0 5 2 1 1 2 3 0 3 4 3 3 1 5 4t1 4q0 2-4 2zm-38-5 1 2v2h-1v1h-5q-5 0-8-2-2-2-4-6-1-3 2-3 4 1 9 2t6 4zm-62 0v1l-5-1q-6-1-6-3-1-2 5 0 5 2 6 3zm74 12h-1v-2h-1v-1h-1v-3l-1-4q0-4 5-4 4 1 4 3t3 4q3 1 3 2 2 1 1 4t-6 2q-6 0-6-1zm-80 8h-1l-1 1q-1 1 0 2t0 2v1h-1l-1 1h-9v-1l-1-1-1-1v-4h4l4-1h-1l-1-1-1-1h-1l-2-1q-1-1-4-3l-4-2-2-5q-1-5 4-4t10 5q4 3 4 4t3 4q3 2 3 3t-1 2zm49-9v2h-3l-5-2q-6-2-8-4t-3-4q0-2 7-1t10 4q2 3 2 5zm-41-6q2 0 9 2 8 3 9 7t-3 4q-4 1-10-3-5-2-6-6 0-4 1-4zm48 3q1-1 3 1 3 0 3 2t-3 3q-4 0-4-3 0-2 1-3zm56 1h1l1 3q1 3 0 3t-2 1h-1v1l2 2q2 3 0 5-1 3-6 3h-4v-1h-1v-1h-1v-3q0-2 1-3 1 0 1-2v-1l-2-1q-2-1-3-4-1-2 1-3t7 0 6 1zm-48 8h7q0 1 1 4 0 4-3 4t-7-2q-3-2-4-4 0-2 6-2zm31 3h2l-1 3q-1 2-7 3t-8-1q-2-1-2-4 0-4 6-2 7 0 10 1zm-45 11h-4l-4-2q-4-2-5-5 0-3 2-3t7 1q5 2 7 5 1 4-3 4zm-21 0v2h-11l-3-2q-4-2-3-5 0-3 5-1 6 0 9 2t3 4zm39-2h9l-1 3-1 3q-1 0-2 1l-1 1h-3q-4 0-6-2-2 0-3-4-1-3 8-2zm-71 14h-6l-3-2q-3-2-4-6 0-4 5-3t11 4q5 4 4 6-2 1-7 1zm-49 2h7q7 0 10 3 2 3 4 3 3 1 2 3 0 3-4 3h-3l-1-1q-2-1-8-2l-6-1v-1l-1-3q-1-3 0-4z" fill="#292221" fill-rule="evenodd" stroke="#292221"/>
 <path d="m789 73 1-1h2l4 3 8 6q5 3 8 5 4 2 7 7t8 6 7 3l2 1v1h1v1h1v1h1v1h1v-1l1-3q1-3 1-5v-1h-1v-1h2v1h1v1h1v1h1v1h1l5 6q6 5 8 10t3 6l1 2v6h-14v-1h2q3 0 3-3l-1-4-8-1q-7-1-18-3l-12-2v-2h3q1 0 1-1t-1-3l-2-1q0-1 3-1 2 0 2-2 0-3-4-8-2-4-10-7t-13-6l-5-3v-2l-1-1-1-1v-2q0-1-1-2h-1 1q1 0 1-1h1z" fill="#494752" fill-rule="evenodd" stroke="#494752"/>
 <path d="m755 98v-1h3l3 1h1v4q0 4-4 16l-3 11-2 5q-3 4-1 13t2 11l2 1 5 6q5 6 13 11 9 6 10 6h1l1 1h1v-3l1-3v10h1v1h1v4l1 2v2h-1v-1h-1v-1h-4l-1-1q-1-1-7-5t-12-6-12-5l-6-4v-1h-1q-1 0-4-4l-2-4v-1q0-1-2-3t-2-6q2-5 0-6t-2-11l-1-10v-1l5-4q5-4 6-5 1 0 2-3 1-2 3-5 1-2 2-3v-1h1l1-3 2-4z" fill="#bab7c2" fill-rule="evenodd" stroke="#bab7c2"/>
 <path d="m240 417 5-1v1h-1v1h-1v1h-1v1h-1l1 1 1 1h-1l3 1h3l-3 3q-3 2-4 5t-15 8q-14 6-15 9t-2 3v1h-1l-1 1-1 1h-2q-1 0-9 3l-8 2h-1l-1 1h-7v-2l1-1 1-1 1-1 1-1h1v-1h1v-1l1-1 1-1h1q1 0 1-1l5-2 5-2h1l1-1q1 0 1-1h1l2-1h2l1-1q1-1 4-2t7-5q4-3 9-4t5-2 1-2q1-2 2-5 0-3 5-4z" fill="#898793" fill-rule="evenodd" stroke="#898793"/>
 <path d="m737 365q4-1 5 1t-4 2q-6 0-6-2 0-1 5-1z" fill="#727286" fill-rule="evenodd" stroke="#727286"/>
 <path d="m629 461h-1v-2h-1v-1h-1v-3l-1-4q0-4 5-4 4 1 4 3t3 4q3 1 3 2 2 1 1 4t-6 2q-6 0-6-1z" fill="#4b4848" fill-rule="evenodd" stroke="#4b4848"/>
 <path d="m480 451h2l6 2q6 3 7 3h1l1 1 1 1h2l1 1h1v2h-4l-4-1h-4q0-1-1-1h-2q0-1-5-2l-6-1-3-2q-3-1-3-3 1-1 5-1t5 1z" fill="#625c5c" fill-rule="evenodd" stroke="#625c5c"/>
 <path d="m470 675h5l1 1h3l1 1h2v1h1l1 2q0 1-2 3t-2 3-4 1l-5 1h-19v-1h-1v-1h1v-1h1v-1h1l2-1 3-1h1q1 0 1-1l1-3q0-2 2-2 3 0 6-1z" fill="#715a47" fill-rule="evenodd" stroke="#715a47"/>
 <path d="m688 90q3 0 3 1-1 1-3 2t-2-1 2-2z" fill="#4f4c55" fill-rule="evenodd" stroke="#4f4c55"/>
 <path d="m388 521 3 1h5l6 2q6 2 8 6 2 5 11 18 9 14 10 14v2l1 1v2h1v1l2 4q3 5 3 6v1h1q0 1 1 1v2q0 1-3 4-3 2-4 5t-2 5v1l-2 5q-3 4-4 7t-1 4h-1v-1h-1q-1 0-13-8-12-6-17-8l-4-2 1 3q1 3 12 9t12 6h1v1h1v1h2v1h1v1h1v1h1v1h-1v1h-1v1h-5l-1-1-1-1h-1q-1 0-3-3-3-2-6-3-3 0-3 1 1 2-1 1h-2v-1h-1v-1h-2l-2-1h-1v1l1 1v1h1v1h1v1l2 1 2 2v1h2v3h-1v1h-5l-2-1-1-1q-1 0-4-3l-4-3v-1h-1v-1h-2l-1-1-1-1h-2v1h-1v1h1v2h1v1h1v1l3 2q2 2 2 3h1v5h-2l-2 1h-4l-3-1h-1v-1q0-1-10-16l-10-15v-1l-1-1-1-1v-1h-4v7l2 5q2 5 4 8 1 2 3 3t2 3q1 1 1 5v6h-1v1h-1v1h-1v1h-5v-1h-1v-1h-1v-1h-1q0-1-3-4-2-3-3-3t-1-1v-1l-1-2-1-1v-2h-1v-1h-1v-1h-1v1h-1v3l2 9q2 10 3 12l1 1v1h-4q-3 0-3 1-1 0-1 1v2h1v2q1 1 1 2v5h-1v1h-4q-4 0-19-2h-17v1h-1v1h-1v1h-1v1l-1 2v1l23 4q23 3 24 4 2 1 4 1h1l1 1 1 1h1v1h1v1h1v5h-16q-7-1-24-1h-16v2l1 1 1 1 16 2q15 2 18 2 2 0 5 1l3 1h3v1h1v1h-336v-162h3l2-1 2-1h1q1 0 10-4l10-4v-1h1v-1h6-1v1h-1v1h-1l-1 1-1 1h-2l-8 5-8 4v1h-2v1h-1v1h-2v1h-1v1l-1 1v1h3l2-1 1-1h1l19-10q19-8 49-15 31-7 44-9 12-2 44-4 31 0 52-6 22-4 25-5h5l1 1 11 1q12 1 25-1 13-4 17-3 3 1 6 3 2 2 15 10t23 12q9 4 22 9 12 5 14 5t4 1z" fill="#fdfdfd" fill-rule="evenodd" stroke="#fdfdfd"/>
 <path d="m598 384v-2h3l1 1 2 1h2l6 2 9 3 3 1h4l1 1 1 1h1l-9 1-9 1h-1l-2-1-2-1h-2l-1-1-1-1h-2v-1h-1v-1h-1v-1l-1-1-1-1v-1z" fill="#7e7c86" fill-rule="evenodd" stroke="#7e7c86"/>
 <path d="m412 394-2-2 2 1 4 2h2l-2 1q-1 0 0 2 0 1 1 1v1l3 1q2 1 8 1t7-2q1-1-1-2-2-2-2-3v-1l4 3q5 3 14 4t14 2h6v-2h-1v-1h-1v-1l2 2q2 1 2 2h1l2 2q2 1 2 2h-3v6l1 1 1 1 2 6q3 5 4 6l1 5q1 5 1 6t2 1h1q0 1-1 1-2 0-2 1v1-1q-1-1-3 1-3 2-3 4v3l2 1q2 0 2 1h-2q-1-1-5-1t-5 1q0 2 3 3l3 2 6 1q5 1 5 2h-3l-2 1h-1v1h-1v1h-1v1h-1v5l-5-5q-5-5-11-8-5-3-13-7l-8-4-3-1h-4v4h1v1h1v1h1v1l3 2q3 2 4 3l1 1h1v1h1v1h1l-4 1h-3v1l1 2v2h1l2 2q2 0 3 1l1 1h5v1h-5v1l1 2v2h-3q-3 0-5-3-2-2-16-6-13-5-20-6-8-1-8 1 0 3-6 3h-6q0-1-3-1t-3-2l-1-3v-1q-1-1-6-4-5-2-11-4l-6-2h-2v-1l-1-1-1-1v-1l1-2 1-2v-1h1v-1h1v-1h1v-1h1l2-1h2q1 1 2 1h1v1h1v1h5l4 2q3 1 4 6t2 6q2 2 7 1 4-1 6-1h2v-1l1-1 1-1q1-1 10 0 8 1 12 3 5 2 6 2h1l1 1 1 1h5v-2h-1v-1h-1v-1h-1v-1h-1v-1h-1v-1q-1 0-5-7-6-7-10-10l-5-4h-3v-1h-1v-1h-1l-1-1-1-1h12l2 2q1 2 2 2h2l16 6q16 6 24 6h8-1l-1-1-2-1h-2l-2-1q-1-1-20-7l-19-8h-5l-1 1h-1v-2h1l1-1h1l13 1q12 1 14 1 3 2 12 1 8-1 10-1h1l3-1h3v-2l-1-2v-1h-1v-1h-1v-1h-6q-3-2-8-4-4-2-4 0t-5 2q-5-2-12-2t-7 2-3 2h-4l-2-2h-7q-2 0-12-2l-11-2-1-1q-2-1-13-1l-11-1v-1h2l4-1 3-1h7q6-2 12-2 7 0 10 1h4v-1q0-1-2-2l-2-1v-1h3v1h1v1h1v1h1v1h6v-1q0-1-2-3z" fill="#3d3737" fill-rule="evenodd" stroke="#3d3737"/>
 <path d="m815 109h2l2 1q1 2 1 3t-2 2h-1v-1h-2q-1 0-2-1l-1-1-5-1q-5-1-4-2 0-1 5-1t7 1z" fill="#6a6872" fill-rule="evenodd" stroke="#6a6872"/>
 <path d="m565 316v-2h9l7 1q7 1 9 1h1v1h1v1l1 1v1h-9q-6 0-8-1h-9q0-1-1-1t-1-2z" fill="#c8c6cc" fill-rule="evenodd" stroke="#c8c6cc"/>
 <path d="m272 324v1h-1q-1 1-7 4l-6 3h-3l1-2q0-2 8-6 7-4 8-3 2 1 1 2l-1 1z" fill="#807e8c" fill-rule="evenodd" stroke="#807e8c"/>
 <path d="m806 617h1q0 1 1 1 2 0 2 2 0 1-4 3-4 1-6 5-3 4-12 5l-8 1h-4q-4 0-4-1-1-1-8-2-6-1-6 2t-2 4l-1 1h-7q-1 0-4-3l-2-2v-1h-1l-1-1q-1-1-5-3l-4-4h-2v-1h-1v-1h-2v-1h-1v-1h13q6-2 16-5t26-3q17 2 22 3 4 1 4 2z" fill="#574d4d" fill-rule="evenodd" stroke="#574d4d"/>
 <path d="m654 155 1-1h5v4q-1 0-1 1h-1v1q-1 0-2 2l-2 1h-2q-1-1-1-3l-1-2h1v-1h1v-1h1l1-1z" fill="#5f6078" fill-rule="evenodd" stroke="#5f6078"/>
 <path d="m502 421v-1l2 1q3 1 4 1h2v1q0 1 2 1h3l1 1 1 1h1v7h-1v1h-1l-2-1-1-1h-2l-1-1-2-1h-4q-1 0-1-1 1 0 1-3 0-2-1-3t-1-2z" fill="#433f41" fill-rule="evenodd" stroke="#433f41"/>
 <path d="m522 526h2v1l2 9q0 10 5 18 4 8 11 14 8 6 14 11 7 5 8 5v1h1v1h1v1h1v1h2v1h1v1h1l9 6q10 6 19 14 9 7 9 8v1h1v1h1v1l1 1 1 1v4h-20q0-1-10-2l-11-2h-4q-4-1-18-2l-14-1-14-2q-14 0-15-2-2-1-2-8l-1-8h-3v1l-1 4-1 5h-1v1h-1v1h-4v-1l-1-1-1-1v-1l-20-26-19-25v-1h-1v-1q0-1-2-2 0-1-4-7l-2-6v-7h1v-1l9 1q8 1 16 1t9-1 2-1h11q11 0 16-3 4-2 4-1 1 2 6 0 4-2 6-2z" fill="#fafafa" fill-rule="evenodd" stroke="#fafafa"/>
 <path d="m439 580-1-2 2 2q2 1 4 4t2 4v1l-3 3-3 4v1l-1 2q-1 2-1 5v2l1 1v1h-2v-1h-1v-4q0-4-2-3-2 0-2-1l-1-2v-1q1-2 2-5t4-5q3-3 2-6z" fill="#806c63" fill-rule="evenodd" stroke="#806c63"/>
 <path d="m452 330-2-1h1q1 1 3 1h1l1 1 1 1h3v5h-1v-1h-3q-4 0-6-1l-2-1h2q3 0 3-2 0-1-1-2z" fill="#7c7678" fill-rule="evenodd" stroke="#7c7678"/>
 <path d="m596 511h1v1q0 1-4 4-4 2-8 3-4 0-5-2-1-1-2 0l-2 1v-2q1-3 10-4 9 0 10-1z" fill="#463b32" fill-rule="evenodd" stroke="#463b32"/>
 <path d="m666 657v1h1l1 4q2 4 1 5t0 2l2 2q0 1 2 2h2q0 1-5 1-6 2-10 2l-5 2v-1h-1v-1h-1l-1 1-1 1h-1v7h4q4 1 22 1h19l1 1h29v1h-74l-1-1v-1l-4-2q-3-2-8-2h-16l-11-2h-1l4-1 4-1 1-1q0-1 7-2 6-1 9-3 3 0 14-1t12-6 2-6q2-1 3-2z" fill="#8f7861" fill-rule="evenodd" stroke="#8f7861"/>
 <path d="m617 449 1 2v2h-1v1h-5q-5 0-8-2-2-2-4-6-1-3 2-3 4 1 9 2t6 4z" fill="#4f4b50" fill-rule="evenodd" stroke="#4f4b50"/>
 <path d="m445 388v-1h1l2 1h2l1 1 1 1 4 2q5 2 14 1 8 0 8 3v4q0 1 1 2h-1q-2 0-4-1-1-1-1 1v1h-1q0-1-2-2l-2-2h-2l-2-1h-2q-2 0-7-2l-5-2v-1h-1v-1h-1v-1h-1v-1h-1v-1l-1-1z" fill="#565052" fill-rule="evenodd" stroke="#565052"/>
 <path d="m730 682 3 2q3 2 3 3v1h-11v-1q0-1 1-2l2-2q1-1 2-1z" fill="#846d57" fill-rule="evenodd" stroke="#846d57"/>
 <path d="m296 401h3q1 0-1 3-1 2-8 6t-16 4h-10v1l-1 1q-1 0-7 3l-6 3-1 1h-4l-3-1h1l-1-1-1-1h1v-1h1v-1h1v-1h1v-1h2v-1h1l1-1h1l1-1h1l1-1h2q1-1 2-1v-1l5-2 5-2 3-1q2-1 14-3 11 0 12-1z" fill="#a29fa6" fill-rule="evenodd" stroke="#a29fa6"/>
 <path d="m339 460-7-2h14q13 0 21 1h8q0 1-2 1-2 2-15 2-12 0-19-2z" fill="#52504c" fill-rule="evenodd" stroke="#52504c"/>
 <path d="m708 418v5q1 5 5 5h7-1l-2 2q-1 1-1 3 1 3 3 3t1 2l-1 2h-1v1l-1 1h-1v1l-1 1h-1v2l-4 3-4 3v-2q0-2-1-4l-1-2v-2l4-2 3-3 1-1v-4h-1v-1h-1v-1h-3q-3 0-5 1h-1v-1h1v-1h1q1 0 1-1l1-3q1-3-1-5l-2-1h2q1 1 2 0t2-1z" fill="#443e37" fill-rule="evenodd" stroke="#443e37"/>
 <path d="m678 380h-4l-4-3q-5-2-4-4 0-1 6-1 5 0 8 3 4 2 3 4 0 2-5 1z" fill="#727382" fill-rule="evenodd" stroke="#727382"/>
 <path d="m184 451 4-2-2 1-2 2v1h-1v1h-1l-1 1-1 1-1 1-1 1v2h5q1 0 3-1h1l-2 3q-3 2-3 3v1l-1 1-1 1-1 1-1 1h-2v1l-12 5q-12 5-16 8-4 2-15 4t-13 3l-3 1h-5v-3h1v-1h1l1-1 1-1h1l1-1q1-1 14-7 12-6 19-10t18-9l11-5v-1l4-2z" fill="#504d4f" fill-rule="evenodd" stroke="#504d4f"/>
 <path d="m776 634h4l-1 1-1 1h-3l-2 1-2 1h-1l-2 1-3 1h-3l-2 1h-2l-1-1v-1h-5l-4-1h7l1-1q2-1 2-4t6-2q7 1 8 2 0 1 4 1zm-13 5v-1h1q0 1-1 1zm-4 1v-1q1 0 1 1h-1z" fill="#746255" fill-rule="evenodd" stroke="#746255"/>
 <path d="m415 420h6l19 8q19 6 20 7l2 1h2l2 1 1 1h1-8q-8 0-24-6l-16-6h-2q-1 0-2-2l-2-2v-1l1-1z" fill="#898287" fill-rule="evenodd" stroke="#898287"/>
 <path d="m733 175v-2h1l1 1v1h1v1l1 2 1 3v-1h2q1 0 1 1h-1v1l-1 2-1 1v4l1 1q1 2 1 3v1l-1 3q0 3-1 3t-1-2q-1-2-2-3t-3-7l-2-6 1-2q1-2 1-3l1-2z" fill="#5a5a71" fill-rule="evenodd" stroke="#5a5a71"/>
 <path d="m661 458h1l1 3q1 3 0 3t-2 1h-3q-1 1-4 0h-2l-2-1q-2-1-3-4-1-2 1-3t7 0 6 1z" fill="#362f29" fill-rule="evenodd" stroke="#362f29"/>
 <path d="m598 460v2h-3l-5-2q-6-2-8-4t-3-4q0-2 7-1t10 4q2 3 2 5z" fill="#4a4749" fill-rule="evenodd" stroke="#4a4749"/>
 <path d="m423 622h5v6q0 5-1 6-1 2-1 4v1l-2 5q-2 6-3 6v-1h-1v-3q0-4 2-10 0-6-1-3-2 3-3 2v-3l1-2q1-1 1-4l1-2h1v-1h1v-1z" fill="#a28a67" fill-rule="evenodd" stroke="#a28a67"/>
 <path d="m603 337v-1h18l1 1q2 1 1 2v2h-14v-1h-3q-2 0-3-1h-1v-2h1z" fill="#c1c0ca" fill-rule="evenodd" stroke="#c1c0ca"/>
 <path d="m883 0h15l6 2q6 3 10 8 4 4 7 11t3 9v6q0 4-2 7 0 3-5 6-4 3-7 5-3 0-8-4-6-4-12-6t-8-4q-3-2-3-3-1-1-2-1-1-1-1-2t-6-4q-5-4-12-4t-12 2q-6 2-8 5-3 3-4 3t-6 6l-5 7h-1q0 1-1 1-1 1-3 2l-3 2h-11q-10 0-14 2l-4 2v1h-1v1h-2v1h-1v1h-1l-3 1h-6q-2 1-3 1-1 2-12 4t-16 4q-5 4-14 5t-12 3l-3 2q-1 0-4 4l-2 4q-1 0-1 1h-1q-1 1-4 1h-4v-1h-1v1h-1v3l1 1q1 1 1 2v1l1 1 1 1v1h-3v-1l-1-1v-1q0-1-1-1l-1-1v-1h-4v4l1 1v1h1q1 0 2 1h1v3l1 3v3h-1l-1 1h-1v-4h-2l-2 1h-1v4h-2v-4h1l1-1q0-1 1-2l1-1v-2h-1v-1h-1v-1h-1v-1q-1-1-1-4t-1-3h-1v-7q0-7 8-9 7 0 10-4 4-2 5-3 1 0 1-2-1-2 4-3 4-2 9-4t13-4q7-2 14-3t10-3 14-8q12-6 17-7l5-1v-1l10 2q10 2 11 3h3q3 0 9-6t19-16q14-10 22-13 9-3 13-4l4-1zm-195 90q3 0 3 1-1 1-3 2t-2-1 2-2z" fill="#272121" fill-rule="evenodd" stroke="#272121"/>
 <path d="m468 412h2v1h1v1h1v1l1 2v2h-3l-3 1h-1q-2 0-10 1-9 1-12-1-2 0-14-1l-13-1-5-1-4-1h10v-1l1-1q0-2-1-2h-1l-1-1-1-1h4l2 2h4q3 0 3-2t7-2 12 2q5 0 5-2t4 0q5 2 8 4h4z" fill="#706d74" fill-rule="evenodd" stroke="#706d74"/>
 <path d="m376 252q3 0 3 2 1 3-3 5-3 3-7 3-4 2-4 0t5-6q4-4 6-4z" fill="#7c7b8c" fill-rule="evenodd" stroke="#7c7b8c"/>
 <path d="m555 449v1l-5-1q-6-1-6-3-1-2 5 0 5 2 6 3z" fill="#48413e" fill-rule="evenodd" stroke="#48413e"/>
 <path d="m772 63h2v1h11l3-1h2v4l-1 1-4 4-4 2h-1l-12 4q-11 2-24 7l-14 5h-2q-2 0-4 2l-2 1-1 1h-1v1l-1 1h-1v1h-1l-1 1h-4v-1h-1v-1h-1v-2l-1-2v-1l2-1q3 0 1-1v-7l3-2q3-2 12-3t14-5q5-2 16-4t12-4q1 0 3-1z" fill="#b5b2bb" fill-rule="evenodd" stroke="#b5b2bb"/>
 <path d="m384 406h5l11 2q10 2 12 2h3l1 1 1 1h1q1 0 1 2l-1 1v1h-13q-3 0-17-3l-14-3-1-2q-1-2 3-2h8z" fill="#ada9b1" fill-rule="evenodd" stroke="#ada9b1"/>
 <path d="m621 416h5q2 1 0 5-1 3-2 5-1 0-4 1h-3q-1-1-3-1l-1-1 1-3q0-4 2-5 1-1 5-1z" fill="#686775" fill-rule="evenodd" stroke="#686775"/>
 <path d="m90 487h1l-27 14q-28 13-29 14h-1v-1h1-6v1h-1v1l-10 4q-9 4-10 4h-1l-2 1-2 1h-3v-1l1-1 1-1v-4l1-2q1-2 3-3 2-2 2-3t19-13l18-11h3l2 1h-1v1h-1v1h8l2-2h7v1h-1v1h-1v1h-1v1h-1l-2 2-3 1v1h-2v1h-1v1h-1v2h4v-1h1v-1h3l1-1q1-1 14-6 13-6 13-5t2 1z" fill="#484651" fill-rule="evenodd" stroke="#484651"/>
 <path d="m557 454q2 0 9 2 8 3 9 7t-3 4q-4 1-10-3-5-2-6-6 0-4 1-4z" fill="#4f4c4d" fill-rule="evenodd" stroke="#4f4c4d"/>
 <path d="m313 351 3-1h8v2h-2l-1 1-1 1h-2q-1 0-3 1l-2 1h-1v1h-1v1h-1l2 1 2 1h-2v3q0 1 4 1h4l5 1q5 1 15 1h9v1h-1v2l1 1 1 2v2h1v1h1v1h1v1h-1l-1-1h-4v5l19 2q19 3 21 3l2 2h-3q-2 0-42 6t-40 7q0 2-2 3h-1q1-1 1-2t-2-1h-4q-1 1-12 1-12 2-14 3l-3 1h-5q-5 0-7 3l-2 3h-1v1h-1l-1 1h-1l-1 1h-4v-3h1l2-3 2-3h-1v-1h-1v-1q-1 0-8-3t-8-6 0-3 1-4q0-3 1-6 1-4 4-8t3-8l-1-3v-3l1-3v-1l2-1q1-1 4-2 2-1 8 1h24q18 0 25-2 7 0 10-1zm-52 11q-1-2 16-2t16 1q0 1-15 1h-17z" fill="#453f42" fill-rule="evenodd" stroke="#453f42"/>
 <path d="m502 318-3-2h17l3 2q3 1 3 2t-4 1h-6q-2-1-5-1t-5-2z" fill="#c0bbc1" fill-rule="evenodd" stroke="#c0bbc1"/>
 <path d="m630 374h7q4 1 4 2 0 2-1 2h-8l-4-1-1-1-1-1q0-1 4-1z" fill="#8f8d9a" fill-rule="evenodd" stroke="#8f8d9a"/>
 <path d="m582 355 6 1h1q1 1 2 3 0 2-1 2l-1-1h-2q-2 0-7-2-4-2-4-3t6 0z" fill="#716d79" fill-rule="evenodd" stroke="#716d79"/>
 <path d="m687 646v2h-1v2l-1 2q-1 2-1 4v6q0 1-2 1-2 1-3 0t0-5q1-3 0-4h-1l-2-1q-1-1-1-3l-1-2h1l1-1 1-1h10z" fill="#61544d" fill-rule="evenodd" stroke="#61544d"/>
 <path d="m753 134 2-5v12q1 12 1 15v3l-2-1q0-2-2-11t1-13z" fill="#6c6a72" fill-rule="evenodd" stroke="#6c6a72"/>
 <path d="m474 642-1 3q-1 3-5 6t-7 3-1-2 0-2-4 1-10 2l-7 1h-3v-1h-1v-1h1v-3h1v-1h1l4-2q4-1 4-2 1 0 1-1l3-1q3 0 3 1v1h6l1-1h2v-1q0-1 1-2 0-1-2-2l-1-2h-1 3q2 0 4 2 3 2 5 1 2 0 2 1 1 1 1 2z" fill="#6f5a46" fill-rule="evenodd" stroke="#6f5a46"/>
 <path d="m572 560-1-8 2 4q3 5 11 12 8 8 15 12 7 6 14 10t16 12q10 8 23 15t14 7h2l2 1 1 1h2v1h-1v1h-3l-1 1-1 1h-4q-2 0-5 1-2 1-16 1-13 0-21-2-8-1-9-3v-4l-1-1-1-1v-1h-1v-1h-1v-1q0-1-9-8-9-8-19-14l-9-6h-1v-1h-1v-1h-2v-1h-1v-1h-1v-1h-1v-1h2v1h1v1h3v1q1 1 2 1h1v-1l1-1 1 1h1v-2h1l1-1h2l1-1 1-1h-1v-1h-1q0-1-2-3-3-4-4-7-2-3-2-11z" fill="#4b454a" fill-rule="evenodd" stroke="#4b454a"/>
 <path d="m375 298v7h-4q-4 1-10 1-7 0-11-1l-4-1-1 1-1 1h-3v6h22q17 0 19 5l2 5 1-1 1-1 2-2q1-2 2-2 0-1-1-1t-1-2q1-2 0-2t-1-1 1-2q2 0 2-3 1-3 3-4 1-1 1-3-1-2 4-4t9-2h5v1h-4l-4 1h-1v1h-1v4q-2 4-1 5 0 1 1 1t1 3q0 2-1 2t-3 2l-3 3-1 1h1v1h1v1h1v2h-1l2 1q2 1 5 1h2v1h-5l-5 1v2h1v1h-3v3l1 2v1h1l1 1h3l3 2-2 1q-1 1-1 2v3h2l1 1 1 1h4v-4 6-1l-1 1v1h-1l-2-1h-4l-1-1q-1-1-20-1l-19-1v4h-1v1h-1v2h2l2 1q1 0 1 3-1 2-1 3v3h2v1h-2l-2 1h-14q-15 0-22-1l-8-1-1 1-1 1h-2v-2h2l-2-1-2-1h1v-1h1v-1h1l2-1q2-1 3-1h2l1-1 1-1h2v-2h-8l-3 1q-3 1-10 1-7 2-25 2h-24q-6-2-8-1-3 1-4 2l-2 1v1l-1 3v3h-1v-9l1-2q1-1 2-4 1-4 3-6t8-6l6-4 6-3q6-3 7-4h4v-1l1-2v-1l1-1 1-2v-3h-1v1h-2q-1-1-1 0v2h-1v-1h-1v-5l-1-1v-1h2v-2l1-1v-1h1l1-1h2v2q-1 3 1 3 3 0 3-1 1-1 8-1 6 0 12-2 6-4 10-7l10-6q4-3 5-3h1v-1h1v-1h1l1-1 1-1 4-1q3-1 4-2h3l3-1h2v-1h1v-1h1q2-1 2-4t9-3 9 3q0 2 1 2t2 7 2 13z" fill="#504d57" fill-rule="evenodd" stroke="#504d57"/>
 <path d="m924 36v-3h1v655h-79v-2h1v-1h1v-1h1v-1q1 0 1-1 1 0 4-9l3-8 4-3q4-2 7-3l3-1h1v-2h-1v-1h-1v-1h-10q-10 0-12-1h-1v-1h-1q-1 0-8-5-6-5-12-9l-5-3q0-1-5-3l-4-2v-5l10-11q10-11 11-11v-1h1v-1l1-1 1-1v-4h-1v-1h-5v2h-1v1h-1v1h-1l-7 9q-6 8-10 9l-3 1h-1q0-1-4-2-5-1-22-3-16 0-26 3t-16 5h-11l-1-1-1-1h-2l-1-1h-1v-3h1v-2h2v-1h1v-1l15-8 15-8 8-4q8-4 18-6t10-3h11q10-1 12-1h1l1-1 1-1h1v-1h1v-1h2v-1l1-1v-1h-1v-1h-9q-9 0-18 2l-10 1h-2q-3 1-8 1-6 2-16 6-9 4-20 10l-11 6-1 1-2 1h-2q-1 0-3 1t-21 11q-18 10-24 11l-6 1h-2q-1 0-14-7t-23-15q-9-8-16-12t-14-10q-7-4-15-12-8-7-11-12l-2-4v-2q-1-3-1-4 0-2-3-6-3-3-3-6 0-4 2-8 2-5 5-5 3-1 4-2l1-1 2-1q1-1 2 0 1 2 5 2 4-1 7-3 4-3 4-4h1v-1l11-6q12-5 24-11 12-5 26-11 15-5 16-6h1l1-1h1l1-1 1-1 9-6q10-6 14-10 4-5 4-6l4-3 4-3v-1l1-1h1v-1l1-1h1v-1l1-1h2l5-6q6-5 6-6v-1l1-1h1v-2h1v-1h1v-2h1v-1h1v-2l1-1 1-1v-1l1-1 1-1v-2l1-1 1-1v-1q0-1 1-3l1-2 1-1 6-10q5-11 6-12v-1q1 0 1-1l1-2q1-1 11-24l10-24v-3l1-3q1-2 3-8 2-7 5-26t4-42-2-34l-2-12v-6l-1-2v-4h-1v-1h-1v-10l4-6q3-5 12-14 10-8 19-17 9-10 11-10 2-2 7-2t7 1h2v1h14v-6l-1-2q-1-1-3-6t-8-10l-5-6h-1v-1h-1v-1h-1v-1h-1v-1h-1l-1-1q-1-1-9-17l-8-16v-1q0-1-1-7v-5l5-7q5-6 6-6t4-3q2-3 8-5 5-2 12-2t12 4q6 3 6 4t1 2q1 0 2 1 0 1 3 3 2 2 8 4t12 6q5 4 8 4 3-2 7-5 5-3 5-6 2-3 2-7z" fill="#fefefe" fill-rule="evenodd" stroke="#fefefe"/>
 <path d="m782 575h2v4q0 2 4 2h3q0 1-10 3t-18 6l-8 4 1-1v-1q-1 0-14 6l-12 6h-1l-1 1-1 1h-3v-6l2-1 1-1 11-6q11-6 20-10 10-4 16-6 5 0 8-1z" fill="#b69e77" fill-rule="evenodd" stroke="#b69e77"/>
 <path d="m476 370v-1l8 1q9 0 14 2t6 2h1v1h1v1l1 2q0 1-3 1h-4q-1-1-12-4l-10-3-1-1q-1 0-1-1z" fill="#b7b2b8" fill-rule="evenodd" stroke="#b7b2b8"/>
 <path d="m904 2-6-2h27v33h-1v-3q0-2-3-9t-7-11q-4-5-10-8z" fill="#f3f2f1" fill-rule="evenodd" stroke="#f3f2f1"/>
 <path d="m572 253-8-1h26l1 1h1v2h-4l-4 1h-6l1-1q1-1-7-2z" fill="#b7b6c1" fill-rule="evenodd" stroke="#b7b6c1"/>
 <path d="m603 272-1-2h7q7 0 9 1h4q2 1 6 1h3v1h1v2h-1v1h-9q-10 0-14-1l-3-1-2-2z" fill="#c5c5d1" fill-rule="evenodd" stroke="#c5c5d1"/>
 <path d="m396 324 5-1h5l16 2q16 1 20 3 4 0 6 1h2l2 1q1 1 1 2 0 2-3 2h-4q-2 0-23-4l-21-2-2-1h-3v-1h-1v-2z" fill="#c2bec2" fill-rule="evenodd" stroke="#c2bec2"/>
 <path d="m719 380v-3l4 1q5 0 5 2t4 4 6 6q2 5 2 6v1l1 1 1 2v2h5l-1 2q-2 3-2 4v1l-1 1-1 1v2l-1 1-1 1v1l-1 1-1 1v-2l-1-1-1-1v-3q0-3 1-3 1-1 0-2-1 0-3-1t-4-7q-1-6-4-6t-5-3l-1-3-1-2q-1-1 0-4z" fill="#7b767a" fill-rule="evenodd" stroke="#7b767a"/>
 <path d="m681 94h2q1 0 1 3t1 4v1l-2 1h-3v-5q0-4 1-4z" fill="#53515e" fill-rule="evenodd" stroke="#53515e"/>
 <path d="m612 626v-1 2q1 2 9 3 8 2 21 2 14 0 16-1 3-1 5-1h2l-11 7q-10 7-18 7-7 0-9-1l-2-1-1-1-1-1h-3v-1h2q3-1 4-1h1v-3h-3l-2-1h-5q-5 0-11-2-6 0-6-2-1-1-4-2h-4v-1h20v-1z" fill="#8e765f" fill-rule="evenodd" stroke="#8e765f"/>
 <path d="m717 173h1v2l-2 1q-2 1-1 4 1 4 3 4h1v2q-1 2 0 4v1h-1q0-1-2 0-3 1-6 8-3 8-4 9-2 0-3-2-1-3 0-5t2-5q1-2-1-2-2-1-2 0 0 2-2 3-1 1-2 3-1 3-2 4-2 0-2 4l-1 3h-1l-1-1h1l-2-1h-2v-1q0-2-1-2-2-1-2-4l1-4h-1v-1h-1v-1h-1v-1h-1v1h-1l-1 1-1 1h-1v1l-2 3-1 4h2l-1 1-1 1h-4v-4l1-3 4-5q4-5 3-5 0-1-1-1h-1l-1-1v-1h3v-1h1v1l3 2q3 2 4 1l1-1v-1l1-1v-1h1v-1h1v-1h1v-2q1-1 7-3 5-2 6-3t3-2q2 0 3-2 1-1 3-1t3 1z" fill="#595a71" fill-rule="evenodd" stroke="#595a71"/>
 <path d="m644 469h2l-1 3q-1 2-7 3t-8-1q-2-1-2-4 0-4 6-2 7 0 10 1z" fill="#393128" fill-rule="evenodd" stroke="#393128"/>
 <path d="m690 370h2v1h1q0 1 1 1l1 2q1 2 1 5t2 4 4 5q2 3 3 4l2 4v1h-1l-2-1h-4l-1-1-1-1h-2l-1-1q-1-1-3-4-2-4-3-11-1-8 1-8z" fill="#7b7980" fill-rule="evenodd" stroke="#7b7980"/>
 <path d="m549 269h1v1l-1 1v1h-1v1q-1 1-8 1h-7l1-1q1-1 8-3 6 0 7-1z" fill="#aeacb4" fill-rule="evenodd" stroke="#aeacb4"/>
 <path d="m824 62 8 16q8 16 9 17l1 1h-1v1h1v1q0 2-1 5l-1 3v1h-1v-1h-1v-1h-1v-1h-1v-1l-2-1q-2-2-7-3t-8-6-7-7q-3-2-8-5l-8-6-4-3h-2v1h-1v1h-3v-1h1v-1h2l1-1 1-1h3l4-2q3-2 12-4 9 0 11-2h3z" fill="#5c575c" fill-rule="evenodd" stroke="#5c575c"/>
 <path d="m539 414q0-1 8 2 9 2 10 3t-7 1q-7-2-9-3-1-1-2-3z" fill="#827d7f" fill-rule="evenodd" stroke="#827d7f"/>
 <path d="m705 90h1v1q0 1-1 1t-2 3l-1 3h-1v1h-1v1h1l1 1h2v1h-9 3v-1l-1-1-1-1v-1q0-1-1-2l-1-1v-3h1v-1h1v1h4q3 0 4-1 0-1 1-1z" fill="#4e4c57" fill-rule="evenodd" stroke="#4e4c57"/>
 <path d="m333 613h1v1h1v1h1v2l1 1 1 2v1q0 1 1 1t3 3q3 3 3 4h1v1h1v1h1v1h5v-1h1v-1h1v-1h1v-2l1-2v-2l4 9q3 9 4 10h-1v2h1v1h1v1h2v1h1v1h2v1h1v1l4 1q4 2 5-1 1-4 3-4h2l1 2 2 2v2l1 2v1h1v1h1l1 1 1 1h3q3 0 7 1l5 1h5v1h1v1h-1l-3 1h-5l-3 1h-1v2h1l2 1 2 1h2l9 5q9 5 15 4 6 0 6 2t4 2q4-1 6-1 2-2 3-2h7v1h1v1h1v1h-1v1h-1l-3 1-2 1h-1v1h-1v1h-1v1h1v1h-114v-2h1v-1h1v-2h-1v-1h7l-2-1-2-1h-6l-2-1-1-1h3v-1h8v-5h-1v-1h-1v-1h-1l-1-1-1-1h-1q-2 0-4-1-1-1-24-4l-23-4v-1l1-2v-1h1v-1h1v-1h1v-1h17q15 2 19 2h4v-1h1v-3l1 2 1 1v1h2q3 0 16 1h13v-1l-1-1v-1h-1l-1-1-2-1h-6q-1 0-2-2-2-2-6-4-5-2-10-2h-4l-1 1v1h-1v-4h8v-1l-1-1q-1-2-3-12l-2-9v-3h1v-1z" fill="#987c61" fill-rule="evenodd" stroke="#987c61"/>
 <path d="m542 468h1l3 1h2l-1 1q-1 1 0 2t0 2v1h-1l-1 1h-9v-1l-1-1-1-1v-4h4l4-1z" fill="#3f3a38" fill-rule="evenodd" stroke="#3f3a38"/>
 <path d="m704 676v1h1v1h13v1q0 1 2 1 1 0 2 1h2v1q0 1 2 1h2l-2 2q-1 1-1 2h-28v-1l-1-1v-1q0-2-1-2h-1v-1h1v-1h1v-2h-2v-2h-3v-1h1v-1h12v2z" fill="#947c65" fill-rule="evenodd" stroke="#947c65"/>
 <path d="m545 436v3l-5-1q-4-2-10-8l-7-6q0-2 6 0 6 0 11 5 4 5 5 7z" fill="#717078" fill-rule="evenodd" stroke="#717078"/>
 <path d="m680 173v2l-4 4q-5 5-1 6 3 1 4 1v2h-3v1l1 1h-3q-2 0-4 2h-4q-4 0-6 4t3 3 5 0-8 5l-7 4h-3v-1h-1v-1h-1v-2q0-2 1-3 0-1-3-1-2 0 0-6l2-5v-1h-1v-1h-1v-1h-2q-1 0-2 1l-1 1h-4 1l1-1 1-1h2l1-1 1-1 8-2q7-2 7-3 1 0 1-1l1-1q1-1 2-1h4l3-3q4-3 7-2 3 0 3 2z" fill="#585970" fill-rule="evenodd" stroke="#585970"/>
 <path d="m726 404v4h-4q-5 0-7-3-3-3-3-6t6-2 7 3q1 1 1 4z" fill="#767276" fill-rule="evenodd" stroke="#767276"/>
 <path d="m626 397q1-1 6 2 4 2 5 4 0 3-3 3-2 0-4-1-2-2-4-5t0-3z" fill="#6d6d79" fill-rule="evenodd" stroke="#6d6d79"/>
 <path d="m419 621h1q1 0 1 1v2l-1 2q0 3-1 4l-1 2v2l-4 8q-4 9-5 10l-1 1v1h-2q-1 0-2-2 0-2-2 0-3 2-6 2h-3v-1h-1v-1h-1v-1h-1v-1h-1l-2-2-1-2h-2q-2 0-3 4-1 3-5 1l-4-1v-1h-1v-1h-2v-1h-1v-1h-2v-1h-1v-1h-1v-1l1-1h1l2-1h1v-1q0-2 1-2t1 1 1 1h5v-1l-1-1v-2l-1-1-1-1v-1l-1-1v-2h11q7 0 20-3t14-5q0-1 1-1z" fill="#5d4a39" fill-rule="evenodd" stroke="#5d4a39"/>
 <path d="m552 253v-1h12l8 1q8 1 7 2l-1 1h-25v-1h-1v-1h-1v-1h1z" fill="#d0cfd8" fill-rule="evenodd" stroke="#d0cfd8"/>
 <path d="m719 610h2q1 1 1 2v2h-1v1l-3 3q-2 3-3 6v2h7l2 1q1 1 2 1h2v1h1v1h1v1h1v1h1v1h-1v1h-1l-2-1-2-1h-12v1h-1q-1 1-6 3l-5 2-2 1-1 1h-3q-2 0-4 1-3 1-3 3l-1 2v1h-1v-1h-10l-1 1-1 1h-1l1 2q0 2 1 3l2 1h-7q-4 0-4 2v2l-1-1q-1 1-3 2-1 1-2 6t-12 6-14 1q-3 2-9 3-7 1-7 2l-1 1-4 1-4 1h-9v-1h-1v-2h1v-1h1l1-1 1-1h1l50-28 56-32q7-4 8-4z" fill="#68584b" fill-rule="evenodd" stroke="#68584b"/>
 <path d="m575 387 2 1h3v2h-6v1h-2q-1-1-8-2l-7-1-1-1q-1-1-2-1h-3q-1-1 0-3 0-1 11 1t13 3z" fill="#a29ea3" fill-rule="evenodd" stroke="#a29ea3"/>
 <path d="m652 466v-1h2q3 1 4 0h2v1l2 2q2 3 0 5-1 3-6 3h-4v-1h-1v-1h-1v-3q0-2 1-3 1 0 1-2z" fill="#2c231e" fill-rule="evenodd" stroke="#2c231e"/>
 <path d="m488 285v-1h30q7 0 22 1l15 1h3v1l1 1v1h-1l-1 1h-11q-11 0-30-1h-18v-1h-11v-1h-1v-1h1v-1h1z" fill="#c7c1c9" fill-rule="evenodd" stroke="#c7c1c9"/>
 <path d="m714 414 2 2q2 2 7 2 5 1 7 5 1 3 2 3l1-1h1v1q0 1-7 7l-6 7h-1v1h-1v1h-1v1h-1v1h-1l-1 1h-1v-2h1v-1h1v-1h1v-1h1l1-1q1-1 1-2 1-1-1-1t-3-3q0-2 1-3l2-2h1-7q-4 0-5-5v-5q0-1-1-2v-1h3q3-1 4-1z" fill="#5e5856" fill-rule="evenodd" stroke="#5e5856"/>
 <path d="m500 601v-1h3l1 8q0 7 2 8 1 2 15 2l14 2h-9q-9 0-16 1l-8 1v6q0 6 1 8 1 3 2 3v1h-3q-4 1-4 2t1 2v1h-1q-1 0-1-1t-1-1h-1v-3q-1-4-4-8l-3-5v-1l1-2v-1h1v2l2 1 1 2h3v-8h-8v-2h-2l-1-1h-1v-1h14v-4h-2v-1h1v-1h1l1-5 1-4z" fill="#917962" fill-rule="evenodd" stroke="#917962"/>
 <path d="m447 474h4l1 1 1 1h4q4 2 6 2h2l1 1 1 1h2l1 1 1 1h-7q-5 0-14-2l-8-2h-1l-1 1-2 1h-2v2h-1v1h1v3h1v1h1v1q0 1 3 2 3 2 4 2h1l1 1 1 1v2l-1 1-1 1h-14q-1 0-3-4-2-2-5-2h-14q-12 0-18-1l-5-2v-1h-7l-1-1-1-1h-1v-1h-1v-3q0-3 1-4t4-3q4-3 2-5-3-2-2-4l1-1v-1h1l1-1h8q6 0 6-3 0-2 8-1 7 1 20 6 14 4 16 6 2 3 5 3z" fill="#5e5a5a" fill-rule="evenodd" stroke="#5e5a5a"/>
 <path d="m571 623 11 2q10 1 10 2v1h-1q-1 0-1 1t-2 1q-2 1-1 2 1 0 2 1l1 1h2l4 3q5 3 8 3h4v1h-5v2h-1l-1 1h-2q-2 0-19 3-18 3-19 0t-3-3-4 3q-1 3-4 3-2 0-5-1-3-2-5-8l-4-6v-1h-2v-4l-1-1v-1h3v1h1v1h9q10 0 10-2t8-4q7 0 7-1z" fill="#706058" fill-rule="evenodd" stroke="#706058"/>
 <path d="m689 96h3v1l1 1q1 0 1 1v1l1 1v1h-1v1h-2q-1-1-2-1h-1v-1l-1-1v-4h1z" fill="#52505c" fill-rule="evenodd" stroke="#52505c"/>
 <path d="m689 648 7 1q8 1 7 3t-2 2-1 1h-2v3h-1l-1 1-1 1h-1q-1 0-3 1t-4-1l-3-1v-3q0-2 1-4l1-2h1v-1h1v-1h1z" fill="#d8d4d1" fill-rule="evenodd" stroke="#d8d4d1"/>
 <path d="m526 620h9l14 1q14 1 18 2h4q0 1-7 1-8 2-8 4t-10 2h-9v-1h-1v-1h-3v1l1 1v6q0 1-4-1l-3-1v-1h-1v-1 2l5 5 5 5 1 1 1 1v5h-1v1h-1v1h-1v1h-2l-3 1q-2 1-5 0t-9 1l-6 2h-2v-1l2-2 2-1-1-1h-1v-1h-7v-1q-1 0-2-3l-1-2h-1v-2h-1v-2q0-1 3-2h4v-1q-1 0-2-3-1-2-1-8v-6l8-1q7-1 16-1zm-6 9v-1h2v4-1h-1v-1h-1v-1z" fill="#61554e" fill-rule="evenodd" stroke="#61554e"/>
 <path d="m609 235h3q2 1 4 1h3l2 1 1 1v2h-9q-1 0-3-1l-3-1-1-2q0-1 1-1 1-1 2 0z" fill="#b9b8c8" fill-rule="evenodd" stroke="#b9b8c8"/>
 <path d="m504 365 1-1h13q12 2 14 2h1l1 1q2 0 2 1 0 2-3 2l-4 1h-5q-4-1-10-1l-5-2h-2q-2 0-3-1-2 0 0-2z" fill="#c1bdc2" fill-rule="evenodd" stroke="#c1bdc2"/>
 <path d="m702 429h2q0 1 3 1h3v1h1v1h1v4l-1 1-3 3-4 2h-2q-2 0-2-1-1-1-2-4 0-4 1-5l2-1q1 0 1-1h-1l1-1z" fill="#595250" fill-rule="evenodd" stroke="#595250"/>
 <path d="m691 405 4 1q1 0 2 6 1 5-3 5-4-1-7-3t-3-6q-2-4 1-4 2 0 6 1z" fill="#737072" fill-rule="evenodd" stroke="#737072"/>
 <path d="m576 320-1-1h1q2 1 8 1h6v2q0 1 1 2 2 0 1 1-2 1-1 1l-1 1-1 1h1l5 2q5 0 8 2 3 0 9 1l6 1h2v1l1 1h-18v1h-1v2h1q1 1 3 1h3v1h-3q-4-1-25-1h-21 22v-2h-2v-1h-1v-1h-5q-4 0-12-1h-7v-1h15l1-1 1-1h-2q-3 0-2-3 2-2 4-3 2-2 0-2t0-1 1-1 1-1l2-1z" fill="#565563" fill-rule="evenodd" stroke="#565563"/>
 <path d="m543 352h2q1 1 2 3 1 1 3 2 3 1 6 1h2l-7 1q-7 0-7 1t2 2h1-2q-2 0-4-2l-2-2h-1l-2-1-1-1h5q4 0 4-2l-1-2z" fill="#9a939b" fill-rule="evenodd" stroke="#9a939b"/>
 <path d="m466 288 4-1h4v1h-3v1h-1v1h1v1h1l1 1q1 0 1 4-1 4 0 4 2 0 2 1t-2 1h-2l5 2q5 0 5 1h-4q-3-1-6 0-2 1 0 3 3 2 6 2h8q6 0 6 1h1l18 1q18 2 21 2h2l12 2q13 0 14 2 2 0 4 1h11l1 1-2 1q-2 1-1 1t-1 1 0 1 0 2q-2 1-4 3-1 3 2 3h2l-1 1-1 1h-15v1h-2l-2 1v1q0 2 4 2 4 1 5 1h21q21 0 25 1h14v3q0 2 2 3t16 1 15-1l1-1h7v-1h2v2q1 2 13 9t14 10q1 3 2 4 2 0 2 1v1l-3-1q-3-1-2 7 1 7 3 11 2 3 3 4l1 1h2l1 1 1 1h2v1l1 1v1h-1v1l-1 2q-1 1 0 6 1 4 3 5l2 2h1q0 1 1 1v2q-1 0-1 1h-4v-1h-1v1h-2q-3 1-6 1t-3 2l-1 2 1 1 1 1v1l2 1q2 2 4 2h3v1l-2 1q-1 1-1 5 1 3 2 4 0 1 2 1h2v2l1 2q1 2 1 4v1h-3q-3 0-3-2t-2-3q0-1-4-2-3-1-3-2v-1q1 0 1-1l1-3q1-3 0-4t-9-1q-7-2-8 1l-1 2h-1v1h-1v-1q-1-1-1-2t-6-4q-5-3-8-3-2 0-3 1l-1 1v-7h-1l-1 1-1 1q-1 1 0 3v1h-1v-1q0-1-3-3-3-1-8-2l-5-1v1l-1 1-1 1v1l2 1 2 1v1h1v1h1v1h-2q-1-1-3-2l-2-1 1 3q0 3 1 4l1 1v1l1 1v1h-2v-2h-2l-2-1h-2l-2-1-2-1h-5l1-1h1v-2h-1v-1h-1v-1h2q3-1 4-1 1-2 2-5 2-4 0-5h-1q-1-1-1-3v-3q0-2-4-4l-3-3v-1h-1v-8h-3l9-1 9-1h-1l-1-1-1-1h-4l-3-1-9-3-6-2h-2l-2-1-1-1h-3v3l1 1 1 1v1h1v1h1v1h2l1 1 1 1h2l2 1 2 1h-3v1h-1v-1h-3l-1-1q-2-1-4-1h-3l-1-1h-2v3h1v1h1v1h1l4 1h4v1h-4q-4 0-5 4v4h2v2h-2v-1h-1v-1h-3l-2-1-2-1h2q1 0 0-5t-8-6l-8-2v-1h6v-2h-3l-2-1q-2-1-13-3t-11-1q-1 2 0 3h1v1h-1v1h-1v-1l-1-1q0-1-9-2l-10-2v3l2 1q1 0 2 1l2 1h-5v-1h-1v-1h-4l-12-3-11-3h-1v-1h2q3 0 3-1l-1-2v-1h-1v-1h-1q-1 0-6-2t-14-2l-8-1v1q0 1 1 1l1 1h-2q-2 0-4-2h-1v-1h-1v1h-2v-1 1q0 2 1 2t1 1v1h-2v-1h-1v-1h-1q-2 0-7-2t-21-4q-15-3-15-2v2h-1q-1 0-3-3-1-2-8-5-6-2-14-3t-14 1h-6l-1 1-1 1h1v4h1v1h-1q-1-1-4-1h-2l-3-1h-3v-1h-2v-3q0-1 1-3 0-3-1-3l-2-1h-2v-2h1v-1h1v-4l19 1q19 0 20 1l1 1h4l2 1h1v-1l1-1v1-8h-1l-1-1q-1-1-2-1h-1l-3-2h-3l-1-1h-1v-1l-1-2v-3h6l2 1 21 2q21 4 23 4h2l2 1q2 1 6 1h3v1h1v-5h-3l-1-1-1-1h-1q-2 0-3-1h-3q-2-1-6-1-4-2-20-3l-16-2v-1h-2q-3 0-5-1l-2-1h1v-2h-1v-1h-1v-1h-1l1-1 3-3q2-2 3-2t1-2q0-3-1-3t-1-1q-1-1 1-5v-4h1v-1h1l4-1h4l2 1q3 1 4 5 0 4 6 7 7 2 10 3 4 1 4-1 0-1 6-2 7 0 15-3l9-3 1-1h1v-3q0-2-3-4l-2-2v-1l1-1zm36 30-3-2h17l10 2q11 2 12 4t-8 2h-10l-2-1-3-1h-1v-1h-2q-2-1-5-1t-5-2zm3 20 13 2h4v1h1v1h1-9q-9 0-21-1-11-1-12-3 0-1 5-1 5-1 18 1zm-57 2 15 1q15 1 17 2 3 1 4 1h1l4 1q4 1 4 2t1 1 1 1h1v1q0 1-6 1l-7-1h-1q-1 0-14-4l-13-2-2-1q-2-1-3-1-2 0-2-2zm80 12h17q1 1 2 3 1 1 3 2 3 1 6 1h3q1 0 5 1 5 1 9 2t3 2q0 1-14 0l-15-1h-2q-2 0-4-2l-2-2h-1l-2-1-1-1h-4l-1-1q-2-1-3-1t-1-1 2-1zm54 3 6 1h1q1 1 2 3 0 2-1 2l-1-1h-2q-2 0-7-2-4-2-4-3t6 0zm15 1-1-2 10 1q10 1 12 2 2 2-9 2-11-1-12-3zm-93 9 1-1h13q12 2 14 2h1l5 2q6 1 5 2 0 2-7 2h-7v-1h-5q-4-1-10-1l-5-2h-2q-2 0-3-1-2 0 0-2zm152 0q0-2 4-2 3 0 3 2t-4 2-3-2zm-11 0h7v3h-1l-7 1q-6 0-6-2t7-2zm-31 5-1-3 5 1q6 2 6 4 1 1 5 1l4 1h4q4 1 4 2 0 2-1 2h-8l-4-1h-3q-3-1-5-1l-2-2h-1q-1 0-1-1-1-1-2-3zm-22 1 10 1 3 1q3 1 4 2v1h-9q-10 0-12-1l-4-2q-1-2 8-2zm86 9h-4l-4-3q-5-2-4-4 0-1 6-1 5 0 8 3 4 2 3 4 0 2-5 1zm-13 2v1h-3q-3-1-7-3t-5-5q-2-2 2-2 3-1 5 1t5 4q2 3 3 4zm-83-2v2h-4q-4 0-5-1t-2-3q0-2 2-2t5 1 3 2q1 0 1 1zm66 12h-2l-4-2q-4-3-5-4-1-2 6-2 7 1 7 4 0 4-2 4zm12-4q2 0 2 2t-2 2q-3 1-3-2 0-2 3-2zm32 14h-1l-3-1q-3-1-4-1h-2l-4-3q-4-3-3-5t7-2q5 0 9 4 3 4 4 6 0 1-1 1-1 1-2 1zm-66-5q1-1 6 2 4 2 5 4 0 3-3 3-2 0-4-1-2-2-4-5t0-3zm21 10h-1v-5q0-4 4-4 3 0 2 3t-2 5q-2 2-3 1zm32 1v1h-3l-8-2q-3-1-6-4-2-3-2-4t6-1 9 4q3 5 4 6zm12-3 4 1q1 0 2 6 1 5-3 5-4-1-7-3t-3-6q-2-4 1-4 2 0 6 1zm-59 8q-1-3 2-1 4 0 4 2 0 1-3 1-3 1-3-2zm30 8-1 1h-3l-4-3q-4-2-5-4 0-3 7-2 6 1 7 3 1 3 0 4 0 1-1 1zm5-5q-1-4 3-3t10 4 6 7-6 3-9-4-4-7z" fill="#484449" fill-rule="evenodd" stroke="#484449"/>
 <path d="m558 358h1q1 0 5 1 5 1 9 2t3 2q0 1-14 0l-15-1h-1q-2-1-2-2t7-1l7-1z" fill="#c2bdc5" fill-rule="evenodd" stroke="#c2bdc5"/>
 <path d="m386 388h3l5 3q6 3 7 3h1l1 1h1l1 1q1 1 1 2v1h-4q-3-1-10-1-6 0-12 2h-7l-3 1-4 1h-2v1h-2q-2 1-11 3l-9 2h-1v1h-1l-1 1-5 3q-4 3-5 5-1 3 0 3l1 1h4q3 0 8-3l4-3 10-3q11-3 14-3h4l14 3q14 3 17 3h3l4 1 5 1h-1v1l-1 1h-1v2h-12l1 1 1 1h1v1h-1q-1-1-10-3l-9-2 5 4q6 4 7 4t2 1l1 1h2v1h1v1h2v1h1v1h1-15l-4-2h-1l-1-1-1-1h-1q0-1-1-2-1 0-9-2t-10-1l-3 1h-1l-1 1h-1v4h1v1h1q2 0 2 1h-2l-2 1h-1v1h-1v1h-1v1h-1v1l-1 2-1 2v1l1 1 1 1v1h-2l-1-1-1-1h-2v-3q0-3 1-6l1-3h-1q-1 0-13-1l-12-1-2 1-1 1h-1v1h-1v1h1l1 1 1 1 5 1q5 1 7 2h2v4h-1v1h-1v3h-2v-3h-4q-4 0-7-1t-6-5-5-4h-1v-1q1-1 1-3t-1-2-1-2l-1-1h-3l-9 3q-6 2-13 3l-7 1h-3q-2 0-12 2h-10l-3 1h-3v-4h1v-1h1l2-1 1-1 7-2q7-4 12-4 4 0 4-1l4-2q5-1 13-1t10-1l2-1h1v-1h1v-1h1v-2q0-1-2-2-3-2-2-4l1-2h1q2-1 2-3 0-1 40-7t42-6zm-70 22h5q1 0 1 3 1 2-7 5-8 2-7-1v-3h1l3-2q2-2 4-2z" fill="#3c3635" fill-rule="evenodd" stroke="#3c3635"/>
 <path d="m755 594-15 8-15 8v1h-1v1h-2q0-1-1-2h-1l1-1 1-1h1l1-1 1-1h2l1-1 1-1h1l12-6q13-6 14-6v1l-1 1z" fill="#9d8767" fill-rule="evenodd" stroke="#9d8767"/>
 <path d="m301 404-1 2q-1 2 2 4 2 1 2 2v2h-1v1h-1v1h-1l-2 1q-2 1-10 1t-13 1l-4 2h-2l-2-1h-1v-1h-1v-2h1v-1h-1v-1h-1v1h-2l1-1v-1h10q9 0 16-4t8-6q2-3 1-3h-1 2q2 0 2 1t-1 2z" fill="#716d73" fill-rule="evenodd" stroke="#716d73"/>
 <path d="m319 290q3 1-1 2-4 2-4 0 1-2 2-2h3z" fill="#767585" fill-rule="evenodd" stroke="#767585"/>
 <path d="m383 433h1l1 1h1l1 4q1 3-1 4-1 0-2 1h-2v3h1l1 1 1 1h12l-1 1v1h-2q-2 0-6 1-5 1-7-1-1-1-2-6t-4-6l-4-2h-5v-1h-1v-1h13q4-1 5-1z" fill="#535154" fill-rule="evenodd" stroke="#535154"/>
</svg>
