<?xml version="1.0" encoding="UTF-8"?>
<svg viewBox="0 0 212.5 215" xmlns="http://www.w3.org/2000/svg">
 <g transform="matrix(1.25,0,0,-1.25,0,215)">
  <g transform="scale(.24)">
   <path d="m428.12 40.004c6.832-13.336 22.832-22.668 25.164-36.668-4.332 2.832-8.5 5.832-11.664 10-11.668 15.332-31.5 14.668-31 42.832-2.836-1.5-5.5-3.5-7.668-5.5 4 5 6.5 29.5 5.168 38.668-4 27.832-12.336 55.336-17.168 82.668-3.832 0.5-5.168 3.168-7.168 6.168-11.164 15.5 13.5 28.164-0.164 38.332-5-4-10.668-7.5-16.836-10.168-11.668-13.164-25.332-23.332-42-26.164-10-8.168-21.668-13.668-34.832-12.668-11.168-6.668-23.168-10.5-32.836-7-14.5-6.668-30.664-8.832-48.5-2.832-3.832-2.336-7.832-3.668-12.5-3.5-21.832-11.668-45.664-2-63.5-17.836 2.5 5.168 5.5 10 8.836 14.668-6.5 8.168-6.668 19.832-0.168 28-7.832 16.332 8.832 40.832 18.668 52.668-4.836 13.832 15.664 23 25 29-4.168 3.664 0.832 10 6.832 15.164l-6.332 3.168 2.332 9.5c-15.668-1.168-29.668-10.5-36.832-24.5-1 7-0.836 14 0.664 21-4.5-3.168-8.164-7.332-10.664-12.168-5.168 4.168-9.5 9.336-12.668 15.168-26.332-4.668-128.17-13.5-118 18-8.168 5.5-3.836 14.168 5.164 22-1.164 3.332 1.168 7 9.168 10.832-1.668 4 0.332 8.836 9.5 14.168 18.668 11 21.836 16.332 45 18.832 29.668 33.5 64 9.668 120.84 19v4l11.664 1.168-1.164 4.332c14.332-4.164 17.832 19.336 29.664 15.336 4.336 8.164 9.668 7 16.668 16.5 59.332 80.332 167.5 109.5 234 101.67 61-7 87.336 40.332 84.336 91.164-11.5 24.668-10.168 40.336 5.164 51.5 0.336 30.668 28.836 43.668 55.836 33.336 23-9 31.332-9.836 32.332-23.336 7.168-2.164 14.168-8.164 15.832-13.832 14.336-6.5 23.504-25.5 13.168-39.668 1.5 8.668-8 18.836-26.668 21.836 2.836-13.168 10.836-25.836 5.336-39.336-3 11.836-13.5 14.336-22.5 20-3.336-2-7.168-2.832-11-2.832l-2.168-2.5c7-18.332-3.668-37.5-3.168-56 0.5-14 26-44.332 6.5-47.668 5.5-9.5 6.5-28.332-8.164-29.332 33.5-135.5 21.664-259.17-143.5-281-2-9.668-14.336-4.336-19.336-21.336-4.332-14.664-5.332-18.164-10.332-22-3-27.164-16-88.5 12.5-105.17l10.332 1.5c14.168 2.1679 13.5-1.5 28.168-3-7.168 0-14.168-1.6641-20.668-5 12.168-2.6641 25-4 34-10l-56 7.1679c9.5-10.332 20.168-19.832 31.668-27.832-10.332 6-62.668 26.664-58 42.332-3.5-0.332-6.832-2.332-9-5-1 21.168 14.332 22.168 2.168 47.332 14.832-4.332 6.164 36.836 6.5 56.004-19.168 22.5 2.164 23-1.836 39-5.164-1.668-9.5-6.336-14.664-3.668 1.664-2.668-4-9.332-8.336-10-13.164-2-4.332-19.668-12.332-24.332 3.332-29.5 11.332-99.836 26.832-119.17 16-5.168 32.168-11 48.668-17.5l-33.668 3.6641c11-8.1641 23.5-15.164 32.336-24.832-18.668 5.5-34.5 18.832-53 25.668" fill="#b38b5f"/>
   <path d="m428.12 40.004c6.832-13.336 22.832-22.668 25.164-36.668-4.332 2.832-8.5 5.832-11.664 10-11.668 15.332-31.5 14.668-31 42.832-2.836-1.5-5.5-3.5-7.668-5.5 4 5 6.5 29.5 5.168 38.668-4 27.832-12.336 55.336-17.168 82.668-3.832 0.5-5.168 3.168-7.168 6.168-11.164 15.5 13.5 28.164-0.164 38.332-5-4-10.668-7.5-16.836-10.168-11.668-13.164-25.332-23.332-42-26.164-10-8.168-21.668-13.668-34.832-12.668-11.168-6.668-23.168-10.5-32.836-7-14.5-6.668-30.664-8.832-48.5-2.832-3.832-2.336-7.832-3.668-12.5-3.5-21.832-11.668-45.664-2-63.5-17.836 2.5 5.168 5.5 10 8.836 14.668-6.5 8.168-6.668 19.832-0.168 28-7.832 16.332 8.832 40.832 18.668 52.668-4.836 13.832 15.664 23 25 29-4.168 3.664 0.832 10 6.832 15.164l-6.332 3.168 2.332 9.5c-15.668-1.168-29.668-10.5-36.832-24.5-1 7-0.836 14 0.664 21-4.5-3.168-8.164-7.332-10.664-12.168-5.168 4.168-9.5 9.336-12.668 15.168-26.332-4.668-128.17-13.5-118 18-8.168 5.5-3.836 14.168 5.164 22-1.164 3.332 1.168 7 9.168 10.832-1.668 4 0.332 8.836 9.5 14.168 18.668 11 21.836 16.332 45 18.832 29.668 33.5 64 9.668 120.84 19v4l11.664 1.168-1.164 4.332c14.332-4.164 17.832 19.336 29.664 15.336 4.336 8.164 9.668 7 16.668 16.5 59.332 80.332 167.5 109.5 234 101.67 61-7 87.336 40.332 84.336 91.164-11.5 24.668-10.168 40.336 5.164 51.5 0.336 30.668 28.836 43.668 55.836 33.336 23-9 31.332-9.836 32.332-23.336 7.168-2.164 14.168-8.164 15.832-13.832 14.336-6.5 23.504-25.5 13.168-39.668 1.5 8.668-8 18.836-26.668 21.836 2.836-13.168 10.836-25.836 5.336-39.336-3 11.836-13.5 14.336-22.5 20-3.336-2-7.168-2.832-11-2.832l-2.168-2.5c7-18.332-3.668-37.5-3.168-56 0.5-14 26-44.332 6.5-47.668 5.5-9.5 6.5-28.332-8.164-29.332 33.5-135.5 21.664-259.17-143.5-281-2-9.668-14.336-4.336-19.336-21.336-4.332-14.664-5.332-18.164-10.332-22-3-27.164-16-88.5 12.5-105.17l10.332 1.5c14.168 2.1679 13.5-1.5 28.168-3-7.168 0-14.168-1.6641-20.668-5 12.168-2.6641 25-4 34-10l-56 7.1679c9.5-10.332 20.168-19.832 31.668-27.832-10.332 6-62.668 26.664-58 42.332-3.5-0.332-6.832-2.332-9-5-1 21.168 14.332 22.168 2.168 47.332 14.832-4.332 6.164 36.836 6.5 56.004-19.168 22.5 2.164 23-1.836 39-5.164-1.668-9.5-6.336-14.664-3.668 1.664-2.668-4-9.332-8.336-10-13.164-2-4.332-19.668-12.332-24.332 3.332-29.5 11.332-99.836 26.832-119.17 16-5.168 32.168-11 48.668-17.5l-33.668 3.6641c11-8.1641 23.5-15.164 32.336-24.832-18.668 5.5-34.5 18.832-53 25.668z" fill="none" stroke="#1f1d20" stroke-width=".83333"/>
   <path d="m428.12 40.004c-1.168 2.5-2.168 5-2.668 7.832" fill="none" stroke="#1f1d20" stroke-width=".83333"/>
   <path d="m433.78 53.004c4.168-5.168 9.5-9.668 15-13.836" fill="none" stroke="#1f1d20" stroke-width=".83333"/>
   <path d="m410.62 56.168c0.164 11.168-0.836 22.168-2.5 33.168" fill="none" stroke="#1f1d20" stroke-width=".83333"/>
   <path d="m408.45 86.836 5.5 0.5" fill="none" stroke="#1f1d20" stroke-width=".83333"/>
   <path d="m412.62 98.336-5.668-0.832" fill="none" stroke="#1f1d20" stroke-width=".83333"/>
   <path d="m404.12 111.67c2.164-1.332 4.664-1.332 6.832-0.164" fill="none" stroke="#1f1d20" stroke-width=".83333"/>
   <path d="m407.95 127.67c-2-1.164-4.668-1.5-7.168-1.164" fill="none" stroke="#1f1d20" stroke-width=".83333"/>
   <path d="m398.281,137.672c2.668-.836 5.5-.668 8,.332" fill="none" stroke="#1f1d20" stroke-width=".83333"/>
   <path d="m404.12 145.67c-2.336-0.668-4.836-1.168-7.5-0.836" fill="none" stroke="#1f1d20" stroke-width=".83333"/>
   <path d="m394.45 154.34c2.332-1.164 5-1.332 7.668-0.5" fill="none" stroke="#1f1d20" stroke-width=".83333"/>
   <path d="m399.45 163.67h-7" fill="none" stroke="#1f1d20" stroke-width=".83333"/>
   <path d="m390.95 172c4.832-0.668 11.168-2.668 16 0.168" fill="none" stroke="#1f1d20" stroke-width=".83333"/>
   <path d="m444.12 171.17c3.5-4.168 14.5-1.168 18.332 1.664" fill="none" stroke="#1f1d20" stroke-width=".83333"/>
   <path d="m451.449,163.672c-2.332-.5-4.832-.668-7.168-.5" fill="none" stroke="#1f1d20" stroke-width=".83333"/>
   <path d="m444.949,155.504c2.5-.832 5-.668 7.5.5" fill="none" stroke="#1f1d20" stroke-width=".83333"/>
   <path d="m452.45 144c-2.332-0.668-4.5-0.5-6.668 0" fill="none" stroke="#1f1d20" stroke-width=".83333"/>
   <path d="m446.281,134.172c2.336-.336 4.5,0 6.5.832" fill="none" stroke="#1f1d20" stroke-width=".83333"/>
   <path d="m452.449,124.336c-2.168-.664-4.5-.5-6.5.5" fill="none" stroke="#1f1d20" stroke-width=".83333"/>
   <path d="m444.281,118.168c2.5-.832 5.168-.832 7.668-.164" fill="none" stroke="#1f1d20" stroke-width=".83333"/>
   <path d="m449.449,106.836c-2.832-.668-5.832-.5-8.5.168" fill="none" stroke="#1f1d20" stroke-width=".83333"/>
   <path d="m442.281,96.668c2.336-.6641 4.668-.6641 7,0" fill="none" stroke="#1f1d20" stroke-width=".83333"/>
   <path d="m464.45 65.668c2-2.5 4.168-5 6.5-7.5" fill="none" stroke="#1f1d20" stroke-width=".83333"/>
   <path d="m492.78 61.168c-6.332 1.5-12.664 3.3359-17.832 6.5" fill="none" stroke="#1f1d20" stroke-width=".83333"/>
   <path d="m442.28 210.17c15.668 5.832 33.168 3.832 49.836 6" fill="none" stroke="#1f1d20" stroke-width=".83333"/>
   <path d="m450.45 329.67c5.5-0.168 22.332 3 21.168 11.164" fill="none" stroke="#1f1d20" stroke-width=".83333"/>
   <path d="m468.95 335c37.668 5.332 30.5 36.5 55.668 45.332 26.332 9.336 20 34 31.164 53.5 14.668 25.836 37.5 45.836 43.668 76.168" fill="none" stroke="#1f1d20" stroke-width=".83333"/>
   <path d="m575.12 625c19-35.832 24.832-53.164 18.332-93-5.668-34.5 37.5-35.332 27.668 17" fill="none" stroke="#1f1d20" stroke-width=".83333"/>
   <path d="m616.28 512.67c3.336-10.168 8.168-16.332 19.336-15.5" fill="none" stroke="#1f1d20" stroke-width=".83333"/>
   <path d="m632.62 539.67c2.832-9.168-0.336-15.168-10.5-12.5" fill="none" stroke="#1f1d20" stroke-width=".83333"/>
   <path d="m632.62 529.84c1.832-2.5 7-4.168 11.164-3.336" fill="none" stroke="#1f1d20" stroke-width=".83333"/>
   <path d="m629.28 582.67c-2 14.168-4 30.832 3 43.832" fill="none" stroke="#1f1d20" stroke-width=".83333"/>
   <path d="m640.45 630.17c-7-7.668-32.5-4.332-42.832 7.168" fill="none" stroke="#1f1d20" stroke-width=".83333"/>
   <path d="m601.95 654.34c8-14.168 25-22.168 40.668-21.668" fill="none" stroke="#1f1d20" stroke-width=".83333"/>
   <path d="m670.78 654.84c-14.164 2.164-20.5 3.332-34.332-2.668 3.832 16.668 17.5 10.332 23.5 16.668 3.832 4.164 18.668 6.5 24.332 3.832" fill="none" stroke="#1f1d20" stroke-width=".83333"/>
   <path d="m668.45 686.5c-19.168 5.668-19.668-15.832-2.168-14.332" fill="none" stroke="#1f1d20" stroke-width=".83333"/>
   <path d="m638.28 653c-0.5-3.832 14.5-17 15.336-17.5" fill="none" stroke="#1f1d20" stroke-width=".83333"/>
   <path d="m664.12 655.84c3.5-7 5.332-14.668 5.664-22.336-8.332 7.5-20.5 10.668-25.5 21.668" fill="none" stroke="#1f1d20" stroke-width=".83333"/>
   <path d="m623.78 676.84c7.668 0 6.836 4.332 15.668 6-7-0.336-6.5 9.332-15.668 9.332-11 0-6.664-10.5-15.5-11.5 5.5 0 11.168-3.832 15.5-3.832" fill="none" stroke="#1f1d20" stroke-width=".83333"/>
   <path d="m617.28 678.5c-2 2.168-2.832 5.168-2.164 8" fill="none" stroke="#1f1d20" stroke-width=".83333"/>
   <path d="m631.62 688.5c1.664-3.332 1-7.332-1.5-10" fill="none" stroke="#1f1d20" stroke-width=".83333"/>
   <path d="m623.78 680c3.5 0 5.668 3.836 3.836 6.836-1.668 3-6 3-7.836 0-1.664-3 0.336-6.836 4-6.836" fill="none" stroke="#1f1d20" stroke-width=".83333"/>
   <path d="m623.781,680.34c3.168,0 5.336,3.5 3.668,6.332s-5.832,2.832-7.332,0c-1.668-2.832.332-6.332 3.664-6.332" fill="none" stroke="#1f1d20" stroke-width=".83333"/>
   <path d="m623.78 680.67c3 0 4.836 3.332 3.336 5.832-1.5 2.668-5.336 2.836-6.836 0-1.5-2.5 0.336-5.832 3.5-5.832" fill="none" stroke="#1f1d20" stroke-width=".83333"/>
   <path d="m623.78 680.84c2.836 0 4.668 3.164 3.168 5.664-1.332 2.5-5 2.5-6.5 0s0.5-5.664 3.332-5.664" fill="none" stroke="#1f1d20" stroke-width=".83333"/>
   <path d="m623.78 681.17c2.668 0 4.336 2.832 3 5.168-1.5 2.164-4.664 2.332-6 0-1.5-2.336 0.336-5.168 3-5.168" fill="none" stroke="#1f1d20" stroke-width=".83333"/>
   <path d="m623.781,681.34c2.5,0 4,2.664 2.668,4.832-1.168,2.168-4.332,2.168-5.5,0-1.332-2.168.332-4.832 2.832-4.832" fill="none" stroke="#1f1d20" stroke-width=".83333"/>
   <path d="m623.78 681.67c2.168 0 3.668 2.332 2.5 4.332-1.164 2-4 2.168-5.164 0-1-2 0.332-4.332 2.664-4.332" fill="none" stroke="#1f1d20" stroke-width=".83333"/>
   <path d="m623.781,681.84c2,0 3.336,2.332 2.336,4.164-1.168,1.668-3.668,1.668-4.668,0-1.168-1.832.168-4.164 2.332-4.164" fill="none" stroke="#1f1d20" stroke-width=".83333"/>
   <path d="m623.781,682.172c1.836,0 3,2 2,3.668-1,1.5-3.164,1.5-4.164,0-.836-1.668.164-3.668 2.164-3.668" fill="none" stroke="#1f1d20" stroke-width=".83333"/>
   <path d="m623.781,682.34c1.668,0 2.668,1.832 1.836,3.332-.836,1.5-3,1.5-3.836,0-.832-1.5.336-3.332 2-3.332" fill="none" stroke="#1f1d20" stroke-width=".83333"/>
   <path d="m623.781,682.672c1.5,0 2.336,1.668 1.5,2.832-.664,1.336-2.5,1.336-3.164,0-.836-1.332.164-2.832 1.664-2.832" fill="none" stroke="#1f1d20" stroke-width=".83333"/>
   <path d="m623.78 683c1.168 0 2 1.336 1.336 2.5-0.668 1-2.168 1-2.836 0-0.664-1.164 0.168-2.5 1.5-2.5" fill="none" stroke="#1f1d20" stroke-width=".83333"/>
   <path d="m623.781,683.172c1,0 1.668,1.168 1.168,2.168-.668.832-1.832,1-2.5,0-.5-1 .168-2.168 1.332-2.168" fill="none" stroke="#1f1d20" stroke-width=".83333"/>
   <path d="m623.781,683.504c.836,0 1.336.836 1,1.668-.5.832-1.664.668-2,0-.5-.832.168-1.668 1-1.668" fill="none" stroke="#1f1d20" stroke-width=".83333"/>
   <path d="m623.781,683.672c.5,0 1,.832.668,1.332s-1,.668-1.5,0c-.332-.5 0-1.332.832-1.332" fill="none" stroke="#1f1d20" stroke-width=".83333"/>
   <path d="m623.781,684.004c.5,0 .668.5.5,1-.332.336-.832.336-1.164,0-.168-.5.164-1 .664-1" fill="none" stroke="#1f1d20" stroke-width=".83333"/>
   <path d="m623.781,684.172c.336,0 .5.332.336.668-.168.164-.668.164-.668,0-.168-.336 0-.668.332-.668" fill="none" stroke="#1f1d20" stroke-width=".83333"/>
   <path d="m623.781,684.504c.168,0 .168,0 .168.168-.168.168-.332,0-.332,0-.168-.168 0-.168.164-.168" fill="none" stroke="#1f1d20" stroke-width=".83333"/>
   <path d="m480.95 338.17c-30.332-21.336-15.668-58.836-58.5-58.668" fill="none" stroke="#1f1d20" stroke-width=".83333"/>
   <path d="m428.78 279.84c-12.5-22.5-25.164-47.332-45.164-63.332" fill="none" stroke="#1f1d20" stroke-width=".83333"/>
   <path d="m366.78 206.34c17.836 20 31.336 47 43.836 66.168" fill="none" stroke="#1f1d20" stroke-width=".83333"/>
   <path d="m403.78 272.17c18.168-2.336 27 18.332 31.668 32.332" fill="none" stroke="#1f1d20" stroke-width=".83333"/>
   <path d="m442.62 283.67c-8-17.336-18-30.836-32-35.5" fill="none" stroke="#1f1d20" stroke-width=".83333"/>
   <path d="m324.78 180.17c10.332 8.164 19.168 19.164 26.668 28.664" fill="none" stroke="#1f1d20" stroke-width=".83333"/>
   <path d="m320.78 196c-5.832-8.832-17.832-20.668-30.832-28.5" fill="none" stroke="#1f1d20" stroke-width=".83333"/>
   <path d="m257.11 160.5c32.836 15.332 58 54.332 79.336 80.5" fill="none" stroke="#1f1d20" stroke-width=".83333"/>
   <path d="m222.28 168.67c-4.332-4-8.832-8.168-13.668-11" fill="none" stroke="#1f1d20" stroke-width=".83333"/>
   <path d="m196.11 154.17-5.664 1.164" fill="none" stroke="#1f1d20" stroke-width=".83333"/>
   <path d="m141.45 150.84c4.832 6.5 10.5 12.336 16.664 17.336" fill="none" stroke="#1f1d20" stroke-width=".83333"/>
   <path d="m141.28 179c7.5-15.832 32-13.5 32 2.5" fill="none" stroke="#1f1d20" stroke-width=".83333"/>
   <path d="m159.95 231.67c3.664-11 18.5-5 26.164-3.336" fill="none" stroke="#1f1d20" stroke-width=".83333"/>
   <path d="m245.61 291.17c0.836-6.336 7.836-9.836 13.336-6.668-7.336-8 6.164-21.332 14.5-17.168-3.336-4.5 1.664-6.164 19.5-9.5 7.832-1.5 26.164-2.832 27.164 9.5" fill="none" stroke="#1f1d20" stroke-width=".83333"/>
   <path d="m317.45 261.17c9.832-4.336 23.164 0.832 25.664 11.664" fill="none" stroke="#1f1d20" stroke-width=".83333"/>
   <path d="m191.78 275.84c4.5 3.836 9.668 6.836 11.5 7.5 5.5 32.336 46 42.168 63 71" fill="none" stroke="#1f1d20" stroke-width=".83333"/>
   <path d="m412.12 497.84c-69.336-20.836-103-87.836-152-133.67 6.168-24.668 97-54.336 98.504-26.168" fill="none" stroke="#1f1d20" stroke-width=".83333"/>
   <path d="m351.45 328.5c13.168-5.832 17.5-7.168 24.5 6.168" fill="none" stroke="#1f1d20" stroke-width=".83333"/>
   <path d="m369.95 326.17c17.332-11.336 15.5 2.664 27.668 9" fill="none" stroke="#1f1d20" stroke-width=".83333"/>
   <path d="m128.28 288c-2.832 5.168-4.832 10.832-5.668 16.5 2.668 2.332 6 3.832 9.5 4.5l-3.5 6.168c-12.664 0.164-12.332 16.832-7.164 25-6.336 6.832 0.832 15 6.664 19" fill="none" stroke="#1f1d20" stroke-width=".83333"/>
   <path d="m10.281 306c3.332-2.168 8.832-4 16.664-4.832l53.836-6.668" fill="none" stroke="#1f1d20" stroke-width=".83333"/>
   <path d="m60.781 309c-7.8321 2.168-42 9.168-45.336 19" fill="none" stroke="#1f1d20" stroke-width=".83333"/>
   <path d="m24.613 338.84c3.168-7.164 18-12 27.836-13.664" fill="none" stroke="#1f1d20" stroke-width=".83333"/>
   <path d="m79.113 371.84c11.168 1.168 22.668 0.336 34-2.664" fill="none" stroke="#1f1d20" stroke-width=".83333"/>
   <path d="m238.95 413.17 1.164 2.5" fill="none" stroke="#1f1d20" stroke-width=".83333"/>
   <path d="m390.95 172c4.832-0.668 11.168-2.668 15.832 0.168 3.5-29.5 11.5-99.836 27-119.17 16-5.168 32.168-11 48.5-17.5l-33.5 3.6641c11-8.1641 23.5-15.164 32.336-24.832-18.668 5.5-34.668 18.832-53 25.668 6.832-13.336 22.832-22.668 25.164-36.668-4.332 2.832-8.664 5.832-11.664 10-11.668 15.332-31.5 14.668-31 42.832-2.836-1.5-5.5-3.5-7.668-5.5 3.832 5 6.5 29.5 5.168 38.668-4 27.832-12.336 55.336-17.168 82.668" fill="#f5804b"/>
   <path d="m390.95 172c4.832-0.668 11.168-2.668 15.832 0.168 3.5-29.5 11.5-99.836 27-119.17 16-5.168 32.168-11 48.5-17.5l-33.5 3.6641c11-8.1641 23.5-15.164 32.336-24.832-18.668 5.5-34.668 18.832-53 25.668 6.832-13.336 22.832-22.668 25.164-36.668-4.332 2.832-8.664 5.832-11.664 10-11.668 15.332-31.5 14.668-31 42.832-2.836-1.5-5.5-3.5-7.668-5.5 3.832 5 6.5 29.5 5.168 38.668-4 27.832-12.336 55.336-17.168 82.668z" fill="none" stroke="#200e05" stroke-width=".83333"/>
   <path d="m462.28 172.84c-2.832-27.164-15.832-88.5 12.5-105.17l10.5 1.5c14.168 2.1679 13.5-1.5 28.168-3-7.168 0-14.332-1.6641-20.668-5 12-2.6641 25-4 34-10l-56 7.1679c9.5-10.332 20.168-19.832 31.668-27.832-10.332 6-62.668 26.664-58 42.332-3.668-0.332-6.832-2.332-9-5-1 21.168 14.332 22.168 2.168 47.332 14.832-4.332 6.164 36.836 6.5 56.004 3.5-4.168 14.5-1.168 18.164 1.664" fill="#f5804b"/>
   <path d="m462.28 172.84c-2.832-27.164-15.832-88.5 12.5-105.17l10.5 1.5c14.168 2.1679 13.5-1.5 28.168-3-7.168 0-14.332-1.6641-20.668-5 12-2.6641 25-4 34-10l-56 7.1679c9.5-10.332 20.168-19.832 31.668-27.832-10.332 6-62.668 26.664-58 42.332-3.668-0.332-6.832-2.332-9-5-1 21.168 14.332 22.168 2.168 47.332 14.832-4.332 6.164 36.836 6.5 56.004 3.5-4.168 14.5-1.168 18.164 1.664z" fill="none" stroke="#200e05" stroke-width=".83333"/>
   <path d="m635.617,497.172c-11.168-.832-16,5.332-19.5,15.5-9.668-11.168-26.336-3-22.836,19.332 6.668,39.836.836,57.168-18.164,93-11.5,24.668-10.336,40.336 5,51.5 .332,30.668 29,43.668 55.832,33.336 23-9 31.5-9.836 32.5-23.336 7-2.164 14.168-8.164 15.832-13.832-5.664,2.668-20.5.332-24.332-3.832-6-6.336-19.668,0-23.5-16.668 .5.332 1.168.5 1.668.832-.336-3.832 14.664-17 15.5-17.5-3.5-2-7.168-2.832-11-2.832l-2.168-2.5c7-18.332-3.668-37.5-3.168-56 .336-14 26-44.332 6.336-47.668 5.664-9.5 6.5-28.332-8-29.332" fill="#f5804b"/>
   <path d="m635.617,497.172c-11.168-.832-16,5.332-19.5,15.5-9.668-11.168-26.336-3-22.836,19.332 6.668,39.836.836,57.168-18.164,93-11.5,24.668-10.336,40.336 5,51.5 .332,30.668 29,43.668 55.832,33.336 23-9 31.5-9.836 32.5-23.336 7-2.164 14.168-8.164 15.832-13.832-5.664,2.668-20.5.332-24.332-3.832-6-6.336-19.668,0-23.5-16.668 .5.332 1.168.5 1.668.832-.336-3.832 14.664-17 15.5-17.5-3.5-2-7.168-2.832-11-2.832l-2.168-2.5c7-18.332-3.668-37.5-3.168-56 .336-14 26-44.332 6.336-47.668 5.664-9.5 6.5-28.332-8-29.332z" fill="none" stroke="#200e05" stroke-width=".83333"/>
   <path d="m644.12 655.17c7.164 2 12.5 1.668 20 0.668 3.5-7 5.332-14.668 5.5-22.336-8.336 7.5-20.5 10.668-25.5 21.668" fill="#f5804b"/>
   <path d="m644.12 655.17c7.164 2 12.5 1.668 20 0.668 3.5-7 5.332-14.668 5.5-22.336-8.336 7.5-20.5 10.668-25.5 21.668z" fill="none" stroke="#200e05" stroke-width=".83333"/>
   <path d="m639.45 682.84c-8.832-1.668-8.168-6-15.832-6-4.336 0-9.836 3.832-15.336 3.832 8.836 1 4.5 11.5 15.336 11.5 9.332 0 8.832-9.668 15.832-9.332" fill="none" stroke="#200e05" stroke-width=".83333"/>
   <path d="m631.62 688.5c1.664-3.332 1-7.332-1.5-10" fill="none" stroke="#200e05" stroke-width=".83333"/>
   <path d="m617.28 678.5c-2 2.168-2.832 5.168-2.164 8" fill="none" stroke="#200e05" stroke-width=".83333"/>
   <path d="m623.62 680c3.5 0 5.664 3.836 4 6.836-1.668 3-6 3-7.836 0-1.832-3 0.336-6.836 3.836-6.836" fill="none" stroke="#200e05" stroke-width=".83333"/>
   <path d="m623.62 680.34c3.332 0 5.332 3.5 3.664 6.332-1.5 2.832-5.664 2.832-7.332 0s0.5-6.332 3.668-6.332" fill="none" stroke="#200e05" stroke-width=".83333"/>
   <path d="m623.62 680.67c3.164 0 5 3.332 3.5 5.832-1.5 2.668-5.336 2.836-6.836 0-1.5-2.5 0.336-5.832 3.336-5.832" fill="none" stroke="#200e05" stroke-width=".83333"/>
   <path d="m623.617,680.84c3,0 4.664,3.164 3.332,5.664-1.5,2.5-5.168,2.5-6.5,0-1.5-2.5.332-5.664 3.168-5.664" fill="none" stroke="#200e05" stroke-width=".83333"/>
   <path d="m623.62 681.17c2.832 0 4.332 2.832 3 5.168-1.336 2.164-4.5 2.332-6 0-1.336-2.336 0.5-5.168 3-5.168" fill="none" stroke="#200e05" stroke-width=".83333"/>
   <path d="m623.617,681.34c2.5,0 4,2.664 2.832,4.832s-4.332,2.168-5.5,0c-1.332-2.168.332-4.832 2.668-4.832" fill="none" stroke="#200e05" stroke-width=".83333"/>
   <path d="m623.62 681.67c2.332 0 3.832 2.332 2.664 4.332-1.164 2-4 2.168-5.164 0-1.168-2 0.164-4.332 2.5-4.332" fill="none" stroke="#200e05" stroke-width=".83333"/>
   <path d="m623.617,681.84c2.164,0 3.5,2.332 2.332,4.164-1,1.668-3.5,1.668-4.668,0-1-1.832.336-4.164 2.336-4.164" fill="none" stroke="#200e05" stroke-width=".83333"/>
   <path d="m623.62 682.17c1.832 0 3.164 2 2.164 3.668-1 1.5-3.164 1.5-4.164 0-1-1.668 0.164-3.668 2-3.668" fill="none" stroke="#200e05" stroke-width=".83333"/>
   <path d="m623.617,682.34c1.832,0 2.832,1.832 2,3.332-.836,1.5-3,1.5-3.836,0-1-1.5.336-3.332 1.836-3.332" fill="none" stroke="#200e05" stroke-width=".83333"/>
   <path d="m623.617,682.672c1.5,0 2.5,1.668 1.664,2.832-.664,1.336-2.5,1.336-3.164,0-.836-1.332.164-2.832 1.5-2.832" fill="none" stroke="#200e05" stroke-width=".83333"/>
   <path d="m623.62 683c1.332 0 2.164 1.336 1.5 2.5-0.668 1-2.168 1-2.836 0-0.664-1.164 0.168-2.5 1.336-2.5" fill="none" stroke="#200e05" stroke-width=".83333"/>
   <path d="m623.617,683.172c1.164,0 1.832,1.168 1.332,2.168-.668.832-2,1-2.5,0s.168-2.168 1.168-2.168" fill="none" stroke="#200e05" stroke-width=".83333"/>
   <path d="m623.617,683.504c.832,0 1.5.836 1,1.668-.336.832-1.5.668-2,0-.336-.832.164-1.668 1-1.668" fill="none" stroke="#200e05" stroke-width=".83333"/>
   <path d="m623.617,683.672c.664,0 1.164.832.832,1.332s-1.168.668-1.5,0c-.332-.5 0-1.332.668-1.332" fill="none" stroke="#200e05" stroke-width=".83333"/>
   <path d="m623.617,684.004c.5,0 .832.5.664,1-.332.336-1,.336-1.164,0-.336-.5.164-1 .5-1" fill="none" stroke="#200e05" stroke-width=".83333"/>
   <path d="m623.617,684.172c.332,0 .664.332.332.668 0,.164-.5.164-.668,0-.164-.336 0-.668.336-.668" fill="none" stroke="#200e05" stroke-width=".83333"/>
   <path d="m623.617,684.504c.164,0 .332,0 .164.168 0,.168-.164,0-.332,0 0-.168.168-.168.168-.168" fill="none" stroke="#200e05" stroke-width=".83333"/>
   <path d="m668.45 686.5c-19.332 5.668-19.668-15.832-2.168-14.332" fill="none" stroke="#200e05" stroke-width=".83333"/>
   <path d="m642.62 632.67c-15.668-0.5-32.836 7.5-40.668 21.668" fill="none" stroke="#200e05" stroke-width=".83333"/>
   <path d="m597.62 637.34c10.164-11.5 35.832-14.836 42.832-7.168" fill="none" stroke="#200e05" stroke-width=".83333"/>
   <path d="m632.28 626.5c-7-13-5-29.664-3-43.832" fill="none" stroke="#200e05" stroke-width=".83333"/>
   <path d="m643.62 526.5c-4-0.832-9.336 0.836-11 3.336" fill="none" stroke="#200e05" stroke-width=".83333"/>
   <path d="m632.62 539.67c2.832-9.168-0.5-15.168-10.5-12.5" fill="none" stroke="#200e05" stroke-width=".83333"/>
   <path d="m621.12 549c3.332-18.5 0.332-30.332-5-36.332" fill="none" stroke="#200e05" stroke-width=".83333"/>
   <path d="m451.45 163.67-7.168-0.5" fill="none" stroke="#200e05" stroke-width=".83333"/>
   <path d="m444.949,155.504c2.5-.832 5-.668 7.332.5" fill="none" stroke="#200e05" stroke-width=".83333"/>
   <path d="m452.28 144c-2.164-0.668-4.332-0.5-6.5 0" fill="none" stroke="#200e05" stroke-width=".83333"/>
   <path d="m446.281,134.172c2.168-.336 4.5,0 6.5.832" fill="none" stroke="#200e05" stroke-width=".83333"/>
   <path d="m452.281,124.336c-2-.664-4.332-.5-6.332.5" fill="none" stroke="#200e05" stroke-width=".83333"/>
   <path d="m444.281,118.168c2.5-.832 5-.832 7.5-.164" fill="none" stroke="#200e05" stroke-width=".83333"/>
   <path d="m449.281,106.836c-2.832-.668-5.664-.5-8.332.168" fill="none" stroke="#200e05" stroke-width=".83333"/>
   <path d="m442.281,96.668c2.336-.6641 4.668-.6641 7,0" fill="none" stroke="#200e05" stroke-width=".83333"/>
   <path d="m474.78 67.668c5.336-3.1641 11.5-5 18-6.5" fill="none" stroke="#200e05" stroke-width=".83333"/>
   <path d="m470.78 58.336c-2.164 2.3321-4.332 4.668-6.5 7.3321" fill="none" stroke="#200e05" stroke-width=".83333"/>
   <path d="m433.78 53.004c4.168-5.168 9.336-9.668 15-13.836" fill="none" stroke="#200e05" stroke-width=".83333"/>
   <path d="m428.12 40.004c-1.336 2.5-2.168 5-2.668 7.832" fill="none" stroke="#200e05" stroke-width=".83333"/>
   <path d="m410.62 56.168c0 11.168-0.836 22.168-2.5 33.168" fill="none" stroke="#200e05" stroke-width=".83333"/>
   <path d="m408.45 86.836 5.5 0.5" fill="none" stroke="#200e05" stroke-width=".83333"/>
   <path d="m412.62 98.336-5.836-0.832" fill="none" stroke="#200e05" stroke-width=".83333"/>
   <path d="m404.12 111.67c2.164-1.332 4.664-1.332 6.832-0.164" fill="none" stroke="#200e05" stroke-width=".83333"/>
   <path d="m407.95 127.67c-2.168-1.164-4.668-1.5-7.168-1.164" fill="none" stroke="#200e05" stroke-width=".83333"/>
   <path d="m398.281,137.672c2.668-.836 5.5-.668 8,.332" fill="none" stroke="#200e05" stroke-width=".83333"/>
   <path d="m404.12 145.67c-2.336-0.668-5-1.168-7.5-0.836" fill="none" stroke="#200e05" stroke-width=".83333"/>
   <path d="m394.45 154.34c2.332-1.164 5-1.332 7.5-0.5" fill="none" stroke="#200e05" stroke-width=".83333"/>
   <path d="m399.45 163.67h-7" fill="none" stroke="#200e05" stroke-width=".83333"/>
   <path d="m608.281,680.84c4.336.5 5.5,3.164 6.668,5.832-.5-2.832.332-6 2.332-8.168-2.832,1.168-6,2.336-9,2.336" fill="#fddeb6"/>
   <path d="m608.281,680.84c4.336.5 5.5,3.164 6.668,5.832-.5-2.832.332-6 2.332-8.168-2.832,1.168-6,2.336-9,2.336z" fill="none" stroke="#221a15" stroke-width=".83333"/>
   <path d="m639.45 683c-5.168-1-7.168-3-9.332-4.332 2.5 2.668 3 6.668 1.332 10 2.5-2.832 4-5.832 8-5.668" fill="#fddeb6"/>
   <path d="m639.45 683c-5.168-1-7.168-3-9.332-4.332 2.5 2.668 3 6.668 1.332 10 2.5-2.832 4-5.832 8-5.668z" fill="none" stroke="#221a15" stroke-width=".83333"/>
   <path d="m638.117,653.004c-.5-.332-1-.5-1.668-.832 3.832,16.668 17.5,10.332 23.5,16.668 3.832,4.164 18.668,6.5 24.332,4 14.336-6.668 23.504-25.668 13.168-39.836 1.5,8.5-8,18.836-26.668,21.836 2.836-13.168 10.836-26 5.336-39.336-3,11.668-13.5,14.336-22.5,20-.836.5-15.836,13.668-15.5,17.5" fill="#fddeb6"/>
   <path d="m638.117,653.004c-.5-.332-1-.5-1.668-.832 3.832,16.668 17.5,10.332 23.5,16.668 3.832,4.164 18.668,6.5 24.332,4 14.336-6.668 23.504-25.668 13.168-39.836 1.5,8.5-8,18.836-26.668,21.836 2.836-13.168 10.836-26 5.336-39.336-3,11.668-13.5,14.336-22.5,20-.836.5-15.836,13.668-15.5,17.5z" fill="none" stroke="#221a15" stroke-width=".83333"/>
   <path d="m644.28 655.17c7 2 12.5 1.668 19.836 0.668 3.5-7 5.332-14.668 5.664-22.5-8.332 7.664-20.664 10.664-25.5 21.832" fill="#fddeb6"/>
   <path d="m644.28 655.17c7 2 12.5 1.668 19.836 0.668 3.5-7 5.332-14.668 5.664-22.5-8.332 7.664-20.664 10.664-25.5 21.832z" fill="none" stroke="#221a15" stroke-width=".83333"/>
   <path d="m664.117,655.84c2.164-.336 4.332-.668 6.664-1" fill="none" stroke="#221a15" stroke-width=".83333"/>
   <path d="m644.28 655.17c-1.832-0.668-3.832-1.332-6.164-2.168" fill="none" stroke="#221a15" stroke-width=".83333"/>
  </g>
 </g>
</svg>
