<?xml version="1.0" encoding="UTF-8"?>
<svg width="371.71" height="332.34" enable-background="new 0 0 371.712 332.339" viewBox="0 0 371.712 332.339" xmlns="http://www.w3.org/2000/svg">
 <g fill-rule="evenodd">
  <path d="m27.633,258.28-9.286,8.154c.376,8.912 4.016,40.906 14.055,44.796 8.406,1.382 9.788,18.193 15.058,18.823 4.391,1.378 13.299,2.13 19.825,1.003 5.02,1.756 11.669,2.259 11.293-4.013-3.136-6.901-15.309-5.022-18.069-9.035-4.266-3.015-11.669-17.066-10.289-20.579-1.004-10.791 1.756-13.806 7.905-17.066 0-5.88-26.352-17.68-30.492-22.07z" fill="#e6e6e6" stroke="#000" stroke-linecap="round" stroke-linejoin="round" stroke-miterlimit="2.4142" stroke-width=".5569"/>
  <path d="m49.843,296.8c-3.64-.128-6.149-1.382-8.282-4.014l.376-4.771c-5.396-2.259-5.396-8.657-9.536-11.294 .878-2.006.376-2.508-.754-3.762l-2.383,2.636c-3.263.251-3.263-2.135-3.89-4.142-1.506,2.382-2.008,1.506-4.14,3.011 0,1.505-.753,5.897-.753,7.402-.752-4.393-1.38-10.914-1.883-15.056 2.887-3.01 6.526-5.271 9.287-8.282 9.159,8.783 22.963,10.914 29.99,21.582-5.522,2-9.412,7.52-8.032,16.68z" fill="#999"/>
  <path d="m12.826,154.89c-1.631,4.516-5.646,7.527-9.788,10.164 2.384.878 4.769,1.126 6.651-.127 .126,2.26-2.258,3.764-4.518,4.516 1.256,2.637-3.638,3.517-3.514,8.785 1.004-1.378 2.26-4.014 4.142-3.01 1.254,3.388-3.89,5.77-3.389,9.66 1.256-1.254 1.757-1.127 3.389-.752 0,3.64-3.138,6.9-5.522,9.536 0,.881.752,1.254 2.76,1.505-1.38.88-2.886,2.262-2.635,5.145 1.882-3.01 4.643-4.265 6.902-5.268-4.016,4.516-4.894,8.155-4.894,13.3 1.256-2.632 2.259-4.894 4.894-5.145 .25,4.894-4.769,7.903-4.267,12.424 1.255-1.254 1.757-2.76 3.515-2.135-2.134,4.142-5.271,12.925-3.137,17.317 .752-2.636.752-7.278 2.76-8.41 0,.757-1.38,5.523-.627,8.784 4.015,4.019 1.38,8.661 4.517,11.544-.752-4.387 2.259-3.512 2.76-1.378 1.507,2.76-1.004,6.021.753,9.661 3.764,2.006 3.012,6.776 4.517,10.165 1.632-.378 3.889-2.007 2.886-3.138 .502-1.756 1.506-1.633.879-3.138 4.391,2.386 5.521,10.918 7.026,13.678 .753.753 2.761,3.764 3.515,4.52 1.254-1.509 2.384-3.894 1.38-5.901 0,3.64 7.779,8.032 9.912,10.166 0-.63.629-2.134.629-3.639 1.379,1.505 5.645,5.897 7.653,6.649h1.38c.753,0 2.133,2.257 2.887,2.887 1.38,0 2.006.752 3.388.752v-2.886c12.924,6.275 25.598,11.921 42.538,8.783 2.634.503 6.399.503 10.164-3.261-4.894-3.015-5.146-6.275-6.525-7.78-1.631-20.83-7.403-14.683-11.168-18.07-12.045-3.385-21.708-14.933-28.86-33.755-14.931-.753-21.331-22.837-26.602-28.355-12.672-8.032-5.27-16.938-17.315-26.727l-5.019-16.062c-1.751-1.97-1.751-1.59-4.01-.96z" stroke="#000" stroke-linecap="round" stroke-linejoin="round" stroke-miterlimit="2.4142" stroke-width=".5569"/>
  <path d="m273.45,202.56c-6.022,15.563-9.033,27.985-9.913,45.678-.626,10.918 2.26,32.623 6.902,43.543 3.011,7.653 19.574,6.772 25.976,6.521 9.661,1.255 15.685,20.707 1.379,21.71-4.142-1.506-13.552-14.81-17.816-10.167-16.062-2.508-21.334-14.303-28.234-33.75-3.136-24.848.377-48.186 7.78-73.028 6.14-4.76 10.91-3.51 13.92-.5z" fill="#d9d9d9" stroke="#000" stroke-linecap="round" stroke-linejoin="round" stroke-miterlimit="2.4142" stroke-width=".5569"/>
  <path d="m126.76,145.98c12.17-12.549 47.556-5.02 63.367-1.382 11.292,2.134 23.089,4.394 31.496,13.301l4.391,15.561 22.086,2.636c-3.891-9.917 6.148-16.315 5.017-23.466 0-9.412-.501-18.445 12.424-12.924 5.646,0 9.161-17.944 10.29-22.462 2.759-11.92-1.63-13.049 7.402-22.209-5.146-10.29-25.473,1.63-35.259-10.541 16.688-7.906 25.22-35.009 31.621-35.009-2.134-8.784 1.882-6.775 11.168-16.187 21.08-3.765 27.604-19.7 39.524-25.849 4.769-.125 12.674,3.264 15.81,6.399 0,6.275-1.881,10.289-4.014,15.309-.881,1.507-5.145,4.016-5.521,4.643-1.006,2.636 2.132,7.778 3.762,7.655 5.772,0 12.172-3.515 17.192-3.013 1.129.376 2.76,1.254 5.02-.25 3.764-2.637 2.133-5.396 4.644-6.65 9.408,3.389.878,12.547-2.135,13.926-2.386,1.631-17.19,15.56-17.691,22.588-1.884,4.892-.629,14.055-7.907,18.695-3.765,2.887-3.765,6.275-4.016,9.665 1.508,2.132 1.258,6.398-.375,6.775 0,4.766-1.381,7.276-4.142,10.789-3.011,3.765 1.13,14.054-5.017,13.176-1.132,3.01-.756,7.404 1.63,10.666-2.888,1.254-3.765-.878-5.145-2.76 0,6.148-.878,9.535-4.017,14.305 0-13.552-3.764-3.516-3.764,4.39-2.635-.752-3.263-1.003-5.522-4.267-1.379,3.89-2.257,6.276 1.383,9.163-2.135,1.126-3.64,1.379-5.772-.629 1.38,2.887 1.632,5.896.628,7.404-1.884-.88-2.26-2.134-4.267-3.012 1.756,3.514.878,10.665-.377,13.177-1.005-2.134-2.761-2.763-4.392-1.76-1.884,5.021-.126,7.657 1.631,10.791 0,2.386-3.515,4.393-7.906,3.891-4.265-.625-8.657,2.888-11.921,7.406-.878,5.52-2.257,6.522-4.643,7.402-4.393-.378-4.264,1.004-7.904,2.258-6.524,15.435-8.658,23.712-10.54,42.412-1.379,12.798.627,17.941 2.509,31.369 1.759,7.279 6.149,23.339 28.61,19.826 12.924.252 13.174,14.805 10.916,20.83-2.007,2.129-7.401,2.385-10.665-.629-7.906,4.14-26.225.879-25.347-4.393-6.023,4.268-18.948-8.78-22.963-18.444-2.636-8.155-4.517-20.83-7.403-30.238-2.133-15.562-3.641-21.834-8.281-38.147-3.013-.251-4.392,3.64-7.028,2.135 3.013-2.007 1.508-3.138-.126-3.892 1.882-2.134 1.759-5.646-.752-7.278 1.884,6.024-5.02,5.897-5.27,10.791-2.384-2.258-.628-3.886-2.133-5.519-.755,3.389-2.385,3.512-2.134,7.274-2.383.379-7.904-1.629-10.54-3.512 .627-3.261.501-6.526-2.76-8.784 .501,2.887-.755,5.021-2.887,1.505-1.756,2.007-1.506,4.393 1.128,5.774-4.64.374-8.28-1.132-11.919-4.27-2.135,1.761-3.766-1.879-7.026-1.505-2.008.506-.377,4.142 1.505,3.891-.627,1.884-3.639,1.003-5.02-.374-1.505-.753-.752-2.509-2.886-4.27-.752,1.004-.251,2.386 0,4.27-1.255-.128-2.259-1.255-3.388-2.888-.878,1.378-.126,2.888.626,4.521-3.262-1.131-4.14-4.269-4.893-5.902-.879,3.138-3.513,2.135-2.886,5.646-2.007-.374-2.258-2.509-2.885-4.515-2.133.374-4.77-1.633-6.148-3.39-.878,1.757-2.51,4.393-6.149,1.506-.753,4.392-.375,7.908 2.761,6.024 1.128,5.268-5.146,4.265-7.154,9.409-6.65,14.805-31.495,16.688-41.909,33.003-5.646,9.409 12.924,39.652 21.708,46.302 2.886,3.388 8.407,3.891 13.426,4.392 3.262.123 6.65,3.635 7.529,9.409 .752,3.267-3.89,4.142-8.659,2.386-7.654,4.013-25.472-1.633-29.738-4.393-6.901-7.279-10.792-8.533-18.07-18.197-7.904-7.776-23.087-33.249-17.566-36.136 9.913-12.42 9.786-10.791 12.547-20.578 0-7.403-4.894-7.403-7.026-12.547 1.505-3.892-2.635-6.65-1.129-8.785-1.255.378-2.134,1.382-1.757,4.018-7.403,5.269-5.773-15.685-6.902-.378-2.258-.502-5.144-2.509-7.654-6.649-1.756-2.637-.878-4.27 1.38-6.527-2.258-.374-4.768,1.506-4.893,6.527-5.772,0-5.772-6.025-5.395-7.904 3.011-.379 4.265-2.386 3.387-5.272-2.008,3.512-5.27,2.007-5.896,7.908-1.129-.757-1.757-1.883-1.883-3.517-1.506-8.282 0-11.169 3.515-16.938-3.515,3.763-7.027,6.9-8.409,3.763 3.639-1.378.251-5.897 2.134-6.649 1.381.127 1.505-2.509 0-3.011-2.008-.251-2.51,1.003-2.76,3.763-4.644-1.628-1.381-5.396-4.267-6.021-1.003-2.258.125-4.894 2.76-7.908-1.755-1.505-3.011-1.004-4.015,1.505-2.51-2.759-3.262-11.794-2.133-15.429-2.384-.629-3.89,1.254-5.646,5.145 1.63-12.049 2.886-21.334 11.794-24.972 29.489,0 59.728-19.825 88.337-13.176 5.04,1.12 6.93,3.01 9.56,8.03z" fill="#e6e6e6" stroke="#000" stroke-linecap="round" stroke-linejoin="round" stroke-miterlimit="2.4142" stroke-width=".5569"/>
  <path d="m188.25,220.51c-.251-2.509-2.008-6.399-5.771-6.399 3.138,3.262-3.013,4.895-2.76,1.506-3.138,2.007-6.651-2.135-4.266-5.145-1.384-1.004-2.763-.753-3.515.752-2.007-.629-3.012-2.257-2.762-5.896 .251-2.135-1.756-3.891-4.266-2.888 2.009,1.255 2.887,3.64 0,5.145-4.14-5.773-6.023,2.765-7.403-8.784 .502-6.021-4.266-3.512-4.894-8.779-1.756,3.01-3.89,2.632-6.525.374-3.889-2.007-7.652-13.929-10.665-13.679 5.645,13.177 6.149,33.003 3.388,42.038 2.761,2.007 3.889,1.254 6.023-1.505 2.383,2.258 3.638,3.261 6.65,3.261 .628,1.127.502,3.138 1.883,4.516-.251-1.88 3.262-4.142 3.513-5.897 2.007,2.509 2.007,4.018 3.514,5.396-.377-2.258.125-3.64.125-4.393 .753.753 2.007,2.637 3.262,3.138-.502-1.632.125-3.261 1.129-4.264 1.632,1.756 1.883,5.646 5.021,6.147-.627-1.382-1.883-7.027 3.26-4.392 1.507.374 3.515,1.756 4.393.629 3.138,2.883 8.032,5.269 10.415,4.644-1.38-1.01-1.38-4.53.25-5.53m84.32-16.94c-3.638,9.158-10.415,31.241-9.787,50.944-2.76.876-4.77,2.76-6.649,13.423-3.764-15.937 1.757-48.934 10.163-62.11 1.38-2.38 4.4-2.75 6.28-2.25" fill="#ccc"/>
  <path d="m345.34,8.199c-.501-1.756-1.254-4.267-2.383-5.772-2.761-4.142-6.776-1.631-8.784.125-1.129,1.131-5.019,4.518-5.019,6.273 6.902-.123 9.536,5.647 17.066,5.647 1.75-3.135.75-4.891-.89-6.273z" stroke="#000" stroke-linecap="round" stroke-linejoin="round" stroke-miterlimit="2.4142" stroke-width=".5569"/>
  <path d="m38.299,132.55c-3.137,2.134-5.647,3.514-9.035,3.138 1.631,2.508-2.133,5.145-6.023,5.145-2.635.376-4.768,3.763-6.148,5.145 3.262-1.129 2.258.501 4.768.752-1.13,2.383-15.308,8.28-17.442,14.681 3.262-2.257 6.524-4.142 8.407-5.145 3.263,0-.501,2.634-2.76,4.518 1.505.878 2.635.627 4.141,0 0,2.383-2.133,2.759-4.518,3.512 .752,0 1.13,1.632 3.89,1.507-4.016,1.88-1.882,2.509-4.266,5.146 2.384,0 2.635-.255 4.266,1.377-9.411,9.911 1.129,5.774-2.886,13.929h2.886c-1.506-1.756-3.89,11.922-3.514,11.042 .627,0 2.008-1.505 2.76-1.505 0,.752.753,2.258.753,3.763-.753.752-2.133,2.887-1.506,4.392 1.506-.752 4.267-.752 3.513-2.257 0,1.505-.627,2.257-.627,3.763-1.38,1.382-3.889,4.018-3.889,5.396 1.505-1.004 2.633-1.255 3.889-.374-3.638,1.131-5.521,3.639-7.027,7.401 2.008-1.505 2.008.375 4.142,0-2.76,1.757-2.384,5.146-2.008,8.032 1.381-2.135 2.384-.753 4.769-1.633 .501,1.761-3.764,2.76-4.141,6.025 2.133-2.007 3.388-2.386 4.266-1.382-1.631,3.261 2.384,4.141 1.381,8.03 1.128-.25 2.383-1.632 2.133-3.639 1.756,1.004 2.133,4.643 2.007,7.279 1.504-.128 1.504-2.637 2.76-2.887 1.381.63.753,2.006 0,2.887 .753,0 2.133-.63 2.886-.63 0,1.505-1.632,3.39-2.258,4.142 1.38.753 3.638-1.255 5.019-1.255-.752.753-1.38,2.259-1.38,3.641 .628.752 2.133,3.01 2.76,3.762 .628,1.004.127,2.514-1.38,4.27 2.511-.502 4.643-2.637 4.895-4.27 1.255,0 2.133.503 2.133,2.136 .878,1.126.753,2.508 0,4.391 1.631-.879 2.761-2.134 2.761-4.391 1.632,1.756 1.882,5.769 4.016,6.776-.377-2.513 1.505-3.389.878-6.024 2.384.88 3.011,4.894 7.026,3.01-3.262-1.756-2.76-4.894 0-6.649 .252-1.505-1.002-2.007-2.885-1.505-1.507-1.505 1.128-1.756 1.505-2.887-1.505.25-6.275-4.265-6.275-8.156 3.013,3.263 6.526,5.146 10.415,3.641-4.767.251-9.536-8.784-13.926-10.289 2.383-.379 3.638-.252 4.14-2.135-2.51.88-5.145-.502-4.894-3.763-4.517,1.377-7.027.502-8.408-2.888 1.381.753 3.515.379 5.146,1.255-1.381-5.396-6.024-4.014-7.906-5.646 2.385-1.131 3.012-2.509 2.887-4.014-2.259.753-4.644.123-4.267-2.636 0-2.888-.752-5.774-.752-8.032-2.635-.752-4.768-2.258-4.894-5.145 2.008,2.385 3.263,2.135 5.27,1.131-3.011-.752-5.27-6.275-5.27-9.162 1.504,2.011 2.258,3.265 4.768,2.385-3.638-7.151 1.883-13.299-2.635-18.572 .376,2.258-1.507,3.015-2.886,3.015-2.134-5.145 2.886-11.043 5.018-15.31 0-2.887 2.76-4.141 2.76-7.405-1.129-1.254-1.38-1.379-1.38-3.01 2.76-2.636 4.894-3.012 4.894-6.524 .627-1.507 3.515-3.765 4.894-3.765 1.38-1.61 2.76-4.12 2.384-7.51z" fill="#ccc" stroke="#000" stroke-linecap="round" stroke-linejoin="round" stroke-miterlimit="2.4142" stroke-width=".5569"/>
  <path d="m335.56,3.43c.125,0-3.638,1.633-4.518,3.891-.376,1.129 1.508,0 3.514,1.505 .628-2.257 3.138-3.511 3.766-4.141-.25-1.126-1-1.756-2.76-1.255z" fill="#fff" stroke="#000" stroke-linecap="round" stroke-linejoin="round" stroke-miterlimit="2.4142" stroke-width=".5569"/>
  <path d="m270.06,198.05c.375,2.636 2.257,2.257 2.257,5.773-2.508.251-3.264,3.64-4.393,5.519-3.888-2.381-3.765,3.011-1.505,4.644-3.01,1.131-3.513-.251-4.517-2.888-1.255,4.771-3.764,1.761-5.396,5.523-1.128-1.756-.25-4.894-3.639-4.894 1.005,6.522.127,11.293-3.011,13.929 1.004-5.271 1.004-20.327-2.009-9.163-.878-3.01-.878-5.519-3.889-5.646-1.505,2.759.377,5.396 2.133,7.027-4.267-.25-7.152-6.147-9.662-7.903-1.004,4.894 7.655,8.784 6.147,13.299-7.276-11.921-3.135.379-3.135.63-4.643-3.266-4.142-11.292-10.29-13.929 0,3.01 3.638,7.279 3.638,10.914-6.021-14.554-4.14,2.385-1.757,4.771-1.881-.629-4.894-3.01-6.146-4.142 0-.123 7.025,11.166 7.903,12.046-7.277,0-12.045-8.656-12.045-13.3-1.255-2.386-5.646-3.64-9.412-3.389 2.26-2.637 5.9-2.258 10.039-.251-2.509-2.386-5.396-3.015-5.897-5.773 7.027,2.262 4.643-3.887-13.551-13.674 10.541,2.508 5.897-3.517 15.181,0 2.135-3.015-4.891-7.151-6.147-9.537 2.26-1.509 2.887,1.004 5.521,2.386 1.005-3.768-7.653-10.166-6.649-13.305 4.393-.752 4.268-7.652 4.142-10.79 13.803-18.321 11.669,4.14 37.643,4.14 0,3.64 0,12.169-2.383,14.554 7.903-1.254 7.151-1.879 9.662-1.879 0,4.265-.63,7.903-.63,12.168 0,0 3.013,3.891 3.641,4.771 0-.629.627-1.254.627-1.883 1.77,1 5.78.63 7.54.25m41.66-143.8c1.631-6.525 3.638-11.669 6.023-15.309 1.881-2.258-1.004-2.383 0-4.643 2.759-3.765 6.398-3.888 10.163-3.389 2.384-.376 4.518-1.879 4.518-3.386-.377-2.887-4.894-.125-6.022-2.009-.126-3.763 2.76-4.139 2.133-8.155 .752-3.263 4.266-4.642 5.395-7.153-1.253-1.38-2.76-.878-5.02-1.38-3.263,2.258-11.669,9.035-13.678,12.173 2.887,1.631.504,2.634-3.512,5.396 3.011,2.132.878,4.267-2.887,7.027-.377,3.89 4.266,3.263 3.264,8.031-2.26,4.643-2.01,8.657-4.519,11.669-2.007,1.128-2.761,5.017-2.134,8.781 1.65-4.643 2.9-6.023 6.29-7.653m26.22,12.173c1.004-3.013 1.505-6.401 4.142-7.028 5.771-2.383 8.907-7.277 13.425-11.794 3.515-3.389 7.906-3.013 10.666-5.897 3.64-2.26 3.89-8.534-.126-9.662-.878,1.003-.375,4.518-4.016,6.9-1.505.752-3.261-.25-6.398-.125-3.011-.627-12.046,3.765-15.811,2.759-2.383-1.881-3.639-5.268-3.639-7.653 .754-1.254 3.138-2.006 5.397-4.891 .878-1.131 3.762-7.028 4.139-13.929-2.257-.755-4.267,0-6.524-1.756-1.38.75-2.634,1.503-3.89,2.257 1.005,3.263 1.505,4.766.627,6.273 0,0 3.389,1.633 2.761,3.389-1.631.502-2.761.625-3.138,2.759-1.631,6.65-5.521,13.679-3.01,19.325-1.756,1.756-4.644,4.014-4.644,6.273-.878,1.003-2.386,3.638-1.631,5.145 1.004,2.51 5.146,1.254 6.274-1.756 .501-5.02 4.392-3.765 4.517-1.131 1.004,6.777-6.272,12.549-3.389,18.196 1.51-.001 1.64-6.4 4.27-7.654" fill="#d9d9d9"/>
  <path d="m211.58,165.3c.378,4.14-3.763,8.409-8.405,11.419 5.02.128 9.536-2.508 11.292-6.275 0-3.26.628-2.258 2.259-2.258 .879,4.142-.878,7.53-5.019,10.167 1.632.625 5.271-.629 7.403-2.258 .502-.502 2.51-2.134 3.138-3.138 0,.752-.377,9.158-4.393,14.553 6.65-3.763 11.795-9.408 13.426-12.925 3.515,0 9.16,2.134 10.288,6.399 3.014-2.509 4.77-5.647 4.645-8.278 2.635-1.254 5.019-1.633 6.149,1.126 .123-.375 2.76-4.014-.504-8.157 3.39-.249 5.396-1.379 5.897-3.01-8.405-1.379 2.386-9.286 2.386-15.81 2.76-2.762-2.888-3.765-1.885-5.772 8.784,2.007 17.945-5.396 21.46-.627 .123-4.392-2.512-8.031-5.02-11.292 4.894,2.257 9.785.376 10.665,7.904 2.133-6.023.753-8.531-3.89-13.049 5.145,2.634 11.669-1.006 14.305,3.765 1.254,2.132 4.518,1.63 6.273.752-3.515-2.762-1.756-5.147-5.02-8.408 4.643-.753 5.646-1.884 6.524-4.643-2.383.125-5.145,1.38-5.02-1.884-2.634.127-4.141-1.881-2.884-4.39 0-1.633 3.511-5.27 3.511-7.028-5.144-5.393-13.174-5.145-20.324-13.928-16.314,7.906-28.862,6.526-36.641,3.138-7.529,3.012-15.686,6.652-25.977,8.031-33.126,2.258-66.377,3.766-100.63,9.158-3.513-.75-7.78.752-9.035,2.135-10.164-1.003-14.304-4.769-23.716-3.138 6.023.629 7.027,2.762 6.149,4.643-9.913-.376-13.678-.878-19.575-.752 1.381,1.006 3.012,1.507 3.012,3.01-4.14,1.507-6.777.629-10.666-.625 .627,1.756 2.008,2.634 4.894,3.386-2.133,0-6.776-1.254-9.913.878 4.015,0 5.02,2.26 6.4,2.26-6.275,0-12.423,2.007-19.45,1.38 1.38.752 4.141,1.758 4.895,2.508-2.133,0-8.157-.502-10.164-.502 .376.629 4.516,2.135 3.765,2.511-2.134,0-4.894.627-7.027.627 2.258,1.379 5.396,2.759 0,4.393 2.76,1.63 1.128,3.511.125,7.778-2.008,1.254-4.141,3.514-6.023,2.134-1.13,2.637 0,3.013.251,4.267-.754,1.63-3.264,2.258-4.267,4.392 1.129,2.634-.376,5.897-1.003,6.649 4.516-.25 9.034-3.388 11.668-6.147 0,2.258-2.76,5.897-4.267,7.402 4.894,0 10.542-5.144 14.807-5.896-3.764,4.016-9.663,7.655-9.663,13.8 4.894-5.142 9.411-10.412 15.183-10.788-2.76,3.01-.627,4.643-5.521,8.029 7.905-.125 9.16-7.653 14.807-7.653 2.133-2.134 10.791-5.396 16.563-4.894-6.775,2.132-10.289,8.406-8.407,12.547 1.882-3.386 3.513-5.647 7.78-4.392-2.635,2.636-2.384,5.521-.753,7.279 .753-4.894 5.019-3.013 7.654-5.772 2.762,3.763-.627,7.903-2.76,10.165 8.658,0 16.061-15.813 25.222-21.207-.753,3.01-1.38,5.644.752,7.779-.25-3.64 1.882-5.02 5.521-4.894 3.639-.377 8.408-6.399 8.408-10.29 1.506,3.386-2.887,8.531-1.506,11.042 1.381,5.521 7.905,9.913 11.92,11.794-2.635-5.268-3.639-13.553.752-16.939 .126,2.887.126,5.019 4.142,5.897-.879,4.518 4.266,13.051 6.398,12.424-5.395-6.65 1.38-19.325 4.142-19.826-1.381,6.775 3.513,8.406 2.007,17.691 1.506-1.756 4.77-4.894 4.016-8.157 2.007-1.63 10.414-6.65 13.552-2.884 3.011-.251 3.89-5.646 7.654-6.65-.753,1.505-1.254,3.012-2.132,4.392-1.129,1.63-2.634,4.014-1.004,6.399 .752-3.263 6.147-8.785 10.163-6.399-5.522,1.505-5.395,4.766-6.272,8.155 .377,2.009.75,2.509 2.007,3.64-1.129-5.521 8.28-9.788 11.167-8.785-4.393,2.887 1.63,3.389-5.521,7.405 0,1.38.627,2.885.627,3.637 0,1.382-1.38,4.266-2.008,5.018 .878,1.756-.25,3.517-.752,5.145 6.022-3.133 3.638-5.77 10.287-10.916 3.138-.627 4.643-3.514 6.652-5.396 0-1.884 1.756-1.884 3.138-3.386-.755,1.63-5.521,9.409-5.521,11.543 4.265-5.774 7.276-6.524 11.164-9.412-1.379,3.262-1.379,5.145-.752,6.65 3.64-4.643 5.271-3.388 8.408-7.402 .72,2.5-5.05,5.26-2.42,9.03z" fill="#595959" stroke="#000" stroke-linecap="round" stroke-linejoin="round" stroke-miterlimit="2.4142" stroke-width=".1671"/>
  <path d="m311.47,26.269c-7.78,2.762-15.56,4.641-23.591,6.399-1.631.501-3.765,1.756-5.521,3.01 0,2.26-.627,2.511-2.511,4.267-2.886.504-4.516,2.762-6.399,4.894-.251,4.016-6.399,2.51-14.177,13.427-.252.502-1.258,1.63-2.136,3.637-6.147,1.884-10.54,4.018-14.556,7.656-2.634,2.885-3.762,6.398.881,9.286-7.78,8.532-7.153,9.914.501,14.557 15.058,5.019 24.216,0 35.136-4.017 1.253-1.756.25-2.886-.881-4.266-.878-1.63.753-3.891-2.76-6.901-1.63,2.511.251,4.644-1.253,8.409-2.136-2.887-3.515-4.771-8.409.249-3.515,1.632-7.904,2.51-12.925.502-1.631-.75-2.76-2.258-2.133-4.14 1.882-1.883 3.012,1.63 6.148,2.132 2.511-2.383 5.146-.502 7.654-.752 3.137-1.38 2.509-6.399 5.897-4.142 4.645,1.633 2.635-4.266 3.89-6.398 .755-3.136-2.509-5.521-.123-9.286-1.258-.752-1.258-1.38-2.386-2.132-2.763-3.388 3.765-.755 5.27-11.671 3.012-.249 8.031-1.129 7.781,1.883-.629,1.505-6.151,2.258-7.781,5.145 1.129.123 2.26.376 3.515.501 1.253,2.26.375,5.521-4.268,6.273 .753.753 1.255,2.385 2.635,2.887 1.13-.253 1.758-1.756 2.886-1.131-1.253,3.138.754,8.533 2.385,10.793-2.76-.501-4.265.377-5.271,2.007 2.008.502 3.764.25 5.648,1.128-.504,2.762-.128,6.399-1.508,9.663 2.887-.501 3.64-1.129 4.518-3.01 3.013,3.261-.502,4.265-2.509,6.399 2.007,2.258 2.76,6.901 4.769,7.402 1.003-1.63 1.631-7.279 2.51-8.782 1.63-3.388 3.263-1.382 3.388,1.38-.376,3.638.251,2.887-.753,5.019 2.007,1.63 2.634,3.01 4.769,2.383 1.38-1.881-1.382-4.392 1.129-5.521 3.387,8.659 6.901,5.521 10.039,9.788-10.666-18.068 2.759,1.882 6.148-3.89-4.519-.878-6.778-5.271-8.66-9.788-7.527,3.263-5.269-4.643-5.019-8.029 3.64-3.013.502-7.531 6.399-10.542-1.632-1.882-8.405,2.51-5.521-2.258 .88-1.254.502-2.132 1.256-3.512-10.163-1.005-2.636-2.636-1.632-4.768 3.388-5.897-2.384-3.264 0-6.65-.502-5.899 2.51-8.408-3.387-11.922 .376-3.138 4.515-.125 6.524-2.508 2.76-3.138.126-3.138.627-7.028-2.009,3.891-7.904,5.019-11.418,10.289-2.26-1.128 1.004-4.139 1.882-5.27 1.632-3.263.878-3.263-.753-3.263-2.007,2.135-4.017,4.267-6.148,6.399l-1.129,7.154c-1.128,1.883-2.761,1.883-2.761-2.007 1.633-1.381 2.51-2.508.501-3.891-.376-1.256-.753-2.383-1.129-3.514 4.769,1.131 6.525-2.383 6.649-5.142 3.014,0 4.393-.253 5.521-2.51 4.392,2.759 6.401-.627 9.536-4.017 .74-.759 2.37-1.512 3-2.264z" stroke="#000" stroke-linecap="round" stroke-linejoin="round" stroke-miterlimit="2.4142" stroke-width=".3898"/>
  <path d="m306.07,37.813c.753,0 1.38.752 1.38,1.505 0,.755-.627,1.38-1.38,1.38s-1.38-.625-1.38-1.38 .63-1.505 1.38-1.505z" fill="#fff"/>
  <path d="m345.34,18.739c.628,4.267.753,10.292-.25,15.56 6.524,1.756 14.932-4.891 20.954-2.759-.375,3.89-2.006,5.772-4.267,7.655-1.631.249-6.398-.378-7.778-.629-4.894,1.129-8.659,2.762-13.427,3.138-3.01-.752-4.265-5.145-4.265-8.157 2.007-1.505 4.013-2.885 5.897-5.02 1.26-3.261 1.89-5.647 3.14-9.788z" stroke="#000" stroke-linecap="round" stroke-linejoin="round" stroke-miterlimit="2.4142" stroke-width=".3898"/>
  <path d="m363.17,36.559c-.755-2.637-4.017-4.769-6.652-6.025-.502,1.256 1.883,5.144 1.883,7.906 1.5.251 4.39-.753 4.77-1.881z" fill="#fff" stroke="#000" stroke-linecap="round" stroke-linejoin="round" stroke-miterlimit="2.4142" stroke-width=".5569"/>
  <path d="m60.008,331.31c1.505-1.757.626-4.142-.377-5.523m7.779,5.02c1.882-1.131 1.506-3.639.879-5.271m49.061,5.65c1.506-2.263 1.632-4.52 0-6.276m9.16,5.02c2.384-2.008 1.381-4.516 0-6.65m159.74-4.02c1.255-2.635 1.631-6.275-.752-9.536m-24.48,5.02c1.882-.876 3.513-4.895 2.761-7.402" fill="none" stroke="#000" stroke-linecap="round" stroke-linejoin="round" stroke-miterlimit="2.4142" stroke-width=".3898"/>
 </g>
</svg>
